<?xml version="1.0" encoding="UTF-8"?>
<svg width="178px" height="110px" viewBox="0 0 178 110" version="1.1" xmlns="http://www.w3.org/2000/svg" xmlns:xlink="http://www.w3.org/1999/xlink">
    <!-- Generator: Sketch 60.1 (88133) - https://sketch.com -->
    <title>illu/3pieces</title>
    <desc>Created with Sketch.</desc>
    <g id="Formulaire-sign-up" stroke="none" stroke-width="1" fill="none" fill-rule="evenodd">
        <g id="Formulaire_achat_logement2" transform="translate(-912.000000, -459.000000)">
            <g id="illu/3pieces" transform="translate(908.000000, 444.000000)">
                <path d="M8.42008396,87.5079229 C9.54128109,89.5872341 11.9208613,90.4798368 11.9208613,90.4798368 C11.9208613,90.4798368 12.4826244,88.0012127 11.3614257,85.9219014 C10.240227,83.8425902 7.86064832,82.9499876 7.86064832,82.9499876 C7.86064832,82.9499876 7.29888682,85.4286132 8.42008396,87.5079229 Z" id="Path" fill="#3F3D56" fill-rule="nonzero"></path>
                <path d="M9.19072606,86.8238448 C11.2149487,88.0416853 11.9945414,90.4606514 11.9945414,90.4606514 C11.9945414,90.4606514 9.49221859,90.9051088 7.46799596,89.6872683 C5.44377332,88.4694279 4.66418688,86.0504618 4.66418688,86.0504618 C4.66418688,86.0504618 7.16650187,85.6060044 9.19072606,86.8238448 Z" id="Path" fill="#38D39F" fill-rule="nonzero"></path>
                <path d="M115.15953,53.0117739 C115.15953,69.6371424 105.276014,75.4420989 93.084078,75.4420989 C80.8921424,75.4420989 71.0086241,69.6371424 71.0086241,53.0117739 C71.0086241,36.3864055 93.084078,15.2363246 93.084078,15.2363246 C93.084078,15.2363246 115.15953,36.386407 115.15953,53.0117739 Z" id="Path" fill="#F2F2F2" fill-rule="nonzero"></path>
                <polygon id="Path" fill="#3F3D56" fill-rule="nonzero" points="92.2798507 72.8989428 92.505908 58.9849192 101.915112 41.7714552 92.5413557 56.8022388 92.6430348 50.5460199 99.1277985 38.0921953 92.6699316 48.8903918 92.6699316 48.8903918 92.8527674 37.6382152 99.7967973 27.7234142 92.8815299 35.8687811 92.9956468 15.2363184 92.2779851 42.5500622 92.3369092 41.423352 85.2768968 30.61676 92.2237251 43.5862873 91.5659204 56.1529851 91.5463308 55.8194963 83.4073383 44.4472948 91.5216107 56.9978234 91.4393657 58.5694963 91.4245958 58.5931281 91.4314366 58.7221704 89.7624378 90.6050995 91.9922264 90.6050995 92.2597948 74.1368159 100.354167 61.6170709"></polygon>
                <path d="M176.882167,53.0117739 C176.882167,69.6371424 166.99865,75.4420989 154.806715,75.4420989 C142.614779,75.4420989 132.731261,69.6371424 132.731261,53.0117739 C132.731261,36.3864055 154.806715,15.2363246 154.806715,15.2363246 C154.806715,15.2363246 176.882167,36.386407 176.882167,53.0117739 Z" id="Path" fill="#F2F2F2" fill-rule="nonzero"></path>
                <polygon id="Path" fill="#3F3D56" fill-rule="nonzero" points="154.002488 72.8989428 154.228545 58.9849192 163.637749 41.7714552 154.263993 56.8022388 154.365672 50.5460199 160.850435 38.0921953 154.392568 48.8903918 154.392568 48.8903918 154.575404 37.6382152 161.519434 27.7234142 154.604167 35.8687811 154.718284 15.2363184 154.000622 42.5500622 154.059546 41.423352 146.999534 30.61676 153.946362 43.5862873 153.288557 56.1529851 153.268968 55.8194963 145.129975 44.4472948 153.244248 56.9978234 153.162002 58.5694963 153.147233 58.5931281 153.154073 58.7221704 151.485075 90.6050995 153.714863 90.6050995 153.982432 74.1368159 162.076803 61.6170709"></polygon>
                <polygon id="Path" fill="#3F3D56" fill-rule="nonzero" points="10.9301928 73.792755 9.69060945 71.7266791 21.2602612 61.809857 51.0110386 61.809857 51.0110386 64.7022699 40.2677239 76.2719216 27.8715796 78.7512438"></polygon>
                <polygon id="Path" fill="#CCCCCC" fill-rule="nonzero" points="56.1323072 67.6295087 56.1323072 61.1646455 52.2372512 61.1646455 52.2372512 63.2032027 51.0110386 61.809857 41.0940609 71.7266791 39.4412313 73.3795087 37.3753109 81.6436567 41.0940609 90.7341418 60.1015236 90.7341418 60.1015236 72.1399254"></polygon>
                <rect id="Rectangle" fill="#F2F2F2" fill-rule="nonzero" x="9.69056748" y="71.7267397" width="31.4035525" height="19.0074145"></rect>
                <rect id="Rectangle" fill="#3F3D56" fill-rule="nonzero" x="30.1441962" y="77.7182074" width="6.61127488" height="5.78486474"></rect>
                <rect id="Rectangle" fill="#CCCCCC" fill-rule="nonzero" x="21.6735012" y="77.511606" width="5.78486474" height="13.2225482"></rect>
                <polygon id="Path" fill="#3F3D56" fill-rule="nonzero" points="15.0621891 79.5775808 15.0621891 77.5116604 12.5830224 77.5116604 12.5830224 79.5775808 14.8555659 79.5775808"></polygon>
                <polygon id="Path" fill="#3F3D56" fill-rule="nonzero" points="14.8555659 81.2304104 12.5830224 81.2304104 12.5830224 83.2964863 15.0621891 83.2964863 15.0621891 81.2304104"></polygon>
                <rect id="Rectangle" fill="#3F3D56" fill-rule="nonzero" x="16.7150451" y="77.511606" width="2.4792273" height="2.06602301"></rect>
                <rect id="Rectangle" fill="#3F3D56" fill-rule="nonzero" x="16.7150451" y="81.2304478" width="2.4792273" height="2.06602301"></rect>
                <polygon id="Path" fill="#3F3D56" fill-rule="nonzero" points="49.9780784 79.784204 49.9780784 77.7182836 47.4987562 77.7182836 47.4987562 79.784204 49.7714552 79.784204"></polygon>
                <polygon id="Path" fill="#3F3D56" fill-rule="nonzero" points="49.7714552 81.4370336 47.4987562 81.4370336 47.4987562 83.5031095 49.9780784 83.5031095 49.9780784 81.4370336"></polygon>
                <rect id="Rectangle" fill="#3F3D56" fill-rule="nonzero" x="51.630838" y="77.7182074" width="2.4792273" height="2.06602301"></rect>
                <rect id="Rectangle" fill="#3F3D56" fill-rule="nonzero" x="51.630838" y="81.4370491" width="2.4792273" height="2.06602301"></rect>
                <polygon id="Path" fill="#3F3D56" fill-rule="nonzero" points="70.5553483 73.7814055 69.3157649 71.7154851 80.8855721 61.7985075 110.636194 61.7985075 110.636194 64.6909204 99.8928794 76.2607276 87.4967351 78.7398943"></polygon>
                <polygon id="Path" fill="#CCCCCC" fill-rule="nonzero" points="115.757618 67.6181592 115.757618 61.153296 111.862407 61.153296 111.862407 63.1918532 110.636194 61.7985075 100.719372 71.7154851 99.0665423 73.3681592 97.0004664 81.6323072 100.719372 90.7227923 119.726679 90.7227923 119.726679 72.1285759"></polygon>
                <rect id="Rectangle" fill="#F2F2F2" fill-rule="nonzero" x="69.3157945" y="71.7154198" width="31.4035525" height="19.0074145"></rect>
                <rect id="Rectangle" fill="#3F3D56" fill-rule="nonzero" x="89.7694248" y="77.7068859" width="6.61127488" height="5.78486474"></rect>
                <rect id="Rectangle" fill="#CCCCCC" fill-rule="nonzero" x="81.2987282" y="77.5002845" width="5.78486474" height="13.2225482"></rect>
                <polygon id="Path" fill="#3F3D56" fill-rule="nonzero" points="74.6875 79.5662313 74.6875 77.5003109 72.2081779 77.5003109 72.2081779 79.5662313 74.4808769 79.5662313"></polygon>
                <polygon id="Path" fill="#3F3D56" fill-rule="nonzero" points="74.4808769 81.2190609 72.2081779 81.2190609 72.2081779 83.2851368 74.6875 83.2851368 74.6875 81.2190609"></polygon>
                <rect id="Rectangle" fill="#3F3D56" fill-rule="nonzero" x="76.3402736" y="77.5002845" width="2.4792273" height="2.06602301"></rect>
                <rect id="Rectangle" fill="#3F3D56" fill-rule="nonzero" x="76.3402736" y="81.2191262" width="2.4792273" height="2.06602301"></rect>
                <polygon id="Path" fill="#3F3D56" fill-rule="nonzero" points="109.603234 79.7728545 109.603234 77.7069341 107.124067 77.7069341 107.124067 79.7728545 109.396611 79.7728545"></polygon>
                <polygon id="Path" fill="#3F3D56" fill-rule="nonzero" points="109.396611 81.4256841 107.124067 81.4256841 107.124067 83.49176 109.603234 83.49176 109.603234 81.4256841"></polygon>
                <rect id="Rectangle" fill="#3F3D56" fill-rule="nonzero" x="111.256067" y="77.7068859" width="2.4792273" height="2.06602301"></rect>
                <rect id="Rectangle" fill="#3F3D56" fill-rule="nonzero" x="111.256067" y="81.4257292" width="2.4792273" height="2.06602301"></rect>
                <polygon id="Path" fill="#3F3D56" fill-rule="nonzero" points="128.391169 73.7814055 127.151586 71.7154851 138.721393 61.7985075 168.472015 61.7985075 168.472015 64.6909204 157.7287 76.2607276 145.332556 78.7398943"></polygon>
                <polygon id="Path" fill="#CCCCCC" fill-rule="nonzero" points="173.593439 67.6181592 173.593439 61.153296 169.698228 61.153296 169.698228 63.1918532 168.472015 61.7985075 158.555193 71.7154851 156.902363 73.3681592 154.836287 81.6323072 158.555193 90.7227923 177.5625 90.7227923 177.5625 72.1285759"></polygon>
                <rect id="Rectangle" fill="#F2F2F2" fill-rule="nonzero" x="127.151615" y="71.7154198" width="31.4035525" height="19.0074145"></rect>
                <rect id="Rectangle" fill="#3F3D56" fill-rule="nonzero" x="147.605246" y="77.7068859" width="6.61127488" height="5.78486474"></rect>
                <rect id="Rectangle" fill="#CCCCCC" fill-rule="nonzero" x="139.134549" y="77.5002845" width="5.78486474" height="13.2225482"></rect>
                <polygon id="Path" fill="#3F3D56" fill-rule="nonzero" points="132.523321 79.5662313 132.523321 77.5003109 130.043999 77.5003109 130.043999 79.5662313 132.316698 79.5662313"></polygon>
                <polygon id="Path" fill="#3F3D56" fill-rule="nonzero" points="132.316698 81.2190609 130.043999 81.2190609 130.043999 83.2851368 132.523321 83.2851368 132.523321 81.2190609"></polygon>
                <rect id="Rectangle" fill="#3F3D56" fill-rule="nonzero" x="134.176095" y="77.5002845" width="2.4792273" height="2.06602301"></rect>
                <rect id="Rectangle" fill="#3F3D56" fill-rule="nonzero" x="134.176095" y="81.2191262" width="2.4792273" height="2.06602301"></rect>
                <polygon id="Path" fill="#3F3D56" fill-rule="nonzero" points="167.439055 79.7728545 167.439055 77.7069341 164.959888 77.7069341 164.959888 79.7728545 167.232432 79.7728545"></polygon>
                <polygon id="Path" fill="#3F3D56" fill-rule="nonzero" points="167.232432 81.4256841 164.959888 81.4256841 164.959888 83.49176 167.439055 83.49176 167.439055 81.4256841"></polygon>
                <rect id="Rectangle" fill="#3F3D56" fill-rule="nonzero" x="169.091887" y="77.7068859" width="2.4792273" height="2.06602301"></rect>
                <rect id="Rectangle" fill="#3F3D56" fill-rule="nonzero" x="169.091887" y="81.4257292" width="2.4792273" height="2.06602301"></rect>
                <rect id="Rectangle" fill="#3F3D56" fill-rule="nonzero" x="122.680732" y="78.4510976" width="1" height="12.2823383"></rect>
                <path d="M125.86135,80.0163402 C125.881144,84.3111676 122.859506,87.8068128 122.859506,87.8068128 C122.859506,87.8068128 119.805774,84.3391682 119.785979,80.0443408 C119.766185,75.7495134 122.787825,72.2538666 122.787825,72.2538666 C122.787825,72.2538666 125.841556,75.7215127 125.86135,80.0163402 Z" id="Path" fill="#38D39F" fill-rule="nonzero"></path>
                <rect id="Rectangle" fill="#3F3D56" fill-rule="nonzero" x="66.0886925" y="78.1401524" width="1" height="12.2823383"></rect>
                <path d="M69.2693097,79.7053949 C69.2891045,84.0002223 66.2674658,87.4958675 66.2674658,87.4958675 C66.2674658,87.4958675 63.2137345,84.0282229 63.1939397,79.7333955 C63.1741449,75.4385681 66.1957851,71.9429213 66.1957851,71.9429213 C66.1957851,71.9429213 69.2495165,75.4105675 69.2693097,79.7053949 Z" id="Path" fill="#38D39F" fill-rule="nonzero"></path>
                <path d="M69.2693097,79.7053949 C69.2891045,84.0002223 66.2674658,87.4958675 66.2674658,87.4958675 C66.2674658,87.4958675 63.2137345,84.0282229 63.1939397,79.7333955 C63.1741449,75.4385681 66.1957851,71.9429213 66.1957851,71.9429213 C66.1957851,71.9429213 69.2495165,75.4105675 69.2693097,79.7053949 Z" id="Path" fill="#000000" fill-rule="nonzero" opacity="0.1"></path>
                <rect id="Rectangle" fill="#3F3D56" fill-rule="nonzero" x="62.0464039" y="78.1401524" width="1" height="12.2823383"></rect>
                <path d="M65.2270211,79.7053949 C65.2468159,84.0002223 62.2251772,87.4958675 62.2251772,87.4958675 C62.2251772,87.4958675 59.1714459,84.0282229 59.1516511,79.7333955 C59.1318563,75.4385681 62.1534966,71.9429213 62.1534966,71.9429213 C62.1534966,71.9429213 65.2072279,75.4105675 65.2270211,79.7053949 Z" id="Path" fill="#38D39F" fill-rule="nonzero"></path>
                <rect id="Rectangle" fill="#3F3D56" fill-rule="nonzero" x="5.24037624" y="90.423209" width="176.772388" height="1"></rect>
                <path d="M45.2623601,81.1197823 C45.2623601,81.1197823 45.4216169,81.3022917 45.1487438,81.6554244 C44.8758706,82.0085572 45.0962096,82.7748274 45.6146284,82.7943424 C46.1330473,82.8138573 46.3844496,83.0309919 46.2594652,83.3170118 C46.1344807,83.6030317 45.9842926,84.2826617 46.5488713,84.1793237 C47.1134499,84.0759857 47.2918828,84.3007478 47.1919294,84.4734981 C47.0919761,84.6462484 47.4436769,84.1299518 47.4436769,84.1299518 C47.4436769,84.1299518 47.7582867,84.5986552 48.1444325,84.2705535 C48.5305784,83.9424518 48.6841029,80.9682836 47.8968859,80.9178747 C47.1096688,80.8674658 45.2623601,81.1197823 45.2623601,81.1197823 Z" id="Path" fill="#2F2E41" fill-rule="nonzero"></path>
                <polygon id="Path" fill="#FFB8B8" fill-rule="nonzero" points="49.2532649 95.2635261 49.4325249 96.5192786 50.2398943 96.5192786 49.9707711 95.0841107"></polygon>
                <path d="M50.3295585,95.756903 C50.3295585,95.756903 51.4059157,96.7435634 51.1368268,96.8332603 C50.8677379,96.9229571 49.8810743,97.999305 49.7016838,98.0890127 C49.541236,98.1692366 47.8180597,98.7168874 48.0871486,98.0890127 C48.2850341,97.6807128 48.5964647,97.3381396 48.9841138,97.1023523 L49.1635059,96.0259966 L50.3295585,95.756903 Z" id="Path" fill="#F2F2F2" fill-rule="nonzero"></path>
                <path d="M50.3295585,95.756903 C50.3295585,95.756903 51.4059157,96.7435634 51.1368268,96.8332603 C50.8677379,96.9229571 49.8810743,97.999305 49.7016838,98.0890127 C49.541236,98.1692366 47.8180597,98.7168874 48.0871486,98.0890127 C48.2850341,97.6807128 48.5964647,97.3381396 48.9841138,97.1023523 L49.1635059,96.0259966 L50.3295585,95.756903 Z" id="Path" fill="#000000" fill-rule="nonzero" opacity="0.1"></path>
                <polygon id="Path" fill="#FFB8B8" fill-rule="nonzero" points="50.329602 94.3218284 50.5090174 95.5775808 51.3162313 95.5775808 51.0471082 94.1424129"></polygon>
                <path d="M46.9564101,90.9883675 L48.1319978,87.1012018 C48.1319978,87.1012018 46.1586769,85.307273 47.5041231,84.7690951 C48.8495693,84.2309173 49.2083535,86.9218035 49.2083535,86.9218035 L48.7598725,91.5860168 L46.9659437,91.5860168 L46.9564101,90.9883675 Z" id="Path" fill="#FFB8B8" fill-rule="nonzero"></path>
                <path d="M49.7016838,88.1327099 C49.7016838,88.1327099 47.3834546,91.106065 47.7353016,91.5478591 C48.0871486,91.9896533 48.7150233,94.6805473 48.7150233,94.6805473 C48.7150233,94.6805473 48.625328,95.756903 48.9841138,95.756903 C49.3428996,95.756903 50.2398663,95.5775109 50.2398663,95.308422 C50.2398663,95.039333 49.4325979,91.6308722 49.4325979,91.6308722 L51.7647046,88.581194 L49.7016838,88.1327099 Z" id="Path" fill="#38D39F" fill-rule="nonzero"></path>
                <path d="M49.8810712,88.312102 L52.2131779,87.0563495 C52.2131779,87.0563495 53.827713,87.8636178 53.3792226,88.5811878 C52.9307323,89.2987578 50.8677177,91.1823834 50.8677177,91.1823834 C50.8677177,91.1823834 51.4955924,94.2320616 51.4058955,94.3217584 C51.3161987,94.4114552 50.3295382,94.7702394 50.0604493,94.6805442 C49.7913604,94.5908489 48.3562189,91.0926881 48.7150031,90.9132867 C49.0737873,90.7338853 50.239843,88.8502705 50.239843,88.8502705 L49.8810712,88.312102 Z" id="Path" fill="#38D39F" fill-rule="nonzero"></path>
                <path d="M43.5126337,122.629935 C43.5126337,122.629935 45.1271688,123.616595 45.3065609,123.616595 C45.485953,123.616595 47.9077565,124.24447 46.8313993,124.692951 C45.755042,125.141432 41.6290081,124.513559 41.7187049,124.24447 C41.8084017,123.975381 41.7187049,122.360844 41.898097,122.360844 C42.0774891,122.360844 43.5126337,122.629935 43.5126337,122.629935 Z" id="Path" fill="#2F2E41" fill-rule="nonzero"></path>
                <path d="M45.3065609,122.48643 C45.3065609,122.48643 46.9210961,123.473091 47.1004882,123.473091 C47.2798803,123.473091 49.7016838,124.100965 48.625328,124.549447 C47.5489723,124.997928 43.4229369,124.370054 43.5126337,124.100965 C43.6023305,123.831877 43.5126337,122.217341 43.6920258,122.217341 C43.8714179,122.217341 45.3065609,122.48643 45.3065609,122.48643 Z" id="Path" fill="#2F2E41" fill-rule="nonzero"></path>
                <path d="M43.4468563,103.78174 C43.4468563,103.78174 43.8714179,106.215493 44.3199005,107.202153 C44.7683831,108.188814 44.2302037,112.853027 43.9611147,113.570599 C43.6920258,114.28817 41.0908302,122.809327 41.898097,122.899024 C42.7053638,122.98872 44.3198943,122.899024 44.3198943,122.899024 L46.9210899,114.736651 L46.4726135,103.793694 L43.4468563,103.78174 Z" id="Path" fill="#575A88" fill-rule="nonzero"></path>
                <path d="M43.4468563,103.78174 C43.4468563,103.78174 43.8714179,106.215493 44.3199005,107.202153 C44.7683831,108.188814 44.2302037,112.853027 43.9611147,113.570599 C43.6920258,114.28817 41.0908302,122.809327 41.898097,122.899024 C42.7053638,122.98872 44.3198943,122.899024 44.3198943,122.899024 L46.9210899,114.736651 L46.4726135,103.793694 L43.4468563,103.78174 Z" id="Path" fill="#000000" fill-rule="nonzero" opacity="0.1"></path>
                <path d="M44.1405084,103.560485 C44.1405084,103.560485 44.4992926,105.982282 45.3065532,106.520466 C46.1138137,107.05865 45.844731,107.596824 45.844731,107.596824 L45.485953,112.350737 C45.485953,112.350737 41.9877938,120.961589 43.0641558,122.037948 C44.1405177,123.114307 45.1271735,122.665822 45.5756608,122.576126 C46.024148,122.486429 46.8314132,120.602806 46.3829291,120.064621 C45.934445,119.526435 47.2798927,116.297373 47.6386816,115.759195 C47.9974705,115.221017 47.6386816,114.503442 48.0871626,114.324052 C48.5356437,114.144661 49.5223057,112.978605 49.5223057,112.171339 C49.5223057,111.364072 50.7780581,102.753217 49.9707882,102.215037 C49.1635183,101.676858 43.9889925,103.325794 43.9889925,103.325794 L44.1405084,103.560485 Z" id="Path" fill="#575A88" fill-rule="nonzero"></path>
                <circle id="Oval" fill="#FFB8B8" fill-rule="nonzero" cx="42.4362764" cy="89.0296735" r="1.9733209"></circle>
                <circle id="Oval" fill="#FFB8B8" fill-rule="nonzero" cx="46.9210961" cy="81.8539614" r="1.61453514"></circle>
                <path d="M43.7817242,89.0296735 C43.7817242,89.0296735 44.8580799,91.0029944 45.3962593,91.0029944 C45.9344387,91.0029944 43.2435448,93.0660121 43.2435448,93.0660121 C43.2435448,93.0660121 42.3465812,90.4648165 42.1671891,90.3751197 C41.987797,90.2854229 43.7817242,89.0296735 43.7817242,89.0296735 Z" id="Path" fill="#FFB8B8" fill-rule="nonzero"></path>
                <path d="M44.1405084,90.8236023 C44.1405084,90.8236023 41.8084017,91.6308691 41.898097,91.899958 C41.9877923,92.169047 41.2702223,92.7969216 41.2702223,93.0660121 C41.2702223,93.3351026 41.0908302,95.756903 42.1671875,97.7302239 C43.2435448,99.7035448 44.947769,101.138688 44.1405084,102.035651 C43.3332478,102.932615 42.0774907,104.457449 43.4229369,104.457449 C44.7683831,104.457449 46.9210961,102.484129 48.894417,103.201696 C50.8677379,103.919263 50.4192553,101.228375 50.4192553,101.228375 C50.4192553,101.228375 50.6883442,99.1653591 50.1501664,98.5374845 C49.6119885,97.9096098 47.7283691,93.4247901 47.7283691,92.8866107 C47.7283691,92.3484313 45.9344356,90.2854229 45.485953,90.2854229 C45.0374705,90.2854229 44.1405084,90.8236023 44.1405084,90.8236023 Z" id="Path" fill="#8985A8" fill-rule="nonzero"></path>
                <g id="Group" transform="translate(0.054890, 0.124540)"></g>
                <path d="M47.3695787,82.8406219 C47.3695787,82.8406219 48.0999782,84.2293361 48.1384126,84.476791 C48.176847,84.724246 49.4325948,82.8406219 49.4325948,82.8406219 L47.9974534,81.8539614 L47.3695787,82.8406219 Z" id="Path" fill="#FFB8B8" fill-rule="nonzero"></path>
                <path d="M47.6386676,83.9169838 L49.1635059,82.3024487 L50.9574347,83.1097155 C50.9574347,83.1097155 52.6305068,86.7872652 52.735782,87.0563573 C52.8410572,87.3254493 50.0604695,88.5811956 49.7913806,88.5811956 C49.5222917,88.5811956 47.6386676,85.8006079 47.6386676,85.8006079 C47.6386676,85.8006079 47.190185,84.455157 47.6386676,83.9169838 Z" id="Path" fill="#F2F2F2" fill-rule="nonzero"></path>
                <polygon id="Path" fill="#FFB8B8" fill-rule="nonzero" points="46.9210199 86.0696517 46.9210199 87.6842351 47.9975124 87.6842351 47.6435012 86.0696517"></polygon>
                <path d="M47.5352192,87.2805939 C47.2567112,87.2768278 47.005011,87.4460193 46.9033458,87.7053358 C46.8332276,87.8949689 46.8570274,88.0942677 47.190185,88.1775575 C47.9077565,88.3569512 47.9974534,88.1775575 47.9974534,88.1775575 C47.9974534,88.1775575 49.2431157,87.9981654 48.9790703,87.6393797 C48.7150249,87.2805939 47.9974534,87.2805939 47.9974534,87.2805939 L47.5352192,87.2805939 Z" id="Path" fill="#FFB8B8" fill-rule="nonzero"></path>
                <path d="M51.4059157,95.0393408 C51.4059157,95.0393408 52.482273,96.0260012 52.2131841,96.1156965 C51.9440951,96.2053918 50.9574316,97.2817506 50.778041,97.371449 C50.6175933,97.4516729 48.894417,97.9993237 49.1635059,97.371449 C49.3613905,96.963149 49.6728207,96.6205757 50.0604695,96.3847886 L50.2398632,95.3084328 L51.4059157,95.0393408 Z" id="Path" fill="#F2F2F2" fill-rule="nonzero"></path>
                <path d="M41.7331872,87.5107043 C41.8566449,87.4383613 42.0024534,87.3482634 42.0059795,87.2052146 C41.9994027,87.0978038 41.9297663,87.0045146 41.8286598,86.9676664 C41.72913,86.9333263 41.6237636,86.9191272 41.518694,86.9258955 C41.4783797,86.9238367 41.4379848,86.9278402 41.3988588,86.9377721 C41.2966869,86.9692864 41.237828,87.0730333 41.1573539,87.1434235 C41.0297846,87.2327804 40.883262,87.2913938 40.72926,87.3146735 C40.4774613,87.3800057 40.2359849,87.480077 40.0117848,87.6120056 C39.9675094,87.6343925 39.9287323,87.6662931 39.8982307,87.7054229 C39.8629575,87.7774846 39.8472266,87.8575458 39.8526119,87.9375964 C39.8323632,88.2419232 39.6499052,88.5068284 39.5136956,88.7797248 C39.377486,89.0526213 39.2880006,89.3925746 39.4478731,89.6523181 C39.5113239,89.7331393 39.5705385,89.8171982 39.6252783,89.9041558 C39.7385821,90.1402534 39.5971673,90.4309608 39.6790314,90.6797139 C39.7156671,90.777635 39.7744433,90.8657615 39.8507696,90.9372108 C40.0082871,91.0958483 40.2023666,91.2133573 40.4159437,91.2794061 C40.6197683,91.3421673 40.8726664,91.3839925 40.9524969,91.5817646 C40.9701955,91.6712459 40.9954774,91.7590587 41.028069,91.8442522 C41.1017244,91.9320529 41.2083575,91.985554 41.3227736,91.9921144 C41.4478856,92.0207237 41.5766355,92.0300415 41.7045631,92.019745 C41.8338532,92.00857 41.9528987,91.9448464 42.0338977,91.8434562 C42.0700596,91.7726523 42.1148501,91.7065988 42.1672466,91.6468035 C42.2971206,91.5382587 42.4943937,91.6239941 42.6611925,91.5952317 C42.7991693,91.5692004 42.9095656,91.4655821 42.9442755,91.3295289 C42.948853,91.2585402 42.9684366,91.1893299 43.0017335,91.1264677 C43.1053172,90.9939132 43.3778747,91.0874907 43.446264,90.9337935 C43.4907027,90.833921 43.3977301,90.7284142 43.3078312,90.6662251 C43.1539086,90.5764259 43.0062612,90.4762784 42.865908,90.3664739 C42.7240392,90.2527714 42.6527276,90.0726257 42.6783333,89.8926275 C42.740056,89.632556 43.079616,89.4893563 43.090866,89.2222963 C43.0811444,89.0669048 42.9966873,88.9258713 42.864291,88.8439428 C42.7334194,88.7645881 42.6079086,88.6767118 42.4885712,88.5808831 C42.4081499,88.5030317 42.3475078,88.4053343 42.2600855,88.3354369 C42.0874575,88.2277604 41.8877524,88.1714317 41.6843019,88.1730317 C41.5762951,88.1619465 41.145468,88.1120522 41.162416,87.9475311 C41.1764925,87.8108971 41.6235588,87.574944 41.7331872,87.5107043 Z" id="Path" fill="#2F2E41" fill-rule="nonzero"></path>
                <path d="M47.6386676,83.8272761 C47.6386676,83.8272761 46.6520072,84.1860619 46.6520072,84.6345445 C46.6520072,85.0830271 46.2035246,86.5181685 46.6520072,86.5181685 C47.1004897,86.5181685 47.9974534,86.1738619 47.9974534,86.1738619 L47.6386676,83.8272761 Z" id="Path" fill="#F2F2F2" fill-rule="nonzero"></path>
                <path d="M47.3695787,90.2854229 C47.3695787,90.2854229 49.9707743,89.3884593 50.0604695,89.3884593 C50.1501648,89.3884593 51.4059157,88.6708877 51.316222,88.4017988 L50.9574378,86.159389 C50.9574378,86.159389 49.5222948,83.1994076 50.5089552,83.1994076 C51.4956157,83.1994076 52.0337935,85.5315143 52.0337935,85.5315143 C52.0337935,85.5315143 54.1865081,89.5678514 53.020454,90.4648165 C51.8543999,91.3617817 47.010796,92.9763215 46.7417071,92.7072264 C46.4726182,92.4381312 47.3695787,90.2854229 47.3695787,90.2854229 Z" id="Path" fill="#FFB8B8" fill-rule="nonzero"></path>
                <path d="M49.8810712,84.455157 L50.4865221,85.0386116 L49.7016775,85.8006032 C49.7016775,85.8006032 48.6253218,85.3521206 48.7150171,85.6212111 C48.8047124,85.8903016 49.3428933,86.6975669 49.7016775,86.6975669 C50.0604618,86.6975669 51.9277814,85.5315221 51.9359344,85.1727285 C51.9440874,84.813935 50.7780348,83.5581934 50.5089459,83.4684966 C50.239857,83.3787998 49.8810712,84.455157 49.8810712,84.455157 Z" id="Path" fill="#FFB8B8" fill-rule="nonzero"></path>
                <path d="M48.7426275,83.8299269 C48.7426275,83.8299269 50.0604695,84.9933287 50.2398632,84.9933287 C50.4192568,84.9933287 50.7455068,83.2453498 50.7455068,83.2453498 C50.7455068,83.2453498 49.6822108,82.5525373 49.2883131,82.7414272 C48.8944154,82.9303172 48.7426275,83.8299269 48.7426275,83.8299269 Z" id="Path" fill="#F2F2F2" fill-rule="nonzero"></path>
                <path d="M44.1405084,91.3617802 C44.1405084,91.3617802 44.1405084,90.1060277 46.8313993,90.1060277 L47.9974534,90.1060277 L47.4592739,93.066009 L45.6653467,93.6041869 L44.1405084,91.3617802 Z" id="Path" fill="#8985A8" fill-rule="nonzero"></path>
                <path d="M50.0184204,81.1995896 C49.7547033,81.1983191 49.4912713,81.182072 49.2293968,81.1509266 C49.0237298,80.6539164 48.7617848,80.2368859 48.4784297,80.081407 C48.2493751,79.9058403 47.9949063,79.7661999 47.7237842,79.6672932 C47.1261334,79.4133893 46.1312422,79.5717568 46.0730815,79.8605177 C44.8970662,80.4224471 45.1942444,81.4092879 45.1942444,81.4092879 C45.3769729,81.7955442 45.786917,81.6243579 46.1346984,81.4494372 C46.2007898,81.7356171 46.441452,81.9481589 46.733607,81.978366 C47.307912,81.9999891 47.5864148,82.2405239 47.4479571,82.5573803 C47.3094994,82.8742366 47.1431203,83.6271253 47.7685603,83.5126461 C48.3940003,83.398167 48.5916682,83.6471626 48.4809359,83.8385339 C48.3702037,84.0299052 48.7598228,83.457954 48.7598228,83.457954 C48.7598228,83.457954 49.1083473,83.9771844 49.5361194,83.6137111 C49.5793747,83.5720454 49.610225,83.5191981 49.6252394,83.4610463 C49.759507,83.5402798 49.9179896,83.5680301 50.0711909,83.5391325 C50.583579,83.3098772 50.2653623,82.7715423 50.2653623,82.7715423 C50.2653623,82.7715423 50.9494061,82.666606 50.7289956,82.6840019 C50.5085852,82.7013977 50.3691496,82.4156919 50.7421035,81.9007307 C51.1150575,81.3857696 50.3640081,81.2112764 50.0184204,81.1995896 Z" id="Path" fill="#2F2E41" fill-rule="nonzero"></path>
                <polygon id="Rectangle" fill="#38D39F" fill-rule="nonzero" transform="translate(46.293228, 81.136389) rotate(18.406790) translate(-46.293228, -81.136389) " points="46.1586831 80.7327546 46.4277721 80.7327546 46.4277721 81.5400229 46.1586831 81.5400229"></polygon>
                <rect id="Rectangle" fill="#3F3D56" fill-rule="nonzero" x="20.9431126" y="124.627189" width="44.6206468" height="1"></rect>
                <rect id="Rectangle" fill="#3F3D56" fill-rule="nonzero" x="116.869729" y="110.012761" width="44.6206468" height="1"></rect>
                <path d="M149.784818,82.0884049 L152.292262,81.5991465 C152.292262,81.5991465 152.903834,79.5198025 153.637722,79.764431 C154.371611,80.0090594 153.148465,82.0884049 153.148465,82.0884049 L149.662505,83.6784888 L149.784818,82.0884049 Z" id="Path" fill="#A0616A" fill-rule="nonzero"></path>
                <path d="M134.556681,84.1677488 L133.455852,85.5743641 C133.455852,85.5743641 131.865765,85.5132058 132.355023,86.3694076 C132.844282,87.2256095 133.945109,86.7363495 134.006267,86.5528778 C134.067425,86.3694061 135.840983,84.7793206 135.840983,84.7793206 L134.556681,84.1677488 Z" id="Path" fill="#A0616A" fill-rule="nonzero"></path>
                <path d="M139.051734,82.5470833 L139.969092,82.0578265 C139.969092,82.0578265 143.883151,81.7520398 145.350924,82.7305566 C146.818696,83.7090734 139.174049,83.8313853 139.174049,83.8313853 L139.051734,82.5470833 Z" id="Path" fill="#38D39F" fill-rule="nonzero"></path>
                <path d="M140.794714,81.6602985 C140.794714,81.6602985 140.305456,80.4983116 140.978186,80.3759966 C141.361861,80.3007634 141.756496,80.3007634 142.140171,80.3759966 L141.406286,80.9875684 L140.794714,81.6602985 Z" id="Path" fill="#3F3D56" fill-rule="nonzero"></path>
                <path d="M140.794714,81.6602985 C140.794714,81.6602985 140.305456,80.4983116 140.978186,80.3759966 C141.361861,80.3007634 141.756496,80.3007634 142.140171,80.3759966 L141.406286,80.9875684 L140.794714,81.6602985 Z" id="Path" fill="#000000" fill-rule="nonzero" opacity="0.1"></path>
                <path d="M137.431068,88.69338 L135.657511,88.571065 L135.963296,89.1214801 C135.963296,89.1214801 133.517009,89.8553654 134.312052,91.9347108 C134.870423,93.334376 135.545533,94.6845957 136.330243,95.9710914 L137.125286,97.5000218 C137.125286,97.5000218 138.77653,97.7446502 138.837687,97.2553918 C138.898843,96.7661334 138.837687,96.5215065 138.531901,96.2768781 C138.251286,96.0240513 138.076536,95.6745513 138.042643,95.2983629 C138.042643,95.0537345 138.103801,94.8091045 137.92033,94.686791 C137.736858,94.5644776 137.675701,94.3810044 137.675701,94.0140609 C137.675701,93.6471175 137.002971,92.3016589 137.002971,92.3016589 C137.002971,92.3016589 139.143473,92.2405022 139.816202,92.7909173 C140.48893,93.3413324 142.690589,95.4206748 142.690589,95.4206748 C142.812362,95.5481039 142.915328,95.6922573 142.996374,95.8487764 C143.118689,96.0934049 143.118689,96.2157183 143.363318,96.3380333 C143.607946,96.4603483 143.424475,96.9496051 143.363318,97.0107634 C143.302161,97.0719216 142.690586,99.5181965 142.690586,99.5181965 C142.690586,99.5181965 142.017856,100.680183 142.751743,100.74134 C143.48563,100.802497 144.158358,100.863655 144.219515,100.74134 C144.287481,100.571812 144.369302,100.408173 144.464145,100.252083 C144.647615,99.9462966 144.464145,99.2735681 144.464145,99.2735681 C144.464145,99.2735681 146.237702,97.0107525 145.687287,95.6041371 C145.136872,94.1975218 143.974887,91.0173492 143.974887,91.0173492 L142.201329,90.2834639 L138.959998,89.121477 L137.431068,88.69338 Z" id="Path" fill="#2F2E41" fill-rule="nonzero"></path>
                <path d="M137.308755,97.1942273 C137.308755,97.1942273 136.941811,98.6008427 136.819496,98.6619994 C136.697181,98.7231561 135.351724,99.885143 136.269083,100.068615 C137.186441,100.252086 137.859168,100.19093 138.04264,100.007458 C138.226112,99.8239863 138.164955,99.6405146 138.47074,99.5793579 C138.776525,99.5182012 139.326942,99.3347279 139.265784,98.9066278 C139.204625,98.4785277 138.898842,97.3165423 138.71537,97.1942273 C138.531898,97.0719123 137.308755,97.1942273 137.308755,97.1942273 Z" id="Path" fill="#2F2E41" fill-rule="nonzero"></path>
                <path d="M142.629429,100.313243 C142.629429,100.313243 142.079014,100.741343 142.384799,101.536387 C142.690585,102.33143 143.118686,103.187631 143.118686,103.187631 C143.118686,103.187631 143.607943,104.716561 144.402987,104.471931 C144.6941,104.368699 144.908322,104.118406 144.965375,103.814846 C145.079044,103.376497 144.998093,102.910419 144.743271,102.536071 L144.280673,101.842174 L143.791415,100.557872 L142.629429,100.313243 Z" id="Path" fill="#2F2E41" fill-rule="nonzero"></path>
                <path d="M141.100499,82.3330286 C141.100499,82.3330286 140.366614,82.2718719 140.244299,82.4553436 C140.121984,82.6388153 139.571569,85.0851011 140.244299,85.3297295 C140.917029,85.5743579 142.935219,86.0024596 143.241001,85.6966729 C143.546783,85.3908862 143.669101,82.699972 143.669101,82.699972 L141.100499,82.3330286 Z" id="Path" fill="#A0616A" fill-rule="nonzero"></path>
                <path d="M141.100499,82.3330286 C141.100499,82.3330286 140.366614,82.2718719 140.244299,82.4553436 C140.121984,82.6388153 139.571569,85.0851011 140.244299,85.3297295 C140.917029,85.5743579 142.935219,86.0024596 143.241001,85.6966729 C143.546783,85.3908862 143.669101,82.699972 143.669101,82.699972 L141.100499,82.3330286 Z" id="Path" fill="#000000" fill-rule="nonzero" opacity="0.1"></path>
                <path d="M139.99967,84.3512189 C139.99967,84.3512189 140.855871,85.2074192 141.406286,85.0851042 C141.956701,84.9627892 143.241001,84.4123741 143.363315,84.1677472 C143.485628,83.9231203 145.014558,83.8619605 145.014558,83.8619605 L143.363315,88.44875 L144.525302,92.3016511 C144.525302,92.3016511 145.198032,91.5066076 143.363315,91.4454509 C141.528598,91.3842942 139.082312,90.4669356 138.654212,89.243792 C138.654212,89.243792 135.963291,88.8768501 135.840983,88.8156919 C135.718674,88.7545336 136.146774,88.3875995 136.146774,88.3875995 L137.920333,87.8983427 L139.204633,86.2470989 L139.99967,84.3512189 Z" id="Path" fill="#F2F2F2" fill-rule="nonzero"></path>
                <path d="M140.550086,82.4553483 C140.550086,82.4553483 140.855871,82.0272466 140.550086,82.0272466 C140.060032,82.0170866 139.569822,82.0375124 139.082312,82.0884049 C138.776527,82.1495616 137.61454,81.8437764 137.492226,82.2107183 C137.369913,82.5776601 137.369911,84.8404773 137.61454,85.023949 C137.859168,85.2074207 137.981483,85.2074207 137.675698,85.5743641 C137.369913,85.9413075 136.636026,87.1644496 136.819496,87.5925544 C137.002966,88.0206592 134.862467,88.1429695 135.168252,88.6322279 C135.336787,88.9160328 135.633993,89.098929 135.963296,89.1214848 C135.963296,89.1214848 136.085611,88.1429695 136.819496,88.6322279 C137.553382,89.1214863 138.531898,90.3446284 139.326942,89.5495849 C140.121985,88.7545414 140.427771,88.0206561 140.488927,86.9809841 C140.552948,86.204352 140.511805,85.4226314 140.366614,84.6570103 C140.244299,84.0454338 140.550086,82.4553483 140.550086,82.4553483 Z" id="Path" fill="#38D39F" fill-rule="nonzero"></path>
                <path d="M143.730263,83.6173336 C143.730263,83.6173336 144.21952,84.0454338 143.730263,85.0851057 C143.241006,86.1247777 141.956704,88.571065 142.996376,90.1611521 C144.036048,91.7512391 144.46415,92.1793424 144.21952,92.4851244 C144.070749,92.6788823 143.985327,92.913793 143.974891,93.1578545 L144.647621,92.9132261 C144.721435,92.413105 144.844343,91.9214729 145.014565,91.445454 C145.259193,90.8338822 144.525308,88.9991667 144.525308,88.9991667 L144.769936,86.6140376 C144.769936,86.6140376 145.748451,85.0851073 145.870765,85.0239506 C145.993078,84.9627938 145.626137,82.3330302 145.626137,82.3330302 C145.626137,82.3330302 145.014565,82.1495585 144.70878,82.3330302 C144.402994,82.5165019 143.730263,83.6173336 143.730263,83.6173336 Z" id="Path" fill="#38D39F" fill-rule="nonzero"></path>
                <path d="M137.859168,82.2718766 L137.492234,82.2718766 L134.98479,83.5561769 C134.98479,83.5561769 134.801318,82.7611334 134.679003,82.9446051 C134.556688,83.1280768 134.617847,83.6173352 134.31206,83.7396486 C134.006273,83.8619621 133.822803,84.0454338 134.31206,84.2900622 C134.801317,84.5346906 134.862475,84.3512205 134.862475,84.7793206 C134.862475,85.2074207 135.229419,85.2685774 135.535205,85.146264 C135.840992,85.0239506 135.902149,84.9627923 136.207935,85.0851057 C136.513722,85.2074192 136.33025,85.3908924 136.75835,85.2074207 C137.186451,85.023949 138.287281,85.0851057 138.287281,85.0851057 L137.859168,82.2718766 Z" id="Path" fill="#38D39F" fill-rule="nonzero"></path>
                <path d="M145.19803,82.4553483 L145.62613,82.3330333 C145.62613,82.3330333 146.910431,82.4553483 147.216217,82.4553483 C147.522004,82.4553483 147.827789,82.39419 148.011261,82.39419 C148.194733,82.39419 149.11209,82.2718766 149.234405,82.1495616 C149.35672,82.0272466 149.907135,81.7214614 149.96829,81.9049331 C150.029445,82.0884049 150.702177,83.2503933 150.090605,83.8008053 C149.479033,84.3512174 149.356718,84.106592 148.989775,84.3512205 C148.622831,84.5958489 145.687287,85.0851057 145.626124,85.0239506 C145.564961,84.9627954 145.19803,82.4553483 145.19803,82.4553483 Z" id="Path" fill="#38D39F" fill-rule="nonzero"></path>
                <circle id="Oval" fill="#A0616A" fill-rule="nonzero" cx="142.690586" cy="82.9446051" r="1.83471549"></circle>
                <path d="M141.340479,83.0183877 C141.361331,83.0583239 141.374219,83.1019338 141.378425,83.1467895 C141.428772,83.3609397 141.61816,83.5135198 141.838119,83.5171424 C141.820443,83.5967739 141.83748,83.6801647 141.884971,83.7464829 C141.932463,83.8128012 142.005926,83.855784 142.087007,83.8646937 C142.21105,83.7057853 142.303572,83.5246294 142.359591,83.3309795 C142.373358,83.2549279 142.404919,83.1832113 142.451696,83.1216869 C142.525025,83.0601848 142.617151,83.0255568 142.712836,83.0235308 C143.201041,82.9606335 143.692274,82.9240322 144.184409,82.9138853 C144.251309,82.9186866 144.318242,82.905004 144.37789,82.874333 C144.516149,82.7852223 144.470019,82.5703529 144.382691,82.4309624 C144.210604,82.1583849 143.948976,81.9542336 143.642741,81.8535712 C143.419877,81.7935771 143.191628,81.7557616 142.961323,81.7406763 C142.656271,81.6918833 142.348759,81.6599531 142.04019,81.6450311 C141.729298,81.6307576 141.421608,81.7130484 141.159347,81.8806095 C140.975462,82.0102037 140.673678,82.3733877 140.821334,82.60257 C140.844978,82.6392615 140.919652,82.6573539 140.951423,82.6947652 C140.994656,82.7456639 140.994852,82.8226073 141.043968,82.8688106 C141.125956,82.9459313 141.274628,82.9214288 141.340479,83.0183877 Z" id="Path" fill="#2F2E41" fill-rule="nonzero"></path>
                <path d="M142.690586,79.886746 C142.690586,79.886746 140.611242,80.6206328 140.794714,81.6603047 C140.978186,82.6999767 141.528599,83.9231203 142.690586,83.8619621 C143.852573,83.8008038 144.464145,82.5360075 144.464145,82.5360075 L144.158358,80.8041045 C144.158358,80.8041045 142.996371,79.886746 142.690586,79.886746 Z" id="Path" fill="#3F3D56" fill-rule="nonzero"></path>
                <path d="M142.4282,83.5566931 C142.4282,83.5566931 143.24569,82.6697606 143.657248,83.1840407 C143.657248,83.1840407 143.638523,83.1586552 142.4282,83.5566931 Z" id="Path" fill="#2F2E41" fill-rule="nonzero"></path>
                <path d="M143.971721,106.234202 C142.875431,106.234202 141.519044,105.871018 140.197237,104.558352 C136.961401,101.344614 133.887237,101.022282 133.856569,101.019417 L133.867976,100.897581 C133.899092,100.900508 137.016855,101.227256 140.283478,104.471513 C141.962015,106.138584 143.694548,106.240712 144.852352,106.032694 C145.617111,105.893827 146.345465,105.600282 146.992794,105.170044 L147.065059,105.268706 C146.403999,105.708867 145.66007,106.009498 144.878803,106.152201 C144.579488,106.206498 144.275921,106.233941 143.971721,106.234202 Z" id="Path" fill="#2F2E41" fill-rule="nonzero"></path>
                <circle id="Oval" fill="#2F2E41" fill-rule="nonzero" cx="135.504618" cy="102.851266" r="1"></circle>
                <circle id="Oval" fill="#2F2E41" fill-rule="nonzero" cx="140.702977" cy="106.276068" r="1"></circle>
            </g>
        </g>
    </g>
</svg>