<?xml version="1.0" encoding="UTF-8"?>
<svg width="151px" height="121px" viewBox="0 0 151 121" version="1.1" xmlns="http://www.w3.org/2000/svg" xmlns:xlink="http://www.w3.org/1999/xlink">
    <!-- Generator: Sketch 60.1 (88133) - https://sketch.com -->
    <title>illu/actif</title>
    <desc>Created with Sketch.</desc>
    <defs>
        <linearGradient x1="49.9899601%" y1="100.007353%" x2="49.9899601%" y2="-0.00193859288%" id="linearGradient-1">
            <stop stop-color="#808080" stop-opacity="0.25" offset="0%"></stop>
            <stop stop-color="#808080" stop-opacity="0.12" offset="54%"></stop>
            <stop stop-color="#808080" stop-opacity="0.1" offset="100%"></stop>
        </linearGradient>
    </defs>
    <g id="Formulaire-sign-up" stroke="none" stroke-width="1" fill="none" fill-rule="evenodd">
        <g id="Formulaire_achat_user_1" transform="translate(-954.000000, -456.000000)">
            <g id="illu/actif" transform="translate(943.000000, 452.000000)">
                <ellipse id="Oval" fill="#38D39F" fill-rule="nonzero" opacity="0.1" cx="83.8647959" cy="120.535714" rx="62.1811224" ry="4.46428571"></ellipse>
                <path d="M16.3823072,18.2267679 C12.5134546,22.7717034 11.5347098,28.533154 11.4813762,34.057377 C11.4438984,37.9528294 11.9743522,42.1780861 15.2147324,45.0508556 C19.4799838,48.8305871 27.668863,49.57554 29.7820291,54.405438 C31.6559145,58.6972342 27.2955274,63.0150675 23.1066728,66.0440602 C18.9178182,69.0730528 14.1076986,72.7819053 14.8904061,77.2921246 C15.386265,80.1721267 18.1062817,82.4330223 20.8190912,84.3308439 C25.9766003,87.9471197 31.7741134,91.1106378 38.3096491,92.6497249 C50.1670192,95.4385968 62.9743051,92.5513621 74.085004,88.1800079 C80.9246856,85.4894987 88.8656353,82.1871156 95.6577491,84.9542898 C97.4509132,85.6847776 98.9730848,86.788465 100.626428,87.7026595 C105.433665,90.3454339 111.304692,91.3189353 117.018601,92.1448927 C125.393427,93.3599614 134.194923,94.3739652 142.264161,92.182502 C150.3334,89.9910388 157.307137,83.5815515 156.071814,76.7453437 C154.907122,70.3054796 147.492302,66.1077066 141.583797,61.7088687 C139.49946,60.1567631 137.377645,58.0998254 137.896567,55.8418227 C138.308822,54.0510429 140.249014,52.804151 141.978754,51.6469428 C151.082954,45.522418 157.774167,37.067565 160.850222,27.7968803 C162.303204,23.422633 162.827891,18.382991 159.58607,14.6943896 C156.971279,11.7189179 152.48981,10.2897656 148.227441,9.11375273 C140.318204,6.93096863 132.211487,5.08666795 123.892877,4.58906839 C115.574268,4.09146883 106.980341,5.04037961 99.5957913,8.18943262 C96.0541479,9.70103593 92.8440381,11.6914342 89.2677999,13.1466236 C79.114224,17.2778571 67.1501866,16.7223971 55.8261531,16.070021 C51.7800021,15.8371328 47.5507869,15.4234308 44.0379725,13.6500092 C41.0109269,12.1196012 39.2811866,11.0231464 35.5334158,10.8524582 C28.1877851,10.5183143 20.5884591,13.2768095 16.3823072,18.2267679 Z" id="Path" fill="#38D39F" fill-rule="nonzero" opacity="0.1"></path>
                <polygon id="Path" fill="#535461" fill-rule="nonzero" points="71.4285714 49.5135813 71.2686223 49.8423357 70.2318613 51.9640326 59.3567764 74.2049198 40.9030122 119.239928 38.2653061 119.260204 56.7292489 74.2049198 69.3114269 48.4693878 70.2318613 48.9226923 71.2686223 49.4339271"></polygon>
                <polygon id="Path" fill="#535461" fill-rule="nonzero" points="103.316327 119.260204 101.156831 119.239928 82.7989448 74.2049198 72.2661585 52.5476803 70.9513683 49.8423357 70.7908163 49.5135813 70.9513683 49.4339271 72.2661585 48.7822113 72.8982414 48.4693878 85.2260274 74.2049198"></polygon>
                <rect id="Rectangle" fill="#535461" fill-rule="nonzero" x="69.5153061" y="42.7295918" width="2.55102041" height="76.5306122"></rect>
                <path d="M70.4712442,29.9744898 C68.887647,29.9760636 67.6042698,31.294898 67.6027383,32.922247 L67.6027383,33.9757312 C67.5798509,35.0445841 68.1216566,36.0424658 69.0188029,36.5837973 C69.9159491,37.1251288 71.0279284,37.1251288 71.9250747,36.5837973 C72.822221,36.0424658 73.3640266,35.0445841 73.3411393,33.9757312 L73.3411393,32.922247 C73.3388424,31.2946671 72.0550671,29.9760621 70.4712442,29.9744898 L70.4712442,29.9744898 Z M72.6229709,33.9714488 C72.6229709,35.1934353 71.6589882,36.1840511 70.4698551,36.1840511 C69.2807221,36.1840511 68.3167393,35.1934353 68.3167393,33.9714488 L68.3167393,32.9179646 C68.3167393,31.6959781 69.2807221,30.7053623 70.4698551,30.7053623 C71.6589882,30.7053623 72.6229709,31.6959781 72.6229709,32.9179646 L72.6229709,33.9714488 Z" id="Shape" fill="#535461" fill-rule="nonzero"></path>
                <polygon id="Path" fill="#000000" fill-rule="nonzero" opacity="0.1" points="84.8214286 74.6173469 82.3975868 74.6173469 71.8788648 52.890027 71.8788648 74.6173469 69.5359141 74.6173469 69.5359141 52.3044907 58.732629 74.6173469 56.122449 74.6173469 68.6215566 48.7985376 69.5359141 49.253309 69.5359141 42.7295918 71.8788648 42.7295918 71.8788648 49.1123735 72.5101037 48.7985376"></polygon>
                <path d="M73.3411393,33.1632653 L73.3411393,34.0787262 C73.3640266,35.1110548 72.822221,36.0748374 71.9250747,36.5976709 C71.0279284,37.1205043 69.9159491,37.1205043 69.0188029,36.5976709 C68.1216566,36.0748374 67.5798509,35.1110548 67.6027383,34.0787262 L67.6027383,33.1632653 L68.3195175,33.1632653 L68.3195175,34.0787262 C68.3195176,35.2589556 69.2835003,36.2157205 70.4726333,36.2157205 C71.6617663,36.2157205 72.6257491,35.2589556 72.6257492,34.0787262 L72.6257492,33.1632653 L73.3411393,33.1632653 Z" id="Path" fill="#000000" fill-rule="nonzero" opacity="0.1"></path>
                <rect id="Rectangle" fill="#535461" fill-rule="nonzero" x="25.5102041" y="33.1632653" width="89.9234694" height="40.8163265"></rect>
                <rect id="Rectangle" fill="#FFFFFF" fill-rule="nonzero" x="27.4234694" y="34.4387755" width="86.7346939" height="36.9897959"></rect>
                <g id="Group" opacity="0.2" transform="translate(35.714286, 38.265306)" fill="#38D39F" fill-rule="nonzero">
                    <rect id="Rectangle" x="0.12202381" y="0.0819970845" width="4.22470238" height="1.76703717"></rect>
                </g>
                <g id="Group" opacity="0.2" transform="translate(35.714286, 42.091837)" fill="#38D39F" fill-rule="nonzero">
                    <rect id="Rectangle" x="0.12202381" y="0.0833637026" width="4.22470238" height="1.76703717"></rect>
                </g>
                <g id="Group" opacity="0.2" transform="translate(35.714286, 45.918367)" fill="#38D39F" fill-rule="nonzero">
                    <rect id="Rectangle" x="0.12202381" y="0.0833637026" width="4.22470238" height="1.76703717"></rect>
                </g>
                <g id="Group" opacity="0.2" transform="translate(35.714286, 49.107143)" fill="#38D39F" fill-rule="nonzero">
                    <rect id="Rectangle" x="0.12202381" y="0.0833637026" width="4.22470238" height="1.76703717"></rect>
                </g>
                <g id="Group" opacity="0.2" transform="translate(35.714286, 52.933673)" fill="#38D39F" fill-rule="nonzero">
                    <rect id="Rectangle" x="0.12202381" y="0.0847303207" width="4.22470238" height="1.76703717"></rect>
                </g>
                <g id="Group" opacity="0.2" transform="translate(35.714286, 56.760204)" fill="#38D39F" fill-rule="nonzero">
                    <rect id="Rectangle" x="0.12202381" y="0.0847303207" width="4.22470238" height="1.76703717"></rect>
                </g>
                <g id="Group" opacity="0.2" transform="translate(35.714286, 59.948980)" fill="#38D39F" fill-rule="nonzero">
                    <rect id="Rectangle" x="0.12202381" y="0.0847303207" width="4.22470238" height="1.76703717"></rect>
                </g>
                <g id="Group" opacity="0.2" transform="translate(35.714286, 63.775510)" fill="#38D39F" fill-rule="nonzero">
                    <rect id="Rectangle" x="0.12202381" y="0.0847303207" width="4.22470238" height="1.76703717"></rect>
                </g>
                <g id="Group" opacity="0.2" transform="translate(43.367347, 65.688776)" fill="#38D39F" fill-rule="nonzero">
                    <rect id="Rectangle" x="0.0415640394" y="0.0765306122" width="4.37038177" height="1.76703717"></rect>
                </g>
                <g id="Group" opacity="0.2" transform="translate(50.382653, 65.688776)" fill="#38D39F" fill-rule="nonzero">
                    <rect id="Rectangle" x="0.0431034483" y="0.0765306122" width="4.37038177" height="1.76703717"></rect>
                </g>
                <g id="Group" opacity="0.2" transform="translate(58.035714, 65.688776)" fill="#38D39F" fill-rule="nonzero">
                    <rect id="Rectangle" x="0.0431034483" y="0.0765306122" width="4.37038177" height="1.76703717"></rect>
                </g>
                <g id="Group" opacity="0.2" transform="translate(65.051020, 65.688776)" fill="#38D39F" fill-rule="nonzero">
                    <rect id="Rectangle" x="0.0446428571" y="0.0765306122" width="4.37038177" height="1.76703717"></rect>
                </g>
                <g id="Group" opacity="0.2" transform="translate(72.066327, 65.688776)" fill="#38D39F" fill-rule="nonzero">
                    <rect id="Rectangle" x="0.0446428571" y="0.0765306122" width="4.37038177" height="1.76703717"></rect>
                </g>
                <g id="Group" opacity="0.2" transform="translate(79.719388, 65.688776)" fill="#38D39F" fill-rule="nonzero">
                    <rect id="Rectangle" x="0.046182266" y="0.0765306122" width="4.37038177" height="1.76703717"></rect>
                </g>
                <g id="Group" opacity="0.2" transform="translate(86.734694, 65.688776)" fill="#38D39F" fill-rule="nonzero">
                    <rect id="Rectangle" x="0.046182266" y="0.0765306122" width="4.37038177" height="1.76703717"></rect>
                </g>
                <g id="Group" opacity="0.2" transform="translate(93.750000, 65.688776)" fill="#38D39F" fill-rule="nonzero">
                    <rect id="Rectangle" x="0.0477216749" y="0.0765306122" width="4.37038177" height="1.76703717"></rect>
                </g>
                <g id="Group" opacity="0.2" transform="translate(101.403061, 65.688776)" fill="#38D39F" fill-rule="nonzero">
                    <rect id="Rectangle" x="0.0477216749" y="0.0765306122" width="4.37038177" height="1.76703717"></rect>
                </g>
                <rect id="Rectangle" fill="#38D39F" fill-rule="nonzero" x="44.005102" y="52.2959184" width="3.82653061" height="11.4795918"></rect>
                <rect id="Rectangle" fill="#38D39F" fill-rule="nonzero" x="51.0204082" y="46.5561224" width="3.82653061" height="17.2193878"></rect>
                <rect id="Rectangle" fill="#38D39F" fill-rule="nonzero" x="58.0357143" y="42.0918367" width="3.82653061" height="21.6836735"></rect>
                <rect id="Rectangle" fill="#38D39F" fill-rule="nonzero" x="65.6887755" y="44.6428571" width="3.82653061" height="19.1326531"></rect>
                <rect id="Rectangle" fill="#38D39F" fill-rule="nonzero" x="72.7040816" y="40.1785714" width="3.82653061" height="23.5969388"></rect>
                <g id="Group" opacity="0.2" transform="translate(79.719388, 49.107143)" fill="#38D39F" fill-rule="nonzero">
                    <rect id="Rectangle" x="0.046182266" y="0.0885911295" width="4.37038177" height="14.5245883"></rect>
                </g>
                <g id="Group" opacity="0.2" transform="translate(86.734694, 49.107143)" fill="#38D39F" fill-rule="nonzero">
                    <rect id="Rectangle" x="0.046182266" y="0.0885911295" width="4.37038177" height="14.5245883"></rect>
                </g>
                <g id="Group" opacity="0.2" transform="translate(93.750000, 49.107143)" fill="#38D39F" fill-rule="nonzero">
                    <rect id="Rectangle" x="0.0477216749" y="0.0885911295" width="4.37038177" height="14.5245883"></rect>
                </g>
                <g id="Group" opacity="0.2" transform="translate(101.403061, 49.107143)" fill="#38D39F" fill-rule="nonzero">
                    <rect id="Rectangle" x="0.0477216749" y="0.0885911295" width="4.37038177" height="14.5245883"></rect>
                </g>
                <polygon id="Path" fill="#535461" fill-rule="nonzero" points="100.657935 49.744898 65.6887755 51.6821195 65.6887755 52.2959184 101.403061 51.0204082"></polygon>
                <path d="M142.698179,63.8965022 C142.698179,63.8965022 144.539148,60.8898631 144.04996,56.1729465 C143.560771,51.4560299 141.79072,43.821581 141.79072,43.821581 C141.79072,43.821581 142.559238,39.54445 138.391006,38.9436971 C138.391006,38.9436971 135.800334,38.4651068 133.947787,37.3081544 C133.258871,36.876992 132.672713,36.3552855 132.355754,35.7272256 C132.355754,35.7272256 132.33115,35.7976488 132.283389,35.9269975 C132.242413,35.8623266 132.204736,35.7956519 132.170499,35.7272256 C132.170499,35.7272256 132.160368,35.7530953 132.144448,35.799086 L131.436717,34.7039335 C131.436717,34.7039335 131.339748,34.8059753 131.176202,34.9741286 C130.891563,34.5683727 130.649105,34.1349921 130.452551,33.6806414 C130.628525,33.6384405 130.801202,33.5836844 130.969238,33.5167997 C131.129907,33.4640219 131.274702,33.3721179 131.390403,33.249479 C131.491825,33.1096194 131.557398,32.9473238 131.581447,32.7766376 C131.694265,32.2303651 131.726442,31.6706987 131.676969,31.1152251 C131.637892,30.6840627 131.549607,30.2529004 131.58,29.8145519 C131.611841,29.3474593 131.77828,28.896176 131.801437,28.4276462 C131.841962,27.6026888 131.42948,26.8179732 130.92003,26.1640436 C130.616096,25.7745602 130.274533,25.4123838 130.011124,24.9955935 C129.78245,24.6334171 129.61601,24.2338733 129.369969,23.8817573 C128.791048,23.0625488 127.825697,22.5796469 126.835742,22.4086191 C125.845787,22.2375914 124.826886,22.3439448 123.835483,22.5063493 C122.967102,22.6500701 122.09872,22.8584652 121.230339,22.9087675 C120.471952,22.9518837 119.853954,22.6974979 119.159249,23.1962091 C118.693727,23.5370323 118.39928,24.0610348 118.351654,24.6334171 C118.340366,24.7297291 118.347735,24.8272961 118.373363,24.9208587 C118.414352,25.0177993 118.462737,25.1114902 118.518093,25.2011143 C118.826369,25.8047416 118.357443,26.5219084 118.41823,27.195959 C118.494528,27.8096247 118.985984,28.2905116 119.605018,28.357223 C119.577519,28.4147113 119.547126,28.4707624 119.521074,28.529688 C118.741318,30.2790339 118.85435,32.2937094 119.824965,33.9462173 C120.795579,35.5987252 122.505849,36.6882908 124.423088,36.8755548 L124.692287,37.0810755 C125.300154,37.5481681 125.983281,38.107242 126.641803,38.715181 L126.628778,38.7252415 L126.521677,38.6648787 C126.321192,38.8223296 126.110386,38.9663681 125.890653,39.0960411 C125.281339,39.4668408 124.29862,39.9483055 123.192881,40.0029194 C123.192881,40.0029194 121.212971,41.0448952 120.531291,44.4812595 C119.552915,45.3522075 117.458668,46.9245131 114.691425,47.3341173 C110.802523,47.9090005 106.007609,48.0972748 106.007609,48.0972748 C106.007609,48.0972748 105.968532,48.1662608 105.913535,48.2927351 L105.47066,48.2122514 C105.47066,48.2122514 105.47066,48.2654281 105.451845,48.3559722 L105.278169,48.278363 C103.904679,47.6819217 101.160593,46.8124108 100.81324,49.2082366 C100.347209,52.4218336 103.432858,52.0524712 103.432858,52.0524712 C104.043023,51.8222664 104.668254,51.6335563 105.30422,51.4876484 L105.476449,51.4545927 C105.505711,51.5384037 105.546631,51.6177394 105.598023,51.6902948 L106.01774,51.6902948 C106.163538,51.9898603 106.339563,52.2739657 106.543111,52.5382475 L116.323983,52.3255407 C116.323983,52.3255407 117.995617,51.9633643 119.538442,52.1933176 C118.865446,57.1890525 118.070877,62.6676894 118.070877,62.6676894 C118.070877,62.6676894 116.406479,71.3441141 117.571557,72.2509923 C118.247768,72.0269525 118.936971,71.8436152 119.635411,71.7019789 C119.646012,72.2381102 119.703151,72.7723353 119.806193,73.2987169 L120.551554,78.1435451 C120.551554,78.1435451 120.841014,83.0932894 121.80926,86.048189 L122.663168,90.0867435 L123.378136,93.1393733 L123.780486,98.3205081 C124.333015,100.51537 124.732453,102.745459 124.975958,104.994902 C125.353704,108.47582 127.404532,114.101052 127.678072,114.841214 C126.977577,115.825701 125.538959,117.495737 123.734172,117.668202 C121.157973,117.915402 121.095739,119.457526 122.896184,120.012288 C124.696628,120.567051 128.485667,120.012288 128.485667,120.012288 L133.829108,118.700117 C133.668458,119.678856 133.584514,120.452074 133.701746,120.535432 C134.043309,120.782632 139.228994,122.116361 139.415696,119.98067 C139.430169,119.804372 139.443195,119.633344 139.454774,119.467586 C139.531963,118.099459 139.347812,116.729181 138.912035,115.429032 C138.870063,115.301121 138.832434,115.171772 138.799146,115.042423 C138.876061,114.957038 138.946679,114.866258 139.010452,114.770791 C139.010452,114.770791 139.383856,109.004712 139.663185,106.938007 C139.684895,106.772728 139.699368,106.571519 139.706604,106.34444 C139.835414,103.866694 138.925061,97.3489555 138.925061,97.3489555 C138.925061,97.3489555 137.800507,93.1091919 137.842478,91.1603379 C137.848923,90.9983968 137.876657,90.8379869 137.924975,90.6831848 C137.924975,90.6831848 137.924975,90.6443802 137.910502,90.5797058 C137.910502,90.5523989 137.923527,90.5236547 137.932211,90.497785 C137.932211,90.497785 137.361974,86.6173234 137.441576,84.3091674 C137.452706,83.9648478 137.501231,83.6227271 137.586306,83.2887497 C137.676801,82.8503225 137.722862,82.403999 137.7238,81.9564579 C137.796165,80.3755291 137.712221,77.6448339 137.596437,75.0837293 C137.609463,75.040613 137.622488,74.9974968 137.63262,74.9471945 C137.655969,74.7432471 137.631702,74.5366997 137.561702,74.3435671 C137.553018,74.1782882 137.545781,74.0144465 137.537098,73.852042 C137.584859,73.6896375 137.623936,73.5171725 137.658671,73.3389588 L137.733931,73.3389588 L137.733931,73.3490192 C137.733931,73.3490192 142.599762,73.1176287 143.718527,71.8227043 C143.718527,71.8227043 142.588184,68.3346005 141.961502,65.4989892 L142.698179,63.8965022 Z M121.729658,53.0470191 L121.652951,53.0197122 C121.775972,52.5885498 121.922149,52.0869642 122.087142,51.560946 C121.946753,52.1300804 121.82518,52.6474753 121.729658,53.0470191 Z M126.667855,38.7482368 L126.689564,38.7683577 L126.666407,38.7554228 L126.667855,38.7482368 Z M132.746526,113.557787 C132.484564,112.662407 131.443953,109.011898 131.477241,107.271439 C131.48451,107.120162 131.511261,106.970432 131.556843,106.825905 C131.653341,106.510481 131.702116,106.182573 131.701573,105.852915 C131.805779,104.036284 131.105285,100.781008 131.105285,100.781008 C131.105285,100.781008 129.537856,96.3903377 129.657982,92.9036712 C129.657982,92.8160015 129.668113,92.7283318 129.673902,92.6406621 C129.699954,92.3101043 129.720216,91.9522395 129.734689,91.5742538 L129.734689,91.5670677 C129.794028,90.2204038 129.781003,88.5992332 129.741926,87.0872904 L129.733242,87.0312393 C129.679692,85.0292086 129.579828,83.2269497 129.537856,82.5140946 C129.682586,83.5445727 130.60886,89.958832 131.008315,91.0079938 C131.008315,91.0079938 131.226858,93.9672051 132.219708,96.4693842 L133.308079,102.974188 C133.308079,102.974188 133.587409,110.71499 134.051993,112.903858 C134.260404,113.878285 134.436975,114.535089 134.56868,114.963377 C134.380531,115.835762 134.076597,117.297402 133.872527,118.507532 C133.752401,117.718504 133.329789,114.711865 132.747973,113.557787 L132.746526,113.557787 Z" id="Shape" fill="url(#linearGradient-1)" fill-rule="nonzero"></path>
                <path d="M127.600398,113.913431 C127.600398,113.913431 125.785077,117.13113 123.232055,117.371574 C120.679033,117.612017 120.618281,119.115496 122.40178,119.657201 C124.185279,120.198906 127.938872,119.657201 127.938872,119.657201 L133.290816,118.364464 C133.290816,118.364464 132.644244,113.190686 131.783593,112.920541 C130.922943,112.650396 127.600398,113.913431 127.600398,113.913431 Z" id="Path" fill="#4C4C78" fill-rule="nonzero"></path>
                <path d="M134.352761,113.885388 C134.352761,113.885388 133.006183,119.69592 133.345705,119.93193 C133.685227,120.16794 138.791,121.428039 138.975148,119.403324 C138.989534,119.233102 139.002482,119.070242 139.013991,118.914742 C139.089386,117.612585 138.907813,116.308479 138.478813,115.070957 C138.334948,114.656905 138.234242,114.213869 138.271647,113.885388 C138.356528,113.064184 134.352761,113.885388 134.352761,113.885388 Z" id="Path" fill="#4C4C78" fill-rule="nonzero"></path>
                <path d="M132.653061,36.5818927 C132.653061,36.5818927 128.515804,46.5807739 129.252181,43.3692784 C129.739256,41.2424602 126.59056,38.4166278 124.413132,36.7562918 C123.304964,35.9055645 122.44898,35.3653527 122.44898,35.3653527 C122.44898,35.3653527 130.216244,26.4554024 129.665763,30.2992718 C129.514778,31.3520372 129.661359,32.4253814 130.089432,33.4015905 C130.946857,35.4064712 132.653061,36.5818927 132.653061,36.5818927 Z" id="Path" fill="#FFB9B9" fill-rule="nonzero"></path>
                <path d="M106.505102,51.0186969 C106.273363,50.9618782 105.895264,50.9983005 105.503443,51.0784295 C104.83977,51.2248918 104.187268,51.4142372 103.550436,51.6451599 C103.550436,51.6451599 100.328965,52.016667 100.815311,48.7881974 C101.17664,46.3814141 104.041355,47.2555485 105.476,47.8528736 C105.963871,48.0582952 106.287085,48.2302083 106.287085,48.2302083 L106.505102,51.0186969 Z" id="Path" fill="#FFB9B9" fill-rule="nonzero"></path>
                <path d="M106.505102,50.9613568 C106.254469,50.9051859 105.845541,50.9411929 105.421773,51.0204082 C105.042525,50.1850469 105.331083,48.2046647 105.392093,47.8316327 C105.919742,48.0347119 106.269309,48.2046647 106.269309,48.2046647 L106.505102,50.9613568 Z" id="Path" fill="#000000" fill-rule="nonzero" opacity="0.1"></path>
                <path d="M106.242741,48.6022534 L105.389297,48.4693878 C105.389297,48.4693878 104.952543,50.993835 105.523564,51.6581633 L106.505102,51.6581633 L106.242741,48.6022534 Z" id="Path" fill="#CBCDDA" fill-rule="nonzero"></path>
                <path d="M122.428264,53.4770058 C122.428264,53.4770058 119.927553,52.031551 119.628652,53.8558836 C119.32975,55.6802163 118.936148,58.7970229 118.936148,58.7970229 L118.243643,62.7645175 L117.346939,70.713804 L117.472714,72.0663265 C117.472714,72.0663265 120.136193,71.1999115 120.76063,71.5044435 C121.385068,71.8089755 121.894088,68.1603102 121.894088,68.1603102 L122.929885,64.390118 L123.086735,56.3950802 L122.428264,53.4770058 Z" id="Path" fill="#4C4C78" fill-rule="nonzero"></path>
                <path d="M122.428264,53.4770058 C122.428264,53.4770058 119.927553,52.031551 119.628652,53.8558836 C119.32975,55.6802163 118.936148,58.7970229 118.936148,58.7970229 L118.243643,62.7645175 L117.346939,70.713804 L117.472714,72.0663265 C117.472714,72.0663265 120.136193,71.1999115 120.76063,71.5044435 C121.385068,71.8089755 121.894088,68.1603102 121.894088,68.1603102 L122.929885,64.390118 L123.086735,56.3950802 L122.428264,53.4770058 Z" id="Path" fill="#000000" fill-rule="nonzero" opacity="0.1"></path>
                <path d="M120.535714,44.005102 C120.535714,44.005102 118.013876,46.7543451 114.185109,47.3075295 C110.356342,47.8607139 105.631849,48.0400123 105.631849,48.0400123 C105.631849,48.0400123 104.439942,50.1012496 106.159508,52.2959184 L115.79253,52.0902116 C115.79253,52.0902116 117.924734,51.6426604 119.576725,52.0902116 L120.535714,44.005102 Z" id="Path" fill="#4C4C78" fill-rule="nonzero"></path>
                <path d="M120.535714,44.005102 C120.535714,44.005102 118.013876,46.7543451 114.185109,47.3075295 C110.356342,47.8607139 105.631849,48.0400123 105.631849,48.0400123 C105.631849,48.0400123 104.439942,50.1012496 106.159508,52.2959184 L115.79253,52.0902116 C115.79253,52.0902116 117.924734,51.6426604 119.576725,52.0902116 L120.535714,44.005102 Z" id="Path" fill="#000000" fill-rule="nonzero" opacity="0.05"></path>
                <g id="Group"></g>
                <path d="M129.451188,33.4363876 C128.538585,35.4819352 126.951994,36.9897959 124.650949,36.9897959 C124.549084,36.9897959 124.450009,36.9897959 124.350935,36.9824904 C123.277858,36.1058272 122.44898,35.549146 122.44898,35.549146 C122.44898,35.549146 129.970284,26.3675597 129.437234,30.3286164 C129.272574,31.5413339 129.084193,32.526119 129.451188,33.4363876 Z" id="Path" fill="#000000" fill-rule="nonzero" opacity="0.1"></path>
                <path d="M130.739796,30.9355518 C130.737327,34.2812766 128.023392,36.9916946 124.67767,36.9897959 C121.331949,36.9878953 118.621093,34.2743971 118.622449,30.9286717 C118.623806,27.5829463 121.336861,24.8716472 124.682583,24.872449 C126.291034,24.8693152 127.834426,25.5072824 128.971222,26.6451856 C130.108017,27.7830888 130.744481,29.3271031 130.739796,30.9355518 Z" id="Path" fill="#FFB9B9" fill-rule="nonzero"></path>
                <path d="M134.566327,67.2099589 C134.566327,67.2099589 121.112045,68.3740992 120.618741,66.6904846 C120.125437,65.00687 121.991477,60.4481596 121.991477,60.4481596 L121.383656,54.0835208 L121.361633,53.840332 C121.361633,53.840332 123.047089,46.9547799 122.985426,46.4050869 C122.926699,45.9100754 125.698598,40.1325432 126.268247,38.951135 C126.335783,38.8144313 126.371019,38.7396039 126.371019,38.7396039 L126.478195,38.8000414 L126.525176,38.8273821 L127.184383,39.2043967 L129.787443,38.6000222 L132.924916,36.9897959 L133.218549,54.604434 L134.566327,67.2099589 Z" id="Path" fill="#CBCDDA" fill-rule="nonzero"></path>
                <path d="M127.617347,38.933016 C127.617347,38.933016 126.703353,38.690712 126.34621,39.584386 C126.206427,39.9685511 126.040858,40.3432742 125.850583,40.7061107 L125.494898,42.7813728 L124.843294,46.0596027 L124.362245,60.5622067 L124.579446,63.1377551 L125.773324,61.062493 L125.990525,47.5062998 L125.990525,45.8201494 C126.06043,44.3623203 126.397149,42.9285632 126.984694,41.5869568 L127.150875,41.2063971 L128.188776,39.9022317 L127.617347,38.933016 Z" id="Path" fill="#000000" fill-rule="nonzero" opacity="0.1"></path>
                <path d="M126.978352,38.9330124 C126.978352,38.9330124 126.063249,38.690737 125.707699,39.5843058 C125.567703,39.9685416 125.401704,40.3432346 125.210804,40.7058987 L124.855254,42.7823418 L124.203899,46.0601861 L123.72449,60.5610844 L123.941608,63.1377551 L125.135031,61.0556114 L125.35215,47.5095634 L125.35215,45.8193358 C125.42343,44.3618666 125.759965,42.9285185 126.34594,41.5866412 L126.513515,41.2061262 L127.55102,39.9035394 L126.978352,38.9330124 Z" id="Path" fill="#4C4C78" fill-rule="nonzero"></path>
                <path d="M131.366424,34.4387755 C131.366424,34.4387755 128.075487,37.9034962 126.913265,38.3147434 C126.913265,38.3147434 127.494376,40.9419055 128.075487,41.4540816 C128.075487,41.4540816 131.528771,37.9577266 132.140227,37.6745233 L132.653061,36.4287303 L131.366424,34.4387755 Z" id="Path" fill="#000000" fill-rule="nonzero" opacity="0.1"></path>
                <path d="M131.366424,34.4387755 C131.366424,34.4387755 128.075487,37.9034962 126.913265,38.3147434 C126.913265,38.3147434 127.494376,40.9419055 128.075487,41.4540816 C128.075487,41.4540816 131.528771,37.9577266 132.140227,37.6745233 L132.653061,36.4302367 L131.366424,34.4387755 Z" id="Path" fill="#CBCDDA" fill-rule="nonzero"></path>
                <path d="M126.27551,38.9030612 L126.243794,38.989212 L125.241839,41.6641938 L123.449853,46.7111939 C123.449853,46.7111939 123.433995,46.7628843 123.402278,46.8547785 C123.105296,47.7737202 121.509377,52.7604147 121.195094,54.2091837 L121.173469,53.9665256 C121.173469,53.9665256 122.828497,47.0960007 122.767947,46.5475074 C122.710281,46.0535762 125.432138,40.288653 125.991503,39.1098231 C126.080886,39.0495176 126.150086,38.9978271 126.19766,38.9590592 L126.27551,38.9030612 Z" id="Path" fill="#000000" fill-rule="nonzero" opacity="0.1"></path>
                <path d="M126.27551,38.9030612 L125.275301,41.6587891 L123.543741,46.6932919 C123.543741,46.6932919 123.528417,46.7448543 123.49777,46.836521 C123.194086,47.8133434 121.462526,53.3892522 121.323221,54.4090434 C121.165806,55.5290949 118.988471,61.5833889 118.988471,61.5833889 L117.744478,72.0663265 C116.630038,71.1768738 118.212542,62.6132061 118.212542,62.6132061 C118.212542,62.6132061 119.990073,49.913082 120.410774,45.6878236 C120.831474,41.4625652 123.100751,40.2279304 123.100751,40.2279304 C124.148324,40.1735033 125.092812,39.6979827 125.673713,39.3327485 C125.883488,39.2036058 126.084544,39.0600503 126.27551,38.9030612 Z" id="Path" fill="#4C4C78" fill-rule="nonzero"></path>
                <path d="M138.982801,106.441767 C138.708214,108.504826 138.341619,114.259676 138.341619,114.259676 C137.057818,116.198228 134.214191,115.151497 134.214191,115.151497 C134.214191,115.151497 133.909414,114.572392 133.450811,112.380482 C132.992208,110.188572 132.717621,102.467663 132.717621,102.467663 L131.646588,95.9816935 C130.669002,93.4872013 130.454795,90.5323212 130.454795,90.5323212 C130.023507,89.3929333 128.986978,81.9123523 128.986978,81.9123523 C128.986978,81.9123523 129.418266,88.6227244 129.140804,92.1639478 C128.863342,95.7051711 130.545366,100.469753 130.545366,100.469753 C130.545366,100.469753 131.4942,104.934647 131.003969,106.320155 C130.513738,107.705662 132.22739,113.430109 132.22739,113.430109 C132.083627,115.093586 127.215821,114.416034 127.215821,114.416034 C127.215821,114.416034 124.925681,108.226856 124.524583,104.501767 C124.284218,102.257304 123.890817,100.032151 123.347166,97.8420664 L122.950381,92.6692164 L122.245943,89.6115452 L121.406369,85.5795308 C120.457535,82.6246507 120.168572,77.6834425 120.168572,77.6834425 L119.433944,72.8348909 C118.953777,70.4373987 119.577707,67.6229514 119.991744,66.1505785 C120.171447,65.5121159 120.31521,65.1226682 120.31521,65.1226682 C120.736435,65.4238025 123.148773,65.7770562 124.396634,66.0637128 C125.079567,66.2222219 125.781923,66.2788064 126.481193,66.2316531 C129.636065,65.9793862 132.757075,65.4030787 135.795581,64.5117131 C136.001162,64.4494593 136.110421,64.4132653 136.110421,64.4132653 L136.175115,64.9677578 L136.327503,66.2881158 L136.599215,68.6320408 C136.599215,68.6320408 137.424413,81.1305614 136.935619,82.8200984 C136.446826,84.5096355 137.272024,90.2036794 137.272024,90.2036794 C136.813421,91.5544404 138.249611,97.0443501 138.249611,97.0443501 C138.249611,97.0443501 139.258825,104.378707 138.982801,106.441767 Z" id="Path" fill="#000000" fill-rule="nonzero" opacity="0.1"></path>
                <path d="M138.982801,106.440027 C138.708214,108.503356 138.341619,114.258959 138.341619,114.258959 C137.057818,116.199213 134.214191,115.150897 134.214191,115.150897 C134.214191,115.150897 133.909414,114.571716 133.450811,112.380967 C132.992208,110.190218 132.717621,102.465403 132.717621,102.465403 L131.646588,95.9698972 C130.67619,93.4750786 130.454795,90.512572 130.454795,90.512572 C130.023507,89.373035 128.986978,81.891475 128.986978,81.891475 C128.986978,81.891475 129.418266,88.6027253 129.140804,92.1444121 C128.863342,95.6860989 130.545366,100.457096 130.545366,100.457096 C130.545366,100.457096 131.4942,104.922575 131.003969,106.308263 C130.513738,107.693952 132.22739,113.420596 132.22739,113.420596 C132.083627,115.082843 127.215821,114.405202 127.215821,114.405202 C127.215821,114.405202 124.925681,108.222454 124.524583,104.495429 C124.284218,102.250672 123.890817,100.025228 123.347166,97.8348573 L122.950381,92.6627784 L122.245943,89.6148427 L121.406369,85.5823007 C120.457535,82.6255859 120.168572,77.6837311 120.168572,77.6837311 L119.433944,72.8345451 C118.953777,70.4367391 119.577707,67.6219235 119.991744,66.1493579 C120.171447,65.5122597 120.31521,65.122761 120.31521,65.122761 C120.736435,65.4239347 123.148773,65.7757867 124.396634,66.0624809 C125.079458,66.2217218 125.781918,66.2783222 126.481193,66.2304431 C129.636065,65.9781432 132.757075,65.4017603 135.795581,64.510278 L136.110421,64.4132653 L136.175115,64.9663824 L136.327503,66.2883611 L136.599215,68.6325929 C136.599215,68.6325929 137.424413,81.1313011 136.935619,82.8225072 C136.446826,84.5137133 137.272024,90.2070544 137.272024,90.2070544 C136.813421,91.5565442 138.249611,97.0471723 138.249611,97.0471723 C138.249611,97.0471723 139.258825,104.373802 138.982801,106.440027 Z" id="Path" fill="#474463" fill-rule="nonzero"></path>
                <path d="M130.733958,30.792757 C130.735797,31.8282511 130.461981,32.8460389 129.939946,33.7441404 C129.005816,33.9069852 128.011842,33.7268471 127.312704,33.1172596 C126.833961,32.7007802 126.524531,32.1315437 126.112929,31.6487735 C125.846498,31.3520927 125.560268,31.0733374 125.256156,30.8143736 C125.057591,30.6190697 124.829636,30.4552507 124.580371,30.3287212 C124.326306,30.2020083 124.027084,30.1988144 123.770304,30.3200745 C123.440439,30.5016538 123.332431,30.9066043 123.141226,31.2294119 C122.997418,31.5065343 122.751328,31.7185572 122.453764,31.8217061 C122.14835,31.9181656 121.814943,31.8064878 121.632021,31.546455 C121.429139,31.2020309 121.578016,30.6644987 121.237934,30.4540973 C121.148229,30.4103626 121.055568,30.3728043 120.960614,30.3416911 C120.52274,30.1457008 120.471655,29.5649354 120.433706,29.0893707 C120.414731,28.8559117 120.363646,28.5921894 120.165143,28.4668133 C119.966641,28.3414371 119.705376,28.4048458 119.468924,28.4091691 C119.398964,28.4118878 119.32892,28.4065681 119.260204,28.3933169 C120.40897,25.8365652 123.213016,24.4221381 125.984493,25.0014264 C128.75597,25.5807147 130.738944,27.9957145 130.739796,30.792757 L130.733958,30.792757 Z" id="Path" fill="#000000" fill-rule="nonzero" opacity="0.1"></path>
                <path d="M118.792806,23.2060144 C118.328817,23.5479582 118.035875,24.0738884 117.98964,24.6479696 C117.978636,24.7427847 117.986033,24.8388294 118.011426,24.9308481 C118.051965,25.0285067 118.100544,25.1226387 118.156664,25.212276 C118.461663,25.8172009 117.995449,26.5338266 118.054997,27.2083831 C118.138565,27.8674334 118.69706,28.3632847 119.362139,28.3689104 C119.597424,28.3689104 119.855948,28.2992788 120.054924,28.4269368 C120.2539,28.5545948 120.303281,28.8186148 120.322162,29.0536216 C120.359924,29.5323391 120.407852,30.1169548 120.845018,30.3142444 C120.939226,30.3463083 121.031382,30.384096 121.120971,30.4273958 C121.460827,30.6391921 121.312685,31.1817386 121.514565,31.5269955 C121.696586,31.7887522 122.028347,31.9011705 122.332255,31.8040714 C122.627783,31.700662 122.872187,31.4877115 123.014874,31.2093011 C123.202231,30.8829028 123.314064,30.4839715 123.642302,30.2939352 C123.897441,30.1707478 124.195497,30.1734298 124.448372,30.3011885 C124.696458,30.4290789 124.923281,30.5944689 125.120824,30.7915113 C125.423786,31.051812 125.708629,31.3324399 125.973371,31.631443 C126.382942,32.1159631 126.690847,32.6889735 127.167227,33.108214 C128.064798,33.895922 129.438749,33.9786095 130.545462,33.5245532 C130.705194,33.4713511 130.849351,33.3796782 130.9652,33.2576319 C131.066232,33.1172802 131.131533,32.9544698 131.155462,32.7832664 C131.26784,32.2371642 131.30013,31.677644 131.251319,31.1222616 C131.212105,30.6870638 131.123509,30.2518661 131.154009,29.8166683 C131.184509,29.3495561 131.351533,28.898401 131.374771,28.4312888 C131.415438,27.604413 131.004414,26.8196064 130.503343,26.1653591 C130.201248,25.7751318 129.861391,25.4139177 129.599963,24.9961278 C129.37194,24.633463 129.206368,24.2345317 128.962368,23.8834722 C128.390131,23.0638498 127.425751,22.5778789 126.441037,22.4081518 C125.456324,22.2384247 124.444015,22.3428721 123.457849,22.5067966 C122.598041,22.6518625 121.732422,22.8578561 120.860995,22.9086292 C120.098495,22.9623036 119.484139,22.7055369 118.792806,23.2060144 Z" id="Path" fill="#472727" fill-rule="nonzero"></path>
                <path d="M126.27551,38.2653061 L125.127295,41.1425663 L123.139508,46.3990994 C123.139508,46.3990994 123.121917,46.4529359 123.086735,46.5486452 L123.086735,46.5561224 L125.587861,38.7109525 C125.827485,38.5769643 126.057219,38.4280806 126.27551,38.2653061 L126.27551,38.2653061 Z" id="Path" fill="#000000" fill-rule="nonzero" opacity="0.1"></path>
                <path d="M137.113479,70.2495242 C137.113479,70.2495242 137.219547,73.7401838 136.320835,74.6173469 L133.928571,69.8986589 L135.935264,68.877551 L137.113479,70.2495242 Z" id="Path" fill="#FFB9B9" fill-rule="nonzero"></path>
                <path d="M142.857143,71.8148081 C141.748729,73.1098096 136.92438,73.3418367 136.92438,73.3418367 L132.14923,65.8009547 C132.14923,65.8009547 131.019111,65.0149628 128.89634,61.4750988 C126.773569,57.9352347 126.843025,55.2089159 126.961681,53.1728777 C127.080336,51.1368396 128.408696,45.2854052 128.408696,45.2854052 C128.615619,43.9686512 131.592129,35.7142857 131.592129,35.7142857 C131.904685,36.3393088 132.486385,36.8613699 133.166482,37.2920703 C135.004191,38.4522059 137.569749,38.9278616 137.569749,38.9278616 C141.702425,39.529682 140.939848,43.8076823 140.939848,43.8076823 C140.939848,43.8076823 140.986152,60.4367773 140.731478,62.42641 C140.476803,64.4160427 142.857143,71.8148081 142.857143,71.8148081 Z" id="Path" fill="#000000" fill-rule="nonzero" opacity="0.1"></path>
                <polygon id="Path" fill="#CBCDDA" fill-rule="nonzero" points="137.755102 70.8395417 137.609676 72.0663265 135.853956 71.4536549 134.566327 69.5983411 135.532806 68.877551"></polygon>
                <path d="M137.117347,66.0129846 L136.245516,66.0980469 L127.839393,66.8992785 C126.489477,67.028576 125.126878,66.9647605 123.796743,66.7099464 L119.897959,65.9663376 C120.077792,65.3626699 120.221659,64.9936094 120.221659,64.9936094 C120.643188,65.2789796 123.057269,65.6123688 124.30603,65.8840192 C124.989347,66.0349043 125.692315,66.0885347 126.392095,66.043168 C129.549245,65.804107 132.67251,65.2579687 135.713209,64.4132653 L136.093017,64.8454365 L137.117347,66.0129846 Z" id="Path" fill="#000000" fill-rule="nonzero" opacity="0.1"></path>
                <g id="Group" opacity="0.1" transform="translate(120.535714, 64.413265)" fill="#000000" fill-rule="nonzero">
                    <path d="M0.231910946,0.754466092 C0.203938144,0.740706615 0.176831688,0.725261091 0.150742115,0.708215297 C0.150742115,0.708215297 0.150742115,0.716887322 0.142045455,0.729895358 L0.231910946,0.754466092 Z" id="Path"></path>
                    <path d="M18.2325487,32.5779037 C18.2325487,32.5779037 16.7831053,27.0971845 17.2469272,25.7501301 C17.2469272,25.7501301 16.4149467,20.0699543 16.9092069,18.3789096 C17.4034671,16.6878649 16.5685877,4.21460369 16.5685877,4.21460369 L16.2946429,1.87460253 L16.1410019,0.555009539 L16.0772263,0.00289067468 L15.7583488,0.0997282766 L15.5612245,0.15754177 L15.585865,0.371451697 L15.739506,1.68959935 L16.0134508,4.02960051 C16.0134508,4.02960051 16.8454314,16.5071978 16.35407,18.1939065 C15.8627087,19.8806151 16.6917904,25.5651269 16.6917904,25.5651269 C16.2294179,26.9136266 17.6774119,32.3929005 17.6774119,32.3929005 C17.6774119,32.3929005 18.6920223,39.7091981 18.4180775,41.7673585 C18.1441327,43.8255189 17.7701763,49.5721801 17.7701763,49.5721801 C16.8251391,50.9871654 15.0408743,50.8108342 14.1465677,50.612823 L14.1625116,50.6475111 C14.1625116,50.6475111 17.0295107,51.6939354 18.3238636,49.7571833 C18.3238636,49.7571833 18.6934717,44.0090767 18.9717648,41.9523617 C19.250058,39.8956466 18.2325487,32.5779037 18.2325487,32.5779037 Z" id="Path"></path>
                    <path d="M10.9288033,41.829508 C11.4216141,40.4463202 10.4664309,35.9888998 10.4664309,35.9888998 C10.4664309,35.9888998 8.77203154,31.2192866 9.04887523,27.6912181 C9.16483071,26.2184194 9.15758349,24.1978378 9.10830241,22.34347 C8.71550325,19.9514367 8.33864796,17.2847893 8.33864796,17.2847893 C8.33864796,17.2847893 8.77348098,23.9839278 8.49518785,27.5177776 C8.21689471,31.0516274 9.91129406,35.8169047 9.91129406,35.8169047 C9.91129406,35.8169047 10.8679267,40.2728797 10.3736665,41.6560675 C9.87940631,43.0392554 11.604244,48.7483379 11.604244,48.7483379 C11.4810413,50.0780482 8.31400742,49.9046077 7.05733998,49.7889807 L7.10517161,49.9161704 C7.10517161,49.9161704 12.0057398,50.5925883 12.1593844,48.933341 C12.1622797,48.929005 10.4359926,43.2126958 10.9288033,41.829508 Z" id="Path"></path>
                </g>
                <path d="M143.494898,71.8148081 C142.388003,73.1098096 137.562519,73.3418367 137.562519,73.3418367 L132.787677,65.8009547 C132.787677,65.8009547 131.657631,65.0149628 129.533549,61.4750988 C127.409468,57.9352347 127.481814,55.2089159 127.599015,53.1728777 C127.716216,51.1368396 129.045937,45.2854052 129.045937,45.2854052 C129.252847,43.9686512 132.229165,35.7142857 132.229165,35.7142857 C132.540253,36.3393088 133.121916,36.8613699 133.803416,37.2920703 C135.641006,38.4522059 138.206399,38.9278616 138.206399,38.9278616 C142.337361,39.529682 141.574833,43.8076823 141.574833,43.8076823 C141.574833,43.8076823 141.621134,60.4367773 141.366476,62.42641 C141.111818,64.4160427 143.494898,71.8148081 143.494898,71.8148081 Z" id="Path" fill="#4C4C78" fill-rule="nonzero"></path>
                <path d="M133.217641,39.7548846 L132.149758,40.1367749 L132.860689,40.6159255 L127.55102,52.9336735 C127.674466,50.9312528 129.038322,45.154269 129.038322,45.154269 C129.251007,43.8555562 132.310387,35.7142857 132.310387,35.7142857 C132.630157,36.3307452 133.228052,36.8456534 133.928571,37.2704527 L133.217641,39.7548846 Z" id="Path" fill="#000000" fill-rule="nonzero" opacity="0.1"></path>
                <polygon id="Path" fill="#000000" fill-rule="nonzero" opacity="0.1" points="133.928571 61.8406577 139.002823 60.5867347 139.668367 62.562896 134.48296 63.7755102"></polygon>
                <path d="M137.035874,40.4833458 C137.035874,40.4833458 134.588099,42.7267492 135.511732,47.7266213 C136.435365,52.7264934 137.912293,58.1546386 137.912293,58.1546386 L133.928571,68.9045793 C133.928571,68.9045793 136.705373,71.724283 138.070167,72.0663265 L142.046511,63.4706855 C142.046511,63.4706855 143.905581,60.4914573 143.411304,55.8163828 C142.917028,51.1413083 141.128779,43.5761095 141.128779,43.5761095 C141.128779,43.5761095 141.130255,38.9714557 137.035874,40.4833458 Z" id="Path" fill="#000000" fill-rule="nonzero" opacity="0.1"></path>
                <path d="M137.039377,40.4833458 C137.039377,40.4833458 134.592013,42.7267492 135.511986,47.7266213 C136.431959,52.7264934 137.909223,58.1546386 137.909223,58.1546386 L133.928571,68.9045793 C133.928571,68.9045793 136.703233,71.724283 138.066975,72.0663265 L142.047627,63.4706855 C142.047627,63.4706855 143.905265,60.4914573 143.411369,55.8163828 C142.917473,51.1413083 141.130603,43.5761095 141.130603,43.5761095 C141.130603,43.5761095 141.130603,38.9714557 137.039377,40.4833458 Z" id="Path" fill="#4C4C78" fill-rule="nonzero"></path>
                <path d="M134.474777,69.5328998 C134.474777,69.5328998 137.320721,73.5394162 137.105754,74.606354 C136.890788,75.6732918 136.056608,75.1027001 136.056608,75.1027001 L134.935806,73.5394162 L133.928571,70.6149617 C133.928571,70.6149617 134.027267,69.3527853 134.474777,69.5328998 Z" id="Path" fill="#000000" fill-rule="nonzero" opacity="0.1"></path>
                <path d="M133.837137,69.5328998 C133.837137,69.5328998 136.676924,73.5394162 136.468673,74.606354 C136.260422,75.6732918 135.419304,75.1027001 135.419304,75.1027001 L134.296912,73.5394162 L133.290816,70.6149617 C133.290816,70.6149617 133.389533,69.3527853 133.837137,69.5328998 Z" id="Path" fill="#000000" fill-rule="nonzero" opacity="0.1"></path>
                <path d="M134.4751,69.5328998 C134.4751,69.5328998 137.315969,73.5394162 137.106285,74.606354 C136.896602,75.6732918 136.056517,75.1027001 136.056517,75.1027001 L134.93505,73.5394162 L133.928571,70.6149617 C133.928571,70.6149617 134.025973,69.3527853 134.4751,69.5328998 Z" id="Path" fill="#474463" fill-rule="nonzero"></path>
            </g>
        </g>
    </g>
</svg>