<?xml version="1.0" encoding="UTF-8"?>
<svg width="215px" height="70px" viewBox="0 0 215 70" version="1.1" xmlns="http://www.w3.org/2000/svg" xmlns:xlink="http://www.w3.org/1999/xlink">
    <!-- Generator: Sketch 60.1 (88133) - https://sketch.com -->
    <title>undraw_houses3_xwf7</title>
    <desc>Created with Sketch.</desc>
    <defs>
        <linearGradient x1="50%" y1="100%" x2="50%" y2="0%" id="linearGradient-1">
            <stop stop-color="#808080" stop-opacity="0.25" offset="0%"></stop>
            <stop stop-color="#808080" stop-opacity="0.12" offset="54%"></stop>
            <stop stop-color="#808080" stop-opacity="0.1" offset="100%"></stop>
        </linearGradient>
        <linearGradient x1="50%" y1="99.9764318%" x2="50%" y2="0%" id="linearGradient-2">
            <stop stop-color="#808080" stop-opacity="0.25" offset="0%"></stop>
            <stop stop-color="#808080" stop-opacity="0.12" offset="54%"></stop>
            <stop stop-color="#808080" stop-opacity="0.1" offset="100%"></stop>
        </linearGradient>
        <linearGradient x1="50%" y1="100%" x2="50%" y2="0%" id="linearGradient-3">
            <stop stop-color="#808080" stop-opacity="0.25" offset="0%"></stop>
            <stop stop-color="#808080" stop-opacity="0.12" offset="54%"></stop>
            <stop stop-color="#808080" stop-opacity="0.1" offset="100%"></stop>
        </linearGradient>
        <linearGradient x1="50%" y1="100%" x2="50%" y2="0%" id="linearGradient-4">
            <stop stop-color="#808080" stop-opacity="0.25" offset="0%"></stop>
            <stop stop-color="#808080" stop-opacity="0.12" offset="54%"></stop>
            <stop stop-color="#808080" stop-opacity="0.1" offset="100%"></stop>
        </linearGradient>
        <linearGradient x1="50%" y1="100%" x2="50%" y2="0%" id="linearGradient-5">
            <stop stop-color="#808080" stop-opacity="0.25" offset="0%"></stop>
            <stop stop-color="#808080" stop-opacity="0.12" offset="54%"></stop>
            <stop stop-color="#808080" stop-opacity="0.1" offset="100%"></stop>
        </linearGradient>
        <linearGradient x1="50%" y1="100%" x2="50%" y2="0%" id="linearGradient-6">
            <stop stop-color="#808080" stop-opacity="0.25" offset="0%"></stop>
            <stop stop-color="#808080" stop-opacity="0.12" offset="54%"></stop>
            <stop stop-color="#808080" stop-opacity="0.1" offset="100%"></stop>
        </linearGradient>
        <linearGradient x1="50%" y1="100%" x2="50%" y2="0%" id="linearGradient-7">
            <stop stop-color="#808080" stop-opacity="0.25" offset="0%"></stop>
            <stop stop-color="#808080" stop-opacity="0.12" offset="54%"></stop>
            <stop stop-color="#808080" stop-opacity="0.1" offset="100%"></stop>
        </linearGradient>
        <linearGradient x1="49.9682942%" y1="100%" x2="49.9682942%" y2="0%" id="linearGradient-8">
            <stop stop-color="#808080" stop-opacity="0.25" offset="0%"></stop>
            <stop stop-color="#808080" stop-opacity="0.12" offset="54%"></stop>
            <stop stop-color="#808080" stop-opacity="0.1" offset="100%"></stop>
        </linearGradient>
        <linearGradient x1="49.9947617%" y1="100%" x2="49.9947617%" y2="0%" id="linearGradient-9">
            <stop stop-color="#808080" stop-opacity="0.25" offset="0%"></stop>
            <stop stop-color="#808080" stop-opacity="0.12" offset="54%"></stop>
            <stop stop-color="#808080" stop-opacity="0.1" offset="100%"></stop>
        </linearGradient>
        <linearGradient x1="50.0044912%" y1="100%" x2="50.0044912%" y2="0%" id="linearGradient-10">
            <stop stop-color="#808080" stop-opacity="0.25" offset="0%"></stop>
            <stop stop-color="#808080" stop-opacity="0.12" offset="54%"></stop>
            <stop stop-color="#808080" stop-opacity="0.1" offset="100%"></stop>
        </linearGradient>
        <linearGradient x1="50%" y1="100%" x2="50%" y2="0%" id="linearGradient-11">
            <stop stop-color="#808080" stop-opacity="0.25" offset="0%"></stop>
            <stop stop-color="#808080" stop-opacity="0.12" offset="54%"></stop>
            <stop stop-color="#808080" stop-opacity="0.1" offset="100%"></stop>
        </linearGradient>
        <linearGradient x1="50.0282646%" y1="100%" x2="50.0282646%" y2="0%" id="linearGradient-12">
            <stop stop-color="#808080" stop-opacity="0.25" offset="0%"></stop>
            <stop stop-color="#808080" stop-opacity="0.12" offset="54%"></stop>
            <stop stop-color="#808080" stop-opacity="0.1" offset="100%"></stop>
        </linearGradient>
        <linearGradient x1="50.0055328%" y1="100%" x2="50.0055328%" y2="0%" id="linearGradient-13">
            <stop stop-color="#808080" stop-opacity="0.25" offset="0%"></stop>
            <stop stop-color="#808080" stop-opacity="0.12" offset="54%"></stop>
            <stop stop-color="#808080" stop-opacity="0.1" offset="100%"></stop>
        </linearGradient>
        <linearGradient x1="50.0055182%" y1="100%" x2="50.0055182%" y2="0%" id="linearGradient-14">
            <stop stop-color="#808080" stop-opacity="0.25" offset="0%"></stop>
            <stop stop-color="#808080" stop-opacity="0.12" offset="54%"></stop>
            <stop stop-color="#808080" stop-opacity="0.1" offset="100%"></stop>
        </linearGradient>
        <linearGradient x1="50.0040022%" y1="100%" x2="50.0040022%" y2="0%" id="linearGradient-15">
            <stop stop-color="#808080" stop-opacity="0.25" offset="0%"></stop>
            <stop stop-color="#808080" stop-opacity="0.12" offset="54%"></stop>
            <stop stop-color="#808080" stop-opacity="0.1" offset="100%"></stop>
        </linearGradient>
        <linearGradient x1="49.9953319%" y1="100%" x2="49.9953319%" y2="0%" id="linearGradient-16">
            <stop stop-color="#808080" stop-opacity="0.25" offset="0%"></stop>
            <stop stop-color="#808080" stop-opacity="0.12" offset="54%"></stop>
            <stop stop-color="#808080" stop-opacity="0.1" offset="100%"></stop>
        </linearGradient>
    </defs>
    <g id="Sign-in-/-Sign-up" stroke="none" stroke-width="1" fill="none" fill-rule="evenodd">
        <g id="Formulaire_achat_objectif_3" transform="translate(-1066.000000, -462.000000)" fill-rule="nonzero">
            <g id="undraw_houses3_xwf7" transform="translate(1066.000000, 462.000000)">
                <g id="Group" opacity="0.7" transform="translate(55.000000, 32.000000)" fill="url(#linearGradient-1)">
                    <polygon id="Path" points="72.9381356 37.8013072 0.0222711864 37.8013072 0.527084746 3.52183007 21.380339 0.057124183 50.8624407 0.057124183 72.433322 2.51098039"></polygon>
                </g>
                <polygon id="Path" fill="#EEEEEE" points="127 69 56 69 56.5055497 35.4759916 76.4450262 32 106.262548 32 126.49445 34.4618493"></polygon>
                <g id="Group" opacity="0.7" transform="translate(78.000000, 19.000000)" fill="url(#linearGradient-2)">
                    <rect id="Rectangle" x="0.113636364" y="0.2075" width="4.88636364" height="10.6075"></rect>
                </g>
                <g id="Group" opacity="0.7" transform="translate(51.000000, 32.000000)" fill="url(#linearGradient-3)">
                    <polygon id="Path" points="26.6327027 11.7892157 26.6327027 0.0994117647 3.91621622 0.0994117647 0.0583783784 11.7892157 0.0583783784 12.9872549 26.7762162 12.9872549 26.7762162 11.7892157"></polygon>
                </g>
                <polygon id="Path" fill="#38D39F" points="78 44 51 44 54.9188714 33 78 33"></polygon>
                <polygon id="Path" fill="#06AE88" opacity="0.1" points="78 44 51 44 54.9188714 33 78 33"></polygon>
                <rect id="Rectangle" fill="#38D39F" x="51" y="44" width="27" height="1"></rect>
                <g id="Group" opacity="0.7" transform="translate(104.000000, 32.000000)" fill="url(#linearGradient-4)">
                    <polygon id="Path" points="23.0254054 0.2025 0.248108108 0.2025 0.248108108 11.7975 0.104594595 11.7975 0.104594595 12.9875 26.8954054 12.9875 26.8954054 11.7975"></polygon>
                </g>
                <polygon id="Path" fill="#38D39F" points="104 44 131 44 127.081129 33 104 33"></polygon>
                <polygon id="Path" fill="#06AE88" opacity="0.1" points="104 44 131 44 127.081129 33 104 33"></polygon>
                <rect id="Rectangle" fill="#38D39F" transform="translate(117.500000, 44.500000) rotate(-180.000000) translate(-117.500000, -44.500000) " x="104" y="44" width="27" height="1"></rect>
                <rect id="Rectangle" fill="#38D39F" opacity="0.5" x="58" y="49" width="15" height="9"></rect>
                <rect id="Rectangle" fill="#000000" opacity="0.1" x="58" y="57" width="16" height="2"></rect>
                <rect id="Rectangle" fill="#535461" x="58" y="57" width="16" height="2"></rect>
                <g id="Group" opacity="0.1" transform="translate(58.000000, 49.000000)" fill="#000000">
                    <rect id="Rectangle" x="0.115" y="0.0693333333" width="14.675" height="3.87466667"></rect>
                </g>
                <rect id="Rectangle" fill="#38D39F" opacity="0.5" x="109" y="49" width="15" height="9"></rect>
                <rect id="Rectangle" fill="#000000" opacity="0.1" x="109" y="57" width="16" height="2"></rect>
                <rect id="Rectangle" fill="#535461" x="109" y="57" width="16" height="2"></rect>
                <g id="Group" opacity="0.1" transform="translate(109.000000, 49.000000)" fill="#000000">
                    <rect id="Rectangle" x="0.235" y="0.0693333333" width="14.675" height="3.87466667"></rect>
                </g>
                <g id="Group" opacity="0.7" transform="translate(72.000000, 16.000000)" fill="url(#linearGradient-5)">
                    <polygon id="Path" points="36.5420915 16.9213433 18.736732 2.85447761 1.50509804 16.911194 0.153986928 15.1832836 18.7168627 0.0431343284 37.8658824 15.1731343"></polygon>
                </g>
                <rect id="Rectangle" fill="#000000" opacity="0.1" x="56" y="44.8924028" width="19" height="1"></rect>
                <rect id="Rectangle" fill="#000000" opacity="0.1" x="107" y="44.8924028" width="19" height="1"></rect>
                <rect id="Rectangle" fill="#535461" x="78" y="20" width="5" height="10"></rect>
                <g id="Group" opacity="0.7" transform="translate(75.000000, 29.000000)" fill="url(#linearGradient-6)">
                    <polygon id="Path" points="32.765 39.8666667 0.22 39.8666667 0.22 0.548148148 16.6325 0.190123457 32.765 0.548148148"></polygon>
                </g>
                <polygon id="Path" fill="#FFFFFF" points="107 69 76 69 76 29.2445663 91.5012235 18 107 29.2445663"></polygon>
                <rect id="Rectangle" fill="#535461" x="87" y="56" width="8" height="13"></rect>
                <rect id="Rectangle" fill="#000000" opacity="0.1" x="83" y="44" width="16" height="2"></rect>
                <rect id="Rectangle" fill="#38D39F" opacity="0.5" x="84" y="36" width="15" height="9"></rect>
                <rect id="Rectangle" fill="#535461" x="83" y="44" width="16" height="2"></rect>
                <g id="Group" opacity="0.1" transform="translate(84.000000, 35.000000)" fill="#000000">
                    <rect id="Rectangle" x="0.2275" y="0.0133333333" width="14.675" height="3.87466667"></rect>
                </g>
                <polygon id="Path" fill="#06AE88" points="108.666096 33 90.7247102 19.6650631 73.3614331 32.9903788 72 31.3523752 90.7046891 17 110 31.3427541"></polygon>
                <circle id="Oval" fill="#E0E0E0" cx="93.5" cy="62.5" r="1"></circle>
                <g id="Group" opacity="0.7" transform="translate(0.000000, 42.000000)" fill="url(#linearGradient-7)">
                    <rect id="Rectangle" x="0" y="0.112" width="31.9560305" height="27.754087"></rect>
                </g>
                <rect id="Rectangle" fill="#EEEEEE" x="1" y="42" width="31" height="28"></rect>
                <g id="Group" opacity="0.7" transform="translate(7.000000, 33.000000)" fill="url(#linearGradient-8)">
                    <rect id="Rectangle" x="0.0988235294" y="0.1975" width="3.71058824" height="7.7775"></rect>
                </g>
                <rect id="Rectangle" fill="#535461" x="6" y="33" width="4" height="8"></rect>
                <g id="Group" opacity="0.7" transform="translate(4.000000, 41.000000)" fill="url(#linearGradient-9)">
                    <polygon id="Path" points="23.8391753 28.7977311 0.222680412 28.7977311 0.222680412 0.343613445 12.1336082 0.0828571429 23.8391753 0.343613445"></polygon>
                </g>
                <polygon id="Path" fill="#FFFFFF" points="28 70 5 70 5 41.1588224 16.5 33 28 41.1588224"></polygon>
                <rect id="Rectangle" fill="#535461" x="13" y="60" width="6" height="10"></rect>
                <rect id="Rectangle" fill="#38D39F" opacity="0.5" x="11" y="45" width="11" height="7"></rect>
                <rect id="Rectangle" fill="#535461" x="10" y="51" width="12" height="1"></rect>
                <g id="Group" opacity="0.1" transform="translate(11.000000, 45.000000)" fill="#000000">
                    <rect id="Rectangle" x="0.08" y="0.22" width="10.76" height="2.6625"></rect>
                </g>
                <g id="Group" opacity="0.7" transform="translate(3.000000, 31.000000)" fill="url(#linearGradient-10)">
                    <polygon id="Path" points="26.8825 11.8296 13.7425 2.0736 1.025 11.8224 0.0275 10.6224 13.7275 0.1224 27.86 10.6152"></polygon>
                </g>
                <polygon id="Path" fill="#38D39F" points="30.0166173 43 16.7975388 33 4.0035031 42.9926199 3 41.7650677 16.7824486 31 31 41.7576876"></polygon>
                <circle id="Oval" fill="#E0E0E0" cx="18.5" cy="64.5" r="1"></circle>
                <g id="Group" opacity="0.7" transform="translate(152.000000, 21.000000)" fill="url(#linearGradient-11)">
                    <polygon id="Path" points="59.8691358 48.88485 0.012345679 48.88485 0.424691358 4.5717 17.5432099 0.0931 41.7481481 0.0931 59.4567901 3.26585"></polygon>
                </g>
                <polygon id="Path" fill="#EEEEEE" points="211 69 153 69 153.413372 25.506938 169.702189 21 194.059138 21 210.586628 24.1921061"></polygon>
                <g id="Group" opacity="0.7" transform="translate(171.000000, 1.000000)" fill="url(#linearGradient-12)">
                    <rect id="Rectangle" x="0.0155555556" y="0.11" width="3.93111111" height="8.7275"></rect>
                </g>
                <g id="Group" opacity="0.7" transform="translate(148.000000, 18.000000)" fill="url(#linearGradient-13)">
                    <polygon id="Path" points="22.7649451 9.04285714 22.7649451 0.0595238095 3.34384615 0.0595238095 0.0454945055 9.04285714 0.0454945055 9.96428571 22.8862637 9.96428571 22.8862637 9.04285714"></polygon>
                </g>
                <polygon id="Path" fill="#38D39F" points="171 28 149 28 152.193748 19 171 19"></polygon>
                <polygon id="Path" fill="#000000" opacity="0.1" points="171 28 149 28 152.193748 19 171 19"></polygon>
                <rect id="Rectangle" fill="#38D39F" x="149" y="28" width="22" height="1"></rect>
                <g id="Group" opacity="0.7" transform="translate(192.000000, 18.000000)" fill="url(#linearGradient-14)">
                    <polygon id="Path" points="19.6081319 0.186744186 0.136483516 0.186744186 0.136483516 9.94860465 0.0126373626 9.94860465 0.0126373626 10.9513953 22.9140659 10.9513953 22.9140659 9.94860465"></polygon>
                </g>
                <polygon id="Path" fill="#38D39F" points="193 28 215 28 211.806611 19 193 19"></polygon>
                <polygon id="Path" fill="#000000" opacity="0.1" points="193 28 215 28 211.806611 19 193 19"></polygon>
                <rect id="Rectangle" fill="#38D39F" transform="translate(204.000000, 28.500000) rotate(-180.000000) translate(-204.000000, -28.500000) " x="193" y="28" width="22" height="1"></rect>
                <rect id="Rectangle" fill="#38D39F" opacity="0.5" x="155" y="53" width="12" height="7"></rect>
                <rect id="Rectangle" fill="#000000" opacity="0.1" x="154" y="60" width="13" height="1"></rect>
                <rect id="Rectangle" fill="#535461" x="154" y="60" width="13" height="1"></rect>
                <g id="Group" opacity="0.1" transform="translate(155.000000, 53.000000)" fill="#000000">
                    <rect id="Rectangle" x="0.00979591837" y="0.0253846154" width="11.8261224" height="2.75769231"></rect>
                </g>
                <rect id="Rectangle" fill="#38D39F" opacity="0.5" x="197" y="53" width="12" height="7"></rect>
                <rect id="Rectangle" fill="#000000" opacity="0.1" x="196" y="60" width="13" height="1"></rect>
                <rect id="Rectangle" fill="#535461" x="196" y="60" width="13" height="1"></rect>
                <g id="Group" opacity="0.1" transform="translate(197.000000, 53.000000)" fill="#000000">
                    <rect id="Rectangle" x="0.18" y="0.0253846154" width="11.5896" height="2.75769231"></rect>
                </g>
                <rect id="Rectangle" fill="#38D39F" opacity="0.5" x="197" y="36" width="12" height="7"></rect>
                <rect id="Rectangle" fill="#000000" opacity="0.1" x="196" y="43" width="13" height="1"></rect>
                <rect id="Rectangle" fill="#535461" x="196" y="43" width="13" height="1"></rect>
                <g id="Group" opacity="0.1" transform="translate(197.000000, 35.000000)" fill="#000000">
                    <rect id="Rectangle" x="0.18" y="0.189230769" width="11.5896" height="2.75769231"></rect>
                </g>
                <rect id="Rectangle" fill="#38D39F" opacity="0.5" x="155" y="36" width="12" height="7"></rect>
                <rect id="Rectangle" fill="#000000" opacity="0.1" x="154" y="43" width="13" height="1"></rect>
                <rect id="Rectangle" fill="#535461" x="154" y="43" width="13" height="1"></rect>
                <g id="Group" opacity="0.1" transform="translate(155.000000, 35.000000)" fill="#000000">
                    <rect id="Rectangle" x="0.11755102" y="0.189230769" width="11.8261224" height="2.75769231"></rect>
                </g>
                <g id="Group" opacity="0.7" transform="translate(166.000000, 0.000000)" fill="url(#linearGradient-15)">
                    <polygon id="Path" points="29.8756349 13.9312727 15.3671429 2.32145455 1.32119048 13.9236364 0.218968254 12.4981818 15.3499206 0 30.9557143 12.488"></polygon>
                </g>
                <rect id="Rectangle" fill="#000000" opacity="0.1" x="153" y="28.9109541" width="16" height="1"></rect>
                <rect id="Rectangle" fill="#000000" opacity="0.1" x="195" y="28.9109541" width="16" height="1"></rect>
                <rect id="Rectangle" fill="#535461" x="171" y="1" width="4" height="9"></rect>
                <g id="Group" opacity="0.7" transform="translate(168.000000, 11.000000)" fill="url(#linearGradient-16)">
                    <polygon id="Path" points="26.965 57.7778723 0.1875 57.7778723 0.1875 0.649106383 13.6925 0.128340426 26.965 0.649106383"></polygon>
                </g>
                <polygon id="Path" fill="#FFFFFF" points="194.762738 69 169 69 169 11.6704591 181.881369 2 195 12.0257005"></polygon>
                <rect id="Rectangle" fill="#535461" x="178" y="58" width="7" height="11"></rect>
                <rect id="Rectangle" fill="#000000" opacity="0.1" x="175" y="49" width="13" height="1"></rect>
                <rect id="Rectangle" fill="#38D39F" opacity="0.5" x="176" y="42" width="12" height="7"></rect>
                <rect id="Rectangle" fill="#535461" x="175" y="49" width="13" height="1"></rect>
                <g id="Group" opacity="0.1" transform="translate(176.000000, 42.000000)" fill="#000000">
                    <rect id="Rectangle" x="0.0391836735" y="0.159230769" width="11.8261224" height="2.75769231"></rect>
                </g>
                <rect id="Rectangle" fill="#38D39F" opacity="0.5" x="176" y="27" width="12" height="7"></rect>
                <rect id="Rectangle" fill="#535461" x="175" y="34" width="13" height="1"></rect>
                <g id="Group" opacity="0.1" transform="translate(176.000000, 27.000000)" fill="#000000">
                    <rect id="Rectangle" x="0.0391836735" y="0.147692308" width="11.8261224" height="2.75769231"></rect>
                </g>
                <rect id="Rectangle" fill="#38D39F" opacity="0.5" x="176" y="13" width="12" height="7"></rect>
                <rect id="Rectangle" fill="#535461" x="175" y="19" width="13" height="1"></rect>
                <g id="Group" opacity="0.1" transform="translate(176.000000, 12.000000)" fill="#000000">
                    <rect id="Rectangle" x="0.0391836735" y="0.133846154" width="11.8261224" height="2.75769231"></rect>
                </g>
                <polygon id="Path" fill="#38D39F" points="195.91067 14 181.277916 2.33248082 167.111663 13.9897698 166 12.5575448 181.260546 0 197 12.5473146"></polygon>
                <circle id="Oval" fill="#E0E0E0" cx="183.5" cy="63.5" r="1"></circle>
            </g>
        </g>
    </g>
</svg>