<?xml version="1.0" encoding="UTF-8"?>
<svg width="231px" height="156px" viewBox="0 0 231 156" version="1.1" xmlns="http://www.w3.org/2000/svg" xmlns:xlink="http://www.w3.org/1999/xlink">
    <!-- Generator: Sketch 60.1 (88133) - https://sketch.com -->
    <title>illu/loc</title>
    <desc>Created with Sketch.</desc>
    <g id="Formulaire-sign-up" stroke="none" stroke-width="1" fill="none" fill-rule="evenodd">
        <g id="Formulaire_loc_recherche2" transform="translate(-547.000000, -307.000000)" fill-rule="nonzero">
            <g id="illu/loc" transform="translate(547.000000, 306.000000)">
                <g id="Illustration" transform="translate(0.000000, 27.000000)">
                    <g id="undraw_best_place_r685" transform="translate(-0.000000, -0.000000)">
                        <rect id="Rectangle" fill="#3F3D56" x="177.274581" y="105.553819" width="1" height="16.2760417"></rect>
                        <path d="M181.261655,108.248586 C181.285277,113.741869 177.679307,118.212963 177.679307,118.212963 C177.679307,118.212963 174.035038,113.777683 174.011415,108.2844 C173.987792,102.791117 177.593763,98.3200231 177.593763,98.3200231 C177.593763,98.3200231 181.238032,102.755295 181.261655,108.248586 Z" id="Path" fill="#38D39F"></path>
                        <path d="M181.261655,108.248586 C181.285277,113.741869 177.679307,118.212963 177.679307,118.212963 C177.679307,118.212963 174.035038,113.777683 174.011415,108.2844 C173.987792,102.791117 177.593763,98.3200231 177.593763,98.3200231 C177.593763,98.3200231 181.238032,102.755295 181.261655,108.248586 Z" id="Path" fill="#000000"></path>
                        <path d="M10.9695464,118.404061 C11.2803031,119.402837 12.3446722,120.021412 12.3446722,120.021412 C12.3446722,120.021412 12.9052303,119.020642 12.5944828,118.021865 C12.2837353,117.023089 11.2193588,116.404514 11.2193588,116.404514 C11.2193588,116.404514 10.6588007,117.405283 10.9695464,118.404061 Z" id="Path" fill="#3F3D56"></path>
                        <path d="M11.5649625,119.295726 C12.5660399,120.294505 12.6883239,121.829861 12.6883239,121.829861 C12.6883239,121.829861 11.1875295,121.745875 10.1864499,120.747096 C9.18537036,119.748317 9.06308851,118.212963 9.06308851,118.212963 C9.06308851,118.212963 10.563883,118.296947 11.5649625,119.295726 Z" id="Path" fill="#38D39F"></path>
                        <path d="M136.040168,118.404061 C136.350915,119.402837 137.415294,120.021412 137.415294,120.021412 C137.415294,120.021412 137.975852,119.020642 137.665104,118.021865 C137.354357,117.023089 136.28998,116.404514 136.28998,116.404514 C136.28998,116.404514 135.729422,117.405283 136.040168,118.404061 Z" id="Path" fill="#3F3D56"></path>
                        <path d="M134.822966,119.295726 C135.824044,120.294505 135.946328,121.829861 135.946328,121.829861 C135.946328,121.829861 134.445533,121.745875 133.444454,120.747096 C132.443374,119.748317 132.321092,118.212963 132.321092,118.212963 C132.321092,118.212963 133.821887,118.296947 134.822966,119.295726 Z" id="Path" fill="#38D39F"></path>
                        <polygon id="Path" fill="#3F3D56" points="13.5583299 109.611779 12.6883239 108.288594 20.8088008 101.936921 41.6902072 101.936921 41.6902072 103.789381 34.1497343 111.199793 25.4490432 112.787616"></polygon>
                        <polygon id="Path" fill="#CCCCCC" points="44.5954761 106.28624 44.5954761 101.936921 42.1101139 101.936921 42.1101139 103.308417 41.3277983 102.371107 35.000066 109.042738 33.9453165 110.154609 32.6271186 115.714368 35.000066 121.829861 47.1280603 121.829861 47.1280603 109.320705"></polygon>
                        <rect id="Rectangle" fill="#F2F2F2" x="12.6883239" y="109.170718" width="21.7514124" height="12.6591435"></rect>
                        <rect id="Rectangle" fill="#3F3D56" x="27.1892655" y="112.787616" width="3.6252354" height="3.61689815"></rect>
                        <rect id="Rectangle" fill="#CCCCCC" x="21.7514124" y="112.787616" width="3.6252354" height="9.04224537"></rect>
                        <polygon id="Path" fill="#3F3D56" points="16.3135593 114.596065 16.3135593 112.787616 14.5009416 112.787616 14.5009416 114.596065 16.1623983 114.596065"></polygon>
                        <polygon id="Path" fill="#3F3D56" points="16.1623983 114.596065 14.5009416 114.596065 14.5009416 116.404514 16.3135593 116.404514 16.3135593 114.596065"></polygon>
                        <rect id="Rectangle" fill="#3F3D56" x="18.126177" y="112.787616" width="1.8126177" height="1.80844907"></rect>
                        <rect id="Rectangle" fill="#3F3D56" x="18.126177" y="114.596065" width="1.8126177" height="1.80844907"></rect>
                        <polygon id="Path" fill="#3F3D56" points="39.8775895 114.596065 39.8775895 112.787616 38.0649718 112.787616 38.0649718 114.596065 39.7264467 114.596065"></polygon>
                        <polygon id="Path" fill="#3F3D56" points="39.7264467 114.596065 38.0649718 114.596065 38.0649718 116.404514 39.8775895 116.404514 39.8775895 114.596065"></polygon>
                        <rect id="Rectangle" fill="#3F3D56" x="41.6902072" y="112.787616" width="1.8126177" height="1.80844907"></rect>
                        <rect id="Rectangle" fill="#3F3D56" x="41.6902072" y="114.596065" width="1.8126177" height="1.80844907"></rect>
                        <polygon id="Path" fill="#3F3D56" points="93.3135089 109.611779 92.4435028 108.288594 100.56398 101.936921 121.445386 101.936921 121.445386 103.789381 113.904913 111.199793 105.204222 112.787616"></polygon>
                        <polygon id="Path" fill="#CCCCCC" points="124.350655 106.28624 124.350655 101.936921 121.865293 101.936921 121.865293 103.308417 121.082977 102.371107 114.755245 109.042738 113.700495 110.154609 112.382298 115.714368 114.755245 121.829861 126.883239 121.829861 126.883239 109.320705"></polygon>
                        <rect id="Rectangle" fill="#F2F2F2" x="94.2561205" y="109.170718" width="21.7514124" height="12.6591435"></rect>
                        <rect id="Rectangle" fill="#3F3D56" x="108.757062" y="112.787616" width="3.6252354" height="3.61689815"></rect>
                        <rect id="Rectangle" fill="#CCCCCC" x="101.506591" y="112.787616" width="3.6252354" height="9.04224537"></rect>
                        <polygon id="Path" fill="#3F3D56" points="97.8813559 114.596065 97.8813559 112.787616 96.0687382 112.787616 96.0687382 114.596065 97.7301949 114.596065"></polygon>
                        <polygon id="Path" fill="#3F3D56" points="97.7301949 114.596065 96.0687382 114.596065 96.0687382 116.404514 97.8813559 116.404514 97.8813559 114.596065"></polygon>
                        <rect id="Rectangle" fill="#3F3D56" x="97.8813559" y="112.787616" width="1.8126177" height="1.80844907"></rect>
                        <rect id="Rectangle" fill="#3F3D56" x="97.8813559" y="114.596065" width="1.8126177" height="1.80844907"></rect>
                        <polygon id="Path" fill="#3F3D56" points="121.445386 114.596065 121.445386 112.787616 119.632768 112.787616 119.632768 114.596065 121.294243 114.596065"></polygon>
                        <polygon id="Path" fill="#3F3D56" points="121.294243 114.596065 119.632768 114.596065 119.632768 116.404514 121.445386 116.404514 121.445386 114.596065"></polygon>
                        <rect id="Rectangle" fill="#3F3D56" x="121.445386" y="112.787616" width="1.8126177" height="1.80844907"></rect>
                        <rect id="Rectangle" fill="#3F3D56" x="121.445386" y="114.596065" width="1.8126177" height="1.80844907"></rect>
                        <polygon id="Path" fill="#3F3D56" points="57.5642736 86.3433655 56.1911488 85.2513485 63.8810461 78.4270833 83.3804143 78.4270833 83.3804143 84.4324842 70.7470685 92.8946759"></polygon>
                        <polygon id="Path" fill="#CCCCCC" points="87.4798805 82.3795159 87.4798805 78.5678913 84.7930735 78.5678913 84.7930735 79.5014338 83.7902745 78.4270833 77.2346721 85.4729994 74.6695981 87.1641256 70.6920904 115.898556 76.6904904 121.829861 90.6308851 121.829861 90.6308851 85.7548197"></polygon>
                        <rect id="Rectangle" fill="#F2F2F2" x="56.1911488" y="85.6608796" width="21.7514124" height="36.1689815"></rect>
                        <rect id="Rectangle" fill="#CCCCCC" x="63.4416196" y="112.787616" width="3.6252354" height="9.04224537"></rect>
                        <polygon id="Path" fill="#3F3D56" points="59.8163842 116.404514 59.8163842 114.596065 58.0037665 114.596065 58.0037665 116.404514 59.6654422 116.404514"></polygon>
                        <polygon id="Path" fill="#3F3D56" points="59.6654422 116.404514 58.0037665 116.404514 58.0037665 118.212963 59.8163842 118.212963 59.8163842 116.404514"></polygon>
                        <rect id="Rectangle" fill="#3F3D56" x="59.8163842" y="114.596065" width="1.8126177" height="1.80844907"></rect>
                        <rect id="Rectangle" fill="#3F3D56" x="59.8163842" y="116.404514" width="1.8126177" height="1.80844907"></rect>
                        <polygon id="Path" fill="#3F3D56" points="70.6920904 116.404514 70.6920904 114.596065 68.8794727 114.596065 68.8794727 116.404514 70.5411485 116.404514"></polygon>
                        <polygon id="Path" fill="#3F3D56" points="70.5411485 116.404514 68.8794727 116.404514 68.8794727 118.212963 70.6920904 118.212963 70.6920904 116.404514"></polygon>
                        <rect id="Rectangle" fill="#3F3D56" x="72.5047081" y="114.596065" width="1.8126177" height="1.80844907"></rect>
                        <rect id="Rectangle" fill="#3F3D56" x="72.5047081" y="116.404514" width="1.8126177" height="1.80844907"></rect>
                        <polygon id="Path" fill="#3F3D56" points="83.3804143 87.4693287 83.3804143 85.6608796 81.5677966 85.6608796 81.5677966 87.4693287 83.2294724 87.4693287"></polygon>
                        <polygon id="Path" fill="#3F3D56" points="83.2294724 89.2777778 81.5677966 89.2777778 81.5677966 91.0862269 83.3804143 91.0862269 83.3804143 89.2777778"></polygon>
                        <rect id="Rectangle" fill="#3F3D56" x="83.3804143" y="85.6608796" width="1.8126177" height="1.80844907"></rect>
                        <rect id="Rectangle" fill="#3F3D56" x="83.3804143" y="89.2777778" width="1.8126177" height="1.80844907"></rect>
                        <polygon id="Path" fill="#3F3D56" points="83.3804143 94.703125 83.3804143 92.8946759 81.5677966 92.8946759 81.5677966 94.703125 83.2294724 94.703125"></polygon>
                        <polygon id="Path" fill="#3F3D56" points="83.2294724 96.5115741 81.5677966 96.5115741 81.5677966 98.3200231 83.3804143 98.3200231 83.3804143 96.5115741"></polygon>
                        <rect id="Rectangle" fill="#3F3D56" x="83.3804143" y="92.8946759" width="1.8126177" height="1.80844907"></rect>
                        <rect id="Rectangle" fill="#3F3D56" x="83.3804143" y="96.5115741" width="1.8126177" height="1.80844907"></rect>
                        <polygon id="Path" fill="#3F3D56" points="83.3804143 103.74537 83.3804143 101.936921 81.5677966 101.936921 81.5677966 103.74537 83.2294724 103.74537"></polygon>
                        <polygon id="Path" fill="#3F3D56" points="83.2294724 103.74537 81.5677966 103.74537 81.5677966 105.553819 83.3804143 105.553819 83.3804143 103.74537"></polygon>
                        <rect id="Rectangle" fill="#3F3D56" x="83.3804143" y="101.936921" width="1.8126177" height="1.80844907"></rect>
                        <rect id="Rectangle" fill="#3F3D56" x="83.3804143" y="103.74537" width="1.8126177" height="1.80844907"></rect>
                        <polygon id="Path" fill="#3F3D56" points="83.3804143 110.979167 83.3804143 109.170718 81.5677966 109.170718 81.5677966 110.979167 83.2294724 110.979167"></polygon>
                        <polygon id="Path" fill="#3F3D56" points="83.2294724 110.979167 81.5677966 110.979167 81.5677966 112.787616 83.3804143 112.787616 83.3804143 110.979167"></polygon>
                        <rect id="Rectangle" fill="#3F3D56" x="83.3804143" y="109.170718" width="1.8126177" height="1.80844907"></rect>
                        <rect id="Rectangle" fill="#3F3D56" x="83.3804143" y="110.979167" width="1.8126177" height="1.80844907"></rect>
                        <rect id="Rectangle" fill="#3F3D56" x="58.0037665" y="87.4693287" width="16.3135593" height="3.61689815"></rect>
                        <rect id="Rectangle" fill="#3F3D56" x="58.0037665" y="92.8946759" width="16.3135593" height="3.61689815"></rect>
                        <rect id="Rectangle" fill="#3F3D56" x="58.0037665" y="100.128472" width="16.3135593" height="3.61689815"></rect>
                        <rect id="Rectangle" fill="#3F3D56" x="58.0037665" y="107.362269" width="16.3135593" height="3.61689815"></rect>
                        <polygon id="Path" fill="#3F3D56" points="139.13207 86.3433655 137.758945 85.2513485 145.448843 78.4270833 164.948211 78.4270833 164.948211 84.4324842 152.314865 92.8946759"></polygon>
                        <polygon id="Path" fill="#CCCCCC" points="169.047677 82.3795159 169.047677 78.5678913 166.36087 78.5678913 166.36087 79.5014338 165.358071 78.4270833 158.802469 85.4729994 156.237395 87.1641256 152.259887 115.898556 158.258287 121.829861 172.198682 121.829861 172.198682 85.7548197"></polygon>
                        <rect id="Rectangle" fill="#F2F2F2" x="135.946328" y="85.6608796" width="21.7514124" height="36.1689815"></rect>
                        <rect id="Rectangle" fill="#CCCCCC" x="145.009416" y="112.787616" width="3.6252354" height="9.04224537"></rect>
                        <polygon id="Path" fill="#3F3D56" points="141.384181 116.404514 141.384181 114.596065 139.571563 114.596065 139.571563 116.404514 141.233239 116.404514"></polygon>
                        <polygon id="Path" fill="#3F3D56" points="141.233239 116.404514 139.571563 116.404514 139.571563 118.212963 141.384181 118.212963 141.384181 116.404514"></polygon>
                        <rect id="Rectangle" fill="#3F3D56" x="143.196798" y="114.596065" width="1.8126177" height="1.80844907"></rect>
                        <rect id="Rectangle" fill="#3F3D56" x="143.196798" y="116.404514" width="1.8126177" height="1.80844907"></rect>
                        <polygon id="Path" fill="#3F3D56" points="152.259887 116.404514 152.259887 114.596065 150.447269 114.596065 150.447269 116.404514 152.108945 116.404514"></polygon>
                        <polygon id="Path" fill="#3F3D56" points="152.108945 116.404514 150.447269 116.404514 150.447269 118.212963 152.259887 118.212963 152.259887 116.404514"></polygon>
                        <rect id="Rectangle" fill="#3F3D56" x="154.072505" y="114.596065" width="1.8126177" height="1.80844907"></rect>
                        <rect id="Rectangle" fill="#3F3D56" x="154.072505" y="116.404514" width="1.8126177" height="1.80844907"></rect>
                        <polygon id="Path" fill="#3F3D56" points="164.948211 87.4693287 164.948211 85.6608796 163.135593 85.6608796 163.135593 87.4693287 164.797269 87.4693287"></polygon>
                        <polygon id="Path" fill="#3F3D56" points="164.797269 89.2777778 163.135593 89.2777778 163.135593 91.0862269 164.948211 91.0862269 164.948211 89.2777778"></polygon>
                        <rect id="Rectangle" fill="#3F3D56" x="164.948211" y="85.6608796" width="1.8126177" height="1.80844907"></rect>
                        <rect id="Rectangle" fill="#3F3D56" x="164.948211" y="89.2777778" width="1.8126177" height="1.80844907"></rect>
                        <polygon id="Path" fill="#3F3D56" points="164.948211 94.703125 164.948211 92.8946759 163.135593 92.8946759 163.135593 94.703125 164.797269 94.703125"></polygon>
                        <polygon id="Path" fill="#3F3D56" points="164.797269 96.5115741 163.135593 96.5115741 163.135593 98.3200231 164.948211 98.3200231 164.948211 96.5115741"></polygon>
                        <rect id="Rectangle" fill="#3F3D56" x="164.948211" y="92.8946759" width="1.8126177" height="1.80844907"></rect>
                        <rect id="Rectangle" fill="#3F3D56" x="164.948211" y="96.5115741" width="1.8126177" height="1.80844907"></rect>
                        <polygon id="Path" fill="#3F3D56" points="164.948211 103.74537 164.948211 101.936921 163.135593 101.936921 163.135593 103.74537 164.797269 103.74537"></polygon>
                        <polygon id="Path" fill="#3F3D56" points="164.797269 103.74537 163.135593 103.74537 163.135593 105.553819 164.948211 105.553819 164.948211 103.74537"></polygon>
                        <rect id="Rectangle" fill="#3F3D56" x="164.948211" y="101.936921" width="1.8126177" height="1.80844907"></rect>
                        <rect id="Rectangle" fill="#3F3D56" x="164.948211" y="103.74537" width="1.8126177" height="1.80844907"></rect>
                        <polygon id="Path" fill="#3F3D56" points="164.948211 110.979167 164.948211 109.170718 163.135593 109.170718 163.135593 110.979167 164.797269 110.979167"></polygon>
                        <polygon id="Path" fill="#3F3D56" points="164.797269 110.979167 163.135593 110.979167 163.135593 112.787616 164.948211 112.787616 164.948211 110.979167"></polygon>
                        <rect id="Rectangle" fill="#3F3D56" x="164.948211" y="109.170718" width="1.8126177" height="1.80844907"></rect>
                        <rect id="Rectangle" fill="#3F3D56" x="164.948211" y="110.979167" width="1.8126177" height="1.80844907"></rect>
                        <rect id="Rectangle" fill="#3F3D56" x="139.571563" y="87.4693287" width="16.3135593" height="3.61689815"></rect>
                        <rect id="Rectangle" fill="#3F3D56" x="139.571563" y="92.8946759" width="16.3135593" height="3.61689815"></rect>
                        <rect id="Rectangle" fill="#3F3D56" x="139.571563" y="100.128472" width="16.3135593" height="3.61689815"></rect>
                        <rect id="Rectangle" fill="#3F3D56" x="139.571563" y="107.362269" width="16.3135593" height="3.61689815"></rect>
                        <polygon id="Path" fill="#3F3D56" points="182.634895 86.3433655 181.26177 85.2513485 188.951668 78.4270833 208.451036 78.4270833 208.451036 84.4324842 195.81769 92.8946759"></polygon>
                        <polygon id="Path" fill="#CCCCCC" points="214.36312 82.3795159 214.36312 78.5678913 211.676313 78.5678913 211.676313 79.5014338 210.673514 78.4270833 204.117911 85.4729994 201.552837 87.1641256 197.57533 115.898556 203.57373 121.829861 217.514124 121.829861 217.514124 85.7548197"></polygon>
                        <rect id="Rectangle" fill="#F2F2F2" x="181.26177" y="85.6608796" width="21.7514124" height="36.1689815"></rect>
                        <rect id="Rectangle" fill="#CCCCCC" x="190.324859" y="112.787616" width="3.6252354" height="9.04224537"></rect>
                        <polygon id="Path" fill="#3F3D56" points="184.887006 116.404514 184.887006 114.596065 183.074388 114.596065 183.074388 116.404514 184.736064 116.404514"></polygon>
                        <polygon id="Path" fill="#3F3D56" points="184.736064 116.404514 183.074388 116.404514 183.074388 118.212963 184.887006 118.212963 184.887006 116.404514"></polygon>
                        <rect id="Rectangle" fill="#3F3D56" x="186.699623" y="114.596065" width="1.8126177" height="1.80844907"></rect>
                        <rect id="Rectangle" fill="#3F3D56" x="186.699623" y="116.404514" width="1.8126177" height="1.80844907"></rect>
                        <polygon id="Path" fill="#3F3D56" points="197.57533 116.404514 197.57533 114.596065 195.762712 114.596065 195.762712 116.404514 197.424388 116.404514"></polygon>
                        <polygon id="Path" fill="#3F3D56" points="197.424388 116.404514 195.762712 116.404514 195.762712 118.212963 197.57533 118.212963 197.57533 116.404514"></polygon>
                        <rect id="Rectangle" fill="#3F3D56" x="197.57533" y="114.596065" width="1.8126177" height="1.80844907"></rect>
                        <rect id="Rectangle" fill="#3F3D56" x="197.57533" y="116.404514" width="1.8126177" height="1.80844907"></rect>
                        <polygon id="Path" fill="#3F3D56" points="208.451036 87.4693287 208.451036 85.6608796 206.638418 85.6608796 206.638418 87.4693287 208.300094 87.4693287"></polygon>
                        <polygon id="Path" fill="#3F3D56" points="208.300094 89.2777778 206.638418 89.2777778 206.638418 91.0862269 208.451036 91.0862269 208.451036 89.2777778"></polygon>
                        <rect id="Rectangle" fill="#3F3D56" x="210.263653" y="85.6608796" width="1.8126177" height="1.80844907"></rect>
                        <rect id="Rectangle" fill="#3F3D56" x="210.263653" y="89.2777778" width="1.8126177" height="1.80844907"></rect>
                        <polygon id="Path" fill="#3F3D56" points="208.451036 94.703125 208.451036 92.8946759 206.638418 92.8946759 206.638418 94.703125 208.300094 94.703125"></polygon>
                        <polygon id="Path" fill="#3F3D56" points="208.300094 96.5115741 206.638418 96.5115741 206.638418 98.3200231 208.451036 98.3200231 208.451036 96.5115741"></polygon>
                        <rect id="Rectangle" fill="#3F3D56" x="210.263653" y="92.8946759" width="1.8126177" height="1.80844907"></rect>
                        <rect id="Rectangle" fill="#3F3D56" x="210.263653" y="96.5115741" width="1.8126177" height="1.80844907"></rect>
                        <polygon id="Path" fill="#3F3D56" points="208.451036 103.74537 208.451036 101.936921 206.638418 101.936921 206.638418 103.74537 208.300094 103.74537"></polygon>
                        <polygon id="Path" fill="#3F3D56" points="208.300094 103.74537 206.638418 103.74537 206.638418 105.553819 208.451036 105.553819 208.451036 103.74537"></polygon>
                        <rect id="Rectangle" fill="#3F3D56" x="210.263653" y="101.936921" width="1.8126177" height="1.80844907"></rect>
                        <rect id="Rectangle" fill="#3F3D56" x="210.263653" y="103.74537" width="1.8126177" height="1.80844907"></rect>
                        <polygon id="Path" fill="#3F3D56" points="208.451036 110.979167 208.451036 109.170718 206.638418 109.170718 206.638418 110.979167 208.300094 110.979167"></polygon>
                        <polygon id="Path" fill="#3F3D56" points="208.300094 110.979167 206.638418 110.979167 206.638418 112.787616 208.451036 112.787616 208.451036 110.979167"></polygon>
                        <rect id="Rectangle" fill="#3F3D56" x="210.263653" y="109.170718" width="1.8126177" height="1.80844907"></rect>
                        <rect id="Rectangle" fill="#3F3D56" x="210.263653" y="110.979167" width="1.8126177" height="1.80844907"></rect>
                        <rect id="Rectangle" fill="#3F3D56" x="184.887006" y="87.4693287" width="16.3135593" height="3.61689815"></rect>
                        <rect id="Rectangle" fill="#3F3D56" x="184.887006" y="92.8946759" width="16.3135593" height="3.61689815"></rect>
                        <rect id="Rectangle" fill="#3F3D56" x="184.887006" y="100.128472" width="16.3135593" height="3.61689815"></rect>
                        <rect id="Rectangle" fill="#3F3D56" x="184.887006" y="107.362269" width="16.3135593" height="3.61689815"></rect>
                        <rect id="Rectangle" fill="#3F3D56" x="0" y="121.468171" width="230.202448" height="1"></rect>
                        <rect id="Rectangle" fill="#3F3D56" x="50.3913421" y="105.553819" width="1" height="16.2760417"></rect>
                        <path d="M54.3784155,108.248586 C54.4020383,113.741869 50.7960678,118.212963 50.7960678,118.212963 C50.7960678,118.212963 47.1517986,113.777683 47.1281758,108.2844 C47.1045531,102.791117 50.7105235,98.3200231 50.7105235,98.3200231 C50.7105235,98.3200231 54.3547928,102.755295 54.3784155,108.248586 Z" id="Path" fill="#38D39F"></path>
                        <rect id="Rectangle" fill="#3F3D56" x="92.0815493" y="105.553819" width="1" height="16.2760417"></rect>
                        <path d="M96.0686227,108.248586 C96.0922454,113.741869 92.486275,118.212963 92.486275,118.212963 C92.486275,118.212963 88.8420057,113.777683 88.818383,108.2844 C88.7947602,102.791117 92.4007307,98.3200231 92.4007307,98.3200231 C92.4007307,98.3200231 96.0449999,102.755295 96.0686227,108.248586 Z" id="Path" fill="#38D39F"></path>
                        <rect id="Rectangle" fill="#3F3D56" x="171.836728" y="105.553819" width="1" height="16.2760417"></rect>
                        <path d="M175.823802,108.248586 C175.847424,113.741869 172.241454,118.212963 172.241454,118.212963 C172.241454,118.212963 168.597185,113.777683 168.573562,108.2844 C168.549939,102.791117 172.15591,98.3200231 172.15591,98.3200231 C172.15591,98.3200231 175.800179,102.755295 175.823802,108.248586 Z" id="Path" fill="#38D39F"></path>
                        <ellipse id="Oval" fill="#38D39F" cx="120.539077" cy="44.9707755" rx="8.15677966" ry="1"></ellipse>
                        <ellipse id="Oval" fill="#F2F2F2" cx="119.632768" cy="6.08912037" rx="5.43785311" ry="5.42534722"></ellipse>
                    </g>
                </g>
                <g id="destinations_fpv7" transform="translate(22.333333, 0.000000)">
                    <path d="M36.3308259,95 C36.1035355,94.7286207 35.8801037,94.4500645 35.6666667,94.1719854 L36.011412,94 C36.2219795,94.2745699 36.4424425,94.5494584 36.6666667,94.8171734 L36.3308259,95 Z" id="Path" fill="#3F3D56"></path>
                    <path d="M34.4371206,92 C34.0037259,91.1439571 33.6009119,90.2596721 33.2399701,89.371599 L33.6723344,89.1934083 C34.0286058,90.0695435 34.4259458,90.9420036 34.8535182,91.7864496 L34.4371206,92 Z M32.2634467,86.6523767 C31.9767754,85.7368632 31.7247617,84.7976974 31.5142838,83.8611722 L31.9701472,83.7573809 C32.1776603,84.6813922 32.4262395,85.6078136 32.7090441,86.5109283 L32.2634467,86.6523767 Z M30.9976073,81.0171516 C30.8651591,80.0681124 30.7702445,79.1003588 30.7152583,78.1405269 L31.1818456,78.1134299 C31.2359206,79.0605174 31.3296927,80.0154137 31.4603139,80.9517085 L30.9976073,81.0171516 Z M31.1337049,75.2609137 L30.6666667,75.2498929 C30.6891401,74.2886831 30.7512008,73.3182866 30.8510194,72.3658027 L31.315782,72.4151813 C31.217211,73.3550266 31.1559494,74.3124483 31.1337049,75.2609137 L31.1337049,75.2609137 Z M31.7288597,69.5941169 L31.2698001,69.5063994 C31.4477653,68.5633304 31.6671424,67.6162405 31.921878,66.6914275 L32.372265,66.8170324 C32.1208377,67.7294467 31.9044277,68.6637899 31.7288597,69.5941169 L31.7288597,69.5941169 Z M33.2422457,64.1030959 L32.8039447,63.9402902 C33.1343199,63.0394727 33.506565,62.1411806 33.9102926,61.2704417 L34.3337577,61.4692962 C33.9353944,62.3283253 33.5681725,63.2144468 33.2422457,64.1030959 L33.2422457,64.1030959 Z M97.2361271,62.6494551 C96.8708443,61.777684 96.4643762,60.9098161 96.0279069,60.0698471 L96.4420173,59.8519349 C96.8844186,60.7033832 97.2964776,61.5830761 97.6666667,62.4666722 L97.2361271,62.6494551 Z M35.6378129,58.9356149 L35.2321439,58.7023178 C35.7053477,57.8692312 36.219279,57.045228 36.7596742,56.2530221 L37.144802,56.5191654 C36.6117126,57.3008019 36.1046269,58.113789 35.6378129,58.9356149 Z M94.6121737,57.5991988 C94.1089663,56.7993017 93.5662861,56.0103101 92.9991957,55.2542682 L93.3722375,54.970913 C93.9469819,55.7372844 94.4969608,56.5369535 95.0068899,57.3476457 L94.6121737,57.5991988 Z M38.8440361,54.2356523 L38.4817182,53.9385181 C39.0845175,53.1941883 39.7251893,52.4660476 40.3862832,51.7740732 L40.7230483,52.0999128 C40.0708583,52.7827005 39.4386161,53.5011959 38.8440361,54.2356523 Z M91.200615,53.050097 C90.5738586,52.3430809 89.9103699,51.6537471 89.2285128,51.0011532 L89.5505613,50.6603895 C90.2415442,51.3218269 90.9140441,52.020458 91.5492418,52.7368889 L91.200615,53.050097 Z M42.7692971,50.12629 L42.4601407,49.7738213 C43.1750807,49.1386792 43.9251571,48.5254659 44.6894947,47.9512828 L44.968991,48.3280975 C44.2148049,48.8946928 43.4747678,49.4996387 42.7692971,50.12629 Z M87.0964659,49.1215543 C86.3635009,48.5270554 85.5969905,47.9558632 84.8184012,47.4240516 L85.0807743,47.0348382 C85.8699801,47.5740048 86.6467518,48.152766 87.3896393,48.7553018 L87.0964659,49.1215543 Z M47.3071726,46.7178491 L47.0593924,46.3192185 C47.8684479,45.8099141 48.707848,45.3287319 49.5544371,44.8889995 L49.7686812,45.3069184 C48.9334982,45.7406783 48.1053921,46.2154295 47.3071726,46.7178491 Z M82.4094886,45.9205902 C81.5885668,45.4543368 80.7393563,45.0174755 79.885466,44.6221697 L80.0807717,44.194836 C80.946297,44.5956463 81.8070304,45.0384801 82.6391317,45.5109317 L82.4094886,45.9205902 Z M52.337076,44.1053997 L52.1577417,43.6711789 C53.0383155,43.3030901 53.9446921,42.9677228 54.8517438,42.6744918 L54.9945701,43.1222611 C54.0998403,43.4114783 53.2056806,43.7422534 52.337076,44.1053997 Z M77.2633374,43.5381131 C76.378988,43.2150364 75.4697705,42.9252431 74.5610085,42.6769043 L74.6835319,42.2231649 C75.6046135,42.4748332 76.5262651,42.768525 77.4228219,43.0960835 L77.2633374,43.5381131 Z M57.7258745,42.3637009 L57.620465,41.9055926 C58.5483921,41.6890583 59.4979936,41.5089183 60.4426911,41.369993 L60.5102259,41.835327 C59.5781938,41.9724183 58.641482,42.1501481 57.7258745,42.3637009 L57.7258745,42.3637009 Z M71.7970769,42.0442876 C70.873486,41.8729863 69.9294731,41.738197 68.99128,41.6438205 L69.0378249,41.175846 C69.9886811,41.2716004 70.9455837,41.4081109 71.8817255,41.5818222 L71.7970769,42.0442876 Z M63.3283471,41.5396906 L63.298909,41.0703334 C64.2493095,41.0099411 65.2183052,40.9884709 66.1705281,41.0058074 L66.1620868,41.4760793 C65.2217326,41.4587474 64.2663112,41.4802177 63.3283471,41.5396906 L63.3283471,41.5396906 Z" id="Shape" fill="#3F3D56"></path>
                    <path d="M97.1400832,65 C96.9935445,64.6989494 96.8343146,64.3955041 96.6666667,64.0980836 L97.1868375,64 C97.3567533,64.301514 97.5182567,64.6091287 97.6666667,64.9142727 L97.1400832,65 Z" id="Path" fill="#3F3D56"></path>
                    <path d="M94.827497,41 L94.4881926,41 C94.4881926,40.668365 94.4941575,40.3318769 94.506006,40 L94.8451408,40.0114893 C94.8334619,40.339643 94.827497,40.6721678 94.827497,41 Z" id="Path" fill="#3F3D56"></path>
                    <path d="M95.1228277,36 L94.6666667,35.9512514 C94.764975,35.0247174 94.8978819,34.0906591 95.0618055,33.1750195 L95.5132633,33.2563385 C95.351243,34.1611964 95.2199046,35.0843604 95.1228277,36 Z M96.0991942,30.5479479 L95.6549024,30.4342794 C95.8844436,29.5313307 96.1498057,28.6260265 96.4433868,27.7434081 L96.878497,27.8889753 C96.588273,28.7612606 96.3261557,29.6557832 96.0991942,30.5479479 L96.0991942,30.5479479 Z M169.241185,25.6941151 C168.898339,24.8403636 168.520107,23.9885237 168.11702,23.1625165 L168.529064,22.9603381 C168.936854,23.7962299 169.319564,24.6581798 169.666667,25.5222643 L169.241185,25.6941151 Z M97.84781,25.2908833 L97.4243442,25.1140914 C97.7809655,24.2543867 98.1736393,23.3961426 98.5917299,22.5631723 L99.0013108,22.7700663 C98.5882581,23.5932671 98.2001752,24.4412816 97.84781,25.2908833 L97.84781,25.2908833 Z M166.814153,20.7181969 C166.353066,19.9231912 165.857268,19.1343619 165.340195,18.3737255 L165.719099,18.1144783 C166.242439,18.8842125 166.744059,19.6823628 167.210521,20.486809 L166.814153,20.7181969 Z M100.332501,20.3393325 L99.9387219,20.1034589 C100.41403,19.3046324 100.925167,18.5118719 101.457684,17.7473041 L101.833675,18.0108093 C101.307308,18.7663919 100.802217,19.5498292 100.332508,20.3393325 L100.332501,20.3393325 Z M163.702759,16.140781 C163.132389,15.4186705 162.529551,14.7086897 161.910813,14.0304971 L162.248958,13.7198167 C162.875085,14.4060973 163.485316,15.1243985 164.062403,15.8550363 L163.702759,16.140781 Z M103.496744,15.79618 L103.14046,15.5063913 C103.725496,14.782597 104.343675,14.0711577 104.977977,13.3918402 L105.312773,13.7063391 C104.68585,14.3777963 104.074837,15.0809222 103.496744,15.79618 Z M159.973535,12.0535425 C159.306875,11.4202777 158.609533,10.8034119 157.900555,10.2199055 L158.191227,9.86429743 C158.908723,10.4545438 159.61435,11.0788236 160.288848,11.7195001 L159.973535,12.0535425 Z M107.272328,11.7518496 L106.960608,11.4142117 C107.6416,10.7817336 108.354059,10.1656545 109.078384,9.58327067 L109.365253,9.94224873 C108.649431,10.517888 107.94526,11.1266658 107.272328,11.7518496 L107.272328,11.7518496 Z M155.702601,8.53913692 C154.953308,8.00741096 154.175571,7.49635116 153.390678,7.02010917 L153.628052,6.62653874 C154.422134,7.10839355 155.209275,7.62551931 155.967302,8.16353668 L155.702601,8.53913692 Z M111.580996,8.28708972 L111.320332,7.90856806 C112.083847,7.37976122 112.87625,6.87195869 113.675707,6.39909128 L113.908601,6.79535769 C113.11855,7.26271811 112.335441,7.76457658 111.580996,8.28708972 L111.580996,8.28708972 Z M150.976179,5.67124835 C150.158584,5.25229148 149.315906,4.8582702 148.471215,4.49985572 L148.649916,4.07618088 C149.504685,4.43875205 150.357439,4.83760403 151.184888,5.26150201 L150.976179,5.67124835 Z M116.33642,5.47503017 L116.132413,5.063041 C116.96321,4.64925068 117.819557,4.26050865 118.677796,3.90770928 L118.851795,4.33340612 C118.003632,4.68203499 117.157373,5.06617175 116.33642,5.47503017 L116.33642,5.47503017 Z M145.888535,3.51267125 C145.021002,3.2163703 144.1304,2.94792404 143.241587,2.71485687 L143.357587,2.26984186 C144.257143,2.50560272 145.158493,2.77730854 146.036326,3.07709219 L145.888535,3.51267125 Z M121.441736,3.37654 L121.298874,2.93938752 C122.180292,2.6495988 123.084104,2.38822836 123.985339,2.16256595 L124.096413,2.60892896 C123.205812,2.83188618 122.312637,3.09011206 121.441745,3.37654 L121.441736,3.37654 Z M140.544716,2.11112827 C139.64292,1.94320415 138.723434,1.80606535 137.811777,1.70340391 L137.862835,1.24625926 C138.785458,1.35015598 139.715916,1.4888705 140.628463,1.65870849 L140.544716,2.11112827 Z M126.799327,2.03542439 L126.720723,1.58209829 C127.634389,1.42248987 128.566081,1.29409693 129.49027,1.20031936 L129.536401,1.65813801 C128.623193,1.7506872 127.702251,1.87760793 126.799336,2.03542439 L126.799327,2.03542439 Z M135.056681,1.49246592 C134.138315,1.45506255 133.204719,1.45012144 132.293294,1.47741486 L132.279411,1.01757882 C133.201809,0.989949549 134.146152,0.994777942 135.075494,1.03285531 L135.056681,1.49246592 Z" id="Shape" fill="#3F3D56"></path>
                    <path d="M171.137981,29 C170.991063,28.6989032 170.832351,28.3949479 170.666667,28.0964012 L171.189455,28 C171.357284,28.3020238 171.517874,28.6096097 171.666667,28.9142596 L171.137981,29 Z" id="Path" fill="#3F3D56"></path>
                    <ellipse id="Oval" fill="#38D39F" cx="35.6666667" cy="100.5" rx="8" ry="1"></ellipse>
                    <ellipse id="Oval" fill="#38D39F" cx="97.6666667" cy="72.5" rx="8" ry="1"></ellipse>
                    <ellipse id="Oval" fill="#38D39F" cx="172.666667" cy="43.5" rx="8" ry="1"></ellipse>
                    <polygon id="Rectangle" fill="#3F3D56" transform="translate(158.586603, 52.832865) rotate(-45.000000) translate(-158.586603, -52.832865) " points="142.233322 52.5743715 174.939104 52.6296632 174.939884 53.0913585 142.234103 53.0360669"></polygon>
                    <rect id="Rectangle" fill="#3F3D56" x="101.666667" y="67.8221283" width="39" height="1"></rect>
                    <polygon id="Rectangle" fill="#3F3D56" transform="translate(83.402270, 81.312143) rotate(-45.000000) translate(-83.402270, -81.312143) " points="68.0414091 81.0553277 98.7623496 81.1072639 98.7631301 81.5689592 68.0421896 81.5170231"></polygon>
                    <rect id="Rectangle" fill="#3F3D56" x="40.6666667" y="94.8221283" width="25" height="1"></rect>
                    <polygon id="Rectangle" fill="#3F3D56" transform="translate(19.957713, 110.951654) rotate(-45.000000) translate(-19.957713, -110.951654) " points="1.71851557 110.689973 38.1961298 110.751641 38.1969103 111.213336 1.7192961 111.151668"></polygon>
                    <path d="M35.6668311,100 C34.0489963,100 32.5904401,98.9037053 31.9712916,97.2221992 C31.3521431,95.5406932 31.6943346,93.6051719 32.8383011,92.3181748 C33.9822676,91.0311777 35.7027217,90.64616 37.1974105,91.3426565 C38.6920993,92.0391531 39.6666667,93.6799992 39.6666667,95.5000633 C39.6641798,97.9841024 37.8748658,99.9971351 35.6668311,100 Z M35.6668311,91.4868935 C34.2239976,91.4868935 32.9232109,92.464593 32.3710329,93.9642092 C31.8188549,95.4638253 32.1240291,97.189982 33.1442517,98.3377658 C34.1644742,99.4855496 35.6988268,99.8289208 37.0318351,99.2077642 C38.3648433,98.5866076 39.2339894,97.1232511 39.2339894,95.5000633 C39.2317362,93.2847472 37.6360009,91.4894928 35.6668311,91.4868935 L35.6668311,91.4868935 Z" id="Shape" fill="#3F3D56"></path>
                    <path d="M69.6666667,100 C67.4575298,100 65.6666667,97.9852838 65.6666667,95.5 C65.6666667,93.0147211 67.4575255,91 69.6666667,91 C71.8758035,91 73.6666667,93.0147162 73.6666667,95.5 C73.6642296,97.9841419 71.8747971,99.9972556 69.6666667,100 L69.6666667,100 Z M69.6666688,91.4867691 C68.2238236,91.4867691 66.9230498,92.4645601 66.3708965,93.9642019 C65.8187431,95.4638437 66.1239475,97.1900065 67.1441931,98.3377828 C68.1644387,99.4855591 69.6988056,99.828914 71.0318205,99.2077414 C72.3648355,98.5865689 73.233983,97.1231984 73.233983,95.4999976 C73.2317476,93.2845952 71.6359154,91.4892839 69.6666688,91.4867691 L69.6666688,91.4867691 Z" id="Shape" fill="#3F3D56"></path>
                    <path d="M97.6666104,72 C95.4574861,72 93.6666667,69.9852438 93.6666667,67.4999789 C93.6666667,65.014714 95.4575236,63 97.6666479,63 C99.8757723,63 101.666667,65.0146718 101.666667,67.4999367 C101.664194,69.9840998 99.8747554,71.9972181 97.6666104,72 Z M97.6666104,63.4867686 C95.6964402,63.4867686 94.0993564,65.2836193 94.0993564,67.5000608 C94.0993564,69.7165024 95.6965484,71.5132241 97.6667186,71.5132241 C99.6368888,71.5132241 101.233977,69.7163855 101.233977,67.499944 C101.231732,65.2845318 99.6358658,63.4892325 97.6666104,63.4867686 L97.6666104,63.4867686 Z" id="Shape" fill="#3F3D56"></path>
                    <path d="M143.66661,72 C141.457486,72 139.666667,69.9852438 139.666667,67.4999789 C139.666667,65.014714 141.457524,63 143.666648,63 C145.875772,63 147.666667,65.0146718 147.666667,67.4999367 C147.664203,69.9841043 145.874759,71.9972288 143.66661,72 L143.66661,72 Z M143.66661,63.4867686 C141.69644,63.4867686 140.099356,65.2836193 140.099356,67.5000608 C140.099356,69.7165024 141.696548,71.5132241 143.666719,71.5132241 C145.636889,71.5132241 147.233977,69.7163855 147.233977,67.499944 C147.231783,65.2845079 145.635887,63.489175 143.66661,63.4867686 L143.66661,63.4867686 Z" id="Shape" fill="#3F3D56"></path>
                    <path d="M173.66661,43 C171.457486,43 169.666667,40.9852438 169.666667,38.4999789 C169.666667,36.014714 171.457524,34 173.666648,34 C175.875772,34 177.666667,36.0146718 177.666667,38.4999367 C177.66418,40.9840932 175.874749,42.9972021 173.66661,43 Z M173.66661,34.4867613 C171.69644,34.4867613 170.099356,36.2836198 170.099356,38.5000617 C170.099356,40.7165035 171.69655,42.5132241 173.66672,42.5132241 C175.636891,42.5132241 177.233977,40.7163834 177.233977,38.4999416 C177.23169,36.284548 175.635849,34.4892748 173.66661,34.4867613 L173.66661,34.4867613 Z" id="Shape" fill="#3F3D56"></path>
                    <path d="M4.66683113,131 C3.04899595,131 1.59043944,129.903705 0.971291213,128.222198 C0.352142986,126.540691 0.694335237,124.60517 1.83830261,123.318173 C2.98226999,122.031176 4.70272483,121.64616 6.19741349,122.342658 C7.69210216,123.039156 8.66666667,124.680004 8.66666667,126.500068 C8.66417859,128.984106 6.87486463,130.997136 4.66683113,131 Z M4.66683113,122.486896 C3.22399778,122.486896 1.92321125,123.464595 1.37103312,124.964211 C0.818854993,126.463827 1.12402881,128.189983 2.1442509,129.337767 C3.16447299,130.485551 4.69882526,130.828923 6.03183356,130.207767 C7.36484187,129.586612 8.23398937,128.123256 8.23398937,126.500068 C8.23173862,124.284751 6.63600228,122.489494 4.66683113,122.486896 Z" id="Shape" fill="#3F3D56"></path>
                    <path d="M35.6666667,70 C33.5449333,70 31.5101015,70.8116375 30.0098105,72.2563629 C28.5095195,73.7010884 27.6666667,75.6605567 27.6666667,77.7037068 C27.6666667,81.9583413 35.6666667,96 35.6666667,96 C35.6666667,96 43.6666667,81.9583344 43.6666667,77.7037068 C43.6666667,75.6605565 42.8238127,73.7010882 41.3235213,72.2563628 C39.8232299,70.8116374 37.7883979,70 35.6666667,70 L35.6666667,70 Z M35.6666655,81.7481503 C33.3470733,81.7481503 31.4666723,79.9373933 31.4666723,77.7037114 C31.4666723,75.4700295 33.3470733,73.6592725 35.6666655,73.6592725 C37.9862577,73.6592725 39.8666587,75.4700295 39.8666587,77.7037114 C39.8666587,79.9373933 37.9862577,81.7481503 35.6666655,81.7481503 Z" id="Shape" fill="#38D39F"></path>
                    <path d="M97.6666559,41 C93.2483813,41 89.6666667,44.449071 89.6666667,48.7037068 C89.6666667,52.9583413 97.6666667,67 97.6666667,67 C97.6666667,67 105.666667,52.9583344 105.666667,48.7037068 C105.666667,46.6605547 104.823812,44.7010847 103.323519,43.2563589 C101.823225,41.811633 99.7883902,41 97.6666559,41 L97.6666559,41 Z M97.6666559,52.7481503 C95.3470637,52.7481503 93.4666627,50.9373933 93.4666627,48.7037114 C93.4666627,46.4700295 95.3470637,44.6592725 97.6666559,44.6592725 C99.986248,44.6592725 101.866649,46.4700295 101.866649,48.7037114 C101.866649,50.9373933 99.986248,52.7481503 97.6666559,52.7481503 Z" id="Shape" fill="#38D39F"></path>
                    <path d="M172.666667,13 C170.544936,13 168.510104,13.8116372 167.009813,15.2563622 C165.509522,16.7010872 164.666667,18.6605551 164.666667,20.7037052 C164.666667,24.9583401 172.666667,39 172.666667,39 C172.666667,39 180.666667,24.9583332 180.666667,20.7037052 C180.666667,18.6605553 179.823813,16.7010874 178.323522,15.2563623 C176.823231,13.8116372 174.7884,13 172.666667,13 L172.666667,13 Z M172.666668,24.7481514 C170.347076,24.7481514 168.466675,22.9373942 168.466675,20.7037121 C168.466675,18.47003 170.347076,16.6592728 172.666668,16.6592728 C174.98626,16.6592728 176.866661,18.47003 176.866661,20.7037121 C176.866661,22.9373942 174.98626,24.7481514 172.666668,24.7481514 Z" id="Shape" fill="#38D39F"></path>
                    <ellipse id="Oval" fill="#F1F1F1" cx="110.666667" cy="152.5" rx="4" ry="4.5"></ellipse>
                    <ellipse id="Oval" fill="#F1F1F1" cx="136.666667" cy="134.5" rx="4" ry="4.5"></ellipse>
                    <ellipse id="Oval" fill="#F1F1F1" cx="104.666667" cy="118.5" rx="4" ry="4.5"></ellipse>
                </g>
            </g>
        </g>
    </g>
</svg>