<svg xmlns="http://www.w3.org/2000/svg" xmlns:xlink="http://www.w3.org/1999/xlink" width="16" height="16" viewBox="0 0 16 16">
    <defs>
        <rect id="b" width="1079" height="901" x="310" y="62" rx="10"/>
        <filter id="a" width="106.9%" height="108.2%" x="-3.4%" y="-3.9%" filterUnits="objectBoundingBox">
            <feOffset dy="2" in="SourceAlpha" result="shadowOffsetOuter1"/>
            <feGaussianBlur in="shadowOffsetOuter1" result="shadowBlurOuter1" stdDeviation="12"/>
            <feColorMatrix in="shadowBlurOuter1" values="0 0 0 0 0.75110394 0 0 0 0 0.75110394 0 0 0 0 0.75110394 0 0 0 0.5 0"/>
        </filter>
    </defs>
    <g fill="none" fill-rule="evenodd">
        <path fill="#F2F4F4" d="M-349-404h1440V597H-349z"/>
        <g transform="translate(-349 -404)">
            <use fill="#000" filter="url(#a)" xlink:href="#b"/>
            <use fill="#FFF" xlink:href="#b"/>
        </g>
        <g transform="translate(-15 -251)">
            <rect width="244" height="381" fill="#F3F5F8" rx="10"/>
            <path fill="#475F7B" fill-rule="nonzero" stroke="#475F7B" stroke-width=".55" d="M23.15 256.697a.867.867 0 0 1-1.227-1.227l2.454-2.454a3.47 3.47 0 1 1 4.907 4.907l-2.454 2.454a.867.867 0 0 1-1.226-1.227l2.453-2.454a1.735 1.735 0 0 0-2.453-2.453l-2.454 2.454zm0 4.906a.867.867 0 0 1 1.227 1.227l-2.454 2.454a3.47 3.47 0 1 1-4.907-4.907l2.454-2.454a.867.867 0 0 1 1.226 1.227l-2.453 2.454a1.735 1.735 0 1 0 2.453 2.453l2.454-2.454zm2.454-4.907a.867.867 0 0 1 0 1.227l-3.68 3.68a.867.867 0 1 1-1.227-1.226l3.68-3.68a.867.867 0 0 1 1.227 0z"/>
        </g>
    </g>
</svg>
