<svg xmlns="http://www.w3.org/2000/svg" xmlns:xlink="http://www.w3.org/1999/xlink" width="12" height="24" viewBox="0 0 12 24">
    <defs>
        <path id="a" d="M0 0h260v1236H0z"/>
    </defs>
    <g fill="none" fill-rule="evenodd" transform="translate(-31 -266)">
        <path fill="#F2F2F4" d="M0 0h1440v940H0z"/>
        <mask id="b" fill="#fff">
            <use xlink:href="#a"/>
        </mask>
        <use fill="#F2F4F4" xlink:href="#a"/>
        <g fill="#475F7B" class='svgClass' fill-rule="nonzero" mask="url(#b)">
            <path d="M38 273h-2a1 1 0 1 1 0-2h2a1 1 0 1 1 0 2m0 4h-2a1 1 0 1 1 0-2h2a1 1 0 1 1 0 2m0 4h-2a1 1 0 1 1 0-2h2a1 1 0 1 1 0 2m0 4h-2a1 1 0 1 1 0-2h2a1 1 0 1 1 0 2m4-19H32a1 1 0 0 0-1 1v22a1 1 0 0 0 1 1h10a1 1 0 0 0 1-1v-22a1 1 0 0 0-1-1"/>
        </g>
    </g>
</svg>
