<svg xmlns="http://www.w3.org/2000/svg" xmlns:xlink="http://www.w3.org/1999/xlink" width="14" height="15" viewBox="0 0 14 15">
    <defs>
        <rect id="b" width="1079" height="583" x="310" y="62" rx="10"/>
        <filter id="a" width="106.9%" height="112.7%" x="-3.4%" y="-6%" filterUnits="objectBoundingBox">
            <feOffset dy="2" in="SourceAlpha" result="shadowOffsetOuter1"/>
            <feGaussianBlur in="shadowOffsetOuter1" result="shadowBlurOuter1" stdDeviation="12"/>
            <feColorMatrix in="shadowBlurOuter1" values="0 0 0 0 0.75110394 0 0 0 0 0.75110394 0 0 0 0 0.75110394 0 0 0 0.5 0"/>
        </filter>
    </defs>
    <g fill="none" fill-rule="evenodd">
        <path fill="#F2F4F4" d="M-363-572h1440v940H-363z"/>
        <g transform="translate(-363 -572)">
            <use fill="#000" filter="url(#a)" xlink:href="#b"/>
            <use fill="#FFF" xlink:href="#b"/>
        </g>
        <g transform="translate(-29 -421)">
            <rect width="244" height="470" fill="#F3F5F8" rx="10"/>
            <g fill="#475F7B" transform="translate(18 413)">
                <rect width="121.2" height="32" x=".4" y=".4" fill-opacity=".033" stroke="#475F7B" stroke-width=".8" rx="4"/>
                <path fill-rule="nonzero" d="M19.697 11.075l1.392-1.4A2.275 2.275 0 0 1 22.707 9h.006c.925 0 1.758.555 2.112 1.406.355.851.16 1.83-.493 2.483l-1.407 1.402-3.228-3.216zm-.906.913l-7.667 7.716a.426.426 0 0 0-.124.3v2.568a.427.427 0 0 0 .43.428h2.576a.43.43 0 0 0 .304-.125l7.704-7.676-3.223-3.211z"/>
            </g>
        </g>
    </g>
</svg>
