<svg xmlns="http://www.w3.org/2000/svg" xmlns:xlink="http://www.w3.org/1999/xlink" width="14" height="16" viewBox="0 0 14 16">
    <defs>
        <rect id="b" width="1079" height="583" x="310" y="62" rx="10"/>
        <filter id="a" width="106.9%" height="112.7%" x="-3.4%" y="-6%" filterUnits="objectBoundingBox">
            <feOffset dy="2" in="SourceAlpha" result="shadowOffsetOuter1"/>
            <feGaussianBlur in="shadowOffsetOuter1" result="shadowBlurOuter1" stdDeviation="12"/>
            <feColorMatrix in="shadowBlurOuter1" values="0 0 0 0 0.75110394 0 0 0 0 0.75110394 0 0 0 0 0.75110394 0 0 0 0.5 0"/>
        </filter>
    </defs>
    <g fill="none" fill-rule="evenodd">
        <path fill="#F2F4F4" d="M-752-572H688v940H-752z"/>
        <g transform="translate(-752 -572)">
            <use fill="#000" filter="url(#a)" xlink:href="#b"/>
            <use fill="#FFF" xlink:href="#b"/>
        </g>
        <g transform="translate(-158 -421)">
            <rect width="244" height="470" fill="#F3F5F8" rx="10"/>
            <g fill="#B41420">
                <rect width="32.2" height="32.2" x=".4" y=".4" fill-opacity=".05" stroke="#B41420" stroke-width=".8" rx="4" transform="translate(148 413)"/>
                <g fill-rule="nonzero">
                    <path d="M160.904 427.465h-1.122v7.24c0 .918.757 1.67 1.683 1.67h6.732c.926 0 1.683-.752 1.683-1.67v-7.24h-8.976zM169.954 423.07h-10.246c-.94 0-1.708.72-1.708 1.603 0 .882.768 1.604 1.708 1.604h10.246c.94 0 1.708-.722 1.708-1.604 0-.882-.768-1.604-1.708-1.604zm-5.123-1.07c.74 0 1.378.45 1.611 1.07h-3.222c.233-.62.871-1.07 1.611-1.07z"/>
                </g>
            </g>
        </g>
    </g>
</svg>
