<?xml version="1.0" encoding="UTF-8"?>
<svg width="2571px" height="1167px" viewBox="0 0 2571 1167" version="1.1" xmlns="http://www.w3.org/2000/svg" xmlns:xlink="http://www.w3.org/1999/xlink">
    <!-- Generator: Sketch 60.1 (88133) - https://sketch.com -->
    <title>BG01</title>
    <desc>Created with Sketch.</desc>
    <defs>
        <linearGradient x1="79.3476927%" y1="41.5480757%" x2="26.2170356%" y2="68.0657541%" id="linearGradient-1">
            <stop stop-color="#30F5C7" offset="0%"></stop>
            <stop stop-color="#009BA4" offset="100%"></stop>
        </linearGradient>
        <path d="M1381.68719,1714 C1627.59192,1714 2034.69619,1714 2603,1714 C2606.33333,1150.02785 2608,813.861184 2608,705.5 C2608,564.638914 2788.15155,267.741388 2645.25438,158.523922 C2401.28664,-27.9425947 1728.40499,15 1323,15 C867.529371,15 228.211429,-67.5788521 37,158.523922 C-41.6678259,251.546676 32,324.14738 32,705.5 C32,796.751647 32,1132.91831 32,1714 C657.044591,1714 1106.94032,1714 1381.68719,1714 Z" id="path-2"></path>
        <linearGradient x1="45.852606%" y1="86.2153091%" x2="19.8782485%" y2="35.3638668%" id="linearGradient-4">
            <stop stop-color="#00BD91" offset="0%"></stop>
            <stop stop-color="#009BA4" offset="100%"></stop>
        </linearGradient>
    </defs>
    <g id="BG01" stroke="none" stroke-width="1" fill="none" fill-rule="evenodd">
        <g id="Group-5-Copy" transform="translate(-32.000000, -547.000000)">
            <mask id="mask-3" fill="white">
                <use xlink:href="#path-2"></use>
            </mask>
            <use id="Oval" fill="url(#linearGradient-1)" fill-rule="nonzero" xlink:href="#path-2"></use>
            <circle id="Oval" fill="url(#linearGradient-4)" fill-rule="nonzero" opacity="0.441917783" mask="url(#mask-3)" cx="1613" cy="897" r="554"></circle>
        </g>
    </g>
</svg>