<?xml version="1.0" encoding="UTF-8"?>
<svg width="539px" height="291px" viewBox="0 0 539 291" version="1.1" xmlns="http://www.w3.org/2000/svg" xmlns:xlink="http://www.w3.org/1999/xlink">
    <!-- Generator: Sketch 60.1 (88133) - https://sketch.com -->
    <title>Group 5</title>
    <desc>Created with Sketch.</desc>
    <defs>
        <linearGradient x1="49.9984163%" y1="99.9954123%" x2="49.9984163%" y2="-0.0104058941%" id="linearGradient-1">
            <stop stop-color="#808080" stop-opacity="0.25" offset="0%"></stop>
            <stop stop-color="#808080" stop-opacity="0.12" offset="54%"></stop>
            <stop stop-color="#808080" stop-opacity="0.1" offset="100%"></stop>
        </linearGradient>
        <filter x="-30.0%" y="-30.0%" width="160.0%" height="160.0%" filterUnits="objectBoundingBox" id="filter-2">
            <feGaussianBlur stdDeviation="9" in="SourceGraphic"></feGaussianBlur>
        </filter>
    </defs>
    <g id="Symbols" stroke="none" stroke-width="1" fill="none" fill-rule="evenodd">
        <g id="section4" transform="translate(-133.000000, -966.000000)">
            <g id="Group-3">
                <g transform="translate(133.000000, 856.000000)">
                    <g id="Group-5">
                        <g id="circle-1">
                            <g id="home">
                                <g id="undraw_relaxing_at_home_9tyc">
                                    <ellipse id="Oval" fill="#F6F8F8" fill-rule="nonzero" cx="266" cy="387.5" rx="213" ry="13.5"></ellipse>
                                    <path d="M309,199.969215 L309,274.030785 C309.002824,275.2883 308.833956,276.540251 308.498096,277.751534 C306.836763,283.805759 301.361844,288 295.118299,288 L232.886685,288 C229.203299,288.001339 225.670393,286.530017 223.065846,283.909991 C220.461298,281.289964 218.998669,277.736062 219,274.030785 L219,199.969215 C218.998669,196.263938 220.461298,192.710036 223.065846,190.090009 C225.670393,187.469983 229.203299,185.998661 232.886685,186 L295.118299,186 C301.361844,186 306.836763,190.194241 308.498096,196.248466 C308.833956,197.459749 309.002824,198.7117 309,199.969215 Z" id="Path" fill="#E8F0EF" fill-rule="nonzero"></path>
                                    <path d="M220,199.702341 L220,273.297659 C220.000684,274.548762 219.83249,275.794194 219.5,277 C219.16751,275.794194 218.999316,274.548762 219,273.297659 L219,199.702341 C218.999316,198.451238 219.16751,197.205806 219.5,196 C219.83249,197.205806 220.000684,198.451238 220,199.702341 L220,199.702341 Z" id="Path" fill="#000000" fill-rule="nonzero" opacity="0.1"></path>
                                    <rect id="Rectangle" fill="#E8F0EF" fill-rule="nonzero" x="109" y="186" width="110" height="102" rx="27.67"></rect>
                                    <path d="M309.999964,199.697782 L309.999964,273.302218 C310.002813,274.551971 309.83458,275.796194 309.499982,277 C309.16783,275.795689 308.999643,274.551804 309,273.302218 L309,199.697782 C308.999643,198.448196 309.16783,197.204311 309.499982,196 C309.83458,197.203806 310.002813,198.448029 309.999964,199.697782 Z" id="Path" fill="#000000" fill-rule="nonzero" opacity="0.1"></path>
                                    <rect id="Rectangle" fill="#E8F0EF" fill-rule="nonzero" x="309" y="186" width="110" height="102" rx="27.67"></rect>
                                    <path d="M213.658855,296 L113.521903,296 L113.017511,287.161321 C112.46268,277.237547 125.163272,269 141.026401,269 L209.179854,269 C214.50119,269 218.606941,271.924151 217.926012,275.225283 L213.658855,296 Z" id="Path" fill="#000000" fill-rule="nonzero" opacity="0.1"></path>
                                    <path d="M213.658855,297 L113.521903,297 L113.017511,288.161321 C112.46268,278.237547 125.163272,270 141.026401,270 L209.179854,270 C214.50119,270 218.606941,272.924151 217.926012,276.225283 L213.658855,297 Z" id="Path" fill="#E8F0EF" fill-rule="nonzero"></path>
                                    <path d="M314.341073,296 L414.478096,296 L414.982489,287.161321 C415.53732,277.237547 402.83672,269 386.973579,269 L318.820078,269 C313.503782,269 309.392984,271.924151 310.073913,275.225283 L314.341073,296 Z" id="Path" fill="#000000" fill-rule="nonzero" opacity="0.1"></path>
                                    <path d="M314.341073,297 L414.478096,297 L414.982489,288.161321 C415.53732,278.237547 402.83672,270 386.973579,270 L318.820078,270 C313.503782,270 309.392984,272.924151 310.073913,276.225283 L314.341073,297 Z" id="Path" fill="#E8F0EF" fill-rule="nonzero"></path>
                                    <path d="M230.811816,269 L298.594015,269 C302.41472,269 306.078938,270.494704 308.780585,273.155293 C311.482231,275.815882 313,279.424415 313,283.187055 L313,292 L215,292 L215,284.556635 C215.005564,275.9614 222.08394,268.997259 230.811816,269 L230.811816,269 Z" id="Path" fill="#000000" fill-rule="nonzero" opacity="0.1"></path>
                                    <path d="M230.811816,270 L298.594015,270 C302.41472,270 306.078938,271.494704 308.780585,274.155293 C311.482231,276.815882 313,280.424415 313,284.187055 L313,293 L215,293 L215,285.556635 C215.005564,276.9614 222.08394,269.997259 230.811816,270 L230.811816,270 Z" id="Path" fill="#E8F0EF" fill-rule="nonzero"></path>
                                    <path d="M120.045757,279 L201.362954,279 C208.894487,279 215,285.091748 215,292.606299 L215,311 L114,311 L114,285.032126 C114.008328,281.704123 116.710233,279.00831 120.045757,279 Z" id="Path" fill="#E8F0EF" fill-rule="nonzero"></path>
                                    <path d="M224.900676,279 L302.335101,279 C309.882017,279 316,285.091748 316,292.606299 L316,311 L212,311 L212,291.850394 C212,284.755285 217.775011,279.002782 224.900676,279 Z" id="Path" fill="#000000" fill-rule="nonzero" opacity="0.1"></path>
                                    <path d="M226.900676,279 L304.335101,279 C311.882017,279 318,285.091748 318,292.606299 L318,311 L214,311 L214,291.850394 C214,284.755285 219.775011,279.002782 226.900676,279 Z" id="Path" fill="#000000" fill-rule="nonzero" opacity="0.1"></path>
                                    <path d="M225.900676,279 L303.335101,279 C310.882017,279 317,285.091748 317,292.606299 L317,311 L213,311 L213,291.850394 C213,284.755285 218.775011,279.002782 225.900676,279 Z" id="Path" fill="#E8F0EF" fill-rule="nonzero"></path>
                                    <path d="M320.415225,279 L402.992348,279 C410.176276,279 416,284.809722 416,291.976378 L416,311 L315,311 L315,284.402205 C315,281.418649 317.424479,279 320.415225,279 Z" id="Path" fill="#000000" fill-rule="nonzero" opacity="0.1"></path>
                                    <path d="M321.415225,279 L403.992348,279 C411.176276,279 417,284.809722 417,291.976378 L417,311 L316,311 L316,284.402205 C316,282.969451 316.570531,281.595379 317.586083,280.582269 C318.601634,279.569159 319.979018,279 321.415225,279 Z" id="Path" fill="#E8F0EF" fill-rule="nonzero"></path>
                                    <path d="M116,354 L116,367.957317 C115.997168,371.845713 112.837594,374.997175 108.939189,375 L104.060811,375 C100.162406,374.997175 97.0028321,371.845713 97,367.957317 L97,354 L116,354 Z" id="Path" fill="#393C51" fill-rule="nonzero"></path>
                                    <path d="M433,354 L433,367.957317 C432.997168,371.845713 429.837594,374.997175 425.939189,375 L421.060811,375 C417.162406,374.997175 414.002832,371.845713 414,367.957317 L414,354 L433,354 Z" id="Path" fill="#393C51" fill-rule="nonzero"></path>
                                    <path d="M121,263.429238 C121,253.715386 113.431197,245.669309 103.700543,245.039354 C93.9698895,244.4094 85.4191745,251.411902 84.1572729,261.044072 C82.8953712,270.676242 89.3556335,279.63029 98.9226641,281.509189 L98.9226641,356 L119.702516,356 L119.702516,270.230046 C120.562146,268.065043 121.002395,265.757445 121,263.429238 Z" id="Path" fill="#E9CCDB" fill-rule="nonzero"></path>
                                    <path d="M409,263.429238 C409,253.715386 416.568803,245.669309 426.299457,245.039354 C436.03011,244.4094 444.580825,251.411902 445.842727,261.044072 C447.104629,270.676242 440.644367,279.63029 431.077336,281.509189 L431.077336,356 L410.297484,356 L410.297484,270.230046 C409.437854,268.065043 408.997605,265.757445 409,263.429238 L409,263.429238 Z" id="Path" fill="#E9CCDB" fill-rule="nonzero"></path>
                                    <path d="M121,263.429238 C121,253.715386 113.431197,245.669309 103.700543,245.039354 C93.9698895,244.4094 85.4191745,251.411902 84.1572729,261.044072 C82.8953712,270.676242 89.3556335,279.63029 98.9226641,281.509189 L98.9226641,356 L119.702516,356 L119.702516,270.230046 C120.562146,268.065043 121.002395,265.757445 121,263.429238 Z" id="Path" fill="#000000" fill-rule="nonzero"></path>
                                    <path d="M426.299457,245.039354 C436.03011,244.4094 444.580825,251.411902 445.842727,261.044072 C447.104629,270.676242 440.644367,279.63029 431.077336,281.509189 L431.077336,356 L410.297484,356 L410.297484,270.230046 C409.437854,268.065043 408.997605,265.757445 408.99999,263.429238 C408.99999,253.715386 416.568803,245.669309 426.299457,245.039354 Z" id="Path" fill="#393C51" fill-rule="nonzero"></path>
                                    <rect id="Rectangle" fill="#E8F0EF" fill-rule="nonzero" x="109" y="343" width="312" height="14"></rect>
                                    <rect id="Rectangle" fill="#000000" fill-rule="nonzero" opacity="0.1" x="113" y="311" width="306" height="33"></rect>
                                    <rect id="Rectangle" fill="#E8F0EF" fill-rule="nonzero" x="113" y="310" width="306" height="33"></rect>
                                    <rect id="Rectangle" fill="#000000" fill-rule="nonzero" opacity="0.1" x="414" y="354" width="19" height="5"></rect>
                                    <path d="M413,265.431721 C412.998394,255.715763 420.569609,247.667575 430.302704,247.039147 C440.035799,246.410718 448.586617,253.417968 449.843941,263.052859 C451.101266,272.687751 444.633098,281.639867 435.062196,283.511187 L435.062196,358 L414.282423,358 L414.282423,272.232347 C413.425622,270.067076 412.990454,267.759117 413,265.431721 L413,265.431721 Z" id="Path" fill="#E8F0EF" fill-rule="nonzero"></path>
                                    <rect id="Rectangle" fill="#000000" fill-rule="nonzero" opacity="0.1" x="97" y="354" width="18" height="5"></rect>
                                    <path d="M117,265.426744 C116.998604,255.714998 109.431883,247.671037 99.703709,247.039562 C89.9755351,246.408087 81.4249606,253.405842 80.1584906,263.035289 C78.8920205,272.664736 85.3443521,281.620708 94.9074678,283.507182 L94.9074678,358 L115.687321,358 L115.687321,272.227735 C116.554524,270.064374 117,267.756222 117,265.426744 Z" id="Path" fill="#E8F0EF" fill-rule="nonzero"></path>
                                    <rect id="Rectangle" fill="#000000" fill-rule="nonzero" opacity="0.1" x="119" y="310" width="291" height="1"></rect>
                                    <circle id="Oval" fill="#393C51" fill-rule="nonzero" cx="96.5" cy="264.5" r="8.5"></circle>
                                    <circle id="Oval" fill="#393C51" fill-rule="nonzero" cx="433.5" cy="264.5" r="8.5"></circle>
                                    <path d="M184.781795,250.148069 C176.881892,248.165588 160.202642,227.261258 160.202642,227.261258 C153.930962,222.862471 141.14136,196.217521 141.14136,196.217521 C141.14136,196.217521 136.286839,193.922282 132.010237,204.243291 C127.733635,214.564299 102.863009,222.81707 95.4153895,223.972256 C91.2191937,224.622995 91.6262498,226.494497 92.7820882,228.007841 C93.5612551,228.979211 94.5950754,229.712973 95.7671663,230.126523 C98.9331583,231.332154 108.757784,243.171552 108.757784,243.171552 C117.91906,249.386352 128.080386,278.094494 131.457444,285.595638 C133.331913,289.767424 135.417447,287.769809 136.904961,285.171901 C139.777196,280.156117 143.710735,275.833962 148.428167,272.510254 C161.212744,263.485677 174.916966,259.742672 175.851688,259.727539 C177.032653,259.697272 192.681699,252.13055 184.781795,250.148069 Z" id="Path" fill="#000000" fill-rule="nonzero" opacity="0.1"></path>
                                    <path d="M79.250201,225.449453 C77.9579396,224.956271 76.8201794,224.12493 75.954596,223.041414 C74.6313225,221.336563 74.0677992,219.221941 78.470325,218.4884 C86.2388962,217.203438 111.909395,207.960819 115.703114,196.300043 C119.496834,184.639268 124.759739,187.249662 124.759739,187.249662 C124.759739,187.249662 140.095623,217.410853 147.018909,222.41411 C147.018909,222.41411 166.068009,246.104962 174.535953,248.37641 C183.003897,250.647858 167.029017,259.146818 165.786247,259.167054 C164.779956,259.167054 150.606339,263.371004 137.750963,273.529285 C132.9461,277.350429 129.086753,282.238589 126.475466,287.810573 C125.086783,290.744738 123.023886,292.995951 120.754698,288.275992 C116.674186,279.782091 103.95466,247.298863 93.8615551,240.216396 C93.8615551,240.216396 82.6715924,226.795122 79.250201,225.449453 Z" id="Path" fill="#4285F4" fill-rule="nonzero"></path>
                                    <path d="M79.250201,225.449453 C77.9579396,224.956271 76.8201794,224.12493 75.954596,223.041414 C74.6313225,221.336563 74.0677992,219.221941 78.470325,218.4884 C86.2388962,217.203438 111.909395,207.960819 115.703114,196.300043 C119.496834,184.639268 124.759739,187.249662 124.759739,187.249662 C124.759739,187.249662 140.095623,217.410853 147.018909,222.41411 C147.018909,222.41411 166.068009,246.104962 174.535953,248.37641 C183.003897,250.647858 167.029017,259.146818 165.786247,259.167054 C164.779956,259.167054 150.606339,263.371004 137.750963,273.529285 C132.9461,277.350429 129.086753,282.238589 126.475466,287.810573 C125.086783,290.744738 123.023886,292.995951 120.754698,288.275992 C116.674186,279.782091 103.95466,247.298863 93.8615551,240.216396 C93.8615551,240.216396 82.6715924,226.795122 79.250201,225.449453 Z" id="Path" fill="#C1E2E4" fill-rule="nonzero"></path>
                                    <path d="M84.9493575,225.791023 C83.746646,225.370088 82.6820936,224.626779 81.8714359,223.641908 C80.6453131,222.124886 80.1457815,220.183097 84.2984527,219.454926 C91.6602356,218.160401 116.086823,209.341444 119.840878,198.616095 C123.594933,187.890747 128.559974,190.211791 128.559974,190.211791 C128.559974,190.211791 142.607406,217.518194 149.076087,221.998467 C149.076087,221.998467 166.736293,243.348029 174.703568,245.294875 C182.670844,247.24172 167.442701,255.241485 166.267036,255.286996 C165.333568,255.317336 151.851262,259.332389 139.524439,268.834006 C134.956576,272.360297 131.242904,276.875485 128.660889,282.042214 C127.303576,284.742514 125.315542,286.830949 123.241729,282.547889 C119.512903,274.846471 107.978266,245.350499 98.54267,239.059913 C98.54267,239.059913 88.1635149,226.989471 84.9493575,225.791023 Z" id="Path" fill="#C1E2E4" fill-rule="nonzero"></path>
                                    <path d="M113.228775,235.292665 C113.228775,235.292665 110.597777,238.005577 123.180372,232.805371 C135.762966,227.605165 113.228775,235.292665 113.228775,235.292665 Z" id="Path" fill="#000000" fill-rule="nonzero" opacity="0.1"></path>
                                    <path d="M124,246.992213 C124,246.992213 125.922949,247.304866 133.156662,243.968003 C140.390375,240.631139 124,246.992213 124,246.992213 Z" id="Path" fill="#000000" fill-rule="nonzero" opacity="0.1"></path>
                                    <path d="M123,269 C123,269 124.819303,269 132.12709,265.875 C139.434878,262.75 123,269 123,269 Z" id="Path" fill="#000000" fill-rule="nonzero" opacity="0.1"></path>
                                    <path d="M418,219.818991 L418,229.409871 C415.933357,233.692591 413.911858,239.161604 413.911858,239.161604 C407.892509,247.013257 408.845573,273.172029 408.449299,280.234495 C408.228589,284.155295 405.66535,283.220335 403.433174,281.611802 C399.021676,278.4611 394.013001,276.249162 388.715865,275.112322 C374.169104,271.920389 360.625567,273.247429 359.762794,273.528922 C358.699376,273.880789 342.085971,272.759842 348.446417,268.683216 C354.806863,264.606589 362.411308,242.645083 362.411308,242.645083 C366.479385,237.155964 368.601205,211.821565 368.601205,211.821565 C368.601205,211.821565 372.112493,208.458725 379.561438,215.340231 C386.629157,221.940244 409.723395,221.135978 418,219.818991 Z" id="Path" fill="#000000" fill-rule="nonzero" opacity="0.1"></path>
                                    <path d="M423.861681,222.637721 C424.755565,221.965256 425.432859,221.050089 425.811192,220.003519 C426.318877,218.435063 426.034574,216.811309 422.008631,217.610618 C414.875655,219.028261 389.471093,220.269956 381.957353,213.362717 C374.443614,206.455478 370.864434,209.818609 370.864434,209.818609 C370.864434,209.818609 368.716926,235.150179 364.5996,240.644803 C364.5996,240.644803 356.90817,262.608214 350.465646,266.685194 C344.023123,270.762174 360.84273,271.883218 361.919022,271.526294 C362.771933,271.244776 376.479431,269.922648 391.222606,273.114858 C396.58286,274.252173 401.651769,276.462417 406.118087,279.609875 C408.377286,281.218548 410.971557,282.158616 411.194938,278.232449 C411.596009,271.194505 410.641561,245.013355 416.723629,237.161021 C416.723629,237.161021 421.424793,224.598291 423.861681,222.637721 Z" id="Path" fill="#4285F4" fill-rule="nonzero"></path>
                                    <path d="M423.861681,222.637721 C424.755565,221.965256 425.432859,221.050089 425.811192,220.003519 C426.318877,218.435063 426.034574,216.811309 422.008631,217.610618 C414.875655,219.028261 389.471093,220.269956 381.957353,213.362717 C374.443614,206.455478 370.864434,209.818609 370.864434,209.818609 C370.864434,209.818609 368.716926,235.150179 364.5996,240.644803 C364.5996,240.644803 356.90817,262.608214 350.465646,266.685194 C344.023123,270.762174 360.84273,271.883218 361.919022,271.526294 C362.771933,271.244776 376.479431,269.922648 391.222606,273.114858 C396.58286,274.252173 401.651769,276.462417 406.118087,279.609875 C408.377286,281.218548 410.971557,282.158616 411.194938,278.232449 C411.596009,271.194505 410.641561,245.013355 416.723629,237.161021 C416.723629,237.161021 421.424793,224.598291 423.861681,222.637721 Z" id="Path" fill="#C1E2E4" fill-rule="nonzero"></path>
                                    <path d="M421.965308,224.05948 C422.813399,223.41093 423.454524,222.529139 423.810389,221.521791 C424.317279,219.999178 424.023283,218.476565 420.211468,219.232796 C413.444482,220.587922 389.362125,221.770485 382.240316,215.172494 C375.118508,208.574503 371.722343,211.777066 371.722343,211.777066 C371.722343,211.777066 369.694782,236.057673 365.786658,241.320839 C365.786658,241.320839 358.497575,262.37858 352.389547,266.286621 C346.281519,270.194662 362.228288,271.265566 363.242068,270.925516 C364.053093,270.656521 377.04976,269.402903 391.024725,272.448129 C396.106218,273.535341 400.910907,275.654869 405.14162,278.675618 C407.285765,280.198231 409.744183,281.116874 409.957077,277.356019 C410.337245,270.585466 409.450187,245.513101 415.198323,237.981241 C415.198323,237.976165 419.653888,225.93737 421.965308,224.05948 Z" id="Path" fill="#C1E2E4" fill-rule="nonzero"></path>
                                    <path d="M404,238 C404,238 402.168473,239.026778 393.403305,241.978764 C384.638138,244.930751 402.560943,240.823639 404,238 Z" id="Path" fill="#000000" fill-rule="nonzero" opacity="0.1"></path>
                                    <path d="M403,247 C403,247 397.971163,251.521856 395.456745,251.916204 C392.942326,252.310552 401.563189,251.416696 403,247 Z" id="Path" fill="#000000" fill-rule="nonzero" opacity="0.1"></path>
                                    <path d="M407,267 C407,267 401.971163,271.521393 399.456745,271.9157 C396.942326,272.310008 405.563189,271.426759 407,267 Z" id="Path" fill="#000000" fill-rule="nonzero" opacity="0.1"></path>
                                    <path d="M326.691324,270.645644 C325.943381,270.612791 325.200486,270.506627 324.473357,270.328681 C324.422949,270.092217 324.019682,269.93122 323.167781,269.896002 L322.996392,269.896002 C320.374801,268.899357 318.023485,267.303808 316.130775,265.237151 C313.701092,262.570639 306.825393,259.234982 306.825393,259.234982 C306.825393,259.234982 301.966028,255.144653 298.760057,254.812597 C295.554085,254.48054 286.692297,245.55527 279.151208,237.294112 C271.610118,229.032954 259.955707,220.027185 259.955707,220.027185 L255.010648,214.523101 C255.010648,214.523101 249.243932,210.422709 247.908111,208.148626 C247.17719,206.915993 244.88361,206.282068 242.534581,206.060697 C240.014163,205.054466 235.855474,205.054466 233.914753,205.477083 C232.730156,205.743734 229.453614,208.837895 226.227479,212.133302 L228.878958,178.173 C228.953859,177.202952 228.347548,176.309839 227.417116,176.019666 L218.494838,180.361553 C217.841231,180.677035 217.408025,181.318871 217.36065,182.041959 L214.966253,218.497714 L204.430908,226.18532 C204.191303,224.896935 203.63728,223.687337 202.81784,222.663511 C196.909982,214.975905 187.72558,229.561226 184.302853,235.664018 C184.141546,235.664018 183.98528,235.714329 183.839096,235.749547 C183.775083,235.92903 183.669762,236.091015 183.531605,236.222476 C180.926859,234.956024 178.454765,233.434156 176.151822,231.679342 C175.990441,231.502159 175.856243,231.302096 175.753596,231.085666 C175.249513,229.832908 173.268464,227.679573 172.124195,226.487189 C168.646019,222.577981 163.458999,217.340548 162.717996,217.008492 C162.324811,216.837433 160.464743,215.413615 158.156041,213.607431 C157.803069,212.843979 157.409319,212.099976 156.976485,211.378629 C155.333173,208.661804 152.530468,207.856819 150.569584,207.64048 C148.754883,206.231756 147.368653,205.180245 147.000672,204.999123 C145.745504,204.37526 142.852065,199.867344 141.455754,196.989523 C140.059442,194.111702 129.912241,193.739396 129.912241,193.739396 C129.834752,189.785766 130.753401,185.876029 132.583884,182.368984 C132.689741,182.167738 132.790558,181.971523 132.896415,181.780339 C137.724335,180.377791 141.764852,177.060706 144.075086,172.603148 C146.385319,168.145591 146.763161,162.937522 145.120441,158.194281 C146.420976,157.736445 148.008839,157.937692 149.374906,157.459732 C151.20977,156.820775 152.873245,155.341615 153.155532,153.434807 C153.277788,152.159406 152.980507,150.878964 152.308672,149.787219 C151.693566,148.699262 150.913032,147.713162 149.994928,146.864118 C147.504756,144.257979 143.920722,142.65304 140.417341,141.450594 C135.976366,139.941247 131.313593,138.77905 126.620576,139.035639 C121.927558,139.292228 117.17405,141.093382 114.149549,144.665503 C113.613236,145.403243 112.980942,146.066469 112.269318,146.637716 C111.190579,147.372264 109.80939,147.493012 108.503814,147.442701 C104.198941,147.286735 99.7025156,145.591235 95.7303375,147.251517 C90.9566665,149.263979 89.2881501,155.069933 88.6731682,160.186618 C88.0329821,165.454238 87.8767162,170.812419 86.4804049,175.929105 C85.0840935,181.04579 82.2057766,186.046759 77.5278816,188.587493 C76.1618152,189.327073 74.669728,189.845282 73.384315,190.720703 C72.0989021,191.596124 71.0050408,192.954536 71,194.504132 C71,196.617217 72.9003949,198.171845 73.8934394,200.038403 C74.3975229,200.989292 74.6898914,202.076021 75.188934,203.011816 L75.188934,203.011816 C75.2393424,203.107408 75.2897508,203.197969 75.3451999,203.28853 L75.3754449,203.338842 C75.4208125,203.409278 75.46618,203.479714 75.5165883,203.55015 C75.5304683,203.575581 75.5473953,203.599234 75.5669967,203.620586 L75.7081401,203.81177 C75.7278361,203.834272 75.7463442,203.857783 75.7635893,203.882206 C75.834161,203.962705 75.9047326,204.043203 75.9803452,204.118671 C76.0559577,204.194138 76.1618152,204.28973 76.2575911,204.365197 C76.353367,204.440665 76.4037753,204.536257 76.4844287,204.616755 C78.646947,206.795246 82.4880634,205.562612 85.2605228,206.885806 C85.789197,207.149258 86.2765627,207.488234 86.7072425,207.892038 C87.6347561,208.898269 88.3807998,210.140964 89.2276601,211.257881 L89.2780684,211.318255 L89.5401918,211.650311 L89.6762944,211.806277 C89.7367844,211.881744 89.8023153,211.957211 89.8678461,212.027648 C89.933377,212.098084 90.0997246,212.279205 90.2156638,212.394922 L90.4425013,212.601199 C90.5332364,212.701822 90.6239714,212.802446 90.7197473,212.898038 C92.9982048,215.162058 96.3654827,215.951949 99.5815356,216.17332 C101.340787,216.289037 103.160529,216.25885 104.788718,215.574612 C105.531435,215.257996 106.213621,214.815427 106.805052,214.266512 C107.752366,215.006643 108.764634,215.659986 109.829554,216.2186 C112.481033,217.949318 115.41984,219.564319 118.192299,221.400691 C121.080698,224.142671 124.579037,228.031754 124.624405,230.864295 C124.689936,234.622568 129.866873,242.003274 132.185658,245.112528 C132.301597,245.73136 132.352005,246.083541 132.352005,246.083541 L142.993208,261.725405 C142.993208,261.725405 143.78966,264.165515 147.943308,264.301356 C147.177101,269.010518 147.439225,277.291801 151.124075,278.157159 C155.398704,279.163391 162.355056,278.323188 163.363223,279.575945 C164.37139,280.828703 180.960779,278.906802 180.960779,278.906802 C180.960779,278.906802 190.180467,276.823903 196.30004,278.660275 C200.107369,279.718165 204.164677,279.422943 207.778022,277.825103 C207.778022,277.825103 214.391598,277.20124 215.24854,274.620257 C215.415376,274.380902 215.527252,274.107761 215.576194,273.820303 C215.616362,273.538943 215.690847,273.26354 215.797991,273.000225 C216.463381,271.918526 217.496752,271.601563 217.108608,271.360068 C217.612692,270.927389 217.718549,270.826765 216.160931,270.565145 C215.129724,270.411848 214.079145,270.447652 213.060817,270.6708 C213.433839,270.29514 213.80182,269.897679 214.16476,269.478416 C214.396461,269.491242 214.628695,269.491242 214.860396,269.478416 C217.174139,269.609226 217.012832,268.608026 219.175351,268.069692 C221.695768,267.445829 224.216186,267.194271 227.472565,266.816934 C230.728945,266.439598 234.136549,264.568008 235.537902,262.79201 C236.939254,261.016012 242.826949,262.037336 244.46018,259.033736 C245.861532,256.467847 240.906391,254.264201 238.264993,254.465447 C237.630342,254.378423 236.984248,254.48912 236.415007,254.78241 C234.86243,255.788641 229.292307,256.251507 227.38183,256.372255 C226.963441,256.22132 225.279802,255.642737 223.298754,255.139622 C225.012638,252.337268 227.412075,248.518621 229.584675,245.439553 C233.526608,239.849939 235.870597,237.847539 235.870597,237.847539 C236.682416,236.540865 237.704249,235.376513 238.895098,234.401197 C241.843986,241.85737 259.24495,254.339668 267.627858,255.78361 C276.847546,257.368424 285.900886,264.874908 285.900886,264.874908 C285.900886,264.874908 285.064107,268.396717 285.064107,269.906064 C285.064107,270.580239 286.737665,270.912295 288.839693,271.078323 C290.251127,272.134866 297.101622,272.019149 299.727897,271.581439 C302.661663,271.078323 310.958878,273.166253 317.748883,273.593901 C324.538888,274.021549 330.794564,270.811672 326.691324,270.645644 Z" id="Path" fill="url(#linearGradient-1)" fill-rule="nonzero"></path>
                                    <path d="M159.619402,213 L159,221.099191 L162.820469,229.626803 L168.22165,234.523039 L174.098532,238.093211 L179.549266,242 L185,236.960957 C185,236.960957 177.017153,231.687302 176.303602,229.897116 C175.590051,228.106929 172.002478,224.480654 172.002478,224.480654 L166.93825,219.441611 L162.825424,215.580725 L159.619402,213 Z" id="Path" fill="#FD6F8D" fill-rule="nonzero"></path>
                                    <path d="M159.619402,213 L159,221.099191 L162.820469,229.626803 L168.22165,234.523039 L174.098532,238.093211 L179.549266,242 L185,236.960957 C185,236.960957 177.017153,231.687302 176.303602,229.897116 C175.590051,228.106929 172.002478,224.480654 172.002478,224.480654 L166.93825,219.441611 L162.825424,215.580725 L159.619402,213 Z" id="Path" fill="#FF715B" fill-rule="nonzero"></path>
                                    <path d="M134.442931,182.170148 C132.436123,186.153603 130.740369,192.006842 132.67694,198.606978 C136.259093,210.801226 110,193.739441 110,193.739441 C110,193.739441 115.659201,185.183144 117.314818,177.795462 C117.851639,175.402341 117.967031,173.126081 117.314818,171.307106 C114.710984,163.883858 138,176.748789 138,176.748789 C136.589098,178.393519 135.393546,180.21567 134.442931,182.170148 Z" id="Path" fill="#FFBEC5" fill-rule="nonzero"></path>
                                    <path d="M131,194 C131,194 140.921121,194.366489 142.271482,197.17791 C143.621843,199.989331 146.438454,204.392218 147.667887,205.004706 C148.89732,205.617194 161.897062,216.250391 163.000529,216.73737 C164.103995,217.224348 175.269665,228.836522 175.269665,230.061499 C175.269665,231.286475 186.803158,238.375273 194.16464,239.47474 C201.526122,240.574206 212.807681,253.777845 216.123119,253.285847 C219.438557,252.793848 226.200439,255.243801 226.200439,255.243801 C226.200439,255.243801 233.808815,254.877312 235.647926,253.652336 C237.487037,252.427359 244.35473,254.877312 242.762514,257.809223 C241.170297,260.741134 235.401032,259.767177 234.050671,261.479132 C232.70031,263.191086 229.38991,265.023531 226.200439,265.390019 C223.010967,265.756508 220.55714,265.997487 218.103312,266.609976 C215.649485,267.222464 216.264202,268.44242 212.560787,267.834952 C208.857372,267.227484 194.527423,241.794162 194.527423,241.794162 L178.580065,234.584875 C178.580065,234.584875 172.568944,229.69501 172.075155,228.103544 C171.581366,226.512079 160.052913,215.637903 160.052913,215.637903 L144.962126,204.633197 L131,194 Z" id="Path" fill="#000000" fill-rule="nonzero" opacity="0.1"></path>
                                    <path d="M132,194 C132,194 141.921011,194.366489 143.271356,197.17791 C144.621702,199.989331 147.44332,204.392218 148.667701,205.004706 C149.892082,205.617194 162.896718,216.250391 164.00521,216.73737 C165.113703,217.224348 176.269172,228.836522 176.269172,230.061499 C176.269172,231.286475 187.802535,238.375273 195.163935,239.47474 C202.525335,240.574206 213.806769,253.777845 217.12217,253.285847 C220.437571,252.793848 227.199377,255.243801 227.199377,255.243801 C227.199377,255.243801 234.807669,254.877312 236.646759,253.652336 C238.485849,252.427359 245.358505,254.877312 243.761267,257.809223 C242.16403,260.741134 236.399867,259.767177 235.049522,261.479132 C233.699176,263.191086 230.388813,265.023531 227.199377,265.390019 C224.009941,265.756508 221.535987,265.997487 219.087225,266.609976 C216.638464,267.222464 217.248135,268.44242 213.544761,267.834952 C209.841388,267.227484 195.511599,241.794162 195.511599,241.794162 L179.564418,234.584875 C179.564418,234.584875 173.553364,229.69501 173.059581,228.103544 C172.565798,226.512079 161.072743,215.637903 161.072743,215.637903 L145.956932,204.633197 L132,194 Z" id="Path" fill="#FF715B" fill-rule="nonzero"></path>
                                    <path d="M184,248.338526 C184,248.338526 198.86877,235.230475 199.598371,234.257651 C199.960656,233.756195 204.665326,230.220932 209.32471,226.735816 C215.115022,222.43099 220.542237,217.661281 225.552048,212.474417 C228.908214,209.004343 232.500871,205.539285 233.738677,205.263484 C236.254543,204.691825 242.639812,204.937538 243.948063,207.133914 C245.256313,209.33029 250.891854,213.321877 250.891854,213.321877 L255.712254,218.687452 C255.712254,218.687452 267.068874,227.47797 274.420236,235.536362 C281.771597,243.594755 290.426177,252.30504 293.54082,252.630986 C296.655462,252.956932 301.380259,256.943505 301.380259,256.943505 C301.380259,256.943505 308.077495,260.202966 310.437378,262.805521 C312.79726,265.408076 316.727044,267.935413 320.727271,268.095879 C324.727499,268.256344 318.60388,271.35534 311.987151,270.944147 C305.370423,270.532953 297.28946,268.502058 294.426405,268.993484 C291.563349,269.484911 283.567926,269.560129 283.567926,268.095879 C283.567926,266.631628 284.383066,263.2117 284.383066,263.2117 C284.383066,263.2117 275.562439,255.905491 266.595891,254.361008 C257.629344,252.816525 237.990491,238.244223 238.151507,231.489615 C238.151507,231.489615 235.379022,231.243902 232.188904,236.12808 C232.188904,236.12808 229.904497,238.083757 226.065285,243.53458 C222.226073,248.985403 217.652228,256.798083 217.652228,256.798083 C217.652228,256.798083 210.547421,271.114642 204.831373,270.999307 C199.115325,270.883972 192.986674,270.227065 192.986674,270.227065 L185.388758,264.856475 L184.885585,258.337551 L184,248.338526 Z" id="Path" fill="#FFBEC5" fill-rule="nonzero"></path>
                                    <path d="M184,248.338526 C184,248.338526 198.86877,235.230475 199.598371,234.257651 C199.960656,233.756195 204.665326,230.220932 209.32471,226.735816 C215.115022,222.43099 220.542237,217.661281 225.552048,212.474417 C228.908214,209.004343 232.500871,205.539285 233.738677,205.263484 C236.254543,204.691825 242.639812,204.937538 243.948063,207.133914 C245.256313,209.33029 250.891854,213.321877 250.891854,213.321877 L255.712254,218.687452 C255.712254,218.687452 267.068874,227.47797 274.420236,235.536362 C281.771597,243.594755 290.426177,252.30504 293.54082,252.630986 C296.655462,252.956932 301.380259,256.943505 301.380259,256.943505 C301.380259,256.943505 308.077495,260.202966 310.437378,262.805521 C312.79726,265.408076 316.727044,267.935413 320.727271,268.095879 C324.727499,268.256344 318.60388,271.35534 311.987151,270.944147 C305.370423,270.532953 297.28946,268.502058 294.426405,268.993484 C291.563349,269.484911 283.567926,269.560129 283.567926,268.095879 C283.567926,266.631628 284.383066,263.2117 284.383066,263.2117 C284.383066,263.2117 275.562439,255.905491 266.595891,254.361008 C257.629344,252.816525 237.990491,238.244223 238.151507,231.489615 C238.151507,231.489615 235.379022,231.243902 232.188904,236.12808 C232.188904,236.12808 229.904497,238.083757 226.065285,243.53458 C222.226073,248.985403 217.652228,256.798083 217.652228,256.798083 C217.652228,256.798083 210.547421,271.114642 204.831373,270.999307 C199.115325,270.883972 192.986674,270.227065 192.986674,270.227065 L185.388758,264.856475 L184.885585,258.337551 L184,248.338526 Z" id="Path" fill="#000000" fill-rule="nonzero" opacity="0.05"></path>
                                    <path d="M187,249.330141 C187,249.330141 201.864822,236.225091 202.599509,235.247102 C203.334195,234.269113 221.791937,220.752806 221.791937,220.752806 C221.791937,220.752806 234.206126,206.835272 236.742305,206.263525 C239.278483,205.691777 245.644089,205.937528 246.952435,208.134242 C248.260781,210.330955 253.8917,214.323156 253.8917,214.323156 L258.712451,219.694572 C258.712451,219.694572 270.064868,228.48644 277.416766,236.546072 C284.768663,244.605703 293.428907,253.317327 296.538744,253.643323 C299.648582,253.969319 304.378755,257.96152 304.378755,257.96152 C304.378755,257.96152 311.07648,261.216467 313.436535,263.819422 C315.796589,266.422377 319.726659,268.950102 323.727178,269.110593 C327.727697,269.271083 321.603632,272.370555 314.986421,271.959299 C308.36921,271.548042 300.282626,269.521849 297.424394,270.008336 C294.566161,270.494823 286.570155,270.600145 286.570155,269.095547 C286.570155,267.590948 287.390387,264.210618 287.390387,264.210618 C287.390387,264.210618 278.569116,256.88824 269.581787,255.338504 C260.594457,253.788767 241.009525,239.234287 241.155456,232.483656 C241.155456,232.483656 238.377737,232.237905 235.192418,237.122834 C235.192418,237.122834 232.907845,239.078812 229.068353,244.530473 C225.228861,249.982134 220.654682,257.801029 220.654682,257.801029 C220.654682,257.801029 213.549357,272.104743 207.82786,272 C202.106363,271.894099 195.98733,271.227061 195.98733,271.227061 L188.388859,265.855645 L187.88565,259.335719 L187,249.330141 Z" id="Path" fill="#FFBEC5" fill-rule="nonzero"></path>
                                    <path d="M234.822417,256.746889 C234.406372,256.917537 234.000728,257.123318 233.600284,257.3291 L231,258.669188 C233.265399,259.030291 235.570789,259.096128 237.854348,258.864932 C239.123287,258.734436 240.907081,257.695491 239.461324,256.465821 C238.311998,255.502162 235.992545,256.255021 234.822417,256.746889 Z" id="Path" fill="#000000" fill-rule="nonzero" opacity="0.1"></path>
                                    <path d="M223.636428,258.334746 C224.971229,258.04287 226.409465,257.756399 227.655608,258.334746 C228.082336,258.560589 228.486719,258.834091 228.862348,259.150917 L231,260.842716 C229.158656,261.439016 227.264911,261.819498 225.35049,261.977789 C225.09623,262.015886 224.837858,262.00491 224.587043,261.945358 C224.258494,261.818439 223.960427,261.611465 223.715235,261.339986 C222.045502,259.815745 220.91757,258.929308 223.636428,258.334746 Z" id="Path" fill="#000000" fill-rule="nonzero" opacity="0.1"></path>
                                    <path d="M138,176.852078 C136.578592,178.518139 135.373733,180.364605 134.415288,182.345702 C128.313468,184.051497 121.782516,182.369497 117.20262,177.912703 C117.742091,175.487682 117.858053,173.181081 117.20262,171.337859 C114.596015,163.815661 138,176.852078 138,176.852078 Z" id="Path" fill="#000000" fill-rule="nonzero" opacity="0.1"></path>
                                    <circle id="Oval" fill="#FFBEC5" fill-rule="nonzero" cx="129" cy="164" r="18"></circle>
                                    <polygon id="Path" fill="#504F88" fill-rule="nonzero" points="131.945779 193 131 194.545581 142.48304 207.176192 147.880416 211 151 206.759688"></polygon>
                                    <path d="M150,207.043617 C150,207.043617 155.863492,206.331123 158.572086,210.665465 C160.169338,213.168488 161.177978,215.978939 161.526917,218.898736 C161.526917,218.898736 164.230381,220.986741 163.984146,222.154441 C163.781457,222.90313 163.308525,223.55753 162.650368,224 C162.650368,224 157.402466,221.110438 157.361427,220.986741 C157.320387,220.863044 153.324184,216.607868 153.324184,216.607868 L150,213.238362 L150,207.043617 Z" id="Path" fill="#504F88" fill-rule="nonzero"></path>
                                    <path d="M114.548392,189.207584 C114.548392,189.207584 105.523957,189.921276 104.618986,196.183675 C103.714015,202.446074 103.39045,206.014536 106.590711,210.336898 C109.790973,214.65926 116.353279,216.458569 116.353279,216.458569 C116.353279,216.458569 126.282686,224.208664 126.368633,228.938133 C126.45458,233.667601 134.821773,244.277492 134.821773,244.277492 C134.821773,244.277492 150.752302,256.023259 149.599601,259.777683 C148.4469,263.532107 148.113224,274.217388 152.299348,275.197459 C156.485473,276.177529 163.295508,275.358291 164.281371,276.584635 C165.267234,277.81098 181.516272,275.931255 181.516272,275.931255 C181.516272,275.931255 190.540707,273.890698 196.531719,275.684981 C200.262089,276.718174 204.238037,276.426707 207.775609,274.860716 C207.775609,274.860716 214.752483,274.207336 215.161995,271.432983 C215.571507,268.658629 218.700989,268.744071 215.738345,268.251523 C212.775702,267.758975 210.894979,269.31201 208.761471,268.578213 C206.627963,267.844417 204.823076,265.396754 199.898819,265.47717 C194.974561,265.557586 193.831972,265.643028 193.326401,265.557586 C192.820831,265.472144 196.445772,262.702817 194.474046,258.219623 C192.502321,253.736428 188.73582,250.233305 188.902659,247.720304 C189.069497,245.207302 181.516272,236.62289 181.516272,236.62289 C181.516272,236.62289 177.906498,231.4059 173.224915,229.692033 C168.543331,227.978166 159.766626,217.448691 159.766626,217.448691 C159.766626,217.448691 152.248791,205.813496 148.168836,205.190271 C144.088882,204.567047 130.71654,192.625266 130.71654,192.625266 C130.71654,192.625266 119.376592,187.976213 114.548392,189.207584 Z" id="Path" fill="#000000" fill-rule="nonzero" opacity="0.1"></path>
                                    <path d="M114.566602,190.206974 C114.566602,190.206974 105.53827,190.9356 104.623305,197.181684 C103.70834,203.427768 103.394926,207.010598 106.594777,211.33713 C109.794628,215.663661 116.361147,217.452563 116.361147,217.452563 C116.361147,217.452563 126.289278,225.201125 126.370159,229.934681 C126.45104,234.668238 134.822214,245.265979 134.822214,245.265979 C134.822214,245.265979 150.760808,257.014446 149.61331,260.783201 C148.465812,264.551956 148.132178,275.220047 152.31271,276.199923 C156.493242,277.1798 163.312514,276.365748 164.293195,277.586825 C165.273876,278.807902 181.525883,276.933574 181.525883,276.933574 C181.525883,276.933574 190.554215,274.898446 196.544457,276.692374 C200.272076,277.722763 204.244569,277.427753 207.776793,275.858223 C207.776793,275.858223 214.752771,275.204972 215.162231,272.436193 C215.57169,269.667414 218.70077,269.742789 215.738507,269.255363 C212.776244,268.767938 210.895763,270.31564 208.762529,269.576964 C206.629295,268.838288 204.82464,266.396134 199.901014,266.481559 C194.977389,266.566984 193.834946,266.642359 193.329441,266.561959 C192.823935,266.481559 196.443356,263.707755 194.476939,259.220424 C192.510522,254.733092 188.734394,251.225637 188.916376,248.698059 C189.098358,246.17048 181.530938,237.602843 181.530938,237.602843 C181.530938,237.602843 177.921628,232.386885 173.2457,230.673358 C168.569773,228.95983 159.789139,218.437465 159.789139,218.437465 C159.789139,218.437465 152.267215,206.804573 148.192839,206.176447 C144.118463,205.548321 130.737728,193.639054 130.737728,193.639054 C130.737728,193.639054 119.389126,188.975847 114.566602,190.206974 Z" id="Path" fill="#FF715B" fill-rule="nonzero"></path>
                                    <path d="M172.434323,261.098287 C171.871785,262.341313 171.749049,263.959784 172.715593,264.923763 C173.327864,265.420485 174.038833,265.783534 174.802099,265.989214 C176.361864,266.59297 177.87049,267.653347 178.381889,269.236303 C178.475457,269.674668 178.648753,270.092451 178.893287,270.469182 C179.152913,270.747951 179.47536,270.961797 179.83426,271.093231 C184.282382,273.086055 189.120057,274.077133 194,273.995317 C192.384114,272.454338 190.335406,271.435425 188.124031,271.072937 C186.36482,270.788817 184.503329,270.92073 182.877082,270.195209 C181.250834,269.469687 180.166669,268.084601 179.10296,266.724883 C178.710019,266.276665 178.403223,265.760781 178.197785,265.20281 C177.814236,263.980078 178.427914,262.625434 178.075049,261.397628 C177.87049,260.692401 176.162419,258.170834 175.436233,258.013553 C174.326498,257.79539 172.807644,260.271295 172.434323,261.098287 Z" id="Path" fill="#000000" fill-rule="nonzero" opacity="0.1"></path>
                                    <path d="M237,231 C238.033797,230.639768 243.290656,229.586781 241.703777,227.447555 C240.256461,225.485675 238.12167,230.584347 237,231 Z" id="Path" fill="#000000" fill-rule="nonzero" opacity="0.1"></path>
                                    <path d="M218.432823,180.269036 L227,176 L224.023563,220 L215,218.167513 L217.341463,181.908629 C217.395084,181.20263 217.810437,180.578627 218.432823,180.269036 L218.432823,180.269036 Z" id="Path" fill="#CBE3FF" fill-rule="nonzero"></path>
                                    <path d="M226.702178,176 L226.702178,176 L224,220 L224,220 C224.618805,219.999368 225.132894,219.461947 225.179951,218.766497 L227.99472,178.13198 C228.059493,177.167994 227.522514,176.282275 226.702178,176 Z" id="Path" fill="#C8BFCA" fill-rule="nonzero"></path>
                                    <path d="M214.335619,217.370131 L186.837796,237.875792 C186.373413,238.213505 186.072907,238.736003 186.011598,239.312326 C185.950289,239.888648 186.133989,240.464164 186.516654,240.894624 L189.206222,244 L224,217.61958 L215.529868,217.003595 C215.1013,216.976175 214.677338,217.106296 214.335619,217.370131 L214.335619,217.370131 Z" id="Path" fill="#F1F1F2" fill-rule="nonzero"></path>
                                    <polygon id="Path" fill="#7E7A98" fill-rule="nonzero" points="214.378423 220 196 233.162687 198.559336 236 220 220.392232"></polygon>
                                    <path d="M190,244.174151 L190,244.174151 L224.729605,218 L224.729605,218 C225.297038,219.192311 224.948625,220.622744 223.897938,221.414459 L193.391798,244.48226 C192.351593,245.276868 190.882562,245.143421 190,244.174151 Z" id="Path" fill="#C8BFCA" fill-rule="nonzero"></path>
                                    <path d="M184,237.51988 C184,237.51988 196.149617,212.65801 203.323916,222.167459 C210.498214,231.676908 192.318973,242 192.318973,242 L184,237.51988 Z" id="Path" fill="#FFBEC5" fill-rule="nonzero"></path>
                                    <path d="M118.732594,196.897554 C113.814721,198.176909 109.917138,201.92134 108.443893,206.781972 C107.652066,209.48872 107.707545,212.457574 110.390677,214.44353 C116.533636,218.979979 125.208423,222.175655 129.223034,229.620472 C131.735783,234.489165 133.471522,239.720512 134.367385,245.125046 L144.767042,260.463284 C144.767042,260.463284 146.345652,265.37273 156.871396,261.53187 C167.397141,257.69101 173.151753,255.720175 173.151753,255.720175 C173.151753,255.720175 181.312105,251.345022 184.958541,249.747184 C185.472484,249.485682 186.01845,249.292503 186.582542,249.172567 C187.808108,249.172567 196.583765,241.667264 196.987243,240.633962 C197.390722,239.60066 188.11576,235.306155 184.408802,236.238647 C184.408802,236.238647 183.879236,238.456467 176.919233,238.128834 C169.959229,237.801202 167.336619,240.749894 167.336619,240.749894 C167.336619,240.749894 163.896965,239.520012 161.687921,239.640984 C159.478876,239.761956 155.469309,237.624784 152.478524,237.88185 C152.478524,237.88185 153.991569,234.85755 152.029655,232.337301 C150.067741,229.817052 148.262174,230.043874 147.445131,227.059899 C146.976087,225.35621 145.427738,219.937674 144.171911,215.582683 C142.535211,209.783867 139.273274,204.5738 134.770863,200.567037 C131.835557,197.981261 128.345468,195.879373 124.845293,196.005386 C122.780663,196.072358 120.73016,196.371636 118.732594,196.897554 L118.732594,196.897554 Z" id="Path" fill="#000000" fill-rule="nonzero" opacity="0.1"></path>
                                    <path d="M118.744394,194.869927 C113.823373,196.152304 109.92189,199.898581 108.441412,204.763044 C107.654694,207.470794 107.705125,210.435703 110.393078,212.422395 C116.530488,216.960522 125.209603,220.157381 129.218839,227.604952 C131.737085,232.474366 133.477822,237.70776 134.377894,243.115262 L144.776694,258.464218 C144.776694,258.464218 146.35013,263.37548 156.880049,259.528156 C167.409968,255.680833 173.159062,253.719353 173.159062,253.719353 C173.159062,253.719353 181.318741,249.337539 184.959834,247.744152 C185.473007,247.480864 186.019157,247.287533 186.583701,247.169323 C187.814208,247.169323 196.589141,239.661243 196.987543,238.627559 C197.385945,237.593874 188.121835,233.29778 184.415183,234.230618 C184.415183,234.230618 183.885661,236.449258 176.926232,236.121504 C169.966802,235.79375 167.344409,238.738491 167.344409,238.738491 C167.344409,238.738491 163.905038,237.513196 161.696176,237.634213 C159.487314,237.75523 155.473034,235.617268 152.48754,235.874428 C152.48754,235.874428 154.000459,232.84901 152.033664,230.327828 C150.066869,227.806646 148.271538,228.038595 147.449518,225.048473 C146.985556,223.349197 145.432292,217.928656 144.181612,213.567011 C142.54375,207.766624 139.282296,202.55497 134.78134,198.54581 C131.841233,195.959077 128.356475,193.856412 124.856588,194.007683 C122.793153,194.063286 120.742668,194.352547 118.744394,194.869927 Z" id="Path" fill="#000000" fill-rule="nonzero" opacity="0.1"></path>
                                    <path d="M118.732594,195.870009 C113.814721,197.149933 109.917138,200.896031 108.443893,205.758826 C107.652066,208.466778 107.707545,211.436953 110.390677,213.423794 C116.533636,217.962261 125.208423,221.15936 129.223034,228.607489 C131.735783,233.478349 133.471522,238.712024 134.367385,244.118964 L144.767042,259.464027 C144.767042,259.464027 146.345652,264.375658 156.871396,260.528046 C167.397141,256.680434 173.151753,254.718807 173.151753,254.718807 C173.151753,254.718807 181.312105,250.336664 184.958541,248.743158 C185.47144,248.479116 186.017737,248.285735 186.582542,248.168285 C187.808108,248.168285 196.583765,240.659643 196.987243,239.625881 C197.390722,238.592119 188.11576,234.295702 184.408802,235.22861 C184.408802,235.22861 183.879236,237.447416 176.919233,237.119638 C169.959229,236.79186 167.336619,239.736821 167.336619,239.736821 C167.336619,239.736821 163.896965,238.511435 161.687921,238.63246 C159.478876,238.753486 155.469309,236.615364 152.478524,236.872544 C152.478524,236.872544 153.991569,233.846898 152.029655,231.325527 C150.067741,228.804156 148.262174,229.036123 147.445131,226.050819 C146.976087,224.346373 145.427738,218.925425 144.171911,214.563453 C142.535116,208.763532 139.273116,203.552795 134.770863,199.546168 C131.835557,196.954198 128.345468,194.856418 124.845293,195.0077 C122.781813,195.064811 120.731328,195.35407 118.732594,195.870009 L118.732594,195.870009 Z" id="Path" fill="#FF715B" fill-rule="nonzero"></path>
                                    <path d="M150.26786,157.562962 C152.06341,156.940249 153.697107,155.493947 153.975291,153.625808 C154.091606,152.374546 153.795158,151.119647 153.130624,150.05023 C150.884923,146.032727 146.358115,143.893406 142.003275,142.396886 C137.648435,140.900366 133.086222,139.780487 128.488604,140.036603 C123.890986,140.292719 119.232673,142.045355 116.258636,145.56067 C115.734507,146.282278 115.115301,146.930856 114.417566,147.489072 C113.360468,148.2072 112.010012,148.322704 110.730367,148.277507 C106.51209,148.121829 102.106672,146.464608 98.2171574,148.091697 C93.5436709,150.040186 91.9049158,155.729976 91.2979695,160.731768 C90.6707917,165.874172 90.5190551,171.111992 89.1483681,176.113784 C87.777681,181.115576 84.9654965,186.001864 80.3830519,188.482673 C79.0427122,189.205823 77.5809832,189.713033 76.3367433,190.566753 C75.0925033,191.420472 74.0050579,192.75127 74,194.267878 C74,196.33187 75.861302,197.848478 76.8324161,199.67142 C77.5405201,201.002218 77.8136459,202.594154 78.8808598,203.658792 C81.000114,205.788069 84.7581232,204.582818 87.4792657,205.878463 C89.8969352,207.033495 90.9388596,209.860813 92.8406247,211.744018 C95.0762103,213.958667 98.3739518,214.732036 101.519957,214.947977 C103.244696,215.06348 105.03013,215.033349 106.618306,214.365439 C109.784542,213.034641 111.46376,209.443997 111.650902,206.039163 C111.838044,202.634329 110.851756,199.289757 110.133536,195.950207 C109.895816,194.850416 109.6935,193.675296 110.133536,192.625723 C110.509352,191.819066 111.094052,191.125887 111.827928,190.616972 C115.565706,187.684194 120.89166,186.343352 123.036203,182.119952 C124.477701,179.28259 124.04778,175.912909 124.391717,172.754147 C124.523222,171.604136 124.811521,170.38382 125.671362,169.595385 C126.723402,168.636206 128.296404,168.591009 129.71767,168.465462 C133.932406,168.043844 137.910136,166.328921 141.097913,163.559086 C142.645626,162.218244 143.581335,160.545958 144.926733,159.084591 C146.272131,157.623224 148.452079,158.180653 150.26786,157.562962 Z" id="Path" fill="#000000" fill-rule="nonzero" opacity="0.1"></path>
                                    <path d="M150.269101,157.562652 C152.06456,156.934937 153.698176,155.488683 153.976346,153.620604 C154.090031,152.370499 153.791855,151.117538 153.126663,150.050164 C150.886132,146.032791 146.354493,143.893539 141.999871,142.392046 C137.64525,140.890553 133.078207,139.780753 128.485877,140.036861 C123.893546,140.292969 119.230409,142.045548 116.251463,145.560749 C115.729153,146.282203 115.111665,146.930775 114.415543,147.489088 C113.358498,148.207194 112.00811,148.327715 110.728529,148.277498 C106.510463,148.126846 102.105265,146.46968 98.2108876,148.091694 C93.537635,150.045142 91.898962,155.734747 91.2920461,160.731355 C90.6699573,165.878614 90.5182283,171.111243 89.1476099,176.112872 C87.7769914,181.114502 84.95989,186.005654 80.3776748,188.48136 C79.0374021,189.209509 77.5757463,189.711681 76.3315687,190.570394 C75.087391,191.429108 74,192.754841 74,194.266378 C74,196.330303 75.8612088,197.851883 76.8322743,199.674766 C77.5352852,201.000499 77.813455,202.597405 78.8553274,203.662009 C80.9795331,205.786195 84.7373542,204.580983 87.4533029,205.881608 C89.875909,207.036603 90.9177813,209.863829 92.8194512,211.746973 C95.0498672,213.956528 98.3474437,214.734894 101.498349,214.945806 C103.217944,215.066327 105.008346,215.031175 106.596443,214.363287 C109.762521,213.032532 111.441655,209.447027 111.628787,206.042303 C111.81592,202.637579 110.824624,199.288094 110.111497,195.953674 C109.878846,194.853918 109.676541,193.678837 110.086209,192.629298 C110.46545,191.823354 111.051508,191.13062 111.785574,190.620611 C115.518107,187.692951 120.843794,186.352152 122.98823,182.128889 C124.429655,179.291619 123.999757,175.922047 124.348733,172.763388 C124.480232,171.608393 124.768517,170.388116 125.623257,169.604728 C126.680302,168.640558 128.253226,168.600385 129.669363,168.474842 C133.885301,168.049247 137.863754,166.332989 141.054094,163.563603 C142.60173,162.227826 143.532334,160.550573 144.882722,159.089253 C146.23311,157.627934 148.468584,158.195388 150.269101,157.562652 Z" id="Path" fill="#374140" fill-rule="nonzero"></path>
                                    <g id="Group" opacity="0.1" transform="translate(78.000000, 147.000000)" fill="#000000" fill-rule="nonzero">
                                        <path d="M8.59157895,57.0293333 C6.05868421,55.8204444 2.61394737,56.7875556 0.435657895,55.1958519 C0.640634462,55.5918152 0.901645048,55.956513 1.21072368,56.2788148 C3.33835526,58.4094815 7.10223684,57.2005926 9.82256579,58.5051852 C10.4398229,58.8048565 10.9989153,59.2107115 11.4740132,59.704 C10.751201,58.588511 9.76064119,57.6693513 8.59157895,57.0293333 L8.59157895,57.0293333 Z" id="Path"></path>
                                        <path d="M75.6069079,2.51851852 C75.1005273,1.60972219 74.4735015,0.772785591 73.7426974,0.0302222222 C73.9795035,0.353471574 74.1976827,0.689814031 74.3961842,1.03762963 C75.0617113,2.108433 75.3586622,3.36552135 75.2421711,4.61896296 C74.9635526,6.49274074 73.3273026,7.94340741 71.5289474,8.57303704 C69.7305921,9.20266667 67.4763158,8.6082963 66.1338816,10.0841481 C64.7914474,11.56 63.8441447,13.2322963 62.2940132,14.5721481 C59.1002645,17.3496006 55.1171188,19.0711145 50.8959868,19.4983704 C49.4674342,19.6293333 47.8919737,19.6645926 46.8433553,20.6317037 C45.9821711,21.4174815 45.6934211,22.6465185 45.5667763,23.8 C45.2020395,26.9632593 45.6478289,30.3481481 44.2040789,33.1940741 C42.0561842,37.4251852 36.7219079,38.7700741 32.9782895,41.7117037 C32.2447388,42.2237523 31.6594922,42.918588 31.28125,43.7265185 C30.8658553,44.7742222 31.0684868,45.9579259 31.3065789,47.061037 C32.0259211,50.4056296 33.0188158,53.7602963 32.8263158,57.1804444 C32.6338158,60.6005926 30.9519737,64.192 27.7858553,65.5268148 C26.1901316,66.1967407 24.4019079,66.226963 22.6744737,66.1111111 C19.5235526,65.8995556 16.2206579,65.1037037 13.9815789,62.9025185 L13.9511842,62.8672593 C14.3313504,63.4043331 14.7549013,63.9097094 15.2176316,64.3783704 C17.4516447,66.5946667 20.7545395,67.3754074 23.9105263,67.586963 C25.6328947,67.7078519 27.4261842,67.6725926 29.0168421,67.0026667 C32.1880263,65.6678519 33.8698684,62.0714074 34.0573026,58.6562963 C34.2447368,55.2411852 33.2518421,51.8814815 32.5375658,48.5368889 C32.3045395,47.4337778 32.1019079,46.2551111 32.5122368,45.2023704 C32.8920893,44.3939671 33.4790927,43.6991198 34.2143421,43.1875556 C37.9528947,40.250963 43.2871711,38.9060741 45.4350658,34.6699259 C46.8788158,31.824 46.4482237,28.4441481 46.7977632,25.2758519 C46.9294737,24.1173333 47.2182237,22.8933333 48.0794079,22.1075556 C49.1330921,21.1404444 50.7085526,21.1001481 52.1320395,20.9742222 C56.3547772,20.5473289 60.3396464,18.8258352 63.5351316,16.048 C65.0852632,14.7081481 66.0173684,13.0257778 67.3699342,11.56 C68.7225,10.0942222 70.9514474,10.6885926 72.7700658,10.0488889 C74.5886842,9.40918519 76.2046711,7.96859259 76.4832895,6.09481481 C76.5885027,4.83979377 76.2809489,3.58474262 75.6069079,2.51851852 Z" id="Path"></path>
                                    </g>
                                    <path d="M46.9109668,282 C46.9109668,282 50.5124214,286.651367 45.2491455,293.670793 C39.9858695,300.690218 35.6520012,306.6328 37.3895895,311 C37.3895895,311 45.3400658,297.958226 51.8055103,297.778752 C58.2709548,297.599278 54.0482114,289.842015 46.9109668,282 Z" id="Path" fill="#44D7B6" fill-rule="nonzero"></path>
                                    <path d="M46.8211601,282 C47.1394248,282.448127 47.3905094,282.938318 47.5668124,283.455733 C53.9457146,290.774282 57.3471149,297.604263 51.2133586,297.778752 C45.4983934,297.938284 38.6445208,307.90906 37,310.42668 C37.0561793,310.621111 37.122573,310.815541 37.1940739,311 C37.1940739,311 45.2328186,297.958226 51.7700442,297.778752 C58.3072699,297.599278 54.0376444,289.842015 46.8211601,282 Z" id="Path" fill="#000000" fill-rule="nonzero" opacity="0.1"></path>
                                    <path d="M54,287.046539 C54,288.677406 53.7743902,290 53.5,290 C53.2256098,290 53,288.677406 53,287.046539 C53,285.415672 53.2804878,286.181384 53.554878,286.181384 C53.8292683,286.181384 54,285.410699 54,287.046539 Z" id="Path" fill="#FFD037" fill-rule="nonzero"></path>
                                    <path d="M56.0335008,289.008827 C54.4804641,289.712512 53.1269495,290.138309 53.0083147,289.959026 C52.88968,289.779743 54.0544575,289.062612 55.6128867,288.358926 C57.1713159,287.655241 56.5511797,288.170679 56.6913844,288.358926 C56.8315891,288.547173 57.59193,288.305142 56.0335008,289.008827 Z" id="Path" fill="#FFD037" fill-rule="nonzero"></path>
                                    <path d="M28.0910508,282 C28.0910508,282 24.4892146,286.651367 29.7530482,293.670793 C35.0168818,300.690218 39.3512092,306.6328 37.6083853,311 C37.6083853,311 29.6621182,297.958226 23.190937,297.778752 C16.7197558,297.599278 20.9732566,289.842015 28.0910508,282 Z" id="Path" fill="#44D7B6" fill-rule="nonzero"></path>
                                    <path d="M28.1818013,282 C27.8634671,282.448127 27.6123276,282.938318 27.435986,283.455733 C21.0556894,290.774282 17.6535456,297.604263 23.7886427,297.778752 C29.5048572,297.938284 36.360228,307.90906 38,310.42668 C37.9483975,310.621778 37.8835488,310.813307 37.8058837,311 C37.8058837,311 29.7704901,297.958226 23.2267271,297.778752 C16.6829641,297.599278 20.9841728,289.842015 28.1818013,282 Z" id="Path" fill="#000000" fill-rule="nonzero" opacity="0.1"></path>
                                    <path d="M21,287.046539 C21,288.677406 21.2256098,290 21.5,290 C21.7743902,290 22,288.677406 22,287.046539 C22,285.415672 21.7195122,286.181384 21.445122,286.181384 C21.1707317,286.181384 21,285.410699 21,287.046539 Z" id="Path" fill="#FFD037" fill-rule="nonzero"></path>
                                    <path d="M18.9664992,289.008827 C20.5195359,289.712512 21.8730505,290.138309 21.9916853,289.959026 C22.11032,289.779743 20.9455425,289.062612 19.3871133,288.358926 C17.8286841,287.655241 18.4488203,288.170679 18.3086156,288.358926 C18.1684109,288.547173 17.40807,288.305142 18.9664992,289.008827 Z" id="Path" fill="#FFD037" fill-rule="nonzero"></path>
                                    <ellipse id="Oval" fill="#4285F4" fill-rule="nonzero" opacity="0.1" cx="37.5" cy="341" rx="37.5" ry="6"></ellipse>
                                    <path d="M56.9919189,304.195282 L56.8091585,305.663837 L56.5553247,307.743028 L56.4487145,308.605994 L56.1948807,310.685185 L56.0882705,311.553197 L55.8344367,313.627342 L52.9356544,337.25039 C52.6767439,339.359861 49.2093739,341 45.0312693,341 L29.9687703,341 C25.785589,341 22.3537557,339.359861 22.0694618,337.25039 L19.1656029,313.632389 L18.9117691,311.558244 L18.8051589,310.690232 L18.5462484,308.61104 L18.4447149,307.748075 L18.1908811,305.668884 L18.0081207,304.200328 C17.8608971,303.009335 19.7341907,302 22.1049986,302 L52.9001177,302 C55.2556955,301.994972 57.1391425,303.004289 56.9919189,304.195282 Z" id="Path" fill="#65617D" fill-rule="nonzero"></path>
                                    <polygon id="Path" fill="#9D9CB5" fill-rule="nonzero" points="57 306 56.7502629 308 19.2497371 308 19 306"></polygon>
                                    <polygon id="Path" fill="#9D9CB5" fill-rule="nonzero" points="57 309 56.745513 311 19.2595767 311 19 309"></polygon>
                                    <polygon id="Path" fill="#9D9CB5" fill-rule="nonzero" points="56 312 55.7473713 314 19.2526287 314 19 312"></polygon>
                                </g>
                            </g>
                        </g>
                        <g id="circle-1" transform="translate(286.000000, 112.000000)">
                            <path d="M125.931406,206.290625 C95.8467031,206.290625 69.4917031,190.171719 55.1415625,166.052187 C47.8037344,153.7375 43.5720312,139.344219 43.5720312,123.93125 C43.5720312,78.594375 80.2023438,41.8071875 125.5,41.571875 L125.931406,41.571875 C171.425156,41.571875 208.290781,78.4375 208.290781,123.93125 C208.290781,139.501094 203.972797,154.05125 196.482016,166.444375 C182.053438,190.328594 155.855313,206.290625 125.931406,206.290625 Z M125.5,0 C56.16125,0 0,56.2004687 0,125.5 C0,148.364531 6.07498437,169.777969 16.785625,188.210781 C38.4304531,225.743125 79.0257812,251 125.5,251 C171.931078,251 212.522484,225.743125 234.210453,188.25 C244.877953,169.777969 251,148.364531 251,125.5 C251,56.2004687 194.799531,0 125.5,0 Z" id="Stroke-1" stroke="#FF715B" stroke-width="3" opacity="0.4"></path>
                            <circle id="Oval" stroke="#FF7056" stroke-width="6" fill="#FF715B" fill-rule="nonzero" opacity="0.300574777" filter="url(#filter-2)" cx="125" cy="143" r="50"></circle>
                            <circle id="Oval" fill="#FF715B" fill-rule="nonzero" cx="125" cy="124" r="50"></circle>
                            <text id="3" font-family="Montserrat-Bold, Montserrat" font-size="24" font-weight="bold" letter-spacing="0.1118721" fill="#FFFFFF">
                                <tspan x="116.840064" y="135">3</tspan>
                            </text>
                        </g>
                    </g>
                </g>
            </g>
        </g>
    </g>
</svg>