<?xml version="1.0" encoding="UTF-8"?>
<svg width="562px" height="255px" viewBox="0 0 562 255" version="1.1" xmlns="http://www.w3.org/2000/svg" xmlns:xlink="http://www.w3.org/1999/xlink">
    <!-- Generator: Sketch 60.1 (88133) - https://sketch.com -->
    <title>Group</title>
    <desc>Created with Sketch.</desc>
    <defs>
        <filter x="-27.0%" y="-27.0%" width="154.0%" height="154.0%" filterUnits="objectBoundingBox" id="filter-1">
            <feGaussianBlur stdDeviation="9" in="SourceGraphic"></feGaussianBlur>
        </filter>
        <linearGradient x1="50.0045716%" y1="99.9861103%" x2="50.0045716%" y2="-0.0177116885%" id="linearGradient-2">
            <stop stop-color="#808080" stop-opacity="0.25" offset="0%"></stop>
            <stop stop-color="#808080" stop-opacity="0.12" offset="54%"></stop>
            <stop stop-color="#808080" stop-opacity="0.1" offset="100%"></stop>
        </linearGradient>
        <linearGradient x1="50.0379075%" y1="100.004128%" x2="50.0379075%" y2="0%" id="linearGradient-3">
            <stop stop-color="#808080" stop-opacity="0.25" offset="0%"></stop>
            <stop stop-color="#808080" stop-opacity="0.12" offset="54%"></stop>
            <stop stop-color="#808080" stop-opacity="0.1" offset="100%"></stop>
        </linearGradient>
        <linearGradient x1="50.0047812%" y1="100.004498%" x2="50.0047812%" y2="2.55717388e-14%" id="linearGradient-4">
            <stop stop-color="#808080" stop-opacity="0.25" offset="0%"></stop>
            <stop stop-color="#808080" stop-opacity="0.12" offset="54%"></stop>
            <stop stop-color="#808080" stop-opacity="0.1" offset="100%"></stop>
        </linearGradient>
        <linearGradient x1="50%" y1="100%" x2="50%" y2="0%" id="linearGradient-5">
            <stop stop-color="#808080" stop-opacity="0.25" offset="0%"></stop>
            <stop stop-color="#808080" stop-opacity="0.12" offset="54%"></stop>
            <stop stop-color="#808080" stop-opacity="0.1" offset="100%"></stop>
        </linearGradient>
        <linearGradient x1="50.0167751%" y1="99.9997692%" x2="50.0167751%" y2="0.0141601804%" id="linearGradient-6">
            <stop stop-color="#808080" stop-opacity="0.25" offset="0%"></stop>
            <stop stop-color="#808080" stop-opacity="0.12" offset="54%"></stop>
            <stop stop-color="#808080" stop-opacity="0.1" offset="100%"></stop>
        </linearGradient>
        <linearGradient x1="50.0556174%" y1="100%" x2="50.0556174%" y2="0%" id="linearGradient-7">
            <stop stop-color="#808080" stop-opacity="0.25" offset="0%"></stop>
            <stop stop-color="#808080" stop-opacity="0.12" offset="54%"></stop>
            <stop stop-color="#808080" stop-opacity="0.1" offset="100%"></stop>
        </linearGradient>
        <linearGradient x1="50.0071347%" y1="99.9999976%" x2="50.0071347%" y2="7.61925039e-14%" id="linearGradient-8">
            <stop stop-color="#808080" stop-opacity="0.25" offset="0%"></stop>
            <stop stop-color="#808080" stop-opacity="0.12" offset="54%"></stop>
            <stop stop-color="#808080" stop-opacity="0.1" offset="100%"></stop>
        </linearGradient>
        <linearGradient x1="50%" y1="100%" x2="50%" y2="0%" id="linearGradient-9">
            <stop stop-color="#808080" stop-opacity="0.25" offset="0%"></stop>
            <stop stop-color="#808080" stop-opacity="0.12" offset="54%"></stop>
            <stop stop-color="#808080" stop-opacity="0.1" offset="100%"></stop>
        </linearGradient>
        <linearGradient x1="50%" y1="100%" x2="50%" y2="0%" id="linearGradient-10">
            <stop stop-color="#808080" stop-opacity="0.25" offset="0%"></stop>
            <stop stop-color="#808080" stop-opacity="0.12" offset="54%"></stop>
            <stop stop-color="#808080" stop-opacity="0.1" offset="100%"></stop>
        </linearGradient>
        <linearGradient x1="50%" y1="100%" x2="50%" y2="0%" id="linearGradient-11">
            <stop stop-color="#808080" stop-opacity="0.25" offset="0%"></stop>
            <stop stop-color="#808080" stop-opacity="0.12" offset="54%"></stop>
            <stop stop-color="#808080" stop-opacity="0.1" offset="100%"></stop>
        </linearGradient>
        <linearGradient x1="50%" y1="100.002114%" x2="50%" y2="0.0021141649%" id="linearGradient-12">
            <stop stop-color="#808080" stop-opacity="0.25" offset="0%"></stop>
            <stop stop-color="#808080" stop-opacity="0.12" offset="54%"></stop>
            <stop stop-color="#808080" stop-opacity="0.1" offset="100%"></stop>
        </linearGradient>
        <linearGradient x1="50%" y1="100.005782%" x2="50%" y2="0%" id="linearGradient-13">
            <stop stop-color="#808080" stop-opacity="0.25" offset="0%"></stop>
            <stop stop-color="#808080" stop-opacity="0.12" offset="54%"></stop>
            <stop stop-color="#808080" stop-opacity="0.1" offset="100%"></stop>
        </linearGradient>
        <linearGradient x1="50.0040235%" y1="99.9675582%" x2="50.0040235%" y2="-0.00629109915%" id="linearGradient-14">
            <stop stop-color="#808080" stop-opacity="0.25" offset="0%"></stop>
            <stop stop-color="#808080" stop-opacity="0.12" offset="54%"></stop>
            <stop stop-color="#808080" stop-opacity="0.1" offset="100%"></stop>
        </linearGradient>
        <linearGradient x1="50%" y1="100%" x2="50%" y2="0%" id="linearGradient-15">
            <stop stop-color="#808080" stop-opacity="0.25" offset="0%"></stop>
            <stop stop-color="#808080" stop-opacity="0.12" offset="54%"></stop>
            <stop stop-color="#808080" stop-opacity="0.1" offset="100%"></stop>
        </linearGradient>
        <linearGradient x1="50.0295315%" y1="100.032154%" x2="50.0295315%" y2="0.040192926%" id="linearGradient-16">
            <stop stop-color="#808080" stop-opacity="0.25" offset="0%"></stop>
            <stop stop-color="#808080" stop-opacity="0.12" offset="54%"></stop>
            <stop stop-color="#808080" stop-opacity="0.1" offset="100%"></stop>
        </linearGradient>
        <linearGradient x1="50.0900901%" y1="100%" x2="50.0900901%" y2="0%" id="linearGradient-17">
            <stop stop-color="#808080" stop-opacity="0.25" offset="0%"></stop>
            <stop stop-color="#808080" stop-opacity="0.12" offset="54%"></stop>
            <stop stop-color="#808080" stop-opacity="0.1" offset="100%"></stop>
        </linearGradient>
        <linearGradient x1="50.0037836%" y1="100.007463%" x2="50.0037836%" y2="0.00318960625%" id="linearGradient-18">
            <stop stop-color="#B3B3B3" stop-opacity="0.25" offset="0%"></stop>
            <stop stop-color="#B3B3B3" stop-opacity="0.1" offset="54%"></stop>
            <stop stop-color="#B3B3B3" stop-opacity="0.05" offset="100%"></stop>
        </linearGradient>
        <linearGradient x1="49.989859%" y1="100.052301%" x2="49.989859%" y2="0%" id="linearGradient-19">
            <stop stop-color="#000000" stop-opacity="0.12" offset="0%"></stop>
            <stop stop-color="#000000" stop-opacity="0.09" offset="55%"></stop>
            <stop stop-color="#000000" stop-opacity="0.02" offset="100%"></stop>
        </linearGradient>
        <linearGradient x1="49.9951958%" y1="99.9213775%" x2="49.9951958%" y2="-0.00960782996%" id="linearGradient-20">
            <stop stop-color="#000000" stop-opacity="0.12" offset="0%"></stop>
            <stop stop-color="#000000" stop-opacity="0.09" offset="55%"></stop>
            <stop stop-color="#000000" stop-opacity="0.02" offset="100%"></stop>
        </linearGradient>
    </defs>
    <g id="Symbols" stroke="none" stroke-width="1" fill="none" fill-rule="evenodd">
        <g id="section4" transform="translate(-135.000000, -248.000000)">
            <g id="Group-7">
                <g transform="translate(137.000000, 239.000000)">
                    <g id="Group" transform="translate(0.000000, 11.000000)">
                        <g id="circle-1">
                            <path d="M125.931406,206.290625 C95.8467031,206.290625 69.4917031,190.171719 55.1415625,166.052187 C47.8037344,153.7375 43.5720312,139.344219 43.5720312,123.93125 C43.5720312,78.594375 80.2023438,41.8071875 125.5,41.571875 L125.931406,41.571875 C171.425156,41.571875 208.290781,78.4375 208.290781,123.93125 C208.290781,139.501094 203.972797,154.05125 196.482016,166.444375 C182.053438,190.328594 155.855313,206.290625 125.931406,206.290625 Z M125.5,0 C56.16125,0 0,56.2004687 0,125.5 C0,148.364531 6.07498437,169.777969 16.785625,188.210781 C38.4304531,225.743125 79.0257812,251 125.5,251 C171.931078,251 212.522484,225.743125 234.210453,188.25 C244.877953,169.777969 251,148.364531 251,125.5 C251,56.2004687 194.799531,0 125.5,0 Z" id="Stroke-1" stroke="#FBB13C" stroke-width="3" fill="#FFFFFF" opacity="0.402064732"></path>
                            <circle id="Oval" fill="#FBB13C" fill-rule="nonzero" opacity="0.3" filter="url(#filter-1)" cx="125" cy="137" r="50"></circle>
                            <circle id="Oval" fill="#FBB13C" fill-rule="nonzero" cx="125" cy="124" r="50"></circle>
                            <text id="1" font-family="Montserrat-Bold, Montserrat" font-size="24" font-weight="bold" letter-spacing="0.1118721" fill="#FFFFFF">
                                <tspan x="119.240064" y="135">1</tspan>
                            </text>
                        </g>
                        <g id="undraw_house_searching_n8mp" transform="translate(184.000000, 2.000000)" fill-rule="nonzero">
                            <g id="ff8ee4b4-5abc-4927-bead-5d69132ee8f9" transform="translate(290.000000, 61.000000)" fill="url(#linearGradient-2)">
                                <path d="M8.23254545,43.8079909 C5.16773901,40.5724941 3.45958676,36.299187 3.45563636,31.8575342 C3.49163037,25.6252529 6.81860658,19.868779 12.2198182,16.693379 C11.0318944,14.9806817 10.3940952,12.9509978 10.3903636,10.8714612 C10.3903636,5.01461187 15.3392727,0.267234353 21.4452727,0.267234353 C26.2870906,0.218761825 30.592247,3.31791145 32.0506364,7.90228311 C35.1144013,3.11600439 40.4429567,0.231665054 46.1546364,0.267234353 C55.2510909,0.267234353 62.6275455,7.343379 62.6275455,16.0684932 C62.6288253,17.932056 62.2870269,19.780157 61.619,21.5216895 C61.9512727,21.4984018 62.2874545,21.4712329 62.6275455,21.4712329 C69.9297273,21.4712329 75.8480909,27.1495434 75.8480909,34.1552511 C75.8482121,34.5830443 75.8260309,35.0105569 75.7816364,35.4360731 C81.6218182,37.8502283 85.7107273,43.419863 85.7107273,49.9054795 C85.7107273,58.6034247 78.3616364,65.6557078 69.2925455,65.6557078 C68.3401386,65.6543837 67.3895153,65.5738895 66.4506364,65.4150685 C66.4975455,65.9390411 66.5288182,66.4707763 66.5288182,67.0063927 C66.5288182,76.7678082 58.2806364,84.6818163 48.1052727,84.6818163 C44.3703611,84.6926748 40.7171372,83.5966669 37.6132727,81.5340183 C35.1017817,83.5783615 31.9520607,84.6912398 28.7044545,84.6818163 C21.1012727,84.6818163 14.9405455,78.7705479 14.9405455,71.4853881 C14.9405455,71.1710046 14.9679091,70.8605023 14.9913636,70.55 L14.9405455,70.55 C6.80181818,70.55 0.203272727,64.2196347 0.203272727,56.4105023 C0.237697651,51.032386 3.35287734,46.1428912 8.23254545,43.8079909 L8.23254545,43.8079909 Z" id="Path"></path>
                            </g>
                            <path d="M300.607414,104.781986 C297.705556,101.677324 296.08822,97.5785758 296.083982,93.3184378 C296.117477,87.3392933 299.269841,81.8164381 304.387904,78.7701959 C303.259812,77.1237237 302.655331,75.1718553 302.654373,73.1726238 C302.654373,67.555602 307.344193,63 313.129078,63 C317.718092,62.9546438 321.799605,65.9246188 323.189748,70.321324 C326.089836,65.7404766 331.126554,62.9774786 336.527875,63.0044141 C345.149095,63.0044141 352.133521,69.792297 352.133521,78.1750406 C352.13469,79.9629876 351.81078,81.736094 351.177758,83.4069618 C351.495056,83.3836224 351.812354,83.3602829 352.133521,83.3602829 C359.052166,83.3602829 364.659055,88.8061489 364.659055,95.5279034 C364.658253,95.9385068 364.636297,96.348793 364.593274,96.7571131 C370.126642,99.0910556 374,104.416335 374,110.636291 C374,118.980136 367.034921,125.744679 358.444657,125.744679 C357.536968,125.744754 356.630886,125.667981 355.736015,125.515175 C355.782449,126.016973 355.809535,126.52655 355.809535,127.040018 C355.809535,136.403017 347.993169,143.99222 338.354273,143.99222 C334.815902,144.001666 331.355019,142.950745 328.413558,140.973655 C326.043478,142.93002 323.071847,144 320.005159,144 C312.804041,144 306.964984,138.32852 306.964984,131.334472 C306.964984,131.031059 306.9882,130.735427 307.011417,130.435904 L306.964984,130.435904 C299.253093,130.435904 293,124.363763 293,116.871808 C293.03293,111.712651 295.984317,107.022261 300.607414,104.781986 L300.607414,104.781986 Z" id="c200c6c4-addf-434c-9e0f-5ce7230e9a19" fill="#009688"></path>
                            <line x1="330" y1="87" x2="330" y2="181" id="4f2fbb80-d4ec-4696-8eab-975803e285fc" fill="#795548"></line>
                            <rect id="Rectangle" fill="url(#linearGradient-3)" x="327" y="87" width="5" height="94"></rect>
                            <rect id="Rectangle" fill="#795548" x="328" y="87" width="3" height="94"></rect>
                            <line x1="330" y1="115" x2="313" y2="98" id="964f69dd-bb5e-4ecb-a4f0-6b0cfaf1e31d" fill="#795548"></line>
                            <polygon id="Rectangle" fill="#795548" transform="translate(321.680311, 106.923269) rotate(-44.430000) translate(-321.680311, -106.923269) " points="320.261114 94.8963496 323.102916 94.895947 323.099509 118.950189 320.257706 118.950591"></polygon>
                            <line x1="330" y1="130" x2="347" y2="118" id="72c4e71e-02d3-4be2-bc6f-3754e61bbdeb" fill="#795548"></line>
                            <polygon id="Rectangle" fill="#795548" transform="translate(338.824059, 124.140184) rotate(-35.060000) translate(-338.824059, -124.140184) " points="328.162134 122.720631 349.486364 122.717789 349.485985 125.559737 328.161755 125.562578"></polygon>
                            <g id="09ddf46a-2bb3-497c-83d6-f7ff730d3d58" transform="translate(257.000000, 62.000000)" fill="url(#linearGradient-4)">
                                <path d="M75.2285377,44.912287 C78.7909357,40.8516345 80.4119069,35.4515066 79.6722192,30.1085394 C78.9325316,24.7655723 75.9048301,20.0045007 71.3721698,17.0566816 C72.5307759,15.2701249 73.1454047,13.1874548 73.1417925,11.0603139 C73.1417925,5.04443946 68.3575472,0.167757848 62.4535849,0.167757848 C57.6597811,0.203032609 53.4718392,3.40463625 52.1960377,8.00946188 C49.3665078,3.17205454 44.1786194,0.188696577 38.5597642,0.167757848 C29.7625472,0.167757848 22.6292453,7.43596413 22.6292453,16.4012556 C22.6270292,18.3107916 22.9568605,20.2062712 23.6041038,22.0035874 C23.283066,21.9801794 22.9581132,21.95287 22.6292453,21.95287 C15.5820755,21.95287 9.84254717,27.8048879 9.84254717,34.9833632 C9.84254717,35.4281166 9.86603774,35.8650673 9.90910377,36.2981166 C4.03695092,38.9211236 0.271037057,44.7498003 0.30514447,51.1622422 C0.30514447,60.1002242 7.41518868,67.3450224 16.1810849,67.3450224 C17.1000865,67.3436455 18.0171708,67.2613978 18.9216509,67.0992377 C18.8746698,67.6376233 18.8472642,68.1838117 18.8472642,68.7339013 C18.8472642,78.7603587 26.8223113,86.8907632 36.6648585,86.8907632 C40.301723,86.8919387 43.8481552,85.7612295 46.8088679,83.6565471 C49.1917112,85.7391841 52.2525425,86.8885105 55.4220755,86.8907632 C62.7746226,86.8907632 68.7333962,80.8163677 68.7333962,73.3257848 C68.7333962,73.0019731 68.7059906,72.6820628 68.6864151,72.3621525 L68.7333962,72.3621525 C76.6066509,72.3621525 82.9844965,65.8586099 82.9844965,57.8374439 C83.0094334,52.4278492 80.0226669,47.4503593 75.2285377,44.912287 L75.2285377,44.912287 Z" id="Path"></path>
                            </g>
                            <path d="M330.748165,106.790797 C334.062852,102.998192 335.570494,97.9560375 334.881419,92.9675507 C334.192343,87.979064 331.374175,83.5338115 327.155312,80.780733 C328.23405,79.1115957 328.806053,77.1659329 328.802198,75.178864 C328.802198,69.5575844 324.34706,65.0038821 318.847082,65.0038821 C314.389855,65.0439023 310.498877,68.0314703 309.311456,72.3255211 C306.676669,67.8056648 301.84403,65.0184055 296.610235,65 C288.41853,65 281.776607,71.7897914 281.776607,80.1634793 C281.774839,81.9472148 282.082353,83.7177655 282.685502,85.3965489 C282.386421,85.3732563 282.083456,85.3499637 281.776607,85.3499637 C275.200715,85.3499637 269.87164,90.7849025 269.87164,97.5203446 C269.87164,97.9357292 269.891061,98.3433496 269.933787,98.7470879 C264.470775,101.203259 260.969038,106.646324 261,112.633357 C261,120.97987 267.603288,127.746369 275.787224,127.746369 C276.645538,127.745688 277.502105,127.669041 278.346889,127.517325 C278.304163,128.021998 278.276974,128.530553 278.276974,129.04299 C278.276974,138.410495 285.703498,146 294.866245,146 C298.252921,146.001337 301.555448,144.945416 304.312535,142.979726 C306.531554,144.924753 309.381862,145.998051 312.333336,146 C319.177236,146 324.727708,140.328252 324.727708,133.328827 C324.727708,133.026023 324.704403,132.727102 324.684982,132.42818 L324.727708,132.42818 C332.057128,132.42818 338,126.352695 338,118.860244 C338.019127,113.80155 335.224928,109.15102 330.748165,106.790797 Z" id="c2060184-c570-49c2-acda-2f80a9472e25" fill="#00897B"></path>
                            <rect id="Rectangle" fill="url(#linearGradient-5)" x="300" y="87" width="4" height="96"></rect>
                            <rect id="Rectangle" fill="#795548" x="301" y="88" width="2" height="95"></rect>
                            <polygon id="Rectangle" fill="#795548" transform="translate(309.927133, 108.527527) rotate(-47.200000) translate(-309.927133, -108.527527) " points="298.193969 107.557919 321.660571 107.554604 321.660297 109.497135 298.193694 109.50045"></polygon>
                            <polygon id="Rectangle" fill="#795548" transform="translate(293.702893, 125.827393) rotate(-53.400000) translate(-293.702893, -125.827393) " points="292.732973 115.533196 294.675605 115.532932 294.672812 136.12159 292.73018 136.121854"></polygon>
                            <g id="db20f295-6229-40c0-b196-6bb997b23afd" transform="translate(253.000000, 105.000000)" fill="url(#linearGradient-6)">
                                <path d="M5.4172,29.8816 C3.35155373,27.68234 2.20120815,24.7788235 2.20013333,21.7616 C2.22519545,17.5310588 4.46796125,13.623832 8.1084,11.4685333 C7.30547944,10.3027646 6.87536029,8.92072036 6.87493333,7.5052 C6.87493333,3.53026667 10.2118667,0.305083935 14.326,0.305083935 C17.5892488,0.272474179 20.4909969,2.37541762 21.4754667,5.4868 C23.5415473,2.23803203 27.1335917,0.280594259 30.9836,0.305083935 C37.1161333,0.305083935 42.0886667,5.10786667 42.0886667,11.0316 C42.0895575,12.2975191 41.8589188,13.5529277 41.4081333,14.7358667 C41.6324,14.7358667 41.8566667,14.7010667 42.0886667,14.7010667 C47.0109333,14.7010667 50.982,18.5677333 50.982,23.3121333 C50.9815613,23.6027399 50.9660739,23.8931287 50.9356,24.1821333 C54.9497319,25.8005135 57.5921329,29.6793933 57.6288,34.0073333 C57.6288,39.9117333 52.6756,44.6986667 46.5624,44.6986667 C45.9145322,44.6990726 45.2677881,44.6447461 44.6290667,44.5362667 C44.6638667,44.892 44.6832,45.2516 44.6832,45.6150667 C44.6832,52.2425333 39.1229333,57.6017333 32.2634667,57.6017333 C29.7604446,57.6133553 27.3101527,56.8827082 25.2222667,55.5021333 C23.5269884,56.8835757 21.4041614,57.632648 19.2173333,57.621199 C14.094,57.621199 9.93733333,53.6074667 9.93733333,48.6581333 C9.93733333,48.4416 9.93733333,48.2328 9.97213333,48.024 L9.93733333,48.024 C4.45053333,48.024 0.00386666667,43.7281333 0.00386666667,38.4269333 C0.0315203194,34.7793721 2.13112193,31.465001 5.4172,29.8816 L5.4172,29.8816 Z" id="Path"></path>
                            </g>
                            <path d="M259.274282,134.374388 C257.264147,132.268134 256.141567,129.484604 256.134828,126.589857 C256.159066,122.529453 258.338611,118.779503 261.876104,116.711877 C261.096531,115.593145 260.679152,114.266958 260.679187,112.908777 C260.679187,109.094047 263.920673,106 267.915627,106 C271.086707,105.967583 273.906666,107.986882 274.861668,110.974275 C276.867799,107.856678 280.35615,105.977665 284.095585,106 C290.052698,106 294.883532,110.60986 294.883532,116.297064 C294.884991,117.511856 294.661554,118.71667 294.224247,119.852052 C294.444008,119.852052 294.659846,119.821037 294.883532,119.821037 C299.66335,119.821037 303.540575,123.519465 303.540575,128.082409 C303.540738,128.360793 303.52633,128.638999 303.497407,128.915912 C307.396595,130.469124 309.963572,134.191049 310,138.344189 C310,144.012009 305.184863,148.605968 299.247372,148.605968 C298.624037,148.605629 298.001823,148.553758 297.387246,148.450898 C297.418641,148.792052 297.438262,149.137084 297.438262,149.485992 C297.438262,155.843876 292.038402,161 285.374912,161 C282.930283,161.005816 280.539348,160.291829 278.507358,158.949159 C276.863328,160.280588 274.80168,161.005618 272.675823,161 C267.69979,161 263.649895,157.150343 263.649895,152.397438 C263.649895,152.191969 263.649895,151.990378 263.681289,151.788787 L263.649895,151.788787 C258.320673,151.788787 254,147.663916 254,142.577609 C254.028742,139.072758 256.075147,135.889934 259.274282,134.374388 Z" id="3f6c00ca-74d6-4e4e-a4d6-8f160f37aa24" fill="#009688"></path>
                            <line x1="279" y1="123" x2="279" y2="187" id="8a7e076a-6ecd-440d-86c8-bd2eb9f9fc08" fill="#795548"></line>
                            <rect id="Rectangle" fill="url(#linearGradient-7)" x="278" y="123" width="3" height="64"></rect>
                            <rect id="Rectangle" fill="#795548" x="278" y="123" width="2" height="64"></rect>
                            <line x1="279" y1="142" x2="268" y2="130" id="cd90862a-73c1-467f-8a8f-23aaf7962413" fill="#795548"></line>
                            <polygon id="Rectangle" fill="#795548" transform="translate(273.813185, 136.079679) rotate(-44.430000) translate(-273.813185, -136.079679) " points="272.846965 127.885257 274.781726 127.884983 274.779405 144.274101 272.844643 144.274375"></polygon>
                            <line x1="279" y1="152" x2="291" y2="144" id="f406e355-8aa2-4ce0-9f47-8fc27dbb63cd" fill="#795548"></line>
                            <polygon id="Rectangle" fill="#795548" transform="translate(285.501080, 147.811685) rotate(-35.060000) translate(-285.501080, -147.811685) " points="278.235478 146.845223 292.76694 146.843287 292.766682 148.778147 278.23522 148.780083"></polygon>
                            <g id="af04bae7-87e5-447e-b22a-307a28405780" transform="translate(241.000000, 107.000000)" fill="url(#linearGradient-8)">
                                <path d="M49.8021127,29.8429333 C52.1726027,27.1440263 53.2522553,23.5504787 52.7609411,19.9946812 C52.269627,16.4388837 50.255774,13.2713246 47.2419014,11.3138667 C48.005836,10.1230885 48.4093029,8.73751768 48.4038732,7.32346667 C48.4896096,3.75133934 45.8914413,0.677132544 42.3498638,0.160236699 C38.8082863,-0.356659146 35.4372847,1.84634293 34.4950704,5.29346667 C32.6171589,2.07792779 29.1756077,0.0938635259 25.4471831,0.0773333333 C19.606338,0.0773333333 14.8693662,4.91066667 14.8693662,10.8769333 C14.8676743,12.1473947 15.0865221,13.4085403 15.5161972,14.6044 C15.303169,14.6044 15.0862676,14.5696 14.8693662,14.5696 C12.5919136,14.5950935 10.4179009,15.5227966 8.82565961,17.1485936 C7.23341831,18.7743907 6.35339888,20.9650821 6.37922535,23.2386667 C6.37922535,23.5325333 6.37922535,23.8264 6.42183099,24.1125333 C2.52222264,25.8582647 0.022096292,29.7370439 0.0463021248,34.0034667 C0.0463021248,39.9465333 4.76795775,44.7682667 10.5894366,44.7682667 C11.2011442,44.7679811 11.8116256,44.7136356 12.4137324,44.6058667 C12.3827465,44.9654667 12.3633803,45.3250667 12.3633803,45.6924 C12.3633803,52.3624 17.6619718,57.771868 24.1922535,57.771868 C26.606931,57.7730341 28.9617064,57.0214336 30.9278169,55.622 C32.5107183,57.0071025 34.5436894,57.7710929 36.6485915,57.771868 C39.0195254,57.7453532 41.2827841,56.7795969 42.9404002,55.0870857 C44.5980163,53.3945744 45.5141833,51.1139737 45.4873239,48.7470667 C45.4873239,48.5305333 45.4873239,48.3178667 45.456338,48.1052 L45.4873239,48.1052 C50.7161972,48.1052 54.9536094,43.7784 54.9536094,38.4385333 C54.9688568,34.840563 52.9851629,31.5305868 49.8021127,29.8429333 Z" id="Path"></path>
                            </g>
                            <path d="M290.114844,136.391784 C292.356761,133.815021 293.376991,130.387446 292.911485,126.996162 C292.445978,123.604878 290.54049,120.583213 287.688185,118.713214 C288.416723,117.58023 288.803513,116.259472 288.801869,114.910357 C288.883573,111.503161 286.422979,108.570602 283.068614,108.07741 C279.714249,107.584218 276.521379,109.685549 275.629136,112.973571 C273.849044,109.90441 270.585698,108.012155 267.051814,108 C261.518563,108 257.036473,112.612143 257.036473,118.300714 C257.035073,119.512571 257.242648,120.715499 257.649976,121.856071 C257.446777,121.856071 257.25921,121.824642 257.036473,121.824642 C252.552958,121.87644 248.957175,125.567031 248.998409,130.074642 C248.998409,130.357499 248.998409,130.636427 249.037486,130.907499 C245.345948,132.571706 242.978618,136.268788 243,140.33607 C243,146.004998 247.470513,150.601426 252.984226,150.601426 C253.563439,150.600379 254.141423,150.547792 254.711413,150.444284 C254.680152,150.786069 254.664521,151.131783 254.664521,151.481426 C254.664521,157.841783 259.681961,163 265.867792,163 C268.155454,163.001646 270.386465,162.284672 272.249007,160.949283 C273.746718,162.27143 275.671876,163 277.665028,163 C282.338771,162.946054 286.085161,159.095217 286.035244,154.396426 C286.035244,154.19214 286.035244,154.003569 286.003982,153.787498 L286.035244,153.787498 C288.439686,153.760559 290.734986,152.774374 292.416128,151.045925 C294.097271,149.317476 295.026521,146.988373 294.999424,144.57107 C295.006294,141.144842 293.126033,137.996322 290.114844,136.391784 L290.114844,136.391784 Z" id="e5433075-9388-42ed-900f-702a5a1be897" fill="#00897B"></path>
                            <rect id="Rectangle" fill="url(#linearGradient-9)" x="269" y="124" width="3" height="64"></rect>
                            <rect id="Rectangle" fill="#795548" x="270" y="124" width="1" height="64"></rect>
                            <polygon id="Rectangle" fill="#795548" transform="translate(275.854755, 137.935524) rotate(-47.200000) translate(-275.854755, -137.935524) " points="267.979443 137.284585 283.730252 137.28236 283.730067 138.586464 267.979259 138.588689"></polygon>
                            <polygon id="Rectangle" fill="#795548" transform="translate(264.964334, 149.552066) rotate(-53.400000) translate(-264.964334, -149.552066) " points="264.313185 142.642555 265.617357 142.642378 265.615483 156.461576 264.311311 156.461753"></polygon>
                            <rect id="Rectangle" fill="url(#linearGradient-10)" x="158" y="92" width="110" height="98"></rect>
                            <rect id="Rectangle" fill="#FFFFFF" x="86" y="92" width="179" height="95"></rect>
                            <path d="M274,101 L98,101 L98,55 L267.575221,55 C271.123529,55 274,57.8797955 274,61.4322034 L274,101 Z" id="Path" fill="url(#linearGradient-11)"></path>
                            <path d="M98,57 L265.593234,57 C269.131593,57 272,59.8801702 272,63.4330402 L272,100 L98,100 L98,57 Z" id="Path" fill="#FFC107"></path>
                            <path d="M98,57 L265.593234,57 C269.131593,57 272,59.8801702 272,63.4330402 L272,100 L98,100 L98,57 Z" id="Path" fill="#FFFFFF" opacity="0.7"></path>
                            <polygon id="Path" fill="url(#linearGradient-12)" points="97.5 6 37 48.7362368 37 84.7465539 37 190 158 190 158 84.7465539 158 48.7362368"></polygon>
                            <polygon id="Path" fill="#FFC107" points="155 47.7928141 97.5 6 40 47.7928141 40 83 155 83"></polygon>
                            <polygon id="Path" fill="#FFFFFF" opacity="0.5" points="155 47.7928141 97.5 6 40 47.7928141 40 83 155 83"></polygon>
                            <rect id="Rectangle" fill="#FFFFFF" x="40" y="83" width="115" height="104"></rect>
                            <polygon id="Path" fill="url(#linearGradient-13)" points="162.944444 68 98 21.8031223 32.2777778 68 28 51.7526453 98 1 168 51.7526453"></polygon>
                            <polygon id="Path" fill="#FFC107" points="162.254528 66 97.9980584 18.7927972 33.7454719 66 31 51.218105 97.9980584 2 165 51.218105"></polygon>
                            <polygon id="Path" fill="#000000" opacity="0.2" points="162.254528 66 97.9980584 18.7927972 33.7454719 66 31 51.218105 97.9980584 2 165 51.218105"></polygon>
                            <rect id="Rectangle" fill="#F2F2F2" x="65" y="106" width="65" height="81"></rect>
                            <rect id="Rectangle" fill="#FFC107" x="65" y="106" width="65" height="14"></rect>
                            <rect id="Rectangle" fill="#FFC107" x="65" y="173" width="65" height="14"></rect>
                            <path d="M207.5,157 C207.776142,157 208,156.776142 208,156.5 C208,156.223858 207.776142,156 207.5,156 C207.223858,156 207,156.223858 207,156.5 C207,156.776142 207.223858,157 207.5,157 L207.5,157 Z" id="Path" fill="#00FF00"></path>
                            <rect id="Rectangle" fill="#F2F2F2" x="191" y="128" width="32" height="59"></rect>
                            <rect id="Rectangle" fill="#F2F2F2" x="231" y="115" width="30" height="22"></rect>
                            <rect id="Rectangle" fill="#FFC107" opacity="0.2" x="231" y="115" width="30" height="10"></rect>
                            <g id="47cb54cf-6c9b-4864-bf0d-76585f8d162f" transform="translate(19.000000, 122.000000)" fill="url(#linearGradient-14)">
                                <path d="M4.93888889,24.8090323 C3.19925721,22.9791409 2.22576789,20.5580172 2.21666667,18.0387097 C2.24052057,14.5087555 4.120561,11.2492698 7.17111111,9.44903226 C6.49813507,8.47669734 6.13742792,7.32397422 6.13666667,6.14322581 C6.19629511,2.76822761 8.9915426,0.0794154738 12.3822222,0.135483871 C15.1238807,0.104814047 17.5625767,1.86409208 18.3866667,4.46709677 C20.1191222,1.75586622 23.1308934,0.122380656 26.3588889,0.143225806 C31.5,0.143225806 35.6688889,4.15354839 35.6688889,9.09677419 C35.6698812,10.1551167 35.4761291,11.2046907 35.0972222,12.1935484 C35.2877778,12.1935484 35.4861111,12.1664516 35.6688889,12.1664516 C39.795,12.1664516 43.1394444,15.3832258 43.1394444,19.3509677 C43.1390039,19.5927634 43.1260237,19.8343752 43.1005556,20.0748387 C46.4657283,21.4253608 48.6810769,24.6620107 48.7122222,28.2735484 C48.7122222,33.2012903 44.5588889,37.196129 39.4333333,37.196129 C38.8951029,37.1956567 38.3578567,37.1503372 37.8272222,37.0606452 C37.8544444,37.3587097 37.87,37.6567742 37.87,37.9625806 C37.87,43.4941935 33.2033333,47.9768112 27.4594444,47.9768112 C25.3482796,47.9823328 23.2834211,47.3610127 21.5288889,46.1922581 C20.1092642,47.3510992 18.3287196,47.9820246 16.4927778,47.9768112 C12.215,47.9768112 8.715,44.6283871 8.715,40.4941935 C8.715,40.316129 8.715,40.1380645 8.74222222,39.963871 L8.715,39.963871 C4.11444444,39.963871 0.385,36.3754839 0.385,31.9548387 C0.405200671,28.9020487 2.17297373,26.1281197 4.93888889,24.8090323 Z" id="Path"></path>
                            </g>
                            <path d="M25.3164887,146.733582 C23.6691444,144.9701 22.7509251,142.642319 22.7482553,140.222842 C22.7677642,136.827576 24.557592,133.691616 27.4631296,131.961903 C26.8227666,131.025946 26.4801742,129.916501 26.4807029,128.780431 C26.5071459,127.220706 27.1487954,125.735454 28.2644454,124.65153 C29.3800953,123.567606 30.8783212,122.973834 32.4294123,123.000885 C35.0333582,122.974637 37.3487642,124.66205 38.1344488,127.15858 C39.7833383,124.551218 42.6503681,122.980424 45.7231144,123.000885 C50.6159085,123.000885 54.5842933,126.855212 54.5842933,131.611864 C54.5852974,132.627245 54.4017855,133.634265 54.0427983,134.583312 C54.2207181,134.583312 54.4025057,134.556087 54.5842933,134.556087 C58.5139998,134.556087 61.6972169,137.667552 61.6972169,141.467428 C61.6975352,141.699939 61.6859162,141.932311 61.6624065,142.163618 C64.8646101,143.464894 66.9714762,146.57829 67,150.051181 C67,154.792275 63.0470865,158.634934 58.1658959,158.634934 C57.6473977,158.634876 57.1298366,158.590639 56.6187673,158.502696 C56.6458421,158.786617 56.6613134,159.078317 56.6613134,159.370017 C56.6613134,164.686732 52.2249222,169 46.7480871,169 C44.7454761,169 42.788006,168.401767 41.1242748,167.280916 C39.7733769,168.394838 38.0790518,169.001257 36.3320441,168.996111 C32.2437568,168.996111 28.9290339,165.775745 28.9290339,161.800849 C28.9290339,161.629718 28.9290339,161.458588 28.9561086,161.291346 L28.9290339,161.291346 C24.5506601,161.291346 21,157.84151 21,153.586582 C21.0232998,150.661976 22.697028,148.00471 25.3164887,146.733582 L25.3164887,146.733582 Z" id="3ed80c62-65f0-4ea6-94fa-12b45cf1e111" fill="#009688"></path>
                            <line x1="42" y1="136" x2="42" y2="190" id="b49a21fb-81f1-4431-9ecd-ca46c91409d2" fill="#795548"></line>
                            <rect id="Rectangle" fill="url(#linearGradient-15)" x="40" y="136" width="3" height="54"></rect>
                            <rect id="Rectangle" fill="#795548" x="41" y="136" width="2" height="54"></rect>
                            <line x1="42" y1="152" x2="32" y2="142" id="46369620-a42d-4543-9046-c39c6dd80f7a" fill="#795548"></line>
                            <polygon id="Rectangle" fill="#795548" transform="translate(37.130504, 147.477436) rotate(-44.430000) translate(-37.130504, -147.477436) " points="36.3256453 140.645507 37.9372977 140.645278 37.9353622 154.309364 36.3237098 154.309593"></polygon>
                            <line x1="42" y1="161" x2="52" y2="154" id="062fca71-ec11-4619-a966-9015ca52f87c" fill="#795548"></line>
                            <polygon id="Rectangle" fill="#795548" transform="translate(46.873331, 157.259138) rotate(-35.060000) translate(-46.873331, -157.259138) " points="40.8163918 156.454078 52.9304852 156.452464 52.9302704 158.064199 40.816177 158.065813"></polygon>
                            <g id="a27ca12e-65b6-46c0-899b-83e3c1e240bd" transform="translate(0.000000, 122.000000)" fill="url(#linearGradient-14)">
                                <path d="M4.93888889,24.8090323 C3.19925721,22.9791409 2.22576789,20.5580172 2.21666667,18.0387097 C2.24052057,14.5087555 4.120561,11.2492698 7.17111111,9.44903226 C6.49813507,8.47669734 6.13742792,7.32397422 6.13666667,6.14322581 C6.19629511,2.76822761 8.9915426,0.0794154738 12.3822222,0.135483871 C15.1238807,0.104814047 17.5625767,1.86409208 18.3866667,4.46709677 C20.1191222,1.75586622 23.1308934,0.122380656 26.3588889,0.143225806 C31.5,0.143225806 35.6688889,4.15354839 35.6688889,9.09677419 C35.6698812,10.1551167 35.4761291,11.2046907 35.0972222,12.1935484 C35.2877778,12.1935484 35.4861111,12.1664516 35.6688889,12.1664516 C39.795,12.1664516 43.1394444,15.3832258 43.1394444,19.3509677 C43.1390039,19.5927634 43.1260237,19.8343752 43.1005556,20.0748387 C46.4657283,21.4253608 48.6810769,24.6620107 48.7122222,28.2735484 C48.7122222,33.2012903 44.5588889,37.196129 39.4333333,37.196129 C38.8951029,37.1956567 38.3578567,37.1503372 37.8272222,37.0606452 C37.8544444,37.3587097 37.87,37.6567742 37.87,37.9625806 C37.87,43.4941935 33.2033333,47.9768112 27.4594444,47.9768112 C25.3482796,47.9823328 23.2834211,47.3610127 21.5288889,46.1922581 C20.1092642,47.3510992 18.3287196,47.9820246 16.4927778,47.9768112 C12.215,47.9768112 8.715,44.6283871 8.715,40.4941935 C8.715,40.316129 8.715,40.1380645 8.74222222,39.963871 L8.715,39.963871 C4.11444444,39.963871 0.385,36.3754839 0.385,31.9548387 C0.405200671,28.9020487 2.17297373,26.1281197 4.93888889,24.8090323 Z" id="Path"></path>
                            </g>
                            <path d="M6.31648869,146.733582 C4.66914444,144.9701 3.75092511,142.642319 3.74825528,140.222842 C3.76776421,136.827576 5.55759202,133.691616 8.46312957,131.961903 C7.82276658,131.025946 7.48017419,129.916501 7.48070293,128.780431 C7.50714588,127.220706 8.14879539,125.735454 9.26444536,124.65153 C10.3800953,123.567606 11.8783212,122.973834 13.4294123,123.000885 C16.0333582,122.974637 18.3487642,124.66205 19.1344488,127.15858 C20.7833383,124.551218 23.6503681,122.980424 26.7231144,123.000885 C31.6159085,123.000885 35.5842933,126.855212 35.5842933,131.611864 C35.5852974,132.627245 35.4017855,133.634265 35.0427983,134.583312 C35.2207181,134.583312 35.4025057,134.556087 35.5842933,134.556087 C39.5139998,134.556087 42.6972169,137.667552 42.6972169,141.467428 C42.6975352,141.699939 42.6859162,141.932311 42.6624065,142.163618 C45.8646101,143.464894 47.9714762,146.57829 48,150.051181 C48,154.792275 44.0470865,158.634934 39.1658959,158.634934 C38.6473977,158.634876 38.1298366,158.590639 37.6187673,158.502696 C37.6458421,158.786617 37.6613134,159.078317 37.6613134,159.370017 C37.6613134,164.686732 33.2249222,169 27.7480871,169 C25.7454761,169 23.788006,168.401767 22.1242748,167.280916 C20.7733769,168.394838 19.0790518,169.001257 17.3320441,168.996111 C13.2437568,168.996111 9.92903389,165.775745 9.92903389,161.800849 C9.92903389,161.629718 9.92903389,161.458588 9.95610864,161.291346 L9.92903389,161.291346 C5.55066005,161.291346 2,157.84151 2,153.586582 C2.02329982,150.661976 3.69702799,148.00471 6.31648869,146.733582 L6.31648869,146.733582 Z" id="685c56b8-497f-4668-a7ee-09f5fbc3598c" fill="#009688"></path>
                            <line x1="23" y1="136" x2="23" y2="190" id="6da80e84-a8c0-407e-a753-005b95fbf056" fill="#795548"></line>
                            <rect id="Rectangle" fill="url(#linearGradient-15)" x="21" y="136" width="3" height="54"></rect>
                            <rect id="Rectangle" fill="#795548" x="22" y="136" width="2" height="54"></rect>
                            <line x1="23" y1="152" x2="13" y2="142" id="956986cd-9b04-40a5-a6ac-3e412b0f623a" fill="#795548"></line>
                            <polygon id="Rectangle" fill="#795548" transform="translate(18.061463, 147.478148) rotate(-44.430000) translate(-18.061463, -147.478148) " points="17.2566046 140.646219 18.868257 140.645991 18.8663214 154.310077 17.2546691 154.310305"></polygon>
                            <line x1="23" y1="161" x2="33" y2="154" id="52f85bb0-cc07-4469-ba3e-635298721117" fill="#795548"></line>
                            <polygon id="Rectangle" fill="#795548" transform="translate(27.801258, 157.261966) rotate(-35.060000) translate(-27.801258, -157.261966) " points="21.7443186 156.456906 33.858412 156.455292 33.8581973 158.067026 21.7441039 158.06864"></polygon>
                            <g id="2b13a509-cfb1-48b6-9a8a-884e17259990" transform="translate(7.000000, 122.000000)" fill="url(#linearGradient-16)">
                                <path d="M41.4270588,25.3477778 C43.4022642,23.0824379 44.302259,20.0658014 43.8935171,17.0806099 C43.4847753,14.0954184 41.8075878,11.4359325 39.2971429,9.79222222 C39.9372504,8.79577635 40.2769182,7.63420191 40.2751261,6.44777778 C40.3486579,3.45120782 38.1866852,0.871155678 35.2385743,0.437264536 C32.2904635,0.00337339325 29.4844591,1.85225855 28.7016807,4.74444444 C27.1384711,2.04597668 24.2722527,0.38155015 21.1677311,0.369444444 C18.8063321,0.393024717 16.5512742,1.36077185 14.9000253,3.05919982 C13.2487765,4.7576278 12.3370172,7.04717961 12.3658824,9.42277778 C12.3658315,10.4831828 12.5476001,11.5356502 12.9031933,12.5338889 C12.7253782,12.5338889 12.547563,12.5066667 12.3658824,12.5066667 C10.4638016,12.526088 8.64796936,13.3078997 7.32082091,14.6788322 C5.99367246,16.0497646 5.26482083,17.8965884 5.29579832,19.81 C5.29579832,20.0588889 5.29579832,20.3038889 5.33058824,20.545 C2.08734059,22.0089972 0.00782695906,25.2599415 0.0266729316,28.8361111 C-0.0180820251,33.7610642 3.90282543,37.796049 8.79798319,37.8622222 C9.30737164,37.8620773 9.81574572,37.8165288 10.3171429,37.7261111 C10.290084,38.0255556 10.2746218,38.3288889 10.2746218,38.6361111 C10.2746218,44.2283333 14.6813445,48.7472222 20.1163025,48.7472222 C22.1256841,48.7466077 24.0849042,48.1158714 25.7213445,46.9427778 C27.0377248,48.1045433 28.7287181,48.7457772 30.4798319,48.7472222 C34.5829,48.6959769 37.8694734,45.311247 37.8243697,41.1833333 C37.8243697,41.0005556 37.8243697,40.8255556 37.7973109,40.6466667 L37.8243697,40.6466667 C42.2214361,40.5954061 45.7457219,36.9697715 45.6984874,32.5461111 C45.7111807,29.5355818 44.0671871,26.7650768 41.4270588,25.3477778 Z" id="Path"></path>
                            </g>
                            <path d="M46.9484835,147.224995 C48.8012795,145.117659 49.6441196,142.315027 49.2589286,139.542246 C48.8737377,136.769465 47.2983634,134.29898 44.9404154,132.770001 C45.5421556,131.842987 45.8612403,130.762626 45.8591647,129.659286 C45.9338451,126.868333 43.8981459,124.462596 41.1198935,124.058537 C38.3416411,123.654478 35.6982974,125.379711 34.9659771,128.075019 C33.4940898,125.5637 30.7950158,124.015006 27.8718371,124.004492 C23.252053,124.067952 19.555241,127.836971 19.6069701,132.43079 C19.6061603,133.421489 19.7779786,134.404838 20.114802,135.337208 C19.9481091,135.337208 19.7775396,135.310225 19.6069701,135.310225 C15.8938035,135.352565 12.917727,138.379113 12.9586368,142.071308 C12.9586368,142.302588 12.9586368,142.530013 12.993526,142.753583 C9.94152411,144.114412 7.9838702,147.137063 8.00049192,150.462914 C7.95097024,155.047763 11.6467327,158.805447 16.2576057,158.858374 C16.737268,158.85808 17.2159602,158.815512 17.6880634,158.73117 C17.6648039,159.012561 17.6492976,159.293951 17.6492976,159.579197 C17.6492976,164.782995 21.7972374,169 26.914322,169 C28.8057153,169.00118 30.650258,168.414964 32.1903463,167.323219 C33.4288082,168.400784 35.0182656,168.995174 36.6639188,168.996144 C38.5207627,168.97581 40.2934185,168.222792 41.5918642,166.90277 C42.89031,165.582749 43.6081662,163.80387 43.5874893,161.957525 C43.5874893,161.78792 43.5874893,161.622169 43.5642298,161.456419 L43.5874893,161.456419 C45.5759389,161.434055 47.4739975,160.627098 48.8640483,159.213098 C50.2540992,157.799097 51.0222568,155.8939 50.9995088,153.916694 C51.0033749,151.111251 49.4435667,148.534677 46.9484835,147.224995 Z" id="ffc97756-bf62-44e2-b6c0-20f8128ede8f" fill="#00897B"></path>
                            <rect id="Rectangle" fill="url(#linearGradient-17)" x="30" y="136" width="2" height="54"></rect>
                            <rect id="Rectangle" fill="#795548" x="31" y="137" width="1" height="53"></rect>
                            <polygon id="Rectangle" fill="#795548" transform="translate(35.728616, 147.858485) rotate(-47.200000) translate(-35.728616, -147.858485) " points="29.1632602 147.31636 42.2941246 147.314505 42.2939711 148.40061 29.1631068 148.402465"></polygon>
                            <polygon id="Rectangle" fill="#795548" transform="translate(26.640009, 157.540479) rotate(-53.400000) translate(-26.640009, -157.540479) " points="26.0977099 151.77931 27.183871 151.779162 27.1823081 163.301648 26.096147 163.301795"></polygon>
                            <path d="M278.116556,20.3254056 C267.027271,8.72969768 251.751449,2.12287371 235.749797,2.00169654 C219.748146,1.88051937 204.375015,8.25524522 193.113159,19.6816926 C170.635777,42.4574285 170.255396,79.5391979 192.239836,102.779187 C212.178866,123.886641 244.357075,127.461791 268.401327,111.241087 L311.329983,156.105932 C311.86078,156.662251 312.589933,156.983517 313.356653,156.999464 C314.123374,157.014255 314.86469,156.722465 315.417133,156.187859 L326.110483,145.85334 C326.66397,145.319827 326.983601,144.586944 326.999467,143.816301 C327.014183,143.045658 326.723877,142.300549 326.191993,141.74528 L283.263337,96.8804357 C300.254352,73.4868122 298.084308,41.2088092 278.116556,20.3254056 Z M264.745017,92.4680757 C247.839163,108.813678 220.951005,108.28949 204.688477,91.2972661 C188.425949,74.3050419 188.947273,47.2793218 205.85289,30.9334719 C222.758507,14.5876221 249.646673,15.1114165 265.909447,32.1034027 C273.719258,40.2634006 277.984097,51.207528 277.765723,62.5281381 C277.54735,73.8487482 272.863652,84.6184882 264.745017,92.4680757 Z" id="Shape" fill="url(#linearGradient-18)"></path>
                            <path d="M203.49929,51 C198.837358,51 198.829784,58 203.49929,58 C208.168797,58 208.16501,51 203.49929,51 Z" id="Path" fill="url(#linearGradient-19)"></path>
                            <path d="M237.201264,26.009581 C224.346477,25.7148119 212.64443,32.2468944 206.426625,42.1236232 C204.396718,45.3385712 210.160413,48.180145 212.178676,44.980918 C217.32913,36.81778 227.117708,31.6180537 237.694186,31.9049623 C248.786873,32.1879406 258.882072,38.6139062 264.226589,47.531653 C266.256497,50.9156019 271.566083,47.8382128 269.5517,44.4739152 C263.066088,33.6382044 250.482991,26.3122105 237.201264,26.009581 Z" id="Path" fill="url(#linearGradient-20)"></path>
                            <path d="M283.113931,18.3254056 C272.024931,6.72969768 256.749502,0.122873708 240.748261,0.00169653914 C224.747021,-0.119480629 209.374286,6.25524522 198.112719,17.6816926 C175.635914,40.4574285 175.255544,77.5391979 197.239419,100.779187 C217.177936,121.886641 249.355318,125.461791 273.398952,109.241087 L316.326505,154.105932 C316.857288,154.662251 317.586422,154.983517 318.353123,154.999464 C319.119823,155.014255 319.861121,154.722465 320.413549,154.187859 L331.110505,143.849438 C331.663979,143.315926 331.983602,142.583043 331.999467,141.8124 C332.014182,141.041757 331.723885,140.296648 331.192013,139.741379 L288.264461,94.8765344 C305.251807,71.4827528 303.080238,39.2072293 283.113931,18.3254056 Z M269.742736,90.4680757 C252.837316,106.813678 225.949849,106.28949 209.687739,89.2972661 C193.425629,72.3050419 193.94694,45.2793218 210.852123,28.9334719 C227.757305,12.5876221 254.64478,13.1114165 270.907136,30.1034027 C278.716746,38.2634006 282.981476,49.207528 282.763107,60.5281381 C282.544739,71.8487482 277.861162,82.6184882 269.742736,90.4680757 L269.742736,90.4680757 Z" id="Shape" fill="#FFC107"></path>
                            <path d="M208.49929,48 C203.837358,48 203.829784,55 208.49929,55 C213.168797,55 213.16501,48 208.49929,48 Z" id="Path" fill="#FFC107"></path>
                            <path d="M241.201264,24.009581 C228.346477,23.7148119 216.64443,30.2468944 210.426625,40.1236232 C208.396718,43.3385712 214.160413,46.180145 216.178676,42.980918 C221.32913,34.81778 231.117708,29.6180537 241.694186,29.9049623 C252.786873,30.1879406 262.882072,36.6139062 268.226589,45.531653 C270.256497,48.9156019 275.566083,45.8382128 273.5517,42.4739152 C267.066088,31.6460649 254.482991,24.3161408 241.201264,24.009581 Z" id="Path" fill="#FFC107"></path>
                        </g>
                    </g>
                </g>
            </g>
        </g>
    </g>
</svg>