<?xml version="1.0" encoding="UTF-8"?>
<svg width="475px" height="255px" viewBox="0 0 475 255" version="1.1" xmlns="http://www.w3.org/2000/svg" xmlns:xlink="http://www.w3.org/1999/xlink">
    <!-- Generator: Sketch 60.1 (88133) - https://sketch.com -->
    <title>Group 2</title>
    <desc>Created with Sketch.</desc>
    <defs>
        <filter x="-27.0%" y="-27.0%" width="154.0%" height="154.0%" filterUnits="objectBoundingBox" id="filter-1">
            <feGaussianBlur stdDeviation="9" in="SourceGraphic"></feGaussianBlur>
        </filter>
    </defs>
    <g id="Symbols" stroke="none" stroke-width="1" fill="none" fill-rule="evenodd">
        <g id="section4" transform="translate(-872.000000, -596.000000)">
            <g id="valide">
                <g transform="translate(278.000000, 598.000000)">
                    <g id="Group-2" transform="translate(596.000000, 0.000000)">
                        <g id="circle-1">
                            <path d="M125.931406,206.290625 C95.8467031,206.290625 69.4917031,190.171719 55.1415625,166.052187 C47.8037344,153.7375 43.5720312,139.344219 43.5720312,123.93125 C43.5720312,78.594375 80.2023438,41.8071875 125.5,41.571875 L125.931406,41.571875 C171.425156,41.571875 208.290781,78.4375 208.290781,123.93125 C208.290781,139.501094 203.972797,154.05125 196.482016,166.444375 C182.053438,190.328594 155.855313,206.290625 125.931406,206.290625 Z M125.5,0 C56.16125,0 0,56.2004687 0,125.5 C0,148.364531 6.07498437,169.777969 16.785625,188.210781 C38.4304531,225.743125 79.0257812,251 125.5,251 C171.931078,251 212.522484,225.743125 234.210453,188.25 C244.877953,169.777969 251,148.364531 251,125.5 C251,56.2004687 194.799531,0 125.5,0 Z" id="Stroke-1" stroke="#3BA99C" stroke-width="3" opacity="0.4"></path>
                            <circle id="Oval" fill="#16BAC5" fill-rule="nonzero" opacity="0.3" filter="url(#filter-1)" cx="124" cy="138" r="50"></circle>
                            <circle id="Oval" fill="#16BAC5" fill-rule="nonzero" cx="125" cy="124" r="50"></circle>
                            <text id="2" font-family="Montserrat-Bold, Montserrat" font-size="24" font-weight="bold" letter-spacing="0.1118721" fill="#FFFFFF">
                                <tspan x="116.364064" y="135">2</tspan>
                            </text>
                        </g>
                        <g id="Group-4" transform="translate(186.000000, 0.000000)">
                            <g id="undraw_gift_card_6ekc">
                                <rect id="Rectangle" fill="#16BAC5" fill-rule="nonzero" x="125" y="15" width="66" height="9" rx="4.5"></rect>
                                <rect id="Rectangle" stroke="#3F3D56" x="117" y="0" width="169" height="194" rx="5.42126"></rect>
                                <rect id="Rectangle" stroke="#3F3D56" x="127" y="13" width="66" height="9" rx="4.5"></rect>
                                <rect id="Rectangle" fill="#F2F2F2" fill-rule="nonzero" x="134" y="45" width="132" height="4" rx="2"></rect>
                                <rect id="Rectangle" fill="#F2F2F2" fill-rule="nonzero" x="134" y="59" width="132" height="4" rx="2"></rect>
                                <rect id="Rectangle" fill="#F2F2F2" fill-rule="nonzero" x="134" y="73" width="132" height="4" rx="2"></rect>
                                <rect id="Rectangle" stroke="#3F3D56" x="136" y="44" width="132" height="4" rx="2"></rect>
                                <rect id="Rectangle" stroke="#3F3D56" x="136" y="57" width="132" height="4" rx="2"></rect>
                                <rect id="Rectangle" stroke="#3F3D56" x="136" y="71" width="132" height="4" rx="2"></rect>
                                <path d="M56.5220007,26 C56.5220007,26 63.9333647,39.8377857 62.7475481,47.1982931 C61.5617314,54.5588005 60.3759111,61.0360788 62.7475481,64.5691192 C65.119185,68.1021595 50,63.9802767 50,63.9802767 L50,43.3708261 L56.5220007,26 Z" id="Path" fill="#FF6584" fill-rule="nonzero"></path>
                                <path d="M72,63.0472982 C72,63.0472982 53.9171869,83.2706839 48.2382865,78.1773879 C42.5593862,73.0840918 37.3288218,60.9500604 41.5132741,57.0551854 C43.7728779,54.951951 43.9402538,50.9282469 43.6174665,47.6685339 C43.4487503,45.9819877 43.1448906,44.3117888 42.7088303,42.6741139 C42.7088303,42.6741139 51.6755148,39.97766 51.9744029,45.3705641 C51.9950756,46.0043592 52.161826,46.6247553 52.4615972,47.1831741 C54.1742255,50.2301584 59.7455313,48.6662267 59.7455313,48.6662267 L72,63.0472982 Z" id="Path" fill="#FBBEBE" fill-rule="nonzero"></path>
                                <path d="M59,49.9475984 L60.182802,49.0484793 C64.9072214,48.7992764 69.6329865,49.5126489 74.0807121,51.1464225 C81.1775128,53.8437835 93.5969114,56.2414318 97.1453099,55.3423128 C100.693708,54.4431937 109.26901,52.6449556 109.26901,52.6449556 C109.26901,52.6449556 118.731411,48.7487705 120.801309,53.5440746 C122.871207,58.3393788 108.086212,58.3393788 108.086212,58.3393788 C108.086212,58.3393788 97.5888616,62.6851215 90.1963622,62.0857113 C82.8038628,61.4863011 73.1936125,64.9329211 68.7581106,61.3364485 C64.3226088,57.739976 59,49.9475984 59,49.9475984 Z" id="Path" fill="#FBBEBE" fill-rule="nonzero"></path>
                                <path d="M24.0539077,163 L15.9875326,163 L13,168.882354 L16.8838072,173 C16.8838072,173 24.3526758,172.117648 26.443956,169.764707 C28.5352362,167.411766 24.0539077,163 24.0539077,163 Z" id="Path" fill="#FBBEBE" fill-rule="nonzero"></path>
                                <path d="M22.1236993,162.092337 C22.1236993,162.092337 25.3637966,160.596633 23.3283794,158.801774 C21.2929623,157.006915 19.5483211,154.613785 16.3498111,157.006922 C13.151301,159.400059 -2.55047326,171.664885 0.357264456,175.852874 C3.26500217,180.040863 4.13731917,179.143437 5.59118803,178.246011 C7.04505688,177.348586 11.6974358,173.7589 15.4774905,173.7589 C19.2575452,173.7589 17.80368,168.673482 16.3498111,167.177774 C14.8959422,165.682067 20.9190012,162.092337 22.1236993,162.092337 Z" id="Path" fill="#3F3D56" fill-rule="nonzero"></path>
                                <path d="M53.1428565,200.772043 L50,206.427889 L53.1428565,210 L62,210 C62,210 59.1428706,204.04648 60.2857153,201.367397 C61.42856,198.688313 53.1428565,200.772043 53.1428565,200.772043 Z" id="Path" fill="#FBBEBE" fill-rule="nonzero"></path>
                                <path d="M62.3191312,204.992889 C62.3191312,204.992889 59.1088514,208.554833 57.0659444,207.961163 C55.0230374,207.367494 51.4716767,204 51.4716767,204 C51.4716767,204 46.267732,209.148477 48.6024813,211.523108 C50.9372306,213.897739 60.2762242,218.350169 62.9028158,220.131141 C65.5294075,221.912114 74.2847201,220.7248 73.9928742,218.647004 C73.7010282,216.569208 69.3233755,214.19457 67.2804721,211.523112 C65.2375688,208.851653 62.3191312,204.992889 62.3191312,204.992889 Z" id="Path" fill="#3F3D56" fill-rule="nonzero"></path>
                                <path d="M77.6971103,106.890801 C77.6971103,106.890801 84.2108626,127.379226 75.3284727,151.430855 C75.3284727,151.430855 67.3343215,186.765954 64.3735273,193.892374 C61.4127332,201.018795 61.4127442,203.988123 61.4127442,203.988123 C61.4127442,203.988123 50.1617168,204.285055 51.0499554,201.909585 C51.0499554,201.909585 54.8989919,190.329171 54.8989919,185.875164 C54.8989919,181.421156 61.1166658,157.369531 61.1166658,157.369531 L63.1892067,106 L77.6971103,106.890801 Z" id="Path" fill="#3F3D56" fill-rule="nonzero"></path>
                                <path d="M77.6971103,106.890801 C77.6971103,106.890801 84.2108626,127.379226 75.3284727,151.430855 C75.3284727,151.430855 67.3343215,186.765954 64.3735273,193.892374 C61.4127332,201.018795 61.4127442,203.988123 61.4127442,203.988123 C61.4127442,203.988123 50.1617168,204.285055 51.0499554,201.909585 C51.0499554,201.909585 54.8989919,190.329171 54.8989919,185.875164 C54.8989919,181.421156 61.1166658,157.369531 61.1166658,157.369531 L63.1892067,106 L77.6971103,106.890801 Z" id="Path" fill="#000000" fill-rule="nonzero" opacity="0.1"></path>
                                <path d="M77,109.03372 C77,109.03372 77,118.476199 70.8164393,122.607284 C70.8164393,122.607284 75.5277233,155.655968 69.6386201,161.852598 C63.7495169,168.049227 54.032495,165.393527 54.032495,165.393527 C54.032495,165.393527 37.8374585,166.278759 25.7647946,171 C25.7647946,171 16.3422265,168.344303 23.998064,161.557518 C23.998064,161.557518 33.4206284,159.196897 36.3652,157.131375 C39.3097716,155.065852 52.8546904,150.934745 56.3881552,152.70521 C56.3881552,152.70521 56.0936977,147.688893 54.9158858,144.147964 C53.8542127,140.956213 51.9713469,131.164552 51.9713469,131.164552 C51.9713469,131.164552 43.7266017,115.525444 51.9713469,107.263274 C60.2160921,99.0011041 77,109.03372 77,109.03372 Z" id="Path" fill="#3F3D56" fill-rule="nonzero"></path>
                                <path d="M53,46.8846963 C50.1776204,48.1917878 46.8920613,48.3575126 43.9316701,47.3421062 C43.758677,45.7526813 43.4471144,44.1786623 43,42.6352945 C43,42.6352945 52.1939903,40.0941183 52.5004553,45.1764671 C52.521652,45.7737645 52.6926295,46.3584346 53,46.8846963 L53,46.8846963 Z" id="Path" fill="#000000" fill-rule="nonzero" opacity="0.1"></path>
                                <circle id="Oval" fill="#FBBEBE" fill-rule="nonzero" cx="48" cy="37" r="11"></circle>
                                <path d="M47,77.5916508 C47,77.5916508 59.581698,86.5102313 53.8899804,96.0233738 C48.1982628,105.536516 49.995644,110.887677 49.995644,110.887677 C49.995644,110.887677 60.7799571,110.887677 64.3747269,113.265962 C67.9694967,115.644246 79.3529393,111.482246 79.3529393,111.482246 C79.3529393,111.482246 81.1503279,99.5908082 78.7538135,93.9423737 C76.357299,88.2939393 75.15904,79.3753588 76.0577324,77.5916434 C76.9564249,75.8079281 79.3529393,67.4839206 73.661218,62.7273438 L70.4207729,61 C70.4207729,61 72.4629626,69.5649206 58.6830056,64.2137745 C58.6830056,64.2137819 55.6873653,81.7536545 47,77.5916508 Z" id="Path" fill="#FF715B" fill-rule="nonzero"></path>
                                <polygon id="Path" fill="#FFC107" fill-rule="nonzero" points="59.5540556 49 59.8586411 49.330979 70.9683979 61.3848524 71.3114192 61.7556541 71.3317249 61.8251559 71.554725 62.5449696 72 64 70.2500837 61.9893305 59.4746458 49.6285221 59 49.084905"></polygon>
                                <path d="M60,65.1979517 C60,65.1979517 50.753538,57.2917476 44.2282768,59.3383722 C37.7030156,61.3849967 47.3912098,78.7801156 49.3689772,79 L50.1603314,78.9275141 C50.1603314,78.9275141 37.9996208,64.3087538 44.8214834,59.9231236 C44.8214834,59.9231236 53.422962,60.8002489 59.9482232,66.0630045 L60,65.1979517 Z" id="Path" fill="#FFC107" fill-rule="nonzero"></path>
                                <path d="M54.1868246,63.0498096 L75.6644156,69.6813049 L111.264262,71.6995846 C111.264262,71.6995846 121.561739,71.9879128 119.796454,76.6011285 C118.031169,81.2143442 108.61634,77.7544306 108.61634,77.7544306 L78.0181175,78.3310835 C78.0181175,78.3310835 52.7157486,75.736151 50.6562517,74.2945206 C48.5967548,72.8528903 51.8331154,62.1848285 54.1868246,63.0498096 Z" id="Path" fill="#FBBEBE" fill-rule="nonzero"></path>
                                <path d="M44.764207,46.0047335 C44.764207,46.0047335 43.5810222,43.6512222 45.9473882,41.0035234 C47.1521099,39.6555884 48.2034971,36.7826528 48.9454309,34.2868514 C49.6516695,31.9074382 52.0262072,30.4210856 54.4887103,30.8170105 C56.6064575,31.1569747 58.8395293,31.2654209 59.5539913,30.4127246 C61.0329631,28.6475921 59.2581969,19.2335471 47.7221653,21.2928708 C36.1861338,23.3521945 28.791238,18.6451684 28.791238,29.8243459 C28.791238,41.0035234 35.8903357,44.239601 30.8618095,55.4187785 C25.8332833,66.597956 16.0720252,67.7747098 21.6921439,75.1294165 C27.3122625,82.4841232 42.1020467,84.5434615 42.9894335,81.8957591 C43.8768203,79.2480566 39.4398828,68.951449 42.3978411,64.8328053 C45.3557994,60.7141615 50.3843256,56.3013302 48.9053465,53.6536314 C47.4263673,51.0059326 44.764207,46.0047335 44.764207,46.0047335 Z" id="Path" fill="#374140" fill-rule="nonzero"></path>
                                <line x1="9" y1="221" x2="125" y2="221" id="Path" stroke="#3F3D56"></line>
                            </g>
                            <path d="M242,125.999445 C242,141.368785 232.741733,155.224762 218.542313,161.106354 C204.342894,166.987946 187.998655,163.736875 177.13089,152.86911 C166.263125,142.001345 163.012054,125.657106 168.893646,111.457687 C174.775238,97.2582675 188.631215,88 204.000555,88 C224.987069,88 242,105.012931 242,125.999445 Z M199.609373,146.11471 L227.797112,117.926971 C228.257863,117.46748 228.516817,116.84352 228.516817,116.192809 C228.516817,115.542099 228.257863,114.918138 227.797112,114.458647 L224.328788,111.015676 C223.870164,110.555232 223.247042,110.296403 222.597161,110.296403 C221.94728,110.296403 221.324158,110.555232 220.865534,111.015676 L197.875211,134.006 L187.140647,123.246082 C186.181353,122.292063 184.631617,122.292063 183.672323,123.246082 L180.203999,126.734689 C179.24998,127.693983 179.24998,129.243719 180.203999,130.203013 L196.141049,146.134992 C196.60054,146.595744 197.224501,146.854697 197.875211,146.854697 C198.525922,146.854697 199.149882,146.595744 199.609373,146.134992 L199.609373,146.11471 Z" id="Shape" fill="#16BAC5" fill-rule="nonzero"></path>
                        </g>
                    </g>
                </g>
            </g>
        </g>
    </g>
</svg>