<?xml version="1.0" encoding="UTF-8"?>
<svg width="174px" height="125px" viewBox="0 0 174 125" version="1.1" xmlns="http://www.w3.org/2000/svg" xmlns:xlink="http://www.w3.org/1999/xlink">
    <!-- Generator: Sketch 60.1 (88133) - https://sketch.com -->
    <title>icon/loc/budget</title>
    <desc>Created with Sketch.</desc>
    <defs>
        <linearGradient x1="49.9999966%" y1="100%" x2="49.9999966%" y2="5.49953934e-07%" id="linearGradient-1">
            <stop stop-color="#808080" stop-opacity="0.25" offset="0%"></stop>
            <stop stop-color="#808080" stop-opacity="0.12" offset="53.514%"></stop>
            <stop stop-color="#808080" stop-opacity="0.1" offset="100%"></stop>
        </linearGradient>
    </defs>
    <g id="Formulaire-sign-up" stroke="none" stroke-width="1" fill="none" fill-rule="evenodd">
        <g id="Formulaire_loc_budget6" transform="translate(-648.000000, -300.000000)">
            <g id="icon/loc/budget" transform="translate(648.000000, 300.000000)">
                <g transform="translate(-0.000000, 0.000000)">
                    <ellipse id="Oval" fill="#38D39F" fill-rule="nonzero" opacity="0.1" cx="86.9565217" cy="114.492754" rx="86.9565217" ry="10.5072464"></ellipse>
                    <path d="M148.913043,119.565217 C148.913043,119.565217 153.404006,113.786215 153.040873,108.052569 C152.873318,105.648621 153.481424,103.254576 154.773889,101.229879 C155.394882,100.273524 156.101224,99.3767239 156.884058,98.5507246" id="Path" stroke="#535461" stroke-width="2"></path>
                    <path d="M156.629937,94.8281522 C156.2954,95.6334931 156.843428,98.5507246 156.843428,98.5507246 C156.843428,98.5507246 159.331683,96.7971324 159.666218,95.9917853 C160,95.1866134 159.591413,94.2739518 158.753382,93.9527826 C157.915352,93.6316133 156.964893,94.0234304 156.629937,94.8281522 L156.629937,94.8281522 Z" id="Path" fill="#38D39F" fill-rule="nonzero"></path>
                    <path d="M152.204952,98.5452908 C152.380037,99.3650829 154.493218,101.449275 154.493218,101.449275 C154.493218,101.449275 155.590948,98.7788662 155.415863,97.9590741 C155.302603,97.4287618 154.891948,96.9945992 154.338588,96.8201312 C153.785228,96.6456631 153.173232,96.7573954 152.733132,97.1132396 C152.293033,97.4690837 152.091692,98.0149786 152.204952,98.5452908 L152.204952,98.5452908 Z" id="Path" fill="#38D39F" fill-rule="nonzero"></path>
                    <path d="M149.650216,106.158617 C150.196405,106.789479 152.898551,107.608696 152.898551,107.608696 C152.898551,107.608696 152.432918,104.769065 151.886727,104.138203 C151.533445,103.729947 150.993751,103.545268 150.471003,103.653753 C149.948254,103.762237 149.521897,104.147399 149.352584,104.664108 C149.18327,105.180817 149.296731,105.750545 149.650216,106.158617 L149.650216,106.158617 Z" id="Path" fill="#38D39F" fill-rule="nonzero"></path>
                    <path d="M148.779977,112.489151 C149.224181,113.210133 151.811594,114.492754 151.811594,114.492754 C151.811594,114.492754 151.822675,111.593844 151.378471,110.872861 C151.091273,110.406135 150.578006,110.128897 150.032138,110.145646 C149.48627,110.162395 148.990795,110.470585 148.732475,110.954049 C148.474155,111.437513 148.492264,112.022745 148.779977,112.489151 L148.779977,112.489151 Z" id="Path" fill="#38D39F" fill-rule="nonzero"></path>
                    <path d="M157.721126,102.779773 C156.91722,103.123613 153.985507,102.611564 153.985507,102.611564 C153.985507,102.611564 155.71625,100.105324 156.520156,99.761484 C157.324061,99.4176444 158.244602,99.8145742 158.576242,100.648052 C158.907882,101.481529 158.525035,102.435933 157.721131,102.779773 L157.721126,102.779773 Z" id="Path" fill="#38D39F" fill-rule="nonzero"></path>
                    <path d="M156.498099,110.141727 C155.611191,110.220395 152.898551,108.822884 152.898551,108.822884 C152.898551,108.822884 155.329769,106.969114 156.216677,106.890444 C156.790732,106.838951 157.348277,107.101596 157.679048,107.579329 C158.009819,108.057063 158.063497,108.677207 157.819839,109.205892 C157.57618,109.734577 157.072253,110.091374 156.498099,110.141727 L156.498099,110.141727 Z" id="Path" fill="#38D39F" fill-rule="nonzero"></path>
                    <path d="M154.295353,117.354231 C153.479402,117.584438 150.724638,116.667293 150.724638,116.667293 C150.724638,116.667293 152.702191,114.414954 153.518141,114.184741 C154.334091,113.954527 155.169534,114.477417 155.384155,115.352647 C155.598776,116.227877 155.111302,117.124017 154.295353,117.354231 Z" id="Path" fill="#38D39F" fill-rule="nonzero"></path>
                    <path d="M156.629937,94.8281522 C156.2954,95.6334931 156.843428,98.5507246 156.843428,98.5507246 C156.843428,98.5507246 159.331683,96.7971324 159.666218,95.9917853 C160,95.1866134 159.591413,94.2739518 158.753382,93.9527826 C157.915352,93.6316133 156.964893,94.0234304 156.629937,94.8281522 L156.629937,94.8281522 Z" id="Path" fill="#000000" fill-rule="nonzero" opacity="0.25"></path>
                    <path d="M152.204952,98.5452908 C152.380037,99.3650829 154.493218,101.449275 154.493218,101.449275 C154.493218,101.449275 155.590948,98.7788662 155.415863,97.9590741 C155.302603,97.4287618 154.891948,96.9945992 154.338588,96.8201312 C153.785228,96.6456631 153.173232,96.7573954 152.733132,97.1132396 C152.293033,97.4690837 152.091692,98.0149786 152.204952,98.5452908 L152.204952,98.5452908 Z" id="Path" fill="#000000" fill-rule="nonzero" opacity="0.25"></path>
                    <path d="M149.650216,106.158617 C150.196405,106.789479 152.898551,107.608696 152.898551,107.608696 C152.898551,107.608696 152.432918,104.769065 151.886727,104.138203 C151.533445,103.729947 150.993751,103.545268 150.471003,103.653753 C149.948254,103.762237 149.521897,104.147399 149.352584,104.664108 C149.18327,105.180817 149.296731,105.750545 149.650216,106.158617 L149.650216,106.158617 Z" id="Path" fill="#000000" fill-rule="nonzero" opacity="0.25"></path>
                    <path d="M148.779977,112.489151 C149.224181,113.210133 151.811594,114.492754 151.811594,114.492754 C151.811594,114.492754 151.822675,111.593844 151.378471,110.872861 C151.091273,110.406135 150.578006,110.128897 150.032138,110.145646 C149.48627,110.162395 148.990795,110.470585 148.732475,110.954049 C148.474155,111.437513 148.492264,112.022745 148.779977,112.489151 L148.779977,112.489151 Z" id="Path" fill="#000000" fill-rule="nonzero" opacity="0.25"></path>
                    <path d="M157.721126,102.779773 C156.91722,103.123613 153.985507,102.611564 153.985507,102.611564 C153.985507,102.611564 155.71625,100.105324 156.520156,99.761484 C157.324061,99.4176444 158.244602,99.8145742 158.576242,100.648052 C158.907882,101.481529 158.525035,102.435933 157.721131,102.779773 L157.721126,102.779773 Z" id="Path" fill="#000000" fill-rule="nonzero" opacity="0.25"></path>
                    <path d="M156.498099,110.141727 C155.611191,110.220395 152.898551,108.822884 152.898551,108.822884 C152.898551,108.822884 155.329769,106.969114 156.216677,106.890444 C156.790732,106.838951 157.348277,107.101596 157.679048,107.579329 C158.009819,108.057063 158.063497,108.677207 157.819839,109.205892 C157.57618,109.734577 157.072253,110.091374 156.498099,110.141727 L156.498099,110.141727 Z" id="Path" fill="#000000" fill-rule="nonzero" opacity="0.25"></path>
                    <path d="M154.295353,117.354231 C153.479402,117.584438 150.724638,116.667293 150.724638,116.667293 C150.724638,116.667293 152.702191,114.414954 153.518141,114.184741 C154.334091,113.954527 155.169534,114.477417 155.384155,115.352647 C155.598776,116.227877 155.111302,117.124017 154.295353,117.354231 Z" id="Path" fill="#000000" fill-rule="nonzero" opacity="0.25"></path>
                    <path d="M148.913043,119.202899 C148.913043,119.202899 155.430144,115.76069 157.424989,110.371232 C158.24717,108.105323 159.785009,106.16625 161.807613,104.845149 C162.772727,104.225438 163.792811,103.695128 164.855072,103.26087" id="Path" stroke="#535461" stroke-width="2"></path>
                    <path d="M165.812813,100.090778 C165.193148,100.704839 164.492754,103.623188 164.492754,103.623188 C164.492754,103.623188 167.386292,102.980128 168.005957,102.366068 C168.625624,101.752007 168.637012,100.744871 168.031391,100.116568 C167.425771,99.4882639 166.432479,99.4767176 165.812811,100.090778 L165.812813,100.090778 Z" id="Path" fill="#38D39F" fill-rule="nonzero"></path>
                    <path d="M160.5331,101.546474 C160.333726,102.364742 161.352905,105.072464 161.352905,105.072464 C161.352905,105.072464 163.528415,103.034429 163.727791,102.216163 C163.856765,101.686837 163.671489,101.133899 163.241756,100.765635 C162.812022,100.397371 162.203118,100.269729 161.64441,100.43079 C161.085703,100.591852 160.662074,101.017148 160.5331,101.546474 L160.5331,101.546474 Z" id="Path" fill="#38D39F" fill-rule="nonzero"></path>
                    <path d="M154.786772,107.443539 C155.060287,108.255725 157.41617,110.144928 157.41617,110.144928 C157.41617,110.144928 158.185735,107.323637 157.912222,106.51145 C157.735289,105.986057 157.273943,105.589402 156.701968,105.4709 C156.129993,105.352398 155.534286,105.530053 155.139243,105.936944 C154.744201,106.343835 154.60984,106.918146 154.786772,107.443539 Z" id="Path" fill="#38D39F" fill-rule="nonzero"></path>
                    <path d="M151.464638,112.709503 C151.587952,113.595103 153.564057,115.942029 153.564057,115.942029 C153.564057,115.942029 154.824968,113.152679 154.701656,112.26708 C154.621886,111.694196 154.239689,111.206992 153.699035,110.988993 C153.158381,110.770994 152.541408,110.85532 152.080524,111.210205 C151.619639,111.56509 151.384863,112.136619 151.464633,112.709503 L151.464638,112.709503 Z" id="Path" fill="#38D39F" fill-rule="nonzero"></path>
                    <path d="M163.56692,107.608135 C162.678752,107.584757 160.144928,105.886962 160.144928,105.886962 C160.144928,105.886962 162.762256,104.324714 163.650423,104.348086 C164.538589,104.371458 165.239897,105.120191 165.216839,106.020429 C165.19378,106.920667 164.455087,107.631507 163.566921,107.608135 L163.56692,107.608135 Z" id="Path" fill="#38D39F" fill-rule="nonzero"></path>
                    <path d="M159.541247,114.041663 C158.73114,113.748577 156.884058,111.348453 156.884058,111.348453 C156.884058,111.348453 159.735413,110.648163 160.545521,110.941258 C161.355628,111.234344 161.787536,112.165988 161.510214,113.022144 C161.232891,113.878299 160.351355,114.334757 159.541247,114.041671 L159.541247,114.041663 Z" id="Path" fill="#38D39F" fill-rule="nonzero"></path>
                    <path d="M154.774938,119.544088 C153.953533,119.400232 151.811594,117.369202 151.811594,117.369202 C151.811594,117.369202 154.433618,116.172495 155.255023,116.316351 C156.076429,116.460206 156.634839,117.299377 156.502267,118.190692 C156.369695,119.082007 155.596344,119.687943 154.774938,119.544088 Z" id="Path" fill="#38D39F" fill-rule="nonzero"></path>
                    <path d="M99.2659307,14.8147535 C90.6717115,14.5159235 82.4862459,11.7373575 74.6700333,8.69740914 C66.8538207,5.65746078 59.1116556,2.28944955 50.7232454,0.678629865 C45.3279752,-0.35741951 39.1579968,-0.504006398 34.8107504,2.39296536 C30.6273992,5.18071683 29.2756671,9.9929648 28.548919,14.4581168 C28.0021398,17.8175425 27.6806774,21.3532243 29.1788538,24.4982388 C30.2189847,26.6817097 32.0658531,28.5170998 33.3429806,30.6084841 C37.7869671,37.8858151 34.6459171,46.8595734 29.8299627,53.9652433 C27.5708912,57.2983764 24.9505749,60.478185 23.2073407,64.0263805 C21.4641065,67.5745759 20.6576786,71.6402804 22.1828496,75.259753 C23.6945731,78.8473111 27.2971648,81.5420396 31.1996154,83.4373415 C39.1256345,87.2867697 48.4656178,88.3885179 57.5733359,89.0125032 C77.7343238,90.3937647 98.0029866,89.795748 118.217502,89.1968073 C125.69842,88.9751538 133.212304,88.7505335 140.571682,87.5920505 C144.658473,86.9487251 148.877815,85.9276327 151.844773,83.462665 C155.611302,80.3334051 156.5449,75.0346326 154.021044,71.1109122 C149.787557,64.529308 138.082447,62.8945454 135.123479,55.8313622 C133.49473,51.9434658 135.167367,47.6127953 137.53433,44.0070579 C142.612001,36.2719351 151.12287,29.4859139 151.571165,20.644549 C151.87906,14.5721565 147.787725,8.49082939 141.461584,5.61774134 C134.830528,2.60617203 125.635553,2.98499714 120.743661,7.97015892 C115.706393,13.1034658 106.854087,15.0786008 99.2659307,14.8147535 Z" id="Path" fill="#38D39F" fill-rule="nonzero" opacity="0.1"></path>
                    <ellipse id="Oval" fill="#FBD56F" fill-rule="nonzero" cx="84.4202899" cy="103.623188" rx="5.79710145" ry="6.15942029"></ellipse>
                    <ellipse id="Oval" fill="#000000" fill-rule="nonzero" opacity="0.1" cx="84.4202899" cy="103.623188" rx="5.79710145" ry="6.15942029"></ellipse>
                    <ellipse id="Oval" fill="#FBD56F" fill-rule="nonzero" cx="85.5072464" cy="103.442029" rx="5.79710145" ry="5.97826087"></ellipse>
                    <path d="M87.7849925,109.157519 L87.1692798,108.829837 C87.1692798,108.829837 86.8812891,109.978513 86.975431,110.79707 C86.9944354,110.967137 87.1224589,111.107798 87.296048,111.149335 C88.7124631,111.485532 95.4633245,112.917905 100.105604,110.900428 C100.242557,110.840696 100.336354,110.71631 100.352332,110.57324 C100.409272,110.070168 100.207693,109.032086 100.12723,108.829841 C99.954065,108.394569 87.7849925,109.157519 87.7849925,109.157519 Z" id="Path" fill="#FBD56F" fill-rule="nonzero"></path>
                    <path d="M87.7849925,109.157519 L87.1692798,108.829837 C87.1692798,108.829837 86.8812891,109.978513 86.975431,110.79707 C86.9944354,110.967137 87.1224589,111.107798 87.296048,111.149335 C88.7124631,111.485532 95.4633245,112.917905 100.105604,110.900428 C100.242557,110.840696 100.336354,110.71631 100.352332,110.57324 C100.409272,110.070168 100.207693,109.032086 100.12723,108.829841 C99.954065,108.394569 87.7849925,109.157519 87.7849925,109.157519 Z" id="Path" fill="#000000" fill-rule="nonzero" opacity="0.1"></path>
                    <ellipse id="Oval" fill="#FBD56F" fill-rule="nonzero" cx="93.6594203" cy="108.695652" rx="6.34057971" ry="1.44927536"></ellipse>
                    <path d="M90.32123,106.983606 L89.7055172,106.655924 C89.7055172,106.655924 89.4175249,107.8046 89.5116605,108.623157 C89.5306645,108.793225 89.6586889,108.933887 89.8322791,108.975423 C91.2486944,109.311619 97.9995563,110.743992 102.641835,108.726515 C102.778788,108.666783 102.872586,108.542397 102.888564,108.399327 C102.945503,107.896255 102.743925,106.858173 102.663462,106.655928 C102.490299,106.220656 90.32123,106.983606 90.32123,106.983606 Z" id="Path" fill="#FBD56F" fill-rule="nonzero"></path>
                    <path d="M90.32123,106.983606 L89.7055172,106.655924 C89.7055172,106.655924 89.4175249,107.8046 89.5116605,108.623157 C89.5306645,108.793225 89.6586889,108.933887 89.8322791,108.975423 C91.2486944,109.311619 97.9995563,110.743992 102.641835,108.726515 C102.778788,108.666783 102.872586,108.542397 102.888564,108.399327 C102.945503,107.896255 102.743925,106.858173 102.663462,106.655928 C102.490299,106.220656 90.32123,106.983606 90.32123,106.983606 Z" id="Path" fill="#000000" fill-rule="nonzero" opacity="0.1"></path>
                    <ellipse id="Oval" fill="#FBD56F" fill-rule="nonzero" cx="95.8333333" cy="106.521739" rx="6.34057971" ry="1.44927536"></ellipse>
                    <path d="M92.1328242,104.085054 L91.5171114,103.757372 C91.5171114,103.757372 91.2291191,104.906049 91.3232547,105.724606 C91.3422593,105.894674 91.4702836,106.035335 91.6438733,106.076871 C93.0602886,106.413068 99.811149,107.845442 104.453429,105.827964 C104.590382,105.768232 104.68418,105.643846 104.700159,105.500776 C104.757097,104.997705 104.555518,103.959623 104.475056,103.757379 C104.301893,103.322104 92.1328242,104.085054 92.1328242,104.085054 Z" id="Path" fill="#FBD56F" fill-rule="nonzero"></path>
                    <path d="M92.1328242,104.085054 L91.5171114,103.757372 C91.5171114,103.757372 91.2291191,104.906049 91.3232547,105.724606 C91.3422593,105.894674 91.4702836,106.035335 91.6438733,106.076871 C93.0602886,106.413068 99.811149,107.845442 104.453429,105.827964 C104.590382,105.768232 104.68418,105.643846 104.700159,105.500776 C104.757097,104.997705 104.555518,103.959623 104.475056,103.757379 C104.301893,103.322104 92.1328242,104.085054 92.1328242,104.085054 Z" id="Path" fill="#000000" fill-rule="nonzero" opacity="0.1"></path>
                    <ellipse id="Oval" fill="#FBD56F" fill-rule="nonzero" cx="98.0072464" cy="103.985507" rx="6.34057971" ry="1.44927536"></ellipse>
                    <path d="M89.9589091,101.1865 L89.3431979,100.858825 C89.3431979,100.858825 89.0552071,102.0075 89.1493411,102.826056 C89.1683452,102.996124 89.2963696,103.136785 89.4699597,103.178322 C90.8863751,103.514519 97.6372358,104.946889 102.279516,102.929415 C102.416469,102.869683 102.510267,102.745297 102.526245,102.602228 C102.583184,102.099156 102.381605,101.061077 102.301143,100.858831 C102.127974,100.423551 89.9589091,101.1865 89.9589091,101.1865 Z" id="Path" fill="#FBD56F" fill-rule="nonzero"></path>
                    <path d="M89.9589091,101.1865 L89.3431979,100.858825 C89.3431979,100.858825 89.0552071,102.0075 89.1493411,102.826056 C89.1683452,102.996124 89.2963696,103.136785 89.4699597,103.178322 C90.8863751,103.514519 97.6372358,104.946889 102.279516,102.929415 C102.416469,102.869683 102.510267,102.745297 102.526245,102.602228 C102.583184,102.099156 102.381605,101.061077 102.301143,100.858831 C102.127974,100.423551 89.9589091,101.1865 89.9589091,101.1865 Z" id="Path" fill="#000000" fill-rule="nonzero" opacity="0.1"></path>
                    <ellipse id="Oval" fill="#FBD56F" fill-rule="nonzero" cx="95.8333333" cy="101.086957" rx="6.34057971" ry="1.44927536"></ellipse>
                    <path d="M95.3936934,99.0125922 L94.7779805,98.6849105 C94.7779805,98.6849105 94.4899897,99.8335863 94.5841237,100.652143 C94.6031284,100.822211 94.7311527,100.962871 94.9047424,101.004407 C96.3211579,101.340605 103.072019,102.772977 107.7143,100.755501 C107.851253,100.695769 107.945051,100.571383 107.961028,100.428313 C108.017968,99.9252425 107.816388,98.8871613 107.735925,98.6849165 C107.562764,98.2496379 95.3936934,99.0125922 95.3936934,99.0125922 Z" id="Path" fill="#FBD56F" fill-rule="nonzero"></path>
                    <path d="M95.3936934,99.0125922 L94.7779805,98.6849105 C94.7779805,98.6849105 94.4899897,99.8335863 94.5841237,100.652143 C94.6031284,100.822211 94.7311527,100.962871 94.9047424,101.004407 C96.3211579,101.340605 103.072019,102.772977 107.7143,100.755501 C107.851253,100.695769 107.945051,100.571383 107.961028,100.428313 C108.017968,99.9252425 107.816388,98.8871613 107.735925,98.6849165 C107.562764,98.2496379 95.3936934,99.0125922 95.3936934,99.0125922 Z" id="Path" fill="#000000" fill-rule="nonzero" opacity="0.1"></path>
                    <ellipse id="Oval" fill="#FBD56F" fill-rule="nonzero" cx="101.268116" cy="98.5507246" rx="6.34057971" ry="1.44927536"></ellipse>
                    <path d="M91.7705053,97.2009965 L91.1547926,96.8733145 C91.1547926,96.8733145 90.8668002,98.021991 90.9609358,98.8405481 C90.9799405,99.0106159 91.1079648,99.1512766 91.2815544,99.1928128 C92.6979697,99.5290104 99.4488301,100.961384 104.09111,98.943906 C104.228063,98.8841737 104.321861,98.759788 104.33784,98.6167182 C104.394778,98.1136472 104.193199,97.0755654 104.112737,96.8733206 C103.939574,96.4380462 91.7705053,97.2009965 91.7705053,97.2009965 Z" id="Path" fill="#FBD56F" fill-rule="nonzero"></path>
                    <path d="M91.7705053,97.2009965 L91.1547926,96.8733145 C91.1547926,96.8733145 90.8668002,98.021991 90.9609358,98.8405481 C90.9799405,99.0106159 91.1079648,99.1512766 91.2815544,99.1928128 C92.6979697,99.5290104 99.4488301,100.961384 104.09111,98.943906 C104.228063,98.8841737 104.321861,98.759788 104.33784,98.6167182 C104.394778,98.1136472 104.193199,97.0755654 104.112737,96.8733206 C103.939574,96.4380462 91.7705053,97.2009965 91.7705053,97.2009965 Z" id="Path" fill="#000000" fill-rule="nonzero" opacity="0.1"></path>
                    <ellipse id="Oval" fill="#FBD56F" fill-rule="nonzero" cx="97.6449275" cy="97.1014493" rx="6.34057971" ry="1.44927536"></ellipse>
                    <path d="M93.944418,94.3024458 L93.3287052,93.9747638 C93.3287052,93.9747638 93.0407143,95.1234402 93.1348484,95.9419974 C93.1538528,96.1120648 93.2818764,96.2527253 93.4554654,96.2942621 C94.8718809,96.6304597 101.622744,98.062833 106.265025,96.0453553 C106.401977,95.9856228 106.495775,95.8612371 106.511752,95.7181674 C106.568693,95.2150965 106.367113,94.1770147 106.28665,93.9747698 C106.113488,93.5394955 93.944418,94.3024458 93.944418,94.3024458 Z" id="Path" fill="#FBD56F" fill-rule="nonzero"></path>
                    <path d="M93.944418,94.3024458 L93.3287052,93.9747638 C93.3287052,93.9747638 93.0407143,95.1234402 93.1348484,95.9419974 C93.1538528,96.1120648 93.2818764,96.2527253 93.4554654,96.2942621 C94.8718809,96.6304597 101.622744,98.062833 106.265025,96.0453553 C106.401977,95.9856228 106.495775,95.8612371 106.511752,95.7181674 C106.568693,95.2150965 106.367113,94.1770147 106.28665,93.9747698 C106.113488,93.5394955 93.944418,94.3024458 93.944418,94.3024458 Z" id="Path" fill="#000000" fill-rule="nonzero" opacity="0.1"></path>
                    <ellipse id="Oval" fill="#FBD56F" fill-rule="nonzero" cx="99.8188406" cy="93.8405797" rx="6.34057971" ry="1.44927536"></ellipse>
                    <path d="M95.3936934,90.6792574 L94.7779805,90.3515754 C94.7779805,90.3515754 94.4899897,91.5002518 94.5841237,92.318809 C94.6031282,92.4888763 94.7311517,92.6295369 94.9047408,92.6710737 C96.3211563,93.0072713 103.072019,94.4396446 107.7143,92.4221669 C107.851252,92.3624344 107.94505,92.2380487 107.961028,92.094979 C108.017968,91.5919081 107.816388,90.5538263 107.735925,90.3515814 C107.562764,89.9163071 95.3936934,90.6792574 95.3936934,90.6792574 Z" id="Path" fill="#FBD56F" fill-rule="nonzero"></path>
                    <path d="M95.3936934,90.6792574 L94.7779805,90.3515754 C94.7779805,90.3515754 94.4899897,91.5002518 94.5841237,92.318809 C94.6031282,92.4888763 94.7311517,92.6295369 94.9047408,92.6710737 C96.3211563,93.0072713 103.072019,94.4396446 107.7143,92.4221669 C107.851252,92.3624344 107.94505,92.2380487 107.961028,92.094979 C108.017968,91.5919081 107.816388,90.5538263 107.735925,90.3515814 C107.562764,89.9163071 95.3936934,90.6792574 95.3936934,90.6792574 Z" id="Path" fill="#000000" fill-rule="nonzero" opacity="0.1"></path>
                    <ellipse id="Oval" fill="#FBD56F" fill-rule="nonzero" cx="101.268116" cy="90.2173913" rx="6.34057971" ry="1.44927536"></ellipse>
                    <path d="M105.90094,109.882156 L105.285227,109.554474 C105.285227,109.554474 104.997236,110.70315 105.09137,111.521708 C105.110375,111.691775 105.238399,111.832436 105.411989,111.873972 C106.828404,112.21017 113.579265,113.642543 118.221545,111.625065 C118.358498,111.565333 118.452296,111.440947 118.468274,111.297878 C118.525213,110.794807 118.323634,109.756725 118.243172,109.55448 C118.070017,109.119206 105.90094,109.882156 105.90094,109.882156 Z" id="Path" fill="#FBD56F" fill-rule="nonzero"></path>
                    <path d="M105.90094,109.882156 L105.285227,109.554474 C105.285227,109.554474 104.997236,110.70315 105.09137,111.521708 C105.110375,111.691775 105.238399,111.832436 105.411989,111.873972 C106.828404,112.21017 113.579265,113.642543 118.221545,111.625065 C118.358498,111.565333 118.452296,111.440947 118.468274,111.297878 C118.525213,110.794807 118.323634,109.756725 118.243172,109.55448 C118.070017,109.119206 105.90094,109.882156 105.90094,109.882156 Z" id="Path" fill="#000000" fill-rule="nonzero" opacity="0.1"></path>
                    <ellipse id="Oval" fill="#FBD56F" fill-rule="nonzero" cx="111.775362" cy="109.42029" rx="6.34057971" ry="1.44927536"></ellipse>
                    <path d="M108.074848,106.983606 L107.459135,106.655923 C107.459135,106.655923 107.171144,107.804599 107.265286,108.623156 C107.28429,108.793225 107.412314,108.933886 107.585905,108.975422 C109.00232,109.31162 115.75318,110.743991 120.395459,108.726516 C120.532412,108.666783 120.626209,108.542397 120.642187,108.399328 C120.699127,107.896255 120.497548,106.858175 120.417085,106.655929 C120.243915,106.220655 108.074848,106.983606 108.074848,106.983606 Z" id="Path" fill="#FBD56F" fill-rule="nonzero"></path>
                    <path d="M108.074848,106.983606 L107.459135,106.655923 C107.459135,106.655923 107.171144,107.804599 107.265286,108.623156 C107.28429,108.793225 107.412314,108.933886 107.585905,108.975422 C109.00232,109.31162 115.75318,110.743991 120.395459,108.726516 C120.532412,108.666783 120.626209,108.542397 120.642187,108.399328 C120.699127,107.896255 120.497548,106.858175 120.417085,106.655929 C120.243915,106.220655 108.074848,106.983606 108.074848,106.983606 Z" id="Path" fill="#000000" fill-rule="nonzero" opacity="0.1"></path>
                    <ellipse id="Oval" fill="#FBD56F" fill-rule="nonzero" cx="113.949275" cy="106.884058" rx="6.34057971" ry="1.44927536"></ellipse>
                    <path d="M105.90094,104.085054 L105.285227,103.757372 C105.285227,103.757372 104.997236,104.906049 105.09137,105.724606 C105.110375,105.894673 105.238398,106.035334 105.411987,106.076871 C106.828403,106.413068 113.579265,107.845442 118.221546,105.827964 C118.358499,105.768232 118.452296,105.643846 118.468274,105.500776 C118.525214,104.997705 118.323635,103.959623 118.243172,103.757379 C118.07001,103.322104 105.90094,104.085054 105.90094,104.085054 Z" id="Path" fill="#FBD56F" fill-rule="nonzero"></path>
                    <path d="M105.90094,104.085054 L105.285227,103.757372 C105.285227,103.757372 104.997236,104.906049 105.09137,105.724606 C105.110375,105.894673 105.238398,106.035334 105.411987,106.076871 C106.828403,106.413068 113.579265,107.845442 118.221546,105.827964 C118.358499,105.768232 118.452296,105.643846 118.468274,105.500776 C118.525214,104.997705 118.323635,103.959623 118.243172,103.757379 C118.07001,103.322104 105.90094,104.085054 105.90094,104.085054 Z" id="Path" fill="#000000" fill-rule="nonzero" opacity="0.1"></path>
                    <ellipse id="Oval" fill="#FBD56F" fill-rule="nonzero" cx="111.775362" cy="103.985507" rx="6.34057971" ry="1.44927536"></ellipse>
                    <path d="M111.335723,101.911141 L110.72001,101.583459 C110.72001,101.583459 110.432018,102.732136 110.526153,103.550692 C110.545157,103.720761 110.673182,103.861422 110.846772,103.902959 C112.263187,104.239156 119.014049,105.671528 123.656328,103.654052 C123.79328,103.594319 123.887078,103.469934 123.903057,103.326864 C123.959996,102.823792 123.758418,101.785712 123.677955,101.583465 C123.504795,101.148191 111.335723,101.911141 111.335723,101.911141 Z" id="Path" fill="#FBD56F" fill-rule="nonzero"></path>
                    <path d="M111.335723,101.911141 L110.72001,101.583459 C110.72001,101.583459 110.432018,102.732136 110.526153,103.550692 C110.545157,103.720761 110.673182,103.861422 110.846772,103.902959 C112.263187,104.239156 119.014049,105.671528 123.656328,103.654052 C123.79328,103.594319 123.887078,103.469934 123.903057,103.326864 C123.959996,102.823792 123.758418,101.785712 123.677955,101.583465 C123.504795,101.148191 111.335723,101.911141 111.335723,101.911141 Z" id="Path" fill="#000000" fill-rule="nonzero" opacity="0.1"></path>
                    <ellipse id="Oval" fill="#FBD56F" fill-rule="nonzero" cx="117.210145" cy="101.449275" rx="6.34057971" ry="1.44927536"></ellipse>
                    <path d="M107.712534,100.461866 L107.096821,100.134184 C107.096821,100.134184 106.80883,101.28286 106.902964,102.101417 C106.921968,102.271485 107.049993,102.412147 107.223583,102.453683 C108.639998,102.789881 115.390859,104.222252 120.033139,102.204777 C120.170092,102.145044 120.26389,102.020658 120.279869,101.877589 C120.336807,101.374516 120.135228,100.336436 120.054766,100.13419 C119.881603,99.6989159 107.712534,100.461866 107.712534,100.461866 Z" id="Path" fill="#FBD56F" fill-rule="nonzero"></path>
                    <path d="M107.712534,100.461866 L107.096821,100.134184 C107.096821,100.134184 106.80883,101.28286 106.902964,102.101417 C106.921968,102.271485 107.049993,102.412147 107.223583,102.453683 C108.639998,102.789881 115.390859,104.222252 120.033139,102.204777 C120.170092,102.145044 120.26389,102.020658 120.279869,101.877589 C120.336807,101.374516 120.135228,100.336436 120.054766,100.13419 C119.881603,99.6989159 107.712534,100.461866 107.712534,100.461866 Z" id="Path" fill="#000000" fill-rule="nonzero" opacity="0.1"></path>
                    <ellipse id="Oval" fill="#FBD56F" fill-rule="nonzero" cx="113.586957" cy="100" rx="6.34057971" ry="1.44927536"></ellipse>
                    <path d="M109.886447,97.2009977 L109.270735,96.8733143 C109.270735,96.8733143 108.982742,98.021992 109.076878,98.840549 C109.095883,99.0106168 109.223907,99.1512774 109.397496,99.1928136 C110.813912,99.5290111 117.564772,100.961383 122.207052,98.9439069 C122.344005,98.8841741 122.437803,98.7597887 122.453782,98.6167191 C122.51072,98.1136483 122.309141,97.0755667 122.228679,96.8733203 C122.055516,96.4380461 109.886447,97.2009977 109.886447,97.2009977 Z" id="Path" fill="#FBD56F" fill-rule="nonzero"></path>
                    <path d="M109.886447,97.2009977 L109.270735,96.8733143 C109.270735,96.8733143 108.982742,98.021992 109.076878,98.840549 C109.095883,99.0106168 109.223907,99.1512774 109.397496,99.1928136 C110.813912,99.5290111 117.564772,100.961383 122.207052,98.9439069 C122.344005,98.8841741 122.437803,98.7597887 122.453782,98.6167191 C122.51072,98.1136483 122.309141,97.0755667 122.228679,96.8733203 C122.055516,96.4380461 109.886447,97.2009977 109.886447,97.2009977 Z" id="Path" fill="#000000" fill-rule="nonzero" opacity="0.1"></path>
                    <ellipse id="Oval" fill="#FBD56F" fill-rule="nonzero" cx="115.76087" cy="97.1014493" rx="6.34057971" ry="1.44927536"></ellipse>
                    <path d="M111.335723,93.5778081 L110.72001,93.2501261 C110.72001,93.2501261 110.432018,94.3988025 110.526153,95.2173597 C110.545158,95.3874275 110.673182,95.5280882 110.846772,95.5696244 C112.263187,95.905822 119.014049,97.3381953 123.656328,95.3207176 C123.793281,95.2609853 123.887079,95.1365996 123.903057,94.9935297 C123.959996,94.4904588 123.758418,93.452377 123.677955,93.2501321 C123.504792,92.8148578 111.335723,93.5778081 111.335723,93.5778081 Z" id="Path" fill="#FBD56F" fill-rule="nonzero"></path>
                    <path d="M111.335723,93.5778081 L110.72001,93.2501261 C110.72001,93.2501261 110.432018,94.3988025 110.526153,95.2173597 C110.545158,95.3874275 110.673182,95.5280882 110.846772,95.5696244 C112.263187,95.905822 119.014049,97.3381953 123.656328,95.3207176 C123.793281,95.2609853 123.887079,95.1365996 123.903057,94.9935297 C123.959996,94.4904588 123.758418,93.452377 123.677955,93.2501321 C123.504792,92.8148578 111.335723,93.5778081 111.335723,93.5778081 Z" id="Path" fill="#000000" fill-rule="nonzero" opacity="0.1"></path>
                    <ellipse id="Oval" fill="#FBD56F" fill-rule="nonzero" cx="117.210145" cy="93.4782609" rx="6.34057971" ry="1.44927536"></ellipse>
                    <path d="M149.779285,118.400566 C148.890209,118.369104 148.858461,118.02308 147.715396,117.425423 C147.070191,117.088208 146.090327,116.108658 145.360013,115.320359 C145.301534,115.257194 145.244898,115.195528 145.190104,115.13536 C145.383213,115.131115 145.492744,115.12911 145.492744,115.12911 C145.492744,115.12911 145.206987,112.612614 145.460996,112.014943 C145.715005,111.417272 145.524511,107.86272 145.524511,107.86272 C145.524511,107.86272 145.683255,105.157478 145.397479,104.528354 C145.111703,103.89923 145.492744,99.8728185 145.492744,99.8728185 C145.492744,99.8728185 145.746751,97.4821431 145.810268,92.6064271 C145.873785,87.7307111 143.016087,87.5734179 143.016087,87.5734179 C143.016087,87.5734179 142.635065,87.5438477 142.056556,87.4884883 C142.001005,87.4832081 141.942238,87.4774944 141.883198,87.4717447 C142.257862,86.6843275 142.476303,86.094972 142.476303,86.094972 C142.476303,86.094972 142.000035,81.5338141 141.873,80.7474061 C141.746006,79.9610091 140.983962,76.7210119 140.983962,76.7210119 C140.983962,76.7210119 140.444159,75.3369343 140.126655,74.3617911 C139.809151,73.3866479 138.856576,72.2542209 138.856576,72.2542209 C138.856576,72.2542209 137.141959,68.8569415 136.665673,68.3536356 C136.444692,68.120226 136.134786,67.8258025 135.866163,67.5772934 C135.817726,67.5324568 135.771441,67.4899148 135.726454,67.448708 C135.798313,67.0942065 135.836372,66.7336385 135.840114,66.37189 C135.840114,66.37189 134.062,64.6103403 133.935005,64.1699529 C133.80801,63.7295655 132.125143,62.0938404 132.125143,62.0938404 C132.125143,62.0938404 131.172567,60.3322908 130.093002,60.3008269 C129.582926,60.2717816 129.071301,60.2873526 128.563914,60.3473638 C128.785573,59.5234365 129.047818,58.6603068 129.283316,57.919598 C129.309541,57.8370487 129.335282,57.7565818 129.36075,57.6772972 C130.223453,57.0915834 130.90047,56.269461 131.311305,55.3086798 C131.333833,55.2575835 131.354179,55.2059693 131.374589,55.1543442 C131.386024,55.1546327 131.397363,55.1565046 131.4088,55.1563517 C131.453577,55.1558286 131.498243,55.151764 131.542384,55.1441957 C131.897781,55.0829135 132.198597,54.6799815 132.034737,54.3619947 C132.056304,54.3985563 132.095975,54.4204433 132.138279,54.4191199 C132.256726,54.4151641 132.401261,54.243124 132.429018,54.0917646 C132.433823,54.0655153 132.436441,54.0389493 132.440492,54.0125861 C132.445531,53.9797401 132.450919,53.9469628 132.454795,53.913964 C132.45844,53.8829524 132.460766,53.8518644 132.463362,53.8207483 C132.466077,53.7886526 132.468577,53.756585 132.470186,53.7244114 C132.471698,53.6943061 132.472629,53.6642429 132.473151,53.6340955 C132.473791,53.5994354 132.473597,53.5648143 132.472977,53.5301558 C132.472453,53.502409 132.472124,53.474709 132.470802,53.4469919 C132.468824,53.4048242 132.465336,53.3627813 132.461479,53.3207384 C132.45991,53.3034863 132.45956,53.2861267 132.457662,53.2689027 L132.457312,53.2713891 C132.438747,53.0995068 132.404503,52.9296986 132.355012,52.7641024 C132.179541,52.179403 131.811448,51.5995501 131.953289,51.0059611 C131.954843,50.9995657 131.95765,50.9937381 131.959299,50.9873988 L131.959491,50.98855 C132.077686,50.5279047 132.474718,50.1932336 132.717659,49.7816677 C132.740821,49.7424092 132.761172,49.7019028 132.781233,49.6612918 C132.784897,49.6538606 132.789297,49.6467368 132.792863,49.6392572 C132.807477,49.608659 132.819843,49.5772247 132.832714,49.5459636 C132.841009,49.5258695 132.8501,49.5060811 132.857679,49.4857374 C132.867893,49.4583166 132.876363,49.430378 132.885299,49.4025438 C132.893459,49.377207 132.902024,49.3520044 132.909157,49.3263603 C132.915981,49.3016958 132.921505,49.2767427 132.927378,49.2518286 C132.934491,49.2218154 132.941527,49.1918411 132.947265,49.1615221 C132.951375,49.1397855 132.954568,49.117924 132.957964,49.0960517 C132.963315,49.0616802 132.968198,49.0272899 132.971843,48.9926595 C132.97382,48.9739084 132.975261,48.955148 132.976708,48.9363298 C132.97975,48.8977061 132.981902,48.8590809 132.982851,48.8202763 C132.98324,48.8047432 132.983395,48.7892351 132.983434,48.7736833 C132.983588,48.7312842 132.982516,48.6888929 132.980216,48.6465095 C132.979519,48.6337685 132.97886,48.6210837 132.977929,48.6083444 C132.97475,48.563163 132.97006,48.5181439 132.964166,48.4731622 C132.963315,48.4666639 132.963079,48.4601156 132.962147,48.4536156 L132.961817,48.4554017 C132.907909,48.0601184 132.751036,47.6861223 132.507048,47.3712009 C131.943351,46.6975589 131.096525,46.3298417 130.221539,46.3787651 C129.982948,46.4057983 129.742353,46.4102411 129.502933,46.3920348 C129.104291,46.3333841 128.767171,46.0791675 128.449473,45.8334974 C127.562956,45.1479099 126.676425,44.4623224 125.789881,43.7767349 C125.493263,43.5179072 125.152753,43.3146697 124.784567,43.1767021 C124.408726,43.0612226 123.958152,43.1010661 123.679938,43.3767401 C123.182002,43.870105 123.498518,44.7191304 123.298606,45.3880981 C123.125442,45.9675174 122.56804,46.3601778 121.990965,46.5558949 C121.413889,46.7516121 120.796419,46.794566 120.203451,46.9362465 C120.027047,46.9649499 119.861722,47.0412179 119.725129,47.1569058 C119.571569,47.3440562 119.49698,47.5840674 119.51729,47.8256816 C119.513638,48.418138 119.65544,49.0023717 119.930158,49.5267274 C120.042285,49.740358 120.178098,49.956188 120.297379,50.1750815 C120.307225,50.1931603 120.3168,50.2112874 120.326374,50.2294037 C120.33971,50.2545174 120.353084,50.2796311 120.365818,50.3048478 C120.38646,50.3457401 120.406127,50.3867493 120.424818,50.4278755 C120.432882,50.4456377 120.440111,50.4634856 120.447748,50.4812851 C120.46023,50.510415 120.472079,50.5395989 120.483295,50.5688369 C120.49041,50.5874632 120.497328,50.6060989 120.503841,50.6247719 C120.515858,50.6591918 120.526525,50.6937177 120.536287,50.7283092 C120.59977,50.9317508 120.60574,51.1488935 120.553533,51.3555413 C120.462087,51.6936596 120.199143,51.9541531 119.96729,52.2183153 C119.778054,52.4246781 119.643357,52.6753686 119.575511,52.9474718 L119.574406,52.95351 C119.561465,53.0167731 119.559029,53.0817486 119.567195,53.1458095 C119.568339,53.1537866 119.569288,53.1618417 119.570878,53.1695193 C119.573874,53.1837983 119.577791,53.1978667 119.582605,53.2116356 C119.586214,53.2216196 119.590363,53.2313984 119.595035,53.2409282 C119.599805,53.2521438 119.605322,53.263024 119.611549,53.2734949 C119.622947,53.2910708 119.636505,53.3071349 119.651903,53.3213077 C119.65903,53.3272382 119.666464,53.332786 119.674174,53.337928 C119.686995,53.347493 119.700635,53.3558972 119.714935,53.3630418 C119.723658,53.3673532 119.732534,53.3714526 119.742071,53.3750714 C119.763178,53.3829539 119.784948,53.3889178 119.807118,53.3928913 C119.81336,53.394044 119.818651,53.3960219 119.825141,53.3969469 C119.859016,53.4013321 119.893203,53.4027876 119.927325,53.4012973 C119.937173,53.4009698 119.94789,53.3997515 119.958183,53.3990028 C119.990882,53.3965323 120.023434,53.3923986 120.055716,53.3866175 C120.067578,53.3845335 120.079169,53.3826523 120.091515,53.3800879 C120.138325,53.3704012 120.1874,53.3584667 120.241362,53.3416078 C120.419665,53.2875289 120.593181,53.2186578 120.760115,53.1357063 C120.759921,53.1548707 120.758661,53.1737746 120.758661,53.1929765 C120.758661,53.2260128 120.758661,53.2606152 120.76184,53.293653 C120.770725,53.9105286 120.886791,54.5211131 121.104814,55.0979178 C121.445204,55.9968272 122.016479,56.78929 122.760623,57.3948285 C122.751436,57.4491698 122.741344,57.5037223 122.730348,57.5584858 C122.577285,58.3128168 122.257221,59.069653 122.059732,59.0111442 C121.866473,58.9678803 121.669052,58.946147 121.471047,58.9463383 C121.411096,58.9445522 121.353008,58.9437458 121.297863,58.9434089 L121.297669,58.9431983 C121.118349,58.9223645 120.937233,58.9223645 120.757912,58.9431983 C120.677766,58.9486944 120.59735,58.9375597 120.521678,58.910488 C120.008626,58.7481745 119.463251,58.7174574 118.935335,58.8211408 C117.837354,59.0470085 116.167201,59.4603355 115.709327,59.954825 C115.010782,60.70978 113.994731,61.433271 112.851645,64.5788998 C112.851645,64.5788998 112.280114,66.4977332 111.835576,66.7493838 C111.933527,66.6984147 112.034233,66.6529699 112.137226,66.6132611 C112.078158,66.7172093 111.996819,66.8066805 111.899093,66.8752052 C112.060151,66.7925667 112.22734,66.7225715 112.399162,66.6658471 C112.052174,68.7153016 112.565874,74.5777007 112.565874,74.5777007 C112.565874,74.5777007 112.153105,75.588599 112.692888,76.1862592 C113.013689,76.5414674 113.187976,77.095319 113.277174,77.4873273 C113.252094,77.5265953 113.226038,77.5672681 113.199006,77.6093458 L113.199006,77.6099807 C112.913248,78.0547653 112.530947,78.6348179 112.280118,78.9544238 C111.83558,79.5206326 111.962594,81.3136446 111.962594,81.3136446 C111.962594,81.3136446 111.867329,82.1629664 111.549823,82.4775246 C111.232317,82.7920828 111.295792,83.9559706 111.295792,83.9559706 L110.470252,87.007231 C110.470252,87.007231 109.708189,87.699269 109.708189,88.0138256 C109.708189,88.3283823 109.104908,89.209168 109.104908,89.209168 C109.104908,89.209168 108.184083,90.719067 109.104908,90.4988788 C109.440541,90.4002166 109.755543,90.2411959 110.03459,90.0295528 L110.034144,90.0521536 C110.032787,90.107485 110.031669,90.1636987 110.030791,90.2207948 C110.00476,91.8653284 110.183195,94.1792618 111.391037,94.1792618 C113.264416,94.1792618 118.090722,96.4126534 118.090722,96.4126534 C119.075044,97.1676068 120.408638,96.9159562 120.408638,96.9159562 C120.408638,96.9159562 118.058971,99.275177 118.122471,100.250312 C118.185971,101.225448 116.788895,102.829723 116.788895,102.829723 L112.470606,111.291465 C112.494772,111.88103 112.598911,112.464532 112.780144,113.025843 C112.759635,113.043827 112.738349,113.061002 112.718275,113.079437 C111.058938,114.601289 110.91477,117.614174 110.91477,117.614174 L110.533748,119.155526 L116.31262,121.703466 C116.31262,121.703466 123.806095,121.860748 125.107941,121.514723 C126.409787,121.168698 126.124013,119.72172 124.409396,119.438606 C122.694779,119.155491 122.282009,118.400557 121.710476,118.054542 C121.325002,117.821133 119.955854,116.312491 119.106183,115.356224 C119.093177,115.341592 119.081451,115.328315 119.068697,115.31394 L119.265565,114.216875 C119.646586,114.028132 120.21812,112.140758 120.21812,112.140758 C120.21812,112.140758 120.21812,111.385813 120.599141,111.165615 C120.980162,110.945417 121.773974,108.680573 121.773974,108.680573 C121.773974,108.680573 123.48859,105.818049 123.393326,105.440576 C123.298062,105.063102 124.631675,103.14427 124.631675,103.14427 C124.631675,103.14427 126.886044,100.942335 126.790802,100.549125 C126.69556,100.155916 128.600664,98.1427297 128.600664,98.1427297 C129.289021,97.6151074 129.86276,96.9518661 130.286691,96.1936849 C130.458148,96.1660052 130.642303,96.1364381 130.836631,96.1037247 C133.329806,95.6935409 137.472813,94.9517979 137.935751,94.7454441 C138.5708,94.4623404 138.443805,95.7205873 138.189782,96.7900989 C137.935759,97.8596105 137.745267,102.986986 138.03102,103.647564 C138.316773,104.308141 138.189782,105.37766 138.189782,105.37766 L137.808759,111.134167 L138.062768,112.360961 C138.062768,112.360961 137.205459,113.053 137.554732,113.461925 C137.904005,113.87085 137.586482,115.632411 137.586482,115.632411 C137.616485,115.621264 137.652033,115.610367 137.691941,115.599654 C137.661356,115.668713 137.632263,115.739665 137.606177,115.814236 C137.114016,117.222844 137.395993,119.532994 137.395993,119.532994 L137.395993,121.35745 C137.395993,121.35745 146.191296,121.514734 148.128172,121.514734 C150.065047,121.514734 152.732219,120.571044 152.890981,119.816098 C153.049743,119.061152 150.668323,118.432016 149.779285,118.400566 Z M124.763623,85.6531495 L124.187419,85.7018077 C124.378334,85.6739382 124.570754,85.6576891 124.763623,85.6531495 L124.763623,85.6531495 Z M128.276238,61.508344 C128.356908,61.1444568 128.454828,60.7530599 128.562769,60.3516066 L128.276238,61.508344 Z M129.362706,86.5353578 C128.813292,86.7536651 128.201799,86.7543414 127.651907,86.5372499 L127.648089,86.5353578 C127.648089,86.5353578 127.679838,84.3334208 127.933865,83.421193 C128.187893,82.5089651 128.537169,80.8417823 128.537169,80.8417823 C128.537169,80.8417823 128.822924,78.5454676 129.108682,77.5074183 C129.394439,76.4693691 130.505773,70.6814065 131.077325,70.3039236 C131.648876,69.9264407 131.966363,70.5870381 131.966363,70.5870381 C131.966363,70.5870381 132.051763,70.5852911 132.194843,70.5693712 C132.221688,70.6297149 132.252009,70.693901 132.285807,70.7619296 C132.963399,72.1365701 134.951078,74.9594607 134.951078,74.9594607 C135.540718,75.3246283 136.040123,75.8193813 136.411667,76.4064444 C136.95145,77.3186722 137.110212,79.4577047 137.110212,79.4577047 C137.110212,79.4577047 138.316774,84.2075994 138.888326,84.8681766 C139.174102,85.1984691 139.047068,85.3953858 138.848941,85.5092633 C138.444042,85.7317724 138.0999,86.0508898 137.846864,86.4384718 C137.765515,86.5680369 137.6794,86.7103709 137.592022,86.8620096 C137.373544,86.8112018 137.177915,86.758463 137.014947,86.7033344 C135.459091,86.1786397 130.220015,86.1578827 129.362708,86.5353547 L129.362706,86.5353578 Z" id="Shape" fill="url(#linearGradient-1)" fill-rule="nonzero"></path>
                    <path d="M137.397345,119.41006 L137.397345,121.22072 C137.397345,121.22072 145.986324,121.376812 147.877761,121.376812 C149.769197,121.376812 152.373796,120.440262 152.528839,119.691025 C152.683882,118.941787 150.358338,118.317422 149.490139,118.286203 C148.621939,118.254983 148.590931,117.911584 147.474674,117.318437 C146.844614,116.983778 145.887722,116.011641 145.174564,115.229309 C144.624505,114.625549 144.21893,114.134181 144.21893,114.134181 C144.21893,114.134181 139.598863,114.040526 138.265557,114.789764 C137.95859,114.962711 137.746497,115.301119 137.602628,115.719446 C137.122005,117.117389 137.397345,119.41006 137.397345,119.41006 Z" id="Path" fill="#434175" fill-rule="nonzero"></path>
                    <path d="M137.318841,115.942029 C138.292199,115.632808 143.990943,115.512653 144.927536,115.494998 C144.374807,114.94433 143.967263,114.49617 143.967263,114.49617 C143.967263,114.49617 139.324766,114.410751 137.984988,115.094105 C137.676528,115.251838 137.463408,115.560488 137.318841,115.942029 Z" id="Path" fill="#000000" fill-rule="nonzero" opacity="0.1"></path>
                    <path d="M112.318841,87.1087755 C112.318841,87.1087755 112.498283,87.2172058 112.820536,87.4111441 C112.878897,87.4458468 112.941609,87.4842568 113.008665,87.5245289 C113.212943,87.6478333 113.458197,87.7946798 113.738225,87.9632123 C117.639983,90.3096621 128.283519,96.6705482 128.865927,96.6197413 C129.018667,96.6067278 129.477516,96.5379515 130.110843,96.4350953 C130.278483,96.4078289 130.458548,96.3787128 130.64854,96.346492 C133.086208,95.9425112 137.136984,95.2119939 137.589628,95.0087633 C138.210531,94.7299398 138.086351,95.9691532 137.837989,97.0224859 C137.589626,98.0758185 137.403356,103.125613 137.682763,103.7762 C137.962171,104.426786 137.837989,105.480119 137.837989,105.480119 L137.465447,111.149522 L137.713808,112.357763 C137.713808,112.357763 136.875588,113.03933 137.217085,113.442067 C137.558581,113.844803 137.248134,115.57971 137.248134,115.57971 C138.241581,115.207947 144.978387,115.084026 144.978387,115.084026 C144.978387,115.084026 144.698981,112.605598 144.947337,112.016971 C145.195693,111.428344 145.009428,107.927566 145.009428,107.927566 C145.009428,107.927566 145.164653,105.263257 144.885248,104.64365 C144.605842,104.024043 144.978382,100.058561 144.978382,100.058561 C144.978382,100.058561 145.226744,97.7040554 145.288835,92.9021027 C145.350926,88.10015 142.556858,87.9452475 142.556858,87.9452475 C142.556858,87.9452475 142.184316,87.9161221 141.618674,87.8615986 C140.512229,87.7556486 138.668137,87.5530346 137.436266,87.2859853 C137.183812,87.233934 136.934446,87.1679477 136.689317,87.0883304 C135.168103,86.5715768 130.045647,86.5511317 129.207425,86.9228963 C128.670789,87.1378791 128.07183,87.1385448 127.534715,86.9247554 L127.530989,86.9228963 L126.879039,85.8695652 L120.651993,86.3993277 L119.991979,86.4557102 L113.86179,86.9774213 L113.440201,87.0133556 L112.318841,87.1087755 Z" id="Path" fill="#565387" fill-rule="nonzero"></path>
                    <path d="M137.551256,91.8763305 C139.417564,92.7527668 141.198655,89.6457276 142.028986,87.8922285 C140.887296,87.7866881 138.984462,87.5848575 137.71335,87.3188406 C136.877257,88.670535 135.761835,91.0363023 137.551256,91.8763305 Z" id="Path" fill="#000000" fill-rule="nonzero" opacity="0.1"></path>
                    <path d="M131.884282,70.4595826 C131.921952,70.6748513 131.995809,70.881987 132.102642,71.0719854 C132.762663,72.4401931 134.69882,75.2498661 134.69882,75.2498661 C135.274718,75.6146384 135.761209,76.1071075 136.121554,76.6900819 C136.647346,77.5980427 136.801992,79.7270578 136.801992,79.7270578 C136.801992,79.7270578 137.977297,84.4547226 138.534015,85.1122134 C138.812376,85.4409572 138.688659,85.6369532 138.495658,85.7502915 C138.100198,85.9727654 137.764952,86.2904085 137.519537,86.6751584 C136.708581,87.9951484 135.413897,90.6132093 137.234993,91.5117808 C139.709313,92.7328335 142.028986,86.3332661 142.028986,86.3332661 C142.028986,86.3332661 141.565052,81.7934542 141.441336,81.0107292 C141.31762,80.2280042 140.575324,77.0031722 140.575324,77.0031722 C140.575324,77.0031722 140.049531,75.6255735 139.740241,74.6549909 C139.430951,73.6844083 138.503082,72.5572844 138.503082,72.5572844 C138.503082,72.5572844 136.832922,69.1759112 136.368988,68.6749742 C136.153723,68.4426595 135.851855,68.1496081 135.59019,67.9022663 C135.287712,67.6161007 135.03904,67.3913043 135.03904,67.3913043 C135.03904,67.3913043 131.853349,69.7081645 131.884282,70.4595826 Z" id="Path" fill="#EE8E9E" fill-rule="nonzero"></path>
                    <path d="M110.869565,119.187451 L116.585069,121.703906 C116.585069,121.703906 123.996382,121.859244 125.283939,121.517503 C126.571497,121.175763 126.288863,119.746662 124.593055,119.467056 C122.897247,119.187449 122.488995,118.441833 121.923727,118.100092 C121.542479,117.869571 120.188348,116.379581 119.34798,115.435133 C118.943502,114.980306 118.657724,114.651614 118.657724,114.651614 C118.657724,114.651614 117.558588,111.76235 114.512415,112.414764 C113.956484,112.533597 113.443942,112.800443 113.030153,113.186475 C111.388986,114.689515 111.246412,117.665149 111.246412,117.665149 L110.869565,119.187451 Z" id="Path" fill="#434175" fill-rule="nonzero"></path>
                    <path d="M113.043478,87.6476668 C113.247971,87.7709163 113.493484,87.9176974 113.773806,88.0861549 C117.679664,90.4315595 128.334387,96.7896122 128.917408,96.738828 C129.070308,96.7258203 129.52964,96.6570746 130.163632,96.5542642 C130.331448,96.5270099 130.511702,96.4979068 130.701895,96.4657003 C130.709354,96.4539314 130.716192,96.4421626 130.723031,96.4303937 C131.036004,95.8857334 131.275305,95.3022192 131.434711,94.6950301 C132.087344,92.2177073 128.85525,90.3287476 128.85525,90.3287476 L128.17154,89.7992211 C127.394593,88.4955258 121.800586,87.2630601 121.800586,87.2630601 L121.079581,86.7805983 L120.694834,86.5229591 L120.593528,86.4554506 L119.718372,85.8695652 L115.336398,86.1792306 L114.034864,87.0128477 L113.897494,87.1007952 L113.414551,87.4104606 L113.043478,87.6476668 Z" id="Path" fill="#000000" fill-rule="nonzero" opacity="0.1"></path>
                    <path d="M113.043478,113.217642 C114.215482,117.478717 119.111663,116.08711 119.111663,116.08711 L119.202899,115.547073 C118.808562,115.075909 118.52995,114.73541 118.52995,114.73541 C118.52995,114.73541 117.458372,111.74236 114.488575,112.418209 C113.946584,112.541312 113.446892,112.817743 113.043478,113.217642 Z" id="Path" fill="#000000" fill-rule="nonzero" opacity="0.1"></path>
                    <path d="M111.842516,94.4950504 C113.67836,94.4950504 118.407993,96.7059156 118.407993,96.7059156 C119.372588,97.4532496 120.679455,97.2041388 120.679455,97.2041388 C120.679455,97.2041388 118.376872,99.5395625 118.439103,100.504866 C118.501334,101.470169 117.132231,103.058259 117.132231,103.058259 L112.900456,111.434633 C113.211616,117.382172 119.310352,115.731806 119.310352,115.731806 L119.559279,114.330555 C119.932672,114.143721 120.492759,112.275386 120.492759,112.275386 C120.492759,112.275386 120.492759,111.52805 120.866152,111.310078 C121.239544,111.092105 122.017443,108.850102 122.017443,108.850102 C122.017443,108.850102 123.697708,106.016458 123.60436,105.642792 C123.511012,105.269125 124.817884,103.369654 124.817884,103.369654 C124.817884,103.369654 127.027119,101.189929 126.933772,100.800693 C126.840426,100.411457 128.707396,98.4185576 128.707396,98.4185576 C129.383611,97.8946562 129.945842,97.23813 130.359659,96.4891859 C130.673016,95.9414937 130.912611,95.3547315 131.072211,94.7441628 C131.598692,92.7381899 129.602293,91.1152292 128.805106,90.5603349 C128.612181,90.4258121 128.489586,90.3535725 128.489586,90.3535725 L127.805033,89.8210965 C127.451559,89.2244735 126.099875,88.6434189 124.731395,88.1869212 C123.744396,87.8574736 122.748061,87.5927927 122.111429,87.4339845 C121.690116,87.3293576 121.426253,87.2708163 121.426253,87.2708163 L120.704364,86.7856701 L120.450461,86.6150291 L120.217713,86.4587108 L119.341482,85.8695652 L117.389264,86.0078189 L114.954117,86.1809499 L113.650982,87.0192063 L113.029908,87.4190343 L110.597876,88.9834583 C110.597876,88.9834583 110.533776,89.5825712 110.513242,90.3865764 C110.511997,90.4488549 110.510752,90.5117563 110.509507,90.5765231 C110.483987,92.2044682 110.658862,94.4950504 111.842516,94.4950504 Z" id="Path" fill="#565387" fill-rule="nonzero"></path>
                    <path d="M121.014493,59.533592 L121.659754,61.8584353 C121.659754,61.8584353 122.796642,65.8571596 122.919549,66.1361408 C123.042455,66.4151219 126.022946,69.2359282 126.145852,69.297923 C126.268759,69.3599178 127.891739,70.2898551 127.891739,70.2898551 C127.891739,70.2898551 128.020182,65.1752076 127.897271,63.6873094 C127.886626,63.360433 127.913434,63.0334099 127.977163,62.7127385 C128.173195,61.5465966 128.669128,59.8367548 129.080247,58.5199662 C129.424385,57.4164392 129.710145,56.5887978 129.710145,56.5887978 C129.710145,56.5887978 122.520095,56.2788192 122.76591,56.9917701 C122.858705,57.2614507 122.828601,57.7121599 122.738867,58.1641124 C122.590762,58.9074437 122.281035,59.6532506 122.089916,59.5955961 C121.902975,59.5529693 121.711898,59.5315484 121.520241,59.5317319 C121.254771,59.5236714 121.014493,59.533592 121.014493,59.533592 Z" id="Path" fill="#EE8E9E" fill-rule="nonzero"></path>
                    <path d="M122.826087,58.1698184 C124.607298,59.693903 127.15302,59.839074 129.088127,58.5269143 C129.42796,57.4195502 129.710145,56.5890309 129.710145,56.5890309 C129.710145,56.5890309 122.610046,56.2779745 122.852786,56.9934044 C122.944412,57.2640258 122.914677,57.7162992 122.826087,58.1698184 Z" id="Path" fill="#000000" fill-rule="nonzero" opacity="0.1"></path>
                    <path d="M131.884058,53.9859014 C131.884351,54.5623548 131.792603,55.1351582 131.612269,55.6826741 C131.566892,55.8239913 131.514461,55.9629449 131.455172,56.0990118 C130.589239,58.1499557 128.560301,59.4655008 126.334667,59.4191012 C124.109033,59.3727016 122.136679,57.9737383 121.356965,55.8884863 C121.141139,55.3117746 121.026348,54.7021683 121.017635,54.0864509 C121.014493,54.0534581 121.014493,54.0188942 121.014493,53.9859014 C121.014493,50.9841362 123.447728,48.5507246 126.449275,48.5507246 C129.450823,48.5507246 131.884058,50.9841362 131.884058,53.9859014 L131.884058,53.9859014 Z" id="Path" fill="#EE8E9E" fill-rule="nonzero"></path>
                    <path d="M121.014493,59.4253559 L121.652469,61.7735932 C121.652469,61.7735932 122.776521,65.812555 122.898039,66.0943435 C123.019558,66.376132 125.966398,69.2253229 126.087916,69.2879415 C126.209435,69.3505602 127.814091,70.2898551 127.814091,70.2898551 C127.814091,70.2898551 127.941084,65.1237409 127.81956,63.6208706 C127.809036,63.2907049 127.835541,62.9603911 127.898551,62.6364929 L127.485382,64.3723049 L127.515766,67.8476899 L127.758803,68.0355488 L127.211968,68.8809127 L127.211968,68.2547171 C127.211968,68.2547171 125.267661,66.3135102 124.963865,65.4994557 C124.660069,64.6854011 123.566395,63.2113413 123.566395,63.2113413 C123.566395,63.2113413 122.320823,61.0534697 122.290444,60.6777517 C122.266744,60.3846933 121.743609,59.707149 121.514543,59.4234802 C121.252058,59.4153354 121.014493,59.4253559 121.014493,59.4253559 Z" id="Path" fill="#000000" fill-rule="nonzero" opacity="0.1"></path>
                    <path d="M131.884277,70.7739759 C131.921104,70.9858816 131.993308,71.1897814 132.09775,71.3768116 C132.758724,71.3077749 135.011365,70.8793773 135.507246,68.2566028 C135.211537,67.9749077 134.968431,67.7536232 134.968431,67.7536232 C134.968431,67.7536232 131.854036,70.0342967 131.884277,70.7739759 Z" id="Path" fill="#000000" fill-rule="nonzero" opacity="0.1"></path>
                    <path d="M110.507246,90.5797101 C111.139636,90.1347492 111.74133,89.5277532 112.100463,89.3594883 C112.633208,89.1102074 113.447995,88.3000473 113.447995,88.3000473 C113.447995,88.3000473 113.654828,88.1604519 113.971964,87.9753599 C114.553598,87.6363386 115.506896,87.1452562 116.237072,87.084807 C116.891406,87.0305891 119.065009,86.8922372 120.774809,86.7862929 C122.01203,86.7090166 123.006069,86.6485674 123.006069,86.6485674 C123.006069,86.6485674 125.043036,85.9318874 125.920499,86.3992881 C126.548931,86.7123199 127.211341,86.9527791 127.89479,87.1159681 C127.89479,87.1159681 127.895417,87.0480379 127.898551,86.9308746 L127.89479,86.9290047 L127.236692,85.8695652 L120.284685,86.4591093 L119.402203,85.8695652 L114.983553,86.1811652 L113.671123,87.0199886 L112.539192,87.115965 C112.539192,87.115965 112.720327,87.2250241 113.045619,87.4200871 L110.596241,88.9855678 C110.596241,88.9855678 110.521034,89.6816825 110.507246,90.5797101 Z" id="Path" fill="#000000" fill-rule="nonzero" opacity="0.1"></path>
                    <path d="M109.456738,90.9202553 C109.784334,90.8220547 110.091355,90.6641842 110.362629,90.4544455 L110.362629,90.453821 C110.985734,90.008618 111.577915,89.4023191 111.931846,89.2343522 C112.457806,88.9845876 113.262216,88.1728569 113.262216,88.1728569 C113.262216,88.1728569 114.901975,87.0489246 116.015773,86.9552584 C116.319587,86.9296542 116.954453,86.8853245 117.71741,86.8353681 C118.498306,86.7829201 119.412241,86.7242255 120.243262,86.6723988 C120.722195,86.6417986 121.173277,86.6130719 121.554446,86.5893552 C122.237578,86.5468896 122.698564,86.5181629 122.698564,86.5181629 C122.698564,86.5181629 124.709589,85.8000921 125.575877,86.2683998 C126.196305,86.5820391 126.85028,86.8229649 127.525024,86.9864706 C127.525024,86.9864706 127.555967,84.8010383 127.803474,83.8956445 C128.050981,82.9902506 128.391311,81.335566 128.391311,81.335566 C128.391311,81.335566 128.669761,79.0564769 128.948211,78.0261953 C129.226661,76.9959137 130.309519,71.2513538 130.866419,70.8767077 C131.423319,70.5020615 131.732706,71.1576923 131.732706,71.1576923 C131.732706,71.1576923 135.445368,71.0952429 135.507246,66.9741492 C135.507246,66.9741492 133.774671,65.2258031 133.650915,64.788717 C133.527158,64.3516308 131.887407,62.7281693 131.887407,62.7281693 C131.887407,62.7281693 130.959242,60.9798216 129.907321,60.9486017 C129.410267,60.9197499 128.911661,60.935214 128.417301,60.9948142 L127.52503,64.6638448 L127.555973,68.1293155 L127.803485,68.3166386 L127.246585,69.1595909 L127.246585,68.5351754 C127.246585,68.5351754 125.266498,66.5995062 124.957111,65.7877755 C124.647725,64.9760447 123.533925,63.5061884 123.533925,63.5061884 C123.533925,63.5061884 122.265433,61.3544725 122.234494,60.9798263 C122.203556,60.6051802 121.337268,59.6011304 121.337268,59.6011304 C121.162546,59.5804564 120.986029,59.5804564 120.811308,59.6011304 C120.733177,59.6065817 120.654778,59.5955214 120.581124,59.5686567 C120.081626,59.4075867 119.549789,59.3770781 119.03542,59.479988 C117.965553,59.7041531 116.338167,60.1143907 115.892031,60.6051692 C115.211376,61.35446 114.221332,62.0725308 113.107534,65.1945722 L119.109671,67.3800045 L118.596082,68.365321 L113.819127,77.5266567 C113.819127,77.5266567 113.660717,77.7870346 113.446004,78.1273383 L113.446004,78.1279628 C113.167554,78.5694204 112.79505,79.1451238 112.550635,79.4623243 C112.117492,80.0242936 112.241247,81.8038628 112.241247,81.8038628 C112.241247,81.8038628 112.14843,82.6468151 111.839042,82.9590197 C111.529654,83.2712243 111.59153,84.4263812 111.59153,84.4263812 L110.787109,87.4547845 C110.787109,87.4547845 110.044576,88.1416338 110.044576,88.4538384 C110.044576,88.766043 109.456738,89.6402199 109.456738,89.6402199 C109.456738,89.6402199 108.559513,91.1387968 109.456738,90.9202553 Z" id="Path" fill="#434175" fill-rule="nonzero"></path>
                    <path d="M141.304348,93.115942 C141.304348,93.115942 139.355763,93.7756749 138.829955,94.7181488 C138.304147,95.6606227 141.304348,93.115942 141.304348,93.115942 Z" id="Path" fill="#000000" fill-rule="nonzero" opacity="0.1"></path>
                    <path d="M140.217391,90.942029 C140.154953,91.0307997 137.523549,93.5334602 137.688611,94.1377706 C137.853672,94.7420809 140.217391,90.942029 140.217391,90.942029 Z" id="Path" fill="#000000" fill-rule="nonzero" opacity="0.1"></path>
                    <path d="M126.086957,92.7536232 C126.086957,92.7536232 123.094049,94.200926 122.839336,94.832187 C122.584623,95.4634481 126.086957,92.7536232 126.086957,92.7536232 Z" id="Path" fill="#000000" fill-rule="nonzero" opacity="0.1"></path>
                    <path d="M125.724638,94.5652174 C125.724638,94.5652174 123.197125,95.6991354 122.851991,95.9826211 C122.506857,96.2661069 125.724638,94.5652174 125.724638,94.5652174 Z" id="Path" fill="#000000" fill-rule="nonzero" opacity="0.1"></path>
                    <path d="M124.637681,96.9421856 C124.637681,96.9421856 123.5354,97.9540833 122.927667,97.1590195 C122.319933,96.3639557 124.637681,96.9421856 124.637681,96.9421856 Z" id="Path" fill="#000000" fill-rule="nonzero" opacity="0.1"></path>
                    <path d="M128.985507,74.2753623 C128.923069,74.3682281 125.052437,81.3332662 124.030585,81.8595132 C123.008734,82.3857602 128.985507,74.2753623 128.985507,74.2753623 Z" id="Path" fill="#000000" fill-rule="nonzero" opacity="0.1"></path>
                    <path d="M128.623188,76.8115942 C128.623188,76.9664754 124.93219,85.051236 124.327108,85.1441644 C123.722027,85.2370928 128.623188,76.8115942 128.623188,76.8115942 Z" id="Path" fill="#000000" fill-rule="nonzero" opacity="0.1"></path>
                    <path d="M114.130435,82.2463768 C114.130435,82.2463768 112.378748,86.009342 111.692672,86.223919 C111.006597,86.4384959 114.130435,82.2463768 114.130435,82.2463768 Z" id="Path" fill="#000000" fill-rule="nonzero" opacity="0.1"></path>
                    <path d="M114.130435,80.4347826 C114.130435,80.4347826 113.495985,81.884058 113.110428,81.884058 C112.72487,81.884058 114.130435,80.4347826 114.130435,80.4347826 Z" id="Path" fill="#000000" fill-rule="nonzero" opacity="0.1"></path>
                    <path d="M131.884058,54.0293988 C131.884361,54.6104655 131.792613,55.187853 131.612279,55.7397506 C131.566902,55.8821988 131.514471,56.0222645 131.455182,56.1594203 C131.176109,56.1167862 130.913216,56.0004001 130.693245,55.8221009 C130.460032,55.6627765 130.265181,55.4528172 130.123001,55.2076412 C130.015818,54.9464074 129.92299,54.6794204 129.844939,54.4078933 C129.589702,53.7838009 129.019152,53.3480382 128.354087,53.2692424 C128.534733,53.5796396 128.247251,54.0056439 127.893783,54.061072 C127.540314,54.1149164 127.196262,53.9027061 126.952771,53.638235 C126.709279,53.3737639 126.533321,53.0522812 126.291379,52.7878101 C126.047889,52.523339 125.703836,52.3111287 125.350367,52.3649731 C125.037744,52.4124829 124.795814,52.6531991 124.533469,52.8321525 C124.272702,53.011106 123.906652,53.1314641 123.653725,52.9398414 C123.512338,52.8337362 123.443215,52.6531991 123.3081,52.5375919 C122.960916,52.244615 122.420517,52.5470939 122.164433,52.9255884 C121.770119,53.5115423 121.529773,53.8662819 121.017635,54.130753 C121.014493,54.0974962 121.014493,54.0626557 121.014493,54.0293988 C121.014493,51.0036106 123.447728,48.5507246 126.449275,48.5507246 C129.450822,48.5507246 131.884058,51.0036106 131.884058,54.0293988 L131.884058,54.0293988 Z" id="Path" fill="#000000" fill-rule="nonzero" opacity="0.1"></path>
                    <path d="M122.258635,52.6022722 C122.508804,52.2286617 123.037349,51.9299502 123.378079,52.220375 C123.510327,52.3330975 123.577814,52.5113466 123.715681,52.6168899 C123.962778,52.8060546 124.321495,52.6873635 124.577075,52.5102157 C124.832654,52.3330678 125.070058,52.0967135 125.375929,52.0494286 C125.721925,51.9959376 126.059096,52.2054605 126.296701,52.4665406 C126.534307,52.7276207 126.706535,53.0443631 126.944207,53.3053744 C127.181878,53.5663858 127.519209,53.775726 127.865164,53.7219351 C128.211119,53.6681442 128.493151,53.2475519 128.315326,52.9412941 C128.966011,53.0192068 129.524178,53.4489462 129.773989,54.0643373 C129.850481,54.3321157 129.941408,54.5954177 130.046359,54.853051 C130.185642,55.0948542 130.376598,55.3017877 130.60513,55.4585749 C130.887259,55.6686883 131.229158,55.845872 131.573784,55.7849363 C131.918411,55.7240006 132.210115,55.3227902 132.049957,55.0068211 C132.160084,55.1767616 132.396518,54.9400433 132.432279,54.7398458 C132.510233,54.3007677 132.485889,53.8492423 132.361195,53.4214428 C132.191294,52.8408181 131.834886,52.2650185 131.97223,51.6755682 C132.080969,51.2088875 132.473497,50.8737926 132.711777,50.459803 C133.134188,49.7259049 133.022085,48.7372827 132.508406,48.0661541 C131.966753,47.3990761 131.145294,47.0332566 130.295415,47.0806451 C130.064415,47.1074866 129.831422,47.111897 129.599598,47.0938163 C129.213605,47.0355798 128.887179,46.7831394 128.579574,46.5391794 L126.004336,44.4967661 C125.717859,44.2401779 125.38809,44.0383159 125.030935,43.900916 C124.667014,43.7862425 124.230751,43.8258062 123.961338,44.0995593 C123.479197,44.5894802 123.785675,45.4325815 123.592099,46.0968886 C123.424438,46.6722633 122.884722,47.0621847 122.325958,47.2565354 C121.767194,47.4508861 121.169305,47.4935474 120.595161,47.63424 C120.42397,47.6629196 120.263784,47.738702 120.131996,47.8533587 C119.983053,48.0400348 119.910943,48.2780054 119.930759,48.5174689 C119.927071,49.1051534 120.064276,49.6849126 120.33052,50.2066535 C120.628748,50.7893651 121.101409,51.3882987 120.934118,52.0227065 C120.845579,52.3584668 120.590974,52.6171445 120.366496,52.8794649 C119.879839,53.448143 119.715585,54.2884373 120.631314,53.9949024 C121.513397,53.7121457 121.760832,53.3457066 122.258635,52.6022722 Z" id="Path" fill="#434175" fill-rule="nonzero"></path>
                    <g id="Group" opacity="0.1" transform="translate(119.565217, 48.188406)" fill="#000000" fill-rule="nonzero">
                        <path d="M12.7615005,5.9096087 C12.7252331,6.10862733 12.485511,6.34393478 12.3738531,6.17500776 C12.536241,6.48910093 12.240481,6.88793323 11.8910621,6.94850466 C11.5416431,7.00907609 11.1950003,6.83294565 10.908944,6.62407919 C10.6772323,6.4682257 10.483622,6.26251781 10.3424088,6.02214441 C10.2359982,5.76603918 10.1438059,5.5042988 10.0662494,5.2381087 C9.81296173,4.62636375 9.24703195,4.19917205 8.58729845,4.1217236 C8.7676111,4.42615994 8.48165142,4.84426087 8.13087782,4.89773292 C7.78010423,4.95120497 7.43810676,4.74310714 7.19713132,4.4836413 C6.95615588,4.22417547 6.78152979,3.90931366 6.54062917,3.64978106 C6.29972856,3.39024845 5.95786202,3.18197205 5.6070557,3.2351413 C5.29692973,3.28214907 5.05623799,3.51709627 4.79709614,3.69319876 C4.53795429,3.86930124 4.17427528,3.98728571 3.92372717,3.79924224 C3.78394367,3.69432609 3.71551643,3.51712578 3.58144131,3.40507298 C3.23598016,3.11636801 2.70008809,3.41331832 2.44643015,3.78470342 C1.94171903,4.52374068 1.69084825,4.888 0.796471141,5.16908385 C0.502879508,5.26135559 0.319330763,5.24048602 0.220441186,5.15152174 C0.0241865521,5.6005 0.113558013,5.99590994 0.796471141,5.78128261 C1.69084825,5.50019876 1.94171903,5.13593012 2.44643015,4.39690373 C2.7000803,4.02550776 3.23598016,3.72856832 3.58144131,4.01727174 C3.71551643,4.12932453 3.78394367,4.30651553 3.92372717,4.41143168 C4.17427528,4.59947516 4.53796676,4.48149068 4.79709614,4.30539752 C5.05622552,4.12930435 5.29693596,3.89434006 5.6070557,3.84734006 C5.95786514,3.79416149 6.29973167,4.00244876 6.54062917,4.26198137 C6.78152667,4.52151398 6.95615432,4.83637578 7.19713132,5.09584161 C7.43810832,5.35530745 7.78012761,5.56340373 8.13087782,5.50993168 C8.48162803,5.45645963 8.76760798,5.03836025 8.58729845,4.7339146 C9.24703311,4.81136608 9.81296259,5.23856054 10.0662494,5.85030745 C10.1438088,6.11649713 10.2360011,6.37823786 10.3424088,6.63434472 C10.4836244,6.8747163 10.6772342,7.0804237 10.908944,7.2362795 C11.1950003,7.44514441 11.5416665,7.62127484 11.8910621,7.56070342 C12.2404577,7.50013199 12.536241,7.10130124 12.3738531,6.7871972 C12.485511,6.9561413 12.7252331,6.72081677 12.7615005,6.52180745 C12.8099787,6.25379722 12.8194507,5.98022848 12.7896246,5.70952795 C12.7823948,5.77650932 12.7735641,5.84331366 12.7615005,5.9096087 Z" id="Path"></path>
                        <path d="M1.0955155,3.23215528 C1.09789425,3.22416615 1.10133923,3.21665994 1.10350754,3.20857453 C1.27312829,2.57793168 0.793877275,1.98254503 0.491517315,1.40329503 C0.279431402,0.994810872 0.147905896,0.549620095 0.104058603,0.0918152174 C0.0923500659,0.172797054 0.0863795982,0.25449956 0.0861914813,0.33631677 C0.0824520391,0.920516917 0.22156637,1.49683865 0.491514198,2.01548447 C0.698201972,2.41145963 0.987301104,2.81499379 1.0955155,3.23215528 Z" id="Path"></path>
                        <path d="M13.0448725,1.65493634 C12.8032876,2.06647826 12.4052913,2.39958385 12.2950364,2.86349845 C12.252366,3.05976525 12.2542513,3.26304891 12.3005546,3.45849689 C12.4165911,3.0037764 12.8063694,2.67340373 13.0448725,2.26713665 C13.2699009,1.86921707 13.3544246,1.40760415 13.2849173,0.956169255 C13.251022,1.20236412 13.169501,1.43967048 13.0448725,1.65493634 Z" id="Path"></path>
                    </g>
                    <path d="M113.405797,77.8843172 L113.405797,77.8849421 C113.447267,78.0573527 113.479111,78.2319471 113.50118,78.407912 C113.50118,78.407912 115.963641,84.187461 116.275345,84.5311125 C116.371352,84.6367067 116.732932,85.1565552 117.187391,85.8257299 C117.351972,86.0675337 117.528394,86.3293326 117.709183,86.5980024 C118.651775,88.0000902 119.704089,89.5921259 119.704089,89.5921259 L122.010697,91.6227793 C122.010697,91.6227793 127.028507,92.0251606 128.623188,90.3931406 C128.429926,90.2581777 128.307117,90.1857017 128.307117,90.1857017 L127.621368,89.6514836 C127.267276,89.0529086 125.913229,88.4699529 124.542356,88.0119617 C123.27933,88.0213352 122.246347,88.1238064 122.246347,88.1238064 L121.917811,87.2565616 L121.574936,86.351829 L119.831266,81.7506863 C119.831266,81.7506863 118.706642,75.9398922 118.332591,75.658726 C117.958539,75.3775599 118.052057,74.5028162 118.052057,74.5028162 C118.052057,74.5028162 118.737806,72.0347918 118.488444,71.6911434 C118.239081,71.3474949 118.893659,68.8169883 118.893659,68.8169883 C118.828539,68.5699365 118.727726,68.333756 118.594418,68.115942 L113.781713,77.2832488 C113.781713,77.2832488 113.622119,77.5437948 113.405797,77.8843172 Z" id="Path" fill="#000000" fill-rule="nonzero" opacity="0.1"></path>
                    <path d="M119.144982,68.9423938 C119.144982,68.9423938 118.489371,71.4590106 118.739127,71.8007746 C118.988883,72.1425385 118.302061,74.5970176 118.302061,74.5970176 C118.302061,74.5970176 118.208402,75.4669603 118.583038,75.7465833 C118.957674,76.0262064 120.084003,81.8051072 120.084003,81.8051072 L122.502833,88.1432572 C122.502833,88.1432572 130.071858,87.3975916 129.291362,89.7588624 C128.510866,92.1201333 122.266948,91.6230249 122.266948,91.6230249 L119.956697,89.6035165 C119.956697,89.6035165 116.834736,84.9120437 116.522544,84.5702797 C116.210353,84.2285158 113.743997,78.480687 113.743997,78.480687 C113.743997,78.480687 113.619119,77.3311212 113.088385,76.7408016 C112.557652,76.1504819 112.963507,75.1520252 112.963507,75.1520252 C112.963507,75.1520252 112.307894,67.6374805 112.994731,66.736469 C113.681568,65.8354574 118.426931,66.2393606 119.144982,68.9423938 Z" id="Path" fill="#EE8E9E" fill-rule="nonzero"></path>
                    <path d="M115.334825,64.192292 L113.334751,65.3625343 C113.334751,65.3625343 112.763303,67.2410759 112.318841,67.4874412 C112.318841,67.4874412 116.318989,65.331739 119.334973,70.2898551 C119.334973,70.2898551 119.239732,69.6431433 119.652445,69.3351859 C120.065159,69.0272284 119.969917,67.7030113 119.969917,67.7030113 C120.079732,67.4937778 120.175181,67.2777376 120.255642,67.0563011 C120.541366,66.378791 119.049248,62.4985268 115.334825,64.192292 Z" id="Path" fill="#000000" fill-rule="nonzero" opacity="0.1"></path>
                    <path d="M114.972508,64.1922925 L112.972432,65.3625347 C112.972432,65.3625347 112.400982,67.2410746 111.956522,67.4874414 C111.956522,67.4874414 115.956672,65.3317379 118.972652,70.2898551 C118.972652,70.2898551 118.87741,69.6431434 119.290124,69.335186 C119.702838,69.0272286 119.607596,67.7030115 119.607596,67.7030115 C119.717411,67.4937775 119.812861,67.2777368 119.893322,67.0562998 C120.179054,66.3787913 118.686933,62.4985259 114.972508,64.1922925 Z" id="Path" fill="#434175" fill-rule="nonzero"></path>
                    <ellipse id="Oval" fill="#FBD56F" fill-rule="nonzero" cx="97.826087" cy="112.318841" rx="5.79710145" ry="6.15942029"></ellipse>
                    <ellipse id="Oval" fill="#000000" fill-rule="nonzero" opacity="0.1" cx="97.826087" cy="112.318841" rx="5.79710145" ry="6.15942029"></ellipse>
                    <ellipse id="Oval" fill="#FBD56F" fill-rule="nonzero" cx="98.5507246" cy="112.5" rx="5.79710145" ry="5.97826087"></ellipse>
                    <ellipse id="Oval" fill="#38D39F" fill-rule="nonzero" cx="14.1304348" cy="114.311594" rx="7.24637681" ry="1.26811594"></ellipse>
                    <path d="M17.0566761,112.307795 C17.3597467,112.02708 17.6440519,111.695922 17.7313771,111.292816 C17.8187024,110.889711 17.646348,110.406329 17.2599157,110.259036 C16.8269145,110.093981 16.3642134,110.393169 16.0134081,110.695263 C15.6626029,110.997357 15.2605495,111.3422 14.8014306,111.278229 C15.28183,110.844227 15.4984578,110.190735 15.3720502,109.556864 C15.3518908,109.428168 15.2970395,109.307346 15.213355,109.207305 C14.9729916,108.951157 14.5372549,109.061159 14.2494484,109.262952 C13.3341841,109.904685 13.0787961,111.143961 13.0738164,112.259383 C12.9815145,111.857043 13.0592571,111.437783 13.0569793,111.02506 C13.0547015,110.612337 12.9412358,110.154824 12.5919607,109.933157 C12.3743878,109.816382 12.129698,109.759053 11.8827189,109.766987 C11.4712935,109.751902 11.0130671,109.793016 10.732094,110.092969 C10.3829852,110.465664 10.4735281,111.090981 10.7772426,111.50128 C11.080957,111.911578 11.5429335,112.168661 11.9681661,112.452068 C12.3092752,112.654585 12.6001816,112.931167 12.8192416,113.261235 C12.8449907,113.307237 12.8661241,113.355659 12.8823349,113.405797 L15.4616074,113.405797 C16.0405987,113.113273 16.577167,112.743914 17.0566761,112.307795 Z" id="Path" fill="#38D39F" fill-rule="nonzero"></path>
                    <path d="M79.2464423,106.52067 C79.5683817,106.959187 79.8316649,107.43747 80.0296765,107.943502 C80.0820127,108.074334 80.1332365,108.2118 80.1817013,108.356018 C80.9602353,110.670724 79.7266254,113.446451 79.3739489,113.147046 C79.0212724,112.847641 77.9222576,112.292111 77.7097534,113.072761 C77.4972492,113.853411 76.7122531,114.651314 76.7122531,114.651314 C75.2820717,116.082348 73.9875167,114.536192 73.1377725,112.938672 C72.8601365,112.411585 72.6132933,111.869004 72.3984728,111.313635 C72.2098108,110.823022 72.1014493,110.483948 72.1014493,110.483948 L78.0583747,105.434783 C78.0583747,105.434783 78.6342535,105.697802 79.2464423,106.52067 Z" id="Path" fill="#38D39F" fill-rule="nonzero"></path>
                    <path d="M69.8261509,109.781534 C70.1480904,110.220052 70.4113743,110.698335 70.6093871,111.204367 C70.6617218,111.335201 70.7129457,111.472665 70.7614121,111.616883 C71.539945,113.931591 70.3063343,116.707319 69.9536623,116.407914 C69.6009902,116.108509 68.50197,115.552978 68.2894656,116.333629 C68.0769613,117.11428 67.2919662,117.912183 67.2919662,117.912183 C65.8617824,119.343218 64.5672265,117.797061 63.7174818,116.199542 C63.4398467,115.672456 63.1930034,115.129877 62.9781816,114.57451 C62.7895194,114.083895 62.6811594,113.74482 62.6811594,113.74482 L68.6380872,108.695652 C68.6380872,108.695652 69.2139617,108.958656 69.8261509,109.781534 Z" id="Path" fill="#38D39F" fill-rule="nonzero"></path>
                    <path d="M51.0792429,114.276964 C51.0456273,114.820845 50.9410118,115.358077 50.7680252,115.875163 C50.7241811,116.009582 50.6752016,116.148414 50.6197406,116.290717 C49.7300599,118.574941 46.9869075,119.933412 46.9070813,119.477421 C46.827255,119.02143 46.3352437,117.892086 45.6677402,118.35979 C45.0002366,118.827493 43.8787951,118.943803 43.8787951,118.943803 C41.8502569,119.138205 41.8454565,117.118957 42.217834,115.343425 C42.3428026,114.759345 42.5015741,114.182915 42.6933576,113.617005 C42.8636377,113.117796 42.9983615,112.786799 42.9983615,112.786799 L50.8601804,112.681159 C50.8601804,112.681159 51.1360796,113.251237 51.0792429,114.276964 Z" id="Path" fill="#38D39F" fill-rule="nonzero"></path>
                    <path d="M40.9343157,111.740734 C40.9006995,112.284614 40.7960842,112.821846 40.6230983,113.338931 C40.5792574,113.473351 40.5302826,113.612182 40.4748123,113.754485 C39.5851341,116.03871 36.8419753,117.397181 36.7621507,116.941189 C36.682326,116.485198 36.1903137,115.355853 35.5228093,115.823558 C34.8553049,116.291263 33.7338661,116.407571 33.7338661,116.407571 C31.7053301,116.601973 31.7005297,114.582725 32.0729052,112.807193 C32.1978744,112.223114 32.3566458,111.646683 32.5484283,111.080773 C32.7187099,110.581564 32.8534303,110.250567 32.8534303,110.250567 L40.7152394,110.144928 C40.7152394,110.144928 40.9911524,110.714997 40.9343157,111.740734 Z" id="Path" fill="#38D39F" fill-rule="nonzero"></path>
                    <path d="M79.2464423,106.52067 C79.5683817,106.959187 79.8316649,107.43747 80.0296765,107.943502 C80.0820127,108.074334 80.1332365,108.2118 80.1817013,108.356018 C80.9602353,110.670724 79.7266254,113.446451 79.3739489,113.147046 C79.0212724,112.847641 77.9222576,112.292111 77.7097534,113.072761 C77.4972492,113.853411 76.7122531,114.651314 76.7122531,114.651314 C75.2820717,116.082348 73.9875167,114.536192 73.1377725,112.938672 C72.8601365,112.411585 72.6132933,111.869004 72.3984728,111.313635 C72.2098108,110.823022 72.1014493,110.483948 72.1014493,110.483948 L78.0583747,105.434783 C78.0583747,105.434783 78.6342535,105.697802 79.2464423,106.52067 Z" id="Path" fill="#000000" fill-rule="nonzero" opacity="0.2"></path>
                    <path d="M69.8261509,109.781534 C70.1480904,110.220052 70.4113743,110.698335 70.6093871,111.204367 C70.6617218,111.335201 70.7129457,111.472665 70.7614121,111.616883 C71.539945,113.931591 70.3063343,116.707319 69.9536623,116.407914 C69.6009902,116.108509 68.50197,115.552978 68.2894656,116.333629 C68.0769613,117.11428 67.2919662,117.912183 67.2919662,117.912183 C65.8617824,119.343218 64.5672265,117.797061 63.7174818,116.199542 C63.4398467,115.672456 63.1930034,115.129877 62.9781816,114.57451 C62.7895194,114.083895 62.6811594,113.74482 62.6811594,113.74482 L68.6380872,108.695652 C68.6380872,108.695652 69.2139617,108.958656 69.8261509,109.781534 Z" id="Path" fill="#000000" fill-rule="nonzero" opacity="0.2"></path>
                    <path d="M51.0792429,114.276964 C51.0456273,114.820845 50.9410118,115.358077 50.7680252,115.875163 C50.7241811,116.009582 50.6752016,116.148414 50.6197406,116.290717 C49.7300599,118.574941 46.9869075,119.933412 46.9070813,119.477421 C46.827255,119.02143 46.3352437,117.892086 45.6677402,118.35979 C45.0002366,118.827493 43.8787951,118.943803 43.8787951,118.943803 C41.8502569,119.138205 41.8454565,117.118957 42.217834,115.343425 C42.3428026,114.759345 42.5015741,114.182915 42.6933576,113.617005 C42.8636377,113.117796 42.9983615,112.786799 42.9983615,112.786799 L50.8601804,112.681159 C50.8601804,112.681159 51.1360796,113.251237 51.0792429,114.276964 Z" id="Path" fill="#000000" fill-rule="nonzero" opacity="0.2"></path>
                    <path d="M40.9343157,111.740734 C40.9006995,112.284614 40.7960842,112.821846 40.6230983,113.338931 C40.5792574,113.473351 40.5302826,113.612182 40.4748123,113.754485 C39.5851341,116.03871 36.8419753,117.397181 36.7621507,116.941189 C36.682326,116.485198 36.1903137,115.355853 35.5228093,115.823558 C34.8553049,116.291263 33.7338661,116.407571 33.7338661,116.407571 C31.7053301,116.601973 31.7005297,114.582725 32.0729052,112.807193 C32.1978744,112.223114 32.3566458,111.646683 32.5484283,111.080773 C32.7187099,110.581564 32.8534303,110.250567 32.8534303,110.250567 L40.7152394,110.144928 C40.7152394,110.144928 40.9911524,110.714997 40.9343157,111.740734 Z" id="Path" fill="#000000" fill-rule="nonzero" opacity="0.2"></path>
                    <path d="M95.2898551,77.3550748 C95.2898551,98.2658491 88.2248211,115.217391 55.6214157,115.217391 C33.7131398,115.217391 16.7637147,109.767075 15.9529747,77.3550748 C15.4300713,56.4508453 33.7131304,39.4927536 55.6214032,39.4927536 C77.529676,39.4927536 95.2898551,56.4442896 95.2898551,77.3550748 Z" id="Path" fill="#38D39F" fill-rule="nonzero"></path>
                    <path d="M48.1860895,40.2168138 L48.190722,40.2168138 C48.1896549,40.2174327 48.1884721,40.2178259 48.1872469,40.2179688 L48.1860895,40.2168138 Z" id="Path" fill="#000000" fill-rule="nonzero" opacity="0.2"></path>
                    <path d="M48.2508622,40.2451902 C48.3640453,40.2289807 48.5878063,40.2011802 48.9130435,40.1791706 L48.1884058,40.255612 C48.1988111,40.2532947 48.2118195,40.2509784 48.227431,40.2486631 C48.2352437,40.2475018 48.2417537,40.2463421 48.2508622,40.2451902 Z" id="Path" fill="#000000" fill-rule="nonzero" opacity="0.2"></path>
                    <path d="M77.5362319,55.8442968 L74.6502488,56.884058 C73.1790659,54.909598 71.5961098,53.0210713 69.9091541,51.2277524 C68.0679296,49.2623749 66.0589916,47.4613918 63.9051595,45.84526 C56.5158836,40.3645601 50.8004811,40.22477 48.9130435,40.3657061 L53.2512564,39.8550725 C57.3513996,40.5611011 61.2943929,41.9875334 64.8979346,44.068419 C67.4189796,45.5228436 69.7670214,47.2587909 71.8970224,49.2429638 C75.6741971,52.7515926 77.5362319,55.8442968 77.5362319,55.8442968 Z" id="Path" fill="#000000" fill-rule="nonzero" opacity="0.2"></path>
                    <path d="M51.1451383,57.6086957 C51.1451383,57.6086957 47.3523604,44.8908672 50.5704749,41.4223686 C50.5704749,41.4223686 55.627512,39.6881192 59.4202899,49.5155321 L51.1451383,57.6086957 Z" id="Path" fill="#000000" fill-rule="nonzero" opacity="0.2"></path>
                    <path d="M70.6521739,45.6228487 C70.6521739,45.6228487 80.8381362,37.0247482 85.3442683,38.5980974 C85.3442683,38.5980974 88.9985363,42.561764 81.4778599,50 L70.6521739,45.6228487 Z" id="Path" fill="#38D39F" fill-rule="nonzero"></path>
                    <path d="M70.6521739,45.6228487 C70.6521739,45.6228487 80.8381362,37.0247482 85.3442683,38.5980974 C85.3442683,38.5980974 88.9985363,42.561764 81.4778599,50 L70.6521739,45.6228487 Z" id="Path" fill="#000000" fill-rule="nonzero" opacity="0.2"></path>
                    <path d="M102.173913,87.0901842 C102.173913,98.3504761 94.0926315,107.246377 86.4887177,107.246377 C78.8848039,107.246377 74.6376812,98.3504652 74.6376812,87.0901842 C74.6376812,75.8299033 80.8146248,67.1416589 88.4057971,66.7016358 C100.431114,66.0045885 102.173913,75.829897 102.173913,87.0901842 Z" id="Path" fill="#38D39F" fill-rule="nonzero"></path>
                    <path d="M102.173913,87.0901842 C102.173913,98.3504761 94.0926315,107.246377 86.4887177,107.246377 C78.8848039,107.246377 74.6376812,98.3504652 74.6376812,87.0901842 C74.6376812,75.8299033 80.8146248,67.1416589 88.4057971,66.7016358 C100.431114,66.0045885 102.173913,75.829897 102.173913,87.0901842 Z" id="Path" fill="#000000" fill-rule="nonzero" opacity="0.2"></path>
                    <ellipse id="Oval" fill="#38D39F" fill-rule="nonzero" cx="86.2318841" cy="88.7681159" rx="2.53623188" ry="3.26086957"></ellipse>
                    <ellipse id="Oval" fill="#38D39F" fill-rule="nonzero" cx="95.2898551" cy="85.8695652" rx="2.53623188" ry="3.26086957"></ellipse>
                    <path d="M72.1014493,46.9582167 C72.103138,47.6930292 71.93728,48.4179191 71.6173043,49.0741381 C71.1949478,49.9460998 70.5097184,50.6525413 69.6649244,51.0869565 C67.8565702,49.0938233 65.8834968,47.267406 63.7681159,45.6284507 C63.9565675,44.9591172 64.2900105,44.3429029 64.7431675,43.8265212 C65.5332615,42.9162993 66.6596671,42.3947639 67.8429312,42.3913043 C70.1944078,42.3913043 72.1014493,44.4357467 72.1014493,46.9582167 Z" id="Path" fill="#FAD46F" fill-rule="nonzero"></path>
                </g>
            </g>
        </g>
    </g>
</svg>