<?xml version="1.0" encoding="UTF-8"?>
<svg width="149px" height="116px" viewBox="0 0 149 116" version="1.1" xmlns="http://www.w3.org/2000/svg" xmlns:xlink="http://www.w3.org/1999/xlink">
    <!-- Generator: Sketch 60.1 (88133) - https://sketch.com -->
    <title>illu/diplome</title>
    <desc>Created with Sketch.</desc>
    <g id="Formulaire-sign-up" stroke="none" stroke-width="1" fill="none" fill-rule="evenodd">
        <g id="Formulaire_achat_user_1" transform="translate(-653.000000, -455.000000)">
            <g id="illu/diplome" transform="translate(638.000000, 446.000000)">
                <path d="M58.9983104,9.71889952 L35.3958597,22.5033239 C36.4947282,24.3951146 36.4776286,26.7348684 35.3512273,28.6103962 C34.2248261,30.485924 32.1674362,31.6003237 29.9811627,31.5191296 C27.7948892,31.4379354 25.8258262,30.1740007 24.8416432,28.2200897 L16.7938801,32.5792135 L37.6400673,71.0651869 L79.8444976,48.2048774 L58.9983104,9.71889952 Z" id="Path" fill="#F2F2F2" fill-rule="nonzero"></path>
                <circle id="Oval" fill="#38D39F" fill-rule="nonzero" cx="29.8450434" cy="25.5185272" r="4.87251794"></circle>
                <path d="M118.26474,112.748832 L143.7839,104.424795 C143.043766,102.366019 143.48203,100.067622 144.927828,98.4256652 C146.373626,96.7837079 148.598085,96.0581158 150.733971,96.5317705 C152.869856,97.0054253 154.579052,98.6033463 155.195206,100.702563 L163.896513,97.8643032 L150.323397,56.2529575 L104.691625,71.1374806 L118.26474,112.748832 Z" id="Path" fill="#F2F2F2" fill-rule="nonzero"></path>
                <circle id="Oval" fill="#38D39F" fill-rule="nonzero" cx="149.787031" cy="102.458723" r="4.87251794"></circle>
                <rect id="Rectangle" fill="#3F3D56" fill-rule="nonzero" x="32.9694976" y="32.547509" width="117.822967" height="53.5287081"></rect>
                <rect id="Rectangle" fill="#FFFFFF" fill-rule="nonzero" x="34.9132775" y="34.4912889" width="113.935407" height="48.5944976"></rect>
                <rect id="Rectangle" fill="#3F3D56" fill-rule="nonzero" x="126.196172" y="80.7682028" width="11.0645933" height="3.73803828"></rect>
                <rect id="Rectangle" fill="#38D39F" fill-rule="nonzero" x="117.523923" y="83.6091118" width="8.07416268" height="1.04665072"></rect>
                <polyline id="Path" stroke="#3F3D56" stroke-width="2" points="44.1836124 52.8824761 87.694378 52.8824761 94.4401914 56.1688098 105.188397 61.4052033 112.215909 48.2473086 132.102273 48.2473086"></polyline>
                <polyline id="Path" stroke="#3F3D56" stroke-width="2" points="61.2926136 52.8824761 64.5185407 60.5080742 72.4431818 60.5080742"></polyline>
                <polyline id="Path" stroke="#3F3D56" stroke-width="2" points="73.3862141 52.8824761 84.4049043 46.9016148 92.1800239 46.9016148"></polyline>
                <circle id="Oval" fill="#38D39F" fill-rule="nonzero" cx="61.229067" cy="52.8824372" r="1.34569378"></circle>
                <circle id="Oval" fill="#38D39F" fill-rule="nonzero" cx="73.7888756" cy="52.8824372" r="1.34569378"></circle>
                <polyline id="Path" stroke="#3F3D56" stroke-width="2" points="94.4228469 56.1719498 95.3199761 69.479366 103.095096 69.479366"></polyline>
                <polyline id="Path" stroke="#3F3D56" stroke-width="2" points="109.397428 53.524372 100.852273 46.9016148 108.926435 46.9016148"></polyline>
                <polyline id="Path" stroke="#3F3D56" stroke-width="2" points="123.51241 48.2473086 131.80323 54.826256 139.578349 54.826256"></polyline>
                <circle id="Oval" fill="#38D39F" fill-rule="nonzero" cx="94.4228469" cy="56.1719109" r="1.34569378"></circle>
                <circle id="Oval" fill="#38D39F" fill-rule="nonzero" cx="123.430024" cy="48.2472697" r="1.34569378"></circle>
                <circle id="Oval" fill="#38D39F" fill-rule="nonzero" cx="109.375" cy="53.4805233" r="1.34569378"></circle>
                <line x1="64.6680622" y1="61.7042075" x2="72.4431818" y2="61.7042075" id="Path" stroke="#3F3D56" stroke-width="2"></line>
                <g id="Group" transform="translate(0.085218, 0.013288)"></g>
                <g id="Group" transform="translate(0.085218, 0.013288)"></g>
                <g id="Group" transform="translate(0.085218, 0.013288)"></g>
                <g id="Group" transform="translate(0.085218, 0.013288)"></g>
                <g id="Group" transform="translate(0.085218, 0.013288)"></g>
                <g id="Group" transform="translate(0.085218, 0.013288)"></g>
                <circle id="Oval" stroke="#3F3D56" stroke-width="2" cx="136.743731" cy="21.0122219" r="2.20627392"></circle>
                <ellipse id="Oval" fill="#F2F2F2" fill-rule="nonzero" cx="38.4270335" cy="120.690452" rx="22.7272727" ry="4.18660287"></ellipse>
                <polygon id="Path" fill="#38D39F" fill-rule="nonzero" points="54.0354366 83.5313995 49.9808612 85.5770036 50.2432715 86.0995813 54.2976974 84.0539773"></polygon>
                <path d="M53.3762261,79.726573 L53.1940745,80.8194856 C53.1940745,80.8194856 53.4673026,88.3788038 51.4636274,86.0108254 C49.4599522,83.6428469 50.8260945,80.4551824 50.8260945,80.4551824 L51.3725523,79.5444214 L53.3762261,79.726573 Z" id="Path" fill="#FBBEBE" fill-rule="nonzero"></path>
                <path d="M41.7184839,44.7533433 C41.7184839,44.7533433 41.3541791,48.5785392 41.172026,48.7606923 C40.9898729,48.9428454 43.9043107,52.4037365 43.9043107,52.4037365 L46.4544408,50.0357641 C46.4544408,50.0357641 46.2722892,46.5748714 46.8187455,45.846262 C47.3652019,45.1176525 41.7184839,44.7533433 41.7184839,44.7533433 Z" id="Path" fill="#FBBEBE" fill-rule="nonzero"></path>
                <path d="M41.7184839,44.7533433 C41.7184839,44.7533433 41.3541791,48.5785392 41.172026,48.7606923 C40.9898729,48.9428454 43.9043107,52.4037365 43.9043107,52.4037365 L46.4544408,50.0357641 C46.4544408,50.0357641 46.2722892,46.5748714 46.8187455,45.846262 C47.3652019,45.1176525 41.7184839,44.7533433 41.7184839,44.7533433 Z" id="Path" fill="#000000" fill-rule="nonzero" opacity="0.1"></path>
                <polygon id="Path" fill="#3F3D56" fill-rule="nonzero" points="34.9789175 114.517644 34.9789175 117.796352 33.7037978 117.978618 31.8823266 117.432117 32.4286782 113.971142"></polygon>
                <path d="M33.3394797,116.157022 C33.3394797,116.157022 32.7930233,114.699803 31.8822623,114.881956 C30.9715012,115.064109 30.7893481,116.157022 30.7893481,116.157022 C30.7893481,116.157022 30.0607401,118.889305 28.967826,119.800066 C27.8749118,120.710827 26.7819991,123.078807 28.967826,123.44311 C31.1536528,123.807413 32.9751749,122.896654 32.9751749,122.714502 C32.9751749,122.53235 33.5216328,121.439436 34.4323938,121.257283 C35.3431549,121.07513 36.0717644,120.89298 36.0717644,120.164371 C36.0717644,119.435761 35.5253065,118.707153 35.5253065,118.707153 C35.5253065,118.707153 35.3431549,115.251998 34.9788502,115.70451 C34.7269108,116.062012 34.5417733,116.462171 34.4323938,116.885629 L33.3394797,116.157022 Z" id="Path" fill="#2F2E41" fill-rule="nonzero"></path>
                <polygon id="Path" fill="#3F3D56" fill-rule="nonzero" points="42.8114533 112.878289 42.0828349 115.610496 43.9043062 115.97488 44.8150419 115.064145 44.9971591 112.696172"></polygon>
                <path d="M42.6292449,115.24626 C42.6292449,115.24626 43.3578529,114.699803 43.7221576,114.699803 L44.2686139,114.699803 C44.2686139,114.699803 44.2686139,113.424737 45.1793765,113.424737 C46.0901391,113.424737 45.9079844,114.335498 45.9079844,114.335498 C45.9079844,114.335498 47.9116597,117.432089 48.458116,117.978544 C49.0045724,118.524999 51.9190087,120.164371 49.5510302,120.89298 C47.1830517,121.621589 45.5436797,121.621588 44.450767,120.346522 C44.450767,120.346522 43.3578529,119.800066 42.6292449,119.800066 C41.900637,119.800066 40.9898744,119.435761 40.9898744,118.889305 C40.9898744,118.342848 41.5363307,117.249934 41.5363307,117.249934 C41.5363307,117.249934 41.9006355,113.971195 42.0827871,114.335498 C42.2649387,114.699801 42.6292449,115.24626 42.6292449,115.24626 Z" id="Path" fill="#2F2E41" fill-rule="nonzero"></path>
                <path d="M34.7966986,70.9832656 L34.7966986,76.9942898 C34.7966986,76.9942898 32.7930233,88.652035 32.7930233,92.4772294 C32.7930233,96.3024237 29.6964324,114.517651 31.1536528,114.881956 C32.6108732,115.24626 36.0717644,115.792717 36.253916,115.24626 C36.4360676,114.699804 37.7111334,97.3953334 37.8932865,97.2131878 C38.0754396,97.0310422 41.9006355,82.6410093 41.9006355,82.6410093 L42.6292449,82.8231609 L42.9935481,99.216863 C42.9935481,99.216863 41.172026,113.971199 42.0827871,113.971199 C42.9935481,113.971199 46.8187455,113.789046 46.8187455,112.696133 C46.8187455,111.603221 48.8224208,91.3843212 48.8224208,91.3843212 C48.8224208,91.3843212 51.1903932,75.3549237 50.2796382,73.7155532 C49.3688831,72.0761827 49.3688771,71.1654217 49.3688771,71.1654217 L34.7966986,70.9832656 Z" id="Path" fill="#2F2E41" fill-rule="nonzero"></path>
                <circle id="Oval" fill="#FBBEBE" fill-rule="nonzero" cx="44.7239952" cy="43.9336573" r="3.64304426"></circle>
                <path d="M43.9043107,50.2179097 C43.9043107,50.2179097 41.6274073,48.305311 41.4452542,47.5767031 C41.4452542,47.5767031 40.261265,48.7606923 40.261265,48.9428439 C40.261265,49.1249955 35.1610018,49.6714533 33.8859375,51.1286708 C32.6108732,52.5858882 31.5179575,55.6824776 31.5179575,55.6824776 L34.6145484,61.5113487 C34.6145484,61.5113487 34.7967016,64.7900897 34.7967016,65.1543929 C34.7967016,65.5186962 33.8859405,71.3475748 34.2502437,71.5297219 C34.6145469,71.711869 38.2575942,73.5333971 41.3541821,73.1690924 C44.45077,72.8047877 47.5473639,72.2583313 48.458119,72.2583313 C49.3688741,72.2583313 50.0974895,72.6226361 50.0974895,72.2583313 C50.0974895,71.8940266 49.5510332,71.1654172 49.5510332,70.8011124 C49.5510332,70.4368077 49.3688801,69.5260467 49.3688801,68.9795903 C49.3688801,68.433134 49.0045754,67.5223729 49.0045754,66.7937635 C49.0045754,66.065154 53.0119258,56.2289339 53.0119258,56.2289339 C53.0119258,56.2289339 52.8297727,53.132343 49.9153349,51.6751271 C47.0008971,50.2179112 46.6365954,49.6714533 46.6365954,49.6714533 C46.6365954,49.6714533 46.5798086,48.5785392 46.4260496,48.5785392 C46.2722907,48.5785392 45.7258403,50.2179097 44.2686154,50.4000628 L43.9043107,50.2179097 Z" id="Path" fill="#D0CDE1" fill-rule="nonzero"></path>
                <polygon id="Path" fill="#FBBEBE" fill-rule="nonzero" points="34.0680323 74.4442285 35.3431519 76.447817 38.62186 75.7191986 36.2538876 72.9869916"></polygon>
                <path d="M51.9190087,54.7717165 L53.0119228,56.2289339 C53.0119228,56.2289339 55.1977497,66.7937635 54.833445,70.6189608 C54.4691403,74.4441582 54.1048355,77.358593 54.1048355,77.358593 C54.1048355,77.358593 54.833445,80.0908777 54.2869871,80.0908777 C53.7405293,80.0908777 50.4617913,80.2730293 50.4617913,79.726573 C50.4617913,79.1801166 50.8260975,75.719224 50.8260975,75.719224 L49.9153334,67.704526 L47.9116597,64.9722428 L51.9190087,54.7717165 Z" id="Path" fill="#D0CDE1" fill-rule="nonzero"></path>
                <path d="M42.2496083,42.165015 C42.4729187,42.0703678 42.7310781,42.1471471 42.9702318,42.1067733 C43.2510691,42.059363 43.5023475,41.8512978 43.785945,41.8775568 C43.9203393,41.902475 44.0508974,41.9448641 44.1742972,42.0036453 C44.2994206,42.0624406 44.443128,42.0675872 44.5721367,42.0178932 C44.6337574,41.9892823 44.6792461,41.9344786 44.6960193,41.8686427 C44.7127924,41.8028068 44.6990717,41.7329182 44.6586528,41.6783104 C44.8985965,41.6571671 45.1254097,41.5595335 45.3056908,41.3997877 C45.3416176,41.3624868 45.3833104,41.3312076 45.4291717,41.3071486 C45.5372315,41.2789479 45.6521484,41.2968479 45.7465117,41.3565789 L46.1633283,41.5487141 C46.2572226,41.5818744 46.3398053,41.6409493 46.4015161,41.7190999 C46.4510945,41.7964025 46.4607984,41.9003484 46.5310212,41.9595395 C46.620619,42.0350613 46.7545559,41.9981041 46.8714982,42.0055069 C47.0912626,42.0268898 47.2602414,42.2093656 47.2647069,42.4301226 C47.2630502,42.5524387 47.2185601,42.7025015 47.3153035,42.7773624 C47.371416,42.820782 47.451081,42.8138337 47.5168182,42.8405218 C47.687192,42.9096905 47.6878559,43.146866 47.6626839,43.3290087 C47.637512,43.5111513 47.6499656,43.7514444 47.8250837,43.8075269 C47.9483867,43.8470156 48.0743989,43.7628334 48.202503,43.744058 C48.3957611,43.7157327 48.5745843,43.8366118 48.7466238,43.9290999 C48.9186633,44.0215879 49.1472144,44.0839758 49.2963292,43.9578185 C49.4350852,43.8404246 49.4261827,43.6256564 49.3880263,43.4479501 C49.3332588,43.1931661 49.243308,42.9472414 49.1207611,42.7172488 C49.0754122,42.6495687 49.04869,42.5711379 49.0432835,42.489849 C49.064319,42.3741022 49.1338606,42.2728813 49.23436,42.2117285 C49.445154,42.0450822 49.6876361,41.8773116 49.7558762,41.6174118 C49.8059659,41.4266657 49.7496232,41.2254979 49.7539728,41.0283343 C49.7592673,40.7884211 49.8546606,40.5495395 49.8099237,40.3137709 C49.7288337,39.886416 49.2532162,39.6807461 48.9461962,39.3726121 C48.5243152,38.9491986 48.3873445,38.2719737 47.8894542,37.9412664 C47.4911438,37.6767016 46.9701495,37.7082835 46.516573,37.5569124 C46.0183059,37.390628 45.6172219,37.008602 45.1257237,36.8232715 C44.5825179,36.6229479 43.9782009,36.6759533 43.4781624,36.9677811 C43.3315174,37.0765175 43.1678338,37.1601475 42.9937904,37.2152587 C42.8472115,37.232239 42.6990687,37.2305207 42.5529231,37.210145 C42.2624243,37.1951606 41.9729335,37.2548898 41.7120888,37.3836304 C41.6122587,37.4235328 41.5291209,37.4964464 41.4765341,37.5902168 C41.3885377,37.7856549 41.5163771,38.0911842 41.3234868,38.1846322 C41.2335541,38.2282013 41.1273819,38.1864623 41.0274746,38.1886558 C40.8331968,38.1929217 40.6837336,38.3619737 40.5912919,38.5329022 C40.5192154,38.7136037 40.4157428,38.880131 40.2856564,39.0247877 C40.0481788,39.2327721 39.6167285,39.2671426 39.5546815,39.5766627 C39.5535616,39.7077071 39.5610036,39.8386848 39.5769602,39.968759 C39.5590176,40.2430562 39.2654755,40.4515191 39.2807955,40.7259749 C39.2984674,41.0425493 39.7006773,41.1972189 39.8081938,41.4954994 C39.8900613,41.7226226 39.7823266,41.9681968 39.7081968,42.1979516 C39.634067,42.4277063 39.6117105,42.7222069 39.8031594,42.8692883 C39.8782282,42.9269602 39.9747443,42.9506041 40.0512993,43.0062844 C40.2494034,43.1503693 40.2469019,43.4411453 40.2249028,43.6851121 C40.1991538,43.7879427 40.2261208,43.8968481 40.296878,43.975782 C40.3630486,44.0158418 40.443263,44.025474 40.5170365,44.0022189 C40.7574437,43.9439225 40.9631853,43.7890974 41.0857715,43.574233 C41.1495694,43.46875 41.1623908,43.3757805 41.2782865,43.3198116 C41.3569273,43.2818331 41.4524237,43.3157312 41.5324731,43.2664459 C41.9133029,43.0320021 41.7822084,42.3631086 42.2496083,42.165015 Z" id="Path" fill="#2F2E41" fill-rule="nonzero"></path>
                <path d="M32.0644139,55.1360197 L31.5179575,55.6824776 C31.5179575,55.6824776 28.2392255,65.5186977 29.3321307,67.704526 C30.4250359,69.8903544 32.6108717,75.3549208 33.3394797,75.1727676 C34.0680876,74.9906145 36.6182207,73.3512455 36.6182207,73.1690939 C36.6182207,72.9869423 33.5216298,67.8866791 33.5216298,67.8866791 C33.5216298,67.8866791 33.1573251,66.793765 33.3394767,66.6116133 C33.5216283,66.4294617 33.5216298,66.6116133 33.3394767,66.2473086 C33.1573236,65.8830039 33.1573251,66.2473086 33.5216298,65.8830039 C33.8859345,65.5186992 33.8859345,65.5186992 33.8859345,65.3365475 C33.8859345,65.1543959 34.9788472,60.6005891 34.9788472,60.6005891 L32.0644139,55.1360197 Z" id="Path" fill="#D0CDE1" fill-rule="nonzero"></path>
                <polygon id="Path" fill="#2F2E41" fill-rule="nonzero" points="34.8877093 76.5388756 38.8951854 75.2639055 39.4415371 76.5388756 35.0699761 77.4496112"></polygon>
                <polygon id="Path" fill="#000000" fill-rule="nonzero" opacity="0.1" points="34.8877093 76.5388756 38.8951854 75.2639055 39.4415371 76.5388756 35.0699761 77.4496112"></polygon>
                <polygon id="Path" fill="#000000" fill-rule="nonzero" opacity="0.1" points="40.3522727 49.0339414 43.4488636 51.5840311 43.8132476 51.0375299"></polygon>
                <polygon id="Path" fill="#000000" fill-rule="nonzero" opacity="0.1" points="46.5454545 49.7625598 44.3597488 51.0375299 44.541866 51.5840311"></polygon>
            </g>
        </g>
    </g>
</svg>