<?xml version="1.0" encoding="UTF-8"?>
<svg width="173px" height="125px" viewBox="0 0 173 125" version="1.1" xmlns="http://www.w3.org/2000/svg" xmlns:xlink="http://www.w3.org/1999/xlink">
    <!-- Generator: Sketch 60.1 (88133) - https://sketch.com -->
    <title>undraw_Graduation_ktn0</title>
    <desc>Created with Sketch.</desc>
    <defs>
        <linearGradient x1="-2.31387508e-13%" y1="50.000002%" x2="100%" y2="50.000002%" id="linearGradient-1">
            <stop stop-color="#808080" stop-opacity="0.25" offset="0%"></stop>
            <stop stop-color="#808080" stop-opacity="0.12" offset="53.514%"></stop>
            <stop stop-color="#808080" stop-opacity="0.1" offset="100%"></stop>
        </linearGradient>
    </defs>
    <g id="Formulaire-sign-up" stroke="none" stroke-width="1" fill="none" fill-rule="evenodd">
        <g id="Formulaire_loc_ecole5" transform="translate(-638.000000, -321.000000)" fill-rule="nonzero">
            <g id="undraw_Graduation_ktn0" transform="translate(638.000000, 321.000000)">
                <ellipse id="Oval" fill="#E0E0E0" transform="translate(6.466498, 62.410427) rotate(-63.610790) translate(-6.466498, -62.410427) " cx="6.46649795" cy="62.4104265" rx="7.6288392" ry="1.14411574"></ellipse>
                <ellipse id="Oval" fill="#E0E0E0" transform="translate(101.767986, 109.755412) rotate(-63.610790) translate(-101.767986, -109.755412) " cx="101.767986" cy="109.755412" rx="7.6288392" ry="1"></ellipse>
                <polygon id="Rectangle" fill="#F55F44" transform="translate(44.807918, 95.445415) rotate(39.547320) translate(-44.807918, -95.445415) " points="42.5184074 87.8167166 47.0951592 87.8173973 47.0974281 103.074113 42.5206763 103.073432"></polygon>
                <polygon id="Rectangle" fill="#000000" opacity="0.05" transform="translate(47.565669, 96.886948) rotate(-166.768900) translate(-47.565669, -96.886948) " points="44.9906393 89.2576003 50.1396699 89.2579479 50.1406995 104.516295 44.9916689 104.515947"></polygon>
                <polygon id="Rectangle" fill="#F55F44" transform="translate(47.844447, 96.952514) rotate(-166.768900) translate(-47.844447, -96.952514) " points="45.5558012 89.3231865 50.1320636 89.3234954 50.1330932 104.581842 45.5568308 104.581534"></polygon>
                <polygon id="Rectangle" fill="url(#linearGradient-1)" transform="translate(54.121219, 86.062416) rotate(-63.610790) translate(-54.121219, -86.062416) " points="46.117355 32.8619822 62.137916 32.8600503 62.1250827 139.262851 46.1045217 139.264783"></polygon>
                <path d="M98.1667888,117.1875 C96.3111597,116.28635 2.0035671,68.8815963 3.36276569,69.5643677 C8.59711618,61.4759466 10.1066912,55.8035714 10.1066912,55.8035714 L104.910714,103.426704 C104.910714,103.426704 101.581406,109.342221 98.1667888,117.1875 Z" id="Path" fill="#F5F5F5"></path>
                <polygon id="Rectangle" fill="#000000" opacity="0.05" transform="translate(52.071561, 85.045128) rotate(26.389210) translate(-52.071561, -85.045128) " points="47.6848629 77.4157611 56.4564198 77.416819 56.4582597 92.6744953 47.6867028 92.6734373"></polygon>
                <polygon id="Rectangle" fill="#F55F44" transform="translate(52.071560, 85.045128) rotate(26.389210) translate(-52.071560, -85.045128) " points="48.0662333 77.4158066 56.0750474 77.4167725 56.0768873 92.6744488 48.0680732 92.6734828"></polygon>
                <polygon id="Rectangle" fill="#000000" opacity="0.05" transform="translate(51.900755, 84.960354) rotate(26.389210) translate(-51.900755, -84.960354) " points="49.2302309 77.3311935 54.5694395 77.3318375 54.5712794 92.5895137 49.2320708 92.5888698"></polygon>
                <polygon id="Rectangle" fill="#F55F44" transform="translate(51.900755, 84.960354) rotate(26.389210) translate(-51.900755, -84.960354) " points="49.6116034 77.3312395 54.188067 77.3317915 54.1899069 92.5894677 49.6134433 92.5889158"></polygon>
                <circle id="Oval" fill="#DBDBDB" cx="56.3616071" cy="122.209821" r="1"></circle>
                <g id="Group" opacity="0.5" transform="translate(4.464286, 104.910714)" fill="#47E6B1">
                    <rect id="Rectangle" x="1.83390625" y="0" width="1" height="3.34821429"></rect>
                    <polygon id="Rectangle" transform="translate(2.205930, 1.674107) rotate(90.000000) translate(-2.205930, -1.674107) " points="1.91049939 -0.434027778 2.50136073 -0.434027778 2.50136073 3.78224206 1.91049939 3.78224206"></polygon>
                </g>
                <g id="Group" opacity="0.5" transform="translate(168.526786, 59.151786)" fill="#47E6B1">
                    <rect id="Rectangle" x="1.83390625" y="0" width="1" height="3.34821429"></rect>
                    <polygon id="Rectangle" transform="translate(2.205930, 1.674107) rotate(90.000000) translate(-2.205930, -1.674107) " points="1.91049939 -0.434027778 2.50136073 -0.434027778 2.50136073 3.78224206 1.91049939 3.78224206"></polygon>
                </g>
                <g id="Group" opacity="0.5" transform="translate(8.928571, 13.392857)" fill="#47E6B1">
                    <rect id="Rectangle" x="1.83390625" y="0" width="1" height="3.34821429"></rect>
                    <polygon id="Rectangle" transform="translate(2.205930, 1.674107) rotate(90.000000) translate(-2.205930, -1.674107) " points="1.91049939 -0.434027778 2.50136073 -0.434027778 2.50136073 3.78224206 1.91049939 3.78224206"></polygon>
                </g>
                <g id="Group" opacity="0.5" transform="translate(149.553571, 7.812500)" fill="#47E6B1">
                    <rect id="Rectangle" x="1.83390625" y="0" width="1" height="3.34821429"></rect>
                    <polygon id="Rectangle" transform="translate(2.205930, 1.674107) rotate(90.000000) translate(-2.205930, -1.674107) " points="1.91049939 -0.434027778 2.50136073 -0.434027778 2.50136073 3.78224206 1.91049939 3.78224206"></polygon>
                </g>
                <path d="M3.0741416,55.2738133 C2.64587864,55.0872982 2.42551142,54.6093225 2.56179207,54.1625288 C2.57244449,54.1294402 2.57915543,54.0952103 2.58178568,54.0605489 L2.58178568,54.0605489 C2.59414626,53.8575068 2.47198612,53.6703558 2.28113926,53.5999544 C2.0902924,53.5295531 1.87585955,53.5925385 1.7534019,53.7549669 L1.7534019,53.7549669 C1.73289356,53.7830337 1.71576772,53.8134218 1.7023794,53.8455012 C1.51586345,54.2737632 1.03788835,54.4941301 0.591094722,54.3578506 C0.558006176,54.3471975 0.523776232,54.3404858 0.489114772,54.3378545 L0.489114772,54.3378545 C0.28607441,54.3254977 0.0989267313,54.447658 0.0285260234,54.638503 C-0.0418746844,54.829348 0.0211080745,55.0437788 0.183532756,55.1662381 L0.183532756,55.1662381 C0.211599279,55.1867462 0.241987427,55.2038713 0.274067049,55.2172581 C0.702326613,55.4037767 0.922692387,55.8817493 0.786416579,56.3285426 C0.775763348,56.3616311 0.769051575,56.3958611 0.766420461,56.4305225 L0.766420461,56.4305225 C0.754059884,56.6335646 0.876220022,56.8207156 1.06706688,56.891117 C1.25791374,56.9615184 1.47234659,56.8985329 1.59480424,56.7361045 L1.59480424,56.7361045 C1.6153135,56.7080383 1.63243941,56.6776501 1.64582674,56.6455702 C1.8323427,56.2173082 2.31031779,55.9969414 2.75711142,56.1332208 C2.79020115,56.1438726 2.82443177,56.1505843 2.85909387,56.1532169 L2.85909387,56.1532169 C3.06213598,56.1655775 3.24928702,56.0434174 3.31968841,55.8525705 C3.3900898,55.6617237 3.32710435,55.4472909 3.16467589,55.3248333 L3.16467589,55.3248333 C3.13660838,55.3043267 3.10622042,55.2872018 3.0741416,55.2738133 Z" id="Path" fill="#4D8AF0" opacity="0.5"></path>
                <path d="M39.9044987,11.7470276 C39.4762358,11.5605125 39.2558686,11.0825367 39.3921492,10.6357431 C39.4028016,10.6026545 39.4095126,10.5684246 39.4121428,10.5337632 L39.4121428,10.5337632 C39.4245034,10.3307211 39.3023433,10.1435701 39.1114964,10.0731687 C38.9206495,10.0027673 38.7062167,10.0657528 38.583759,10.2281812 L38.583759,10.2281812 C38.5632507,10.256248 38.5461249,10.2866361 38.5327365,10.3187155 C38.3462206,10.7469775 37.8682455,10.9673443 37.4214519,10.8310649 C37.3883633,10.8204118 37.3541334,10.8137001 37.3194719,10.8110688 L37.3194719,10.8110688 C37.1164316,10.798712 36.9292839,10.9208723 36.8588832,11.1117173 C36.7884825,11.3025623 36.8514652,11.5169931 37.0138899,11.6394524 L37.0138899,11.6394524 C37.0419564,11.6599605 37.0723446,11.6770855 37.1044242,11.6904724 C37.5326838,11.8769909 37.7530495,12.3549636 37.6167737,12.8017569 C37.6061205,12.8348454 37.5994087,12.8690754 37.5967776,12.9037368 L37.5967776,12.9037368 C37.584417,13.1067789 37.7065772,13.2939299 37.897424,13.3643313 C38.0882709,13.4347327 38.3027037,13.3717472 38.4251614,13.2093188 L38.4251614,13.2093188 C38.4456706,13.1812526 38.4627965,13.1508644 38.4761839,13.1187845 C38.6626998,12.6905225 39.1406749,12.4701557 39.5874686,12.6064351 C39.6205583,12.6170869 39.6547889,12.6237986 39.689451,12.6264312 L39.689451,12.6264312 C39.8924931,12.6387918 40.0796442,12.5166316 40.1500456,12.3257848 C40.2204469,12.134938 40.1574615,11.9205052 39.995033,11.7980476 L39.995033,11.7980476 C39.9669655,11.777541 39.9365776,11.7604161 39.9044987,11.7470276 Z" id="Path" fill="#4D8AF0" opacity="0.5"></path>
                <path d="M85.6634273,123.35417 C85.2351644,123.167655 85.0147971,122.68968 85.1510778,122.242886 C85.1617302,122.209797 85.1684411,122.175567 85.1710714,122.140906 L85.1710714,122.140906 C85.183432,121.937864 85.0612718,121.750713 84.870425,121.680312 C84.6795781,121.60991 84.4651453,121.672896 84.3426876,121.835324 L84.3426876,121.835324 C84.3221793,121.863391 84.3050534,121.893779 84.2916651,121.925858 C84.1051492,122.35412 83.6271741,122.574487 83.1803804,122.438208 C83.1472919,122.427555 83.1130619,122.420843 83.0784005,122.418212 L83.0784005,122.418212 C82.8753601,122.405855 82.6882124,122.528015 82.6178117,122.71886 C82.547411,122.909705 82.6103938,123.124136 82.7728185,123.246595 L82.7728185,123.246595 C82.800885,123.267103 82.8312731,123.284228 82.8633528,123.297615 C83.2916123,123.484134 83.5119781,123.962106 83.3757023,124.4089 C83.3650491,124.441988 83.3583373,124.476218 83.3557062,124.51088 L83.3557062,124.51088 C83.3433456,124.713922 83.4655057,124.901073 83.6563526,124.971474 C83.8471995,125.041876 84.0616323,124.97889 84.18409,124.816462 L84.18409,124.816462 C84.2045992,124.788395 84.2217251,124.758007 84.2351125,124.725927 C84.4216284,124.297665 84.8996035,124.077299 85.3463971,124.213578 C85.3794869,124.22423 85.4137175,124.230941 85.4483796,124.233574 L85.4483796,124.233574 C85.6514217,124.245935 85.8385727,124.123775 85.9089741,123.932928 C85.9793755,123.742081 85.9163901,123.527648 85.7539616,123.40519 L85.7539616,123.40519 C85.7258941,123.384684 85.6955061,123.367559 85.6634273,123.35417 L85.6634273,123.35417 Z" id="Path" fill="#4D8AF0" opacity="0.5"></path>
                <circle id="Oval" fill="#F55F44" opacity="0.5" cx="165.178571" cy="95.9821429" r="1.11607143"></circle>
                <circle id="Oval" fill="#4D8AF0" opacity="0.5" cx="136.160714" cy="104.910714" r="1.11607143"></circle>
                <circle id="Oval" fill="#47E6B1" opacity="0.5" cx="22.3214286" cy="117.1875" r="1.11607143"></circle>
                <circle id="Oval" fill="#F55F44" opacity="0.5" cx="89.2857143" cy="1.11607143" r="1.11607143"></circle>
                <path d="M44.2629179,77.991391 L39.0625,85.8685171 C39.0625,85.8685171 40.7959726,93.9644523 79.1490549,93.7456433 C117.502137,93.5268342 120.535714,85.8685171 120.535714,85.8685171 L113.38514,75.3656823 L91.5000475,60.2678571 L44.2629179,77.991391 Z" id="Path" fill="#38D39F"></path>
                <path d="M44.2629179,77.991391 L39.0625,85.8685171 C39.0625,85.8685171 40.7959726,93.9644523 79.1490549,93.7456433 C117.502137,93.5268342 120.535714,85.8685171 120.535714,85.8685171 L113.38514,75.3656823 L91.5000475,60.2678571 L44.2629179,77.991391 Z" id="Path" fill="#000000" opacity="0.15"></path>
                <polygon id="Path" fill="#38D39F" points="155.133929 49.1482023 86.732641 79.2410714 3.34821429 49.1482023 79.7839388 14.5089286 117.304759 31.757122 118.648899 32.376299"></polygon>
                <polygon id="Path" fill="#000000" opacity="0.15" points="155.133929 49.1482023 86.732641 79.2410714 3.34821429 49.1482023 79.7839388 14.5089286 117.304759 31.757122 118.648899 32.376299"></polygon>
                <polygon id="Path" fill="#F5F5F5" points="120.535714 55.7260406 119.481988 55.8035714 118.303571 31.25 119.390665 31.8659391"></polygon>
                <path d="M45.1296543,49.0611573 L39.0625,85.9375 C39.0625,85.9375 82.6160002,71.8377219 120.535714,85.9375 L114.901928,46.8919606 C114.901928,46.8919606 63.9811693,40.6012904 45.1296543,49.0611573 Z" id="Path" fill="#38D39F"></path>
                <ellipse id="Oval" fill="#F5F5F5" cx="119.977679" cy="59.1517857" rx="6.13839286" ry="4.46428571"></ellipse>
            </g>
        </g>
    </g>
</svg>