<?xml version="1.0" encoding="UTF-8"?>
<svg width="140px" height="125px" viewBox="0 0 140 125" version="1.1" xmlns="http://www.w3.org/2000/svg" xmlns:xlink="http://www.w3.org/1999/xlink">
    <!-- Generator: Sketch 60.1 (88133) - https://sketch.com -->
    <title>big</title>
    <desc>Created with Sketch.</desc>
    <defs>
        <linearGradient x1="50%" y1="100%" x2="50%" y2="0%" id="linearGradient-1">
            <stop stop-color="#808080" stop-opacity="0.25" offset="0%"></stop>
            <stop stop-color="#808080" stop-opacity="0.12" offset="54%"></stop>
            <stop stop-color="#808080" stop-opacity="0.1" offset="100%"></stop>
        </linearGradient>
        <linearGradient x1="50.0282646%" y1="100%" x2="50.0282646%" y2="0%" id="linearGradient-2">
            <stop stop-color="#808080" stop-opacity="0.25" offset="0%"></stop>
            <stop stop-color="#808080" stop-opacity="0.12" offset="54%"></stop>
            <stop stop-color="#808080" stop-opacity="0.1" offset="100%"></stop>
        </linearGradient>
        <linearGradient x1="50.0055328%" y1="100%" x2="50.0055328%" y2="0%" id="linearGradient-3">
            <stop stop-color="#808080" stop-opacity="0.25" offset="0%"></stop>
            <stop stop-color="#808080" stop-opacity="0.12" offset="54%"></stop>
            <stop stop-color="#808080" stop-opacity="0.1" offset="100%"></stop>
        </linearGradient>
        <linearGradient x1="50.0055182%" y1="100%" x2="50.0055182%" y2="0%" id="linearGradient-4">
            <stop stop-color="#808080" stop-opacity="0.25" offset="0%"></stop>
            <stop stop-color="#808080" stop-opacity="0.12" offset="54%"></stop>
            <stop stop-color="#808080" stop-opacity="0.1" offset="100%"></stop>
        </linearGradient>
        <linearGradient x1="50.0040022%" y1="100%" x2="50.0040022%" y2="0%" id="linearGradient-5">
            <stop stop-color="#808080" stop-opacity="0.25" offset="0%"></stop>
            <stop stop-color="#808080" stop-opacity="0.12" offset="54%"></stop>
            <stop stop-color="#808080" stop-opacity="0.1" offset="100%"></stop>
        </linearGradient>
        <linearGradient x1="49.9953319%" y1="100%" x2="49.9953319%" y2="0%" id="linearGradient-6">
            <stop stop-color="#808080" stop-opacity="0.25" offset="0%"></stop>
            <stop stop-color="#808080" stop-opacity="0.12" offset="54%"></stop>
            <stop stop-color="#808080" stop-opacity="0.1" offset="100%"></stop>
        </linearGradient>
    </defs>
    <g id="Sign-in-/-Sign-up" stroke="none" stroke-width="1" fill="none" fill-rule="evenodd">
        <g id="Formulaire_loc_logement3" transform="translate(-801.000000, -434.000000)" fill-rule="nonzero">
            <g id="big" transform="translate(800.263158, 434.000000)">
                <g id="Group" opacity="0.7" transform="translate(8.736842, 36.000000)" fill="url(#linearGradient-1)">
                    <polygon id="Path" points="127 88.1759259 0 88.1759259 0.874886561 8.09367776 37.1957759 0 88.5521409 0 126.125113 5.73375968"></polygon>
                </g>
                <polygon id="Path" fill="#EEEEEE" points="131.736842 124 7.73684211 124 8.6206025 46.0749306 43.4449704 38 95.5184474 38 130.853082 43.7191901"></polygon>
                <g id="Group" opacity="0.7" transform="translate(48.736842, 1.000000)" fill="url(#linearGradient-2)">
                    <rect id="Rectangle" x="0" y="0" width="9" height="16.15"></rect>
                </g>
                <g id="Group" opacity="0.7" transform="translate(0.736842, 33.000000)" fill="url(#linearGradient-3)">
                    <polygon id="Path" points="46.7503596 17.2324519 46.7503596 0 6.78709749 0 0 17.2324519 0 19 47 19 47 17.2324519"></polygon>
                </g>
                <polygon id="Path" fill="#38D39F" points="48.7368421 50 2.73684211 50 9.41467861 34 48.7368421 34"></polygon>
                <polygon id="Path" fill="#06AE88" opacity="0.1" points="48.7368421 50 2.73684211 50 9.41467861 34 48.7368421 34"></polygon>
                <rect id="Rectangle" fill="#38D39F" x="2.73684211" y="50" width="46" height="1"></rect>
                <g id="Group" opacity="0.7" transform="translate(94.736842, 32.000000)" fill="url(#linearGradient-4)">
                    <polygon id="Path" points="39.3596733 0.84 0.248758415 0.84 0.248758415 19.1219772 0 19.1219772 0 21 46 21 46 19.1219772"></polygon>
                </g>
                <polygon id="Path" fill="#38D39F" points="92.7368421 50 138.736842 50 132.059756 34 92.7368421 34"></polygon>
                <polygon id="Path" fill="#06AE88" opacity="0.1" points="92.7368421 50 138.736842 50 132.059756 34 92.7368421 34"></polygon>
                <rect id="Rectangle" fill="#38D39F" transform="translate(115.736842, 50.500000) rotate(-180.000000) translate(-115.736842, -50.500000) " x="92.7368421" y="50" width="46" height="1"></rect>
                <rect id="Rectangle" fill="#38D39F" opacity="0.5" x="14.7368421" y="96" width="24" height="14"></rect>
                <rect id="Rectangle" fill="#000000" opacity="0.1" x="12.7368421" y="107" width="28" height="3"></rect>
                <rect id="Rectangle" fill="#535461" x="12.7368421" y="107" width="28" height="3"></rect>
                <g id="Group" opacity="0.1" transform="translate(14.736842, 95.000000)" fill="#000000">
                    <rect id="Rectangle" x="0" y="0" width="25.037037" height="5.14285714"></rect>
                </g>
                <rect id="Rectangle" fill="#38D39F" opacity="0.5" x="103.736842" y="96" width="25" height="14"></rect>
                <rect id="Rectangle" fill="#000000" opacity="0.1" x="101.736842" y="107" width="28" height="3"></rect>
                <rect id="Rectangle" fill="#535461" x="101.736842" y="107" width="28" height="3"></rect>
                <g id="Group" opacity="0.1" transform="translate(103.736842, 95.000000)" fill="#000000">
                    <rect id="Rectangle" x="0" y="0" width="25.037037" height="5.14285714"></rect>
                </g>
                <rect id="Rectangle" fill="#38D39F" opacity="0.5" x="103.736842" y="63" width="25" height="14"></rect>
                <rect id="Rectangle" fill="#000000" opacity="0.1" x="101.736842" y="77" width="28" height="3"></rect>
                <rect id="Rectangle" fill="#535461" x="101.736842" y="77" width="28" height="2"></rect>
                <g id="Group" opacity="0.1" transform="translate(103.736842, 64.000000)" fill="#000000">
                    <rect id="Rectangle" x="0" y="0.75" width="25.037037" height="5.25"></rect>
                </g>
                <rect id="Rectangle" fill="#38D39F" opacity="0.5" x="15.7368421" y="63" width="25" height="14"></rect>
                <rect id="Rectangle" fill="#000000" opacity="0.1" x="12.7368421" y="77" width="28" height="3"></rect>
                <rect id="Rectangle" fill="#535461" x="12.7368421" y="77" width="28" height="2"></rect>
                <g id="Group" opacity="0.1" transform="translate(14.736842, 64.000000)" fill="#000000">
                    <rect id="Rectangle" x="0.962962963" y="0.75" width="25.037037" height="5.25"></rect>
                </g>
                <g id="Group" opacity="0.7" transform="translate(38.736842, 0.000000)" fill="url(#linearGradient-5)">
                    <polygon id="Path" points="62.7495103 25 32.5191284 4.16590535 3.25250964 24.9862964 0.955882353 22.4282843 32.4832436 0 65 22.4100128"></polygon>
                </g>
                <rect id="Rectangle" fill="#000000" opacity="0.1" x="11.7368421" y="52" width="34" height="1"></rect>
                <rect id="Rectangle" fill="#000000" opacity="0.1" x="97.7368421" y="52" width="34" height="1"></rect>
                <rect id="Rectangle" fill="#535461" x="48.7368421" y="1" width="9" height="17"></rect>
                <g id="Group" opacity="0.7" transform="translate(40.736842, 20.000000)" fill="url(#linearGradient-6)">
                    <polygon id="Path" points="57.9074074 104.179688 0.965123457 104.179688 0.965123457 0.941087168 29.6834708 0 57.9074074 0.941087168"></polygon>
                </g>
                <polygon id="Path" fill="#FFFFFF" points="98.2531919 125 45.7368421 125 45.7368421 21.4645606 71.995017 4 98.7368421 22.1061158"></polygon>
                <rect id="Rectangle" fill="#535461" x="64.7368421" y="104" width="12" height="21"></rect>
                <rect id="Rectangle" fill="#000000" opacity="0.1" x="55.7368421" y="88" width="27" height="3"></rect>
                <rect id="Rectangle" fill="#38D39F" opacity="0.5" x="56.7368421" y="75" width="25" height="14"></rect>
                <rect id="Rectangle" fill="#535461" x="55.7368421" y="88" width="27" height="3"></rect>
                <g id="Group" opacity="0.1" transform="translate(56.736842, 76.000000)" fill="#000000">
                    <rect id="Rectangle" x="0" y="0.75" width="25.037037" height="5.25"></rect>
                </g>
                <rect id="Rectangle" fill="#38D39F" opacity="0.5" x="56.7368421" y="49" width="25" height="14"></rect>
                <rect id="Rectangle" fill="#535461" x="55.7368421" y="62" width="27" height="2"></rect>
                <g id="Group" opacity="0.1" transform="translate(56.736842, 49.000000)" fill="#000000">
                    <rect id="Rectangle" x="0" y="0.75" width="25.037037" height="5.25"></rect>
                </g>
                <rect id="Rectangle" fill="#38D39F" opacity="0.5" x="56.7368421" y="23" width="25" height="14"></rect>
                <rect id="Rectangle" fill="#535461" x="55.7368421" y="34" width="27" height="3"></rect>
                <g id="Group" opacity="0.1" transform="translate(56.736842, 22.000000)" fill="#000000">
                    <rect id="Rectangle" x="0" y="0.75" width="25.037037" height="5.25"></rect>
                </g>
                <polygon id="Path" fill="#06AE88" points="100.487903 26 70.2783453 5.16514432 41.0318873 25.9817318 38.7368421 23.4241871 70.2424853 1 102.736842 23.4059189"></polygon>
            </g>
        </g>
    </g>
</svg>