<svg xmlns="http://www.w3.org/2000/svg" xmlns:xlink="http://www.w3.org/1999/xlink" width="21" height="16" viewBox="0 0 21 16">
    <defs>
        <path id="a" d="M0 0h260v1236H0z"/>
    </defs>
    <g fill="none" fill-rule="evenodd" transform="translate(-22 -187)">
        <path fill="#F2F2F4" d="M0 0h1440v940H0z"/>
        <mask id="b" fill="#fff">
            <use xlink:href="#a"/>
        </mask>
        <use fill="#F2F4F4" xlink:href="#a"/>
        <g mask="url(#b)">
            <path fill="#475F7B" class='svgClass' fill-rule="nonzero" d="M29.157 195.145h-1.161a.856.856 0 0 1-.573-.213 1.117 1.117 0 0 1-.37-.56 1.389 1.389 0 0 1-.017-.694 1.09 1.09 0 0 1 .337-.58l6.28-5.577a1.945 1.945 0 0 1 1.313-.521c.472 0 .91.174 1.314.502l1.414 1.254v-.675c0-.232.168-.444.387-.444h2.273c.202 0 .37.193.37.444v3.339l1.886 1.66c.169.154.287.347.354.579.05.231.05.463-.017.694a1.117 1.117 0 0 1-.37.56.924.924 0 0 1-.573.212h-1.246v5.424c0 .675-.235 1.293-.623 1.737-.387.444-.926.714-1.515.714h-7.324c-.59 0-1.128-.27-1.516-.714-.387-.444-.623-1.062-.623-1.737v-5.404z"/>
            <path fill="#475F7B" class='svgClass' fill-rule="nonzero" stroke="#F2F4F4" d="M33.757 189.244a4.246 4.246 0 0 0-6.955 4.553l-3.305 3.304a1.698 1.698 0 1 0 2.402 2.402l3.305-3.305a4.246 4.246 0 0 0 4.553-6.954zm-3.464 3.463a1 1 0 1 1 1.413-1.414 1 1 0 0 1-1.413 1.414z"/>
        </g>
    </g>
</svg>
