<svg xmlns="http://www.w3.org/2000/svg" xmlns:xlink="http://www.w3.org/1999/xlink" width="16" height="20" viewBox="0 0 16 20">
    <defs>
        <rect id="b" width="1079" height="583" x="310" y="62" rx="10"/>
        <filter id="a" width="106.9%" height="112.7%" x="-3.4%" y="-6%" filterUnits="objectBoundingBox">
            <feOffset dy="2" in="SourceAlpha" result="shadowOffsetOuter1"/>
            <feGaussianBlur in="shadowOffsetOuter1" result="shadowBlurOuter1" stdDeviation="12"/>
            <feColorMatrix in="shadowBlurOuter1" values="0 0 0 0 0.75110394 0 0 0 0 0.75110394 0 0 0 0 0.75110394 0 0 0 0.5 0"/>
        </filter>
    </defs>
    <g fill="none" fill-rule="evenodd">
        <path fill="#F2F4F4" d="M-350-447h1440v940H-350z"/>
        <g transform="translate(-350 -447)">
            <use fill="#000" filter="url(#a)" xlink:href="#b"/>
            <use fill="#FFF" xlink:href="#b"/>
        </g>
        <g transform="translate(-16 -296)">
            <rect width="244" height="470" fill="#F3F5F8" rx="10"/>
            <path fill="#475F7B" d="M24.684 315.705C27.48 312.728 32 308.122 32 304.583c0-4.213-3.569-7.583-7.97-7.583-4.461 0-8.03 3.37-8.03 7.583 0 3.539 4.52 8.145 7.316 11.122a.94.94 0 0 0 1.368 0zm-.654-14.717c2.082 0 3.806 1.573 3.806 3.595 0 1.966-1.724 3.595-3.806 3.595-2.142 0-3.866-1.629-3.866-3.595 0-2.022 1.724-3.595 3.866-3.595z"/>
        </g>
    </g>
</svg>
